<?xml version="1.0" encoding="UTF-8"?>
<svg id="Layer_1" xmlns="http://www.w3.org/2000/svg" viewBox="0 0 679.48 465.18">
  <defs>
    <style>
      .cls-1 {
        fill: #fff;
      }
    </style>
  </defs>
  <rect width="602.07" height="465.18" rx="86.94" ry="86.94"/>
  <circle cx="288.3" cy="319.26" r="3.48"/>
  <g>
    <path d="M470.42,418s-.01.01-.01.01c.16-.02.33-.03.5-.05.72-.1,1.14-.57,1.13-1.12-.6.42-.89.65-1.55,1.11-.04.02-.04.03-.07.05Z"/>
    <path d="M351.93,431.32c.36-.09.61-.42.61-.78,0-.03-.01-.07-.01-.1-.07-.58-.13-1.17-.2-1.75-1.14.3-2.27.6-3.41.89.36,1.3,1.68,2.1,3.01,1.74Z"/>
    <path class="cls-1" d="M475.88,255.78c.03-2-1.49-3.66-3.47-3.84-.19-.02-.38-.02-.57-.02-3.4.01-6.15,2.79-6.43,6.18-.85,10.51-3.02,37.36-4.1,52.35-1.28,17.69-2.59,35.39-3.5,53.1-.01.19-.04.39-.1.57l-.03.1c-.71,2.25,2.06,3.95,3.75,2.3l.05-.05c5.41-5.29,8.46-12.56,8.36-20.12-.38-26.75,5.84-76.73,6.06-90.56Z"/>
    <path class="cls-1" d="M415.76,147.42c-7.17-.56-8.97,14.04-9.94,18.6,10.52-2.32,19.82-13.84,13.28-24.89-1.19-2.02-2.42-2.94-3.6-3.1-3.57-.5-6.73,5.74-7.2,9.16,3.2-2.08,5.99-3.56,8.1-2.58,1.45.67.95,2.93-.64,2.81Z"/>
    <path class="cls-1" d="M286.1,141.52c-6.89,10.49,5.69,22.33,14.68,24.5-1.1-8.02-1.87-16.86-9.92-18.54-1.65-.35-1.77-2.8-.11-3.12,2.15-.4,4.01,3.05,7.22,2.74-.19-4.85-3.27-9.41-6.87-9.22-1.64.09-3.38,1.17-5,3.64Z"/>
    <path class="cls-1" d="M401.43,155.37c-4.56,17.33-8.82,20.55-22.74,28.73-3.73,2.2-6.81,5.43-10.65,7.44-.55.29-1.14.53-1.73.76-2.34.9-5.02.28-6.65-1.62-3.04-3.54-7.48-6.41-12.03-1.83-.12.13-.25.27-.36.41-1.71,2.09-4.33,2.19-6.99,1.68-3.8-.74-5.97-1.88-8.47-3.31-4.19-2.4-10.47-5.77-14.12-8.91-12.88-11.1-14.15-27.32-14.89-43.32-.49-10.56,5.38-12.42,14.34-11-5.61,3.86-8.12,3.63-8.43,9.42,4.96-.66,9.87-1.98,14.87-1.98,4.51,0,8.92,1.32,13.37,1.98,0-1.49.84-3.24,0-4.46-1.52-2.24-4.29-3.31-6.44-4.96h46.08c-4.48,3.25-8,3.76-7.43,8.92,11.63-1.22,17.43-1.62,28.24.99-1.58-4.04-5.04-7.2-8.42-9.91,2.29-.25,4.63-1.12,6.91-1.21.76-.03,1.51.03,2.25.22,8.37,2.2,4.74,26.45,3.29,31.96Z"/>
    <path class="cls-1" d="M132.83,208.13c-.1-3.04-1.93-4.73-4.03-4.87-.3-.02-.61-.01-.91.03-1.47.21-2.96,1.17-4.01,2.94-3.35,5.63.56,12,4.24,16.27,2.41,2.8,5.81,3.68,9.17,4.95-.49-2.94-.74-6.39-1.86-9.2-.51-1.28-1.71-1.58-2.67-2.1-1.01-.54-.6-2.07.55-2.07h.01c-.79-3.99-2.82-3.49-6.26-3.12-.72.08-1.22-.71-.84-1.34,1.71-2.8,3.1-3.24,6.61-1.49Z"/>
    <path class="cls-1" d="M145.22,305.74c2.26,10.64,5.61,19.7,9.9,29.73,4.03-7.64,5.13-16.07,9.42-23.79q-9.67-2.97-19.32-5.94Z"/>
    <path class="cls-1" d="M233.42,193.53c-8.2-5.56-17.17-9.94-25.29-15.62-3.4-2.39-10.92-6.79-15.4-11.2-1.1-1.07.26-2.84,1.58-2.05,14.11,8.34,29.72,20.8,45.04,26.13-7.71-4.97-15.5-9.81-23.11-14.93-23.87-22.04-35.95-23.8-82.92,15.92,9.9-5.29,29.85-18.29,43.96-26.49,1.87-1.09,3.81,1.34,2.32,2.9-5.93,6.25-15.51,10.52-17.6,12.14-9.84,7.54-25.07,9.89-24.71,24.58.98,40.4,43.09,72.86,78.77,44.84,14.78-11.6,18.65-27.79,20.82-46.08.35-3.01-.47-8.11-3.46-10.14ZM147.2,197.73c.55-4.42,7.21-6.88,13.03-6.66,4.52.16,8.54,1.95,8.77,5.67-8.21-.49-14.17-1.2-21.8.99ZM213.81,190.99c.63-.04,1.27-.04,1.92,0,5.15.24,10.24,2.48,10.24,6.25-6.9-1.89-13.71-.96-20.8-.5.19-3.7,4.19-5.52,8.64-5.75Z"/>
    <path class="cls-1" d="M392.44,280.96c-4.46,18.08-7.45,36.59-13.37,54.25-7.16,21.34-20.26,40.6-25.76,62.43-2.54,10.05-2.12,20.63-.98,31.05,12.11-3.23,23.86-7.36,35.17-12.31-.63-1.13-.97-2.45-.91-3.87,1.83-41.17,2.94-65.92,5.85-131.55ZM364.39,405.07c-5.02,5.03-12.72-2.83-7.62-7.67,1.29-1.22,2.75-1.7,4.14-1.64,4.15.19,7.57,5.22,3.48,9.31Z"/>
    <path class="cls-1" d="M426.8,246.82c-.2-.54-.74-.87-1.25-.63-.67.32-1.29.89-.9,2.07,2.36,7.03,5.05,13.94,7.49,20.94,2.1,6.77.15,9.84-5.82,13.12-.67.36-6.91,3.76-9.55,4.84-.52.21-.83.74-.73,1.29,0,.08.03.17.04.25.13,1.07,1.28,1.61,2.26,1.15,9.09-4.26,21-8.16,17.44-19.32-1.84-4.79-7.82-20.55-8.98-23.71Z"/>
    <path class="cls-1" d="M294.3,288.45c-.01.08-.03.17-.04.25-.13,1.07-1.28,1.61-2.26,1.15-6.84-3.21-15.28-6.21-17.51-12.26,1.05-.59,2.09-1.19,3.12-1.8.69,2.67,2.82,4.56,6.41,6.53.67.36,6.91,3.76,9.55,4.84.52.21.83.74.73,1.29Z"/>
    <path class="cls-1" d="M347.67,397.83c1.21-6.67,4.02-10.58,3.33-16.82-1.05-9.49-8.5-17.09-12.56-25.72-6.69-14.22-11.04-25.67-14.98-40.82-2.92-11.2-5.16-22.55-7.81-33.81-.42-1.79-.43-4.17-1.98-5.15,1.56,15.17,3.41,30.3,4.68,45.49,1.68,20.28-.16,41.1,4.73,60.85.94,3.8,2.69,7.38,4.4,10.9,4.79,9.85,9.51,19.77,14.77,29.37,1.69,3.08,1.27,6.58-.55,9.15,2.42-.53,4.83-1.09,7.22-1.7-.02-.08-.05-.15-.07-.24-1.77-10.37-3.08-21.12-1.18-31.51Z"/>
    <path class="cls-1" d="M431.77,313.66c-5.59-3.67-17.05-10.33-20.38-12.07-.34-.18-.77-.07-.99.25,0,.01-.01.01-.01.02-.28.41-.1.98.37,1.15,3.74,1.3,13.19,7.69,17.5,11.24,1.36,1.12,1.89,2.95,1.34,4.62-2.03,6.05-11.3,33.32-13.31,39.51-.97,2.96-3.56,12.25-4.91,18.23-.23,1.04,1.24,1.52,1.65.54,2.56-6.09,5.88-15.94,6.78-18.65,1.42-4.22,3.11-8.35,4.34-12.63.73-2.53,8.13-23.18,9.43-27.04.65-1.92-.11-4.05-1.81-5.17Z"/>
    <path class="cls-1" d="M274.38,313.66c5.59-3.67,17.05-10.33,20.38-12.07.34-.18.77-.07.99.25,0,.01.01.01.01.02.28.41.1.98-.37,1.15-3.74,1.3-13.19,7.69-17.5,11.24-1.36,1.12-1.89,2.95-1.34,4.62,2.03,6.05,11.3,33.32,13.31,39.51.97,2.96,3.56,12.25,4.91,18.23.23,1.04-1.24,1.52-1.65.54-2.56-6.09-5.88-15.94-6.78-18.65-1.42-4.22-3.11-8.35-4.34-12.63-.73-2.53-8.13-23.18-9.43-27.04-.65-1.92.11-4.05,1.81-5.17Z"/>
    <path class="cls-1" d="M394.33,219.76c-.5-1.8-3.25-1.19-3.03.67.43,3.68.89,7.45-1.16,10.24-5.43,12.9-24.56,8.61-18.11,23.33.61,1.39.68,2.98.07,4.37-.82,1.85-1.96,2.08-2.94,1.82-1.18-.32-2.01-1.36-2.24-2.56-.45-2.37-1.41-7.43-2.06-11.48-.4-2.47.94-4.91,3.25-5.88,5.97-2.53,13.5-3.58,15.7-9.28,3.26-8.5.96-18.22.71-27.32-11.8,11.8-31.43,18.26-47.33,10.5-5.68-2.78-10.73-6.67-16.09-10-.32,8.05-3.98,17.13-.08,24.18,4.55,8.27,19.18,7.11,20.77,16.82.52,3.14-.18,6.38-.61,9.54-.19,1.43-.33,2.38-.5,3.09-.5,2.15-3.4,2.51-4.39.53l-.02-.04c-.69-1.37-.56-2.99.29-4.25,1.77-2.65,2.07-6.75.58-9.49-2.56-4.7-9.38-5.18-13.82-8.18-5.95-4.02-7.77-8.14-8.38-13.78-.17-1.58-2.45-1.64-2.71-.07-3.63,21.25,18.67,100.03,37.42,143.4,2.12,4.9,9.09,4.85,11.09-.1,18.64-45.97,33.78-124.63,33.84-125.4.47-5.97.33-11.95.09-17.92-.04-1.05-.13-1.96-.34-2.74ZM381.48,264.04c-7.3,3.25-14.82,5.99-22.23,8.99,4.53,1.51,7.23,1.93,10.93,4.56,9.03,6.42,2.87,14.14-3.22,7.52-.66-.72.21-1.81,1.05-1.32,6.59,3.83,5.21-3.93-5.56-6.87-.73-.2-1.39.51-1.14,1.22,3.49,9.62,8.64,21.54,6.55,31.99-.65,3.26-8.62,8.05-9.11,2.8-.7-7.6-1.04-15.24-1.24-22.86-.14-5.95,2.16-8.15-1.19-12.19-3.67-4.42-8.06,4.63-8.96,6.8-4.28,10.38-6.47,21.78-4.35,32.71.43,2.24-2.86,3.01-3.47.81-.28-1.03-.38-2.25-.36-3.49.14-12.28,1.32-25.31,7.53-36.11.2-.36-.15-.78-.54-.63-5.08,2.02-6,1.98-10.72,4.38-2.52,1.27-3.46.65-2.84.03,2.65-3.48,10.1-6.14,16.73-9.35-6.2-2.77-12.46-5.41-18.61-8.31-5.42-2.56-10.13-4.16-10.13-10.51,2.5,2.44,5.12,5.47,8.43,6.93,8.31,3.68,16.8,7.39,25.76,8.92,2.26.39,7.05-2.45,7.93-2.78,5.58-2.08,16.19-7.62,22.79-7.62-1.09,2.47-.91,2.99-4.03,4.38Z"/>
    <path class="cls-1" d="M203.84,330.24c2.57,1.59,4.84,2.74,7.76,2.74-2.66-13.26-6.92-22.1-19.82-27.74,2.39,16.51-5.45,14.2,12.06,25Z"/>
    <path class="cls-1" d="M185.35,281.46c5.28-5.61,8.55-5.85,14.36-.99,7.31-11.42,8.68-2.99,7.44-20.31-15.2,6.7-25.14,5.03-40.63,0-.2,3.22-.49,6.43-.59,9.65-.13,4.25,3.63,5.8,5.05,9.67,6.95-4.71,8.43-3.77,14.37,1.98Z"/>
    <path class="cls-1" d="M237.37,226.96c4.18-.9,6.13-.79,8.8-3.9,3.08-3.6,6.24-8.31,5.19-13.19-.88-4.09-3.4-6.56-5.84-6.58-1.89-.01-3.73,1.47-4.68,4.84,3.18-1.59,4.84-.73,6.24,1.65.33.56-.1,1.28-.76,1.22-1.14-.1-2.11-.22-2.92-.22-1.96,0-3.04.67-3.56,3.79,1.11,0,1.78,1.22,1.2,2.16-2.17,3.54-2.78,4.04-3.67,10.23Z"/>
    <path class="cls-1" d="M183.86,303.26c-2.51.24,0,5.04.05,7.56.28,14.37,12.86-8.79-.05-7.56Z"/>
    <path class="cls-1" d="M194.26,145.21c13.45,11.82,26.14,22.06,42.12,30.23-14.37-9.6-28.42-19.7-42.12-30.23Z"/>
    <path class="cls-1" d="M176.7,371.29c3.32,3.32,6.72,1.23,10.78,2.55,1.6.52,3.88,2.48,4.9,1.15,6.41-8.33,8.56-19.46,15.26-27.63q-22.79-.25-45.58-.5c3.25,5.86,8.75,18.54,14.64,24.43ZM183.61,352.31c.55-.17,1.08-.26,1.59-.31,7.67-.72,11.12,10.69,2.38,13.32-9.33,2.79-12.89-10.37-3.97-13.01Z"/>
    <path class="cls-1" d="M185.84,321.59c-3.68,6.72-10.93,11.23-17.9,14-3.41,1.35-7.8,1.36-10.2,4.13,6.16,3.16,16.84,2.46,22.8,2.48,6.07.02,12.15-.1,18.21-.26,4.2-.11,10.94.71,13.35-3.51-5.57-2.25-9.27-3.34-14.11-6.54-4.83-3.2-7.66-7.35-12.15-10.3Z"/>
    <path class="cls-1" d="M161.07,332.49c3.99,0,8.18-2.32,11.39-4.46,10.42-6.94,10.91-11.1,7.43-23.03-11.75,3.09-15.61,17.88-18.82,27.49Z"/>
    <path class="cls-1" d="M360.43,309.86c-.07,7.39,6.09.88,6.36-3.27-.06-8.1-2.8-20.16-6.09-22.78-2.61-1.54-.92,15.88-.35,22.73.09,1.11.1,2.21.08,3.32Z"/>
    <path class="cls-1" d="M291.34,267.2c-4.5,3.01-9.08,5.87-13.73,8.59-1.03.61-2.07,1.21-3.12,1.8-22.15,12.58-45.96,22.04-70.81,28.89-.14-.78-1.06-1.9-.4-2.34,11.06-7.35,23.28-12.84,34.34-20.2,6.95-4.63,13.42-9.94,19.95-15.16.45-.37-.04-1.07-.54-.76-17.96,11.13-20.3,12.59-42.45,26.33,11.91-11.76,25.76-21.37,35.46-35.61.71-1.04-.68-2.22-1.6-1.36-15.45,14.49-28.05,28.17-38.45,38.07-3.4,3.25-7.84,5.21-11.76,7.81,14.72-18.35,30.01-36.26,44.14-55.06,5.3-7.06,10.13-14.47,14.08-22.37,1.22-2.43,2.2-5.21,1.73-7.85-1.57-8.77-4.78-17.22-8.18-25.46-4.14-10.04-13.82-30.73-24.49-52.77-17.11-35.36-68.03-34.04-83.21,2.19-6.13,14.65-11.78,29.45-17.22,44.09-3.89,10.48-8.27,20.99-9.83,32.06-.52,3.69,2,7.27,3.85,10.51,5.11,8.98,10.82,17.64,16.95,25.98,12.18,16.57,25.26,32.45,37.9,48.68-4.34-.96-8.4-3.55-11.52-6.72-13.74-13.96-26.98-28.41-40.43-42.65-.32-.33-.85.07-.61.46,2.8,4.71,7.95,12.06,8.47,12.68,7.55,8.94,15.85,17.21,23.78,25.82-22.59-14.5-23.5-15.08-44.35-28.46-.2-.13-.41.15-.23.31,7.91,6.62,15.48,13.7,24.01,19.48,11.61,7.86,24.29,14.04,36.42,21.06-1.07.58-2.03,2.04-3.22,1.74-9.38-2.41-18.47-5.93-27.44-9.61-20.26-8.3-48.6-21.73-66.94-34.25-3.3-2.25-5.08-6.49-4.58-10.45,1.24-9.68,4.35-16.37,9.1-24.9,15.99-28.7,32.58-57.06,49.64-85.13,2.33-3.84,5.33-8.64,8.75-14.01,23.75-37.31,78.22-36.96,101.62.58,22.24,35.67,42.78,72.46,62.14,109.66,5.15,9.9,2.06,22.13-7.22,28.33Z"/>
    <path class="cls-1" d="M225.23,305.74c-.7-.07-1.4-.07-2.09,0-4.83.45-9.33,3.81-14.01,5.45,3.32,6.81,5.52,12.96,7.43,20.31,3.04-7.87,6.12-15.72,9.12-23.6.15-.4.78-2.04-.45-2.16Z"/>
    <path class="cls-1" d="M172.96,149.42c-11.1,8.83-22.49,16.6-34.19,25.02,8.45-3.62,15.29-9.23,22.36-14.99,4.01-3.27,9.91-5.23,11.83-10.03Z"/>
    <path class="cls-1" d="M325.08,170.03c2.96,7.9,16.02,10.19,22.78,11.41,12.74,2.31,31.1-2.98,37.77-14.93.58-1.02-.22-2.32-1.39-2.23,0,0-.02.01-.03.01-2.63.22-6.04,2.23-8.09,2.61-7.41,1.38-14.87,2.38-22.32,3.58,1.23,3.41,2.82,4.93,5.49,6.42.69.39.52,1.42-.26,1.57-3.41.67-7.01.46-10.54.42-.72,0-1.07-.88-.55-1.37,2.65-2.53,7.27-7.61,3.39-7.79-4.32-.19-8.64.15-12.95,0-3.67-.12-7.3-.68-10.96-.8-.86-.03-2.64.29-2.34,1.1Z"/>
    <path class="cls-1" d="M395.1,93.63s0,.08,0,.11c0,0,0,0,0,0v-.11h0Z"/>
    <path class="cls-1" d="M394.82,67.4c0-11.73-9.51-21.24-21.24-21.24h-47.89c-11.73,0-21.24,9.51-21.24,21.24l-.45,11.23h1.45c.27-.11.56-.17.87-.17h86.22c.23,0,.44.07.64.17h1.76l-.12-11.23Z"/>
    <path class="cls-1" d="M453.18,101.35c-12.18-3.11-30.94-6.4-58.07-7.61v.1s0-.06,0-.1c-.15,0-.29-.01-.43-.02h-88.35c-.21,0-.4-.03-.59-.09h-4.89c-20.17,1.64-35.62,4.49-46.7,7.22-7.74,1.91-8.65,9.54-1.03,11.88,1.8.55,5.31,1.12,6.37,1.26,2.78.37,6.55,1.11,11.11,1.96,10.1.34,23.88.55,39.41,1.32,32.13,1.6,70.28.34,91.22.34,6.04,0,16.6.32,19.5,0,13.28-1.51,24.01-3.32,32.16-4.96,6.04-1.22,6.25-9.77.28-11.3Z"/>
    <path class="cls-1" d="M395.1,93.74s0,.08,0,.1v-.1s0,0,0,0Z"/>
  </g>
  <path class="cls-1" d="M510.48,224.2l-18.91-1.3c-2.55-.18-4.76,1.75-4.94,4.3l-.61,8.95c-.43,6.29-5.88,11.03-12.16,10.6h0c-6.29-.43-11.03-5.88-10.6-12.16l.61-8.95c.18-2.55-1.75-4.76-4.3-4.94l-18.91-1.3c-2.82-.19-4.81-2.85-4.21-5.61l11.39-52.03c.21-.94,1.57-.86,1.66.1l3.42,35.31c.22,2.25,2.03,4.02,4.29,4.17l6.12.42c2.14.15,4.1-1.19,4.74-3.24l10.6-33.88c.26-.85,1.49-.76,1.63.11l5.87,35.01c.35,2.11,2.11,3.71,4.25,3.85l6.12.42c2.26.16,4.3-1.35,4.82-3.55l8.22-34.51c.22-.93,1.58-.83,1.66.13l4.17,53.1c.22,2.82-2.11,5.18-4.93,4.98Z"/>
</svg>