<?xml version="1.0" standalone="no"?>
<!DOCTYPE svg PUBLIC "-//W3C//DTD SVG 20010904//EN"
 "http://www.w3.org/TR/2001/REC-SVG-20010904/DTD/svg10.dtd">
<svg version="1.0" xmlns="http://www.w3.org/2000/svg"
 width="1600.000000pt" height="1132.000000pt" viewBox="0 0 1600.000000 1132.000000"
 preserveAspectRatio="xMidYMid meet">

<g transform="translate(0.000000,1132.000000) scale(0.100000,-0.100000)"
fill="#000000" stroke="none">
<path d="M8100 10774 c-91 -19 -164 -50 -242 -101 -155 -101 -230 -256 -209
-432 11 -89 5 -89 109 -1 49 41 53 48 47 75 -21 91 -23 114 -14 157 21 96 144
189 272 204 49 6 57 4 57 -9 0 -31 -81 -592 -96 -672 -19 -93 -31 -119 -73
-159 l-30 -29 -61 13 -61 13 -55 -54 c-60 -59 -67 -79 -28 -79 14 0 23 -4 20
-8 -3 -5 -45 -12 -93 -15 -154 -10 -478 -65 -602 -103 -25 -7 -47 -11 -49 -9
-2 2 10 40 27 84 34 89 40 151 15 172 -22 18 -39 -6 -48 -69 -6 -47 -38 -112
-55 -112 -4 0 -14 19 -20 43 -21 78 -92 421 -103 502 -6 44 -15 83 -20 86 -14
9 -97 -7 -158 -30 -171 -66 -299 -237 -331 -442 -21 -136 16 -320 81 -401 18
-22 30 -41 29 -42 -2 -2 -76 -41 -164 -86 -88 -46 -202 -109 -253 -141 -51
-33 -95 -59 -97 -59 -3 0 14 28 38 63 183 267 145 675 -83 880 -129 116 -302
117 -510 5 -166 -90 -375 -276 -452 -403 -102 -168 -104 -345 -7 -496 36 -57
108 -124 119 -112 5 4 16 48 25 98 16 85 16 90 -1 100 -45 26 -104 90 -120
131 -20 52 -15 105 15 167 25 52 112 162 129 162 12 0 271 -446 343 -590 65
-130 63 -188 -8 -219 -21 -9 -45 -21 -53 -25 -18 -10 -43 -161 -29 -176 6 -6
32 3 72 25 l62 34 -121 -119 c-169 -168 -260 -272 -384 -439 l-74 -98 -13 57
c-7 31 -27 86 -44 121 -27 57 -33 64 -60 64 -37 0 -37 -13 1 -85 31 -59 40
-115 18 -115 -21 1 -269 197 -421 333 l-78 70 -39 -38 c-43 -42 -93 -130 -115
-202 -19 -62 -19 -193 0 -268 24 -97 87 -214 147 -274 102 -103 200 -161 273
-161 19 0 35 -2 35 -5 0 -3 -15 -36 -33 -73 -19 -37 -44 -93 -57 -125 l-23
-59 -12 34 c-26 73 -71 151 -107 184 -42 37 -68 43 -89 18 -11 -14 -9 -19 14
-36 34 -24 87 -100 87 -124 0 -27 -52 -13 -227 62 -238 101 -303 124 -355 124
-39 0 -50 -4 -68 -27 -51 -65 -3 -217 112 -353 32 -39 57 -70 55 -70 -2 0 -41
13 -87 30 -96 33 -136 37 -167 15 -28 -20 -46 -84 -37 -133 11 -62 63 -160
120 -228 30 -35 48 -64 41 -64 -7 0 -42 11 -77 25 -170 67 -231 -8 -147 -179
33 -65 102 -146 125 -146 5 0 17 6 27 14 19 13 18 16 -23 60 -39 42 -62 82
-62 107 0 6 15 7 38 3 41 -8 572 -210 586 -224 10 -10 -14 -280 -25 -280 -4 0
-20 16 -34 35 -41 53 -113 97 -155 93 -55 -5 -50 -30 14 -66 54 -31 86 -64 86
-89 0 -25 -37 -21 -840 97 -177 26 -270 72 -311 153 -19 36 -21 52 -15 122 l6
81 -59 58 c-33 32 -63 56 -69 52 -15 -9 -22 -101 -12 -163 14 -82 61 -172 128
-241 135 -141 271 -197 577 -241 44 -6 177 -26 295 -43 118 -18 254 -32 302
-33 l88 0 0 -129 c0 -84 -3 -127 -10 -120 -5 5 -31 41 -57 79 -37 54 -54 71
-76 73 -36 4 -42 -14 -17 -63 38 -75 27 -94 -80 -138 -241 -98 -663 -172 -785
-138 -64 17 -63 32 -15 -271 35 -224 97 -381 188 -480 128 -138 306 -166 485
-76 20 10 37 24 37 31 -1 6 -35 35 -76 64 l-76 51 -49 -30 c-40 -25 -63 -32
-122 -35 -65 -4 -76 -2 -113 23 -46 30 -94 102 -118 179 -17 53 -50 285 -41
293 2 3 21 -10 40 -27 92 -80 184 -117 387 -156 308 -59 346 -67 415 -91 81
-29 98 -44 107 -96 7 -37 54 -87 116 -125 28 -16 68 -110 53 -123 -4 -4 -48
-17 -98 -30 -368 -95 -659 -227 -900 -409 -123 -93 -118 -79 -79 -227 14 -55
26 -105 27 -112 1 -7 -65 -41 -158 -82 -88 -39 -185 -81 -215 -95 -30 -13
-102 -44 -160 -69 -114 -49 -142 -73 -119 -105 8 -11 64 -62 124 -113 139
-120 242 -230 268 -288 17 -39 19 -58 14 -165 -3 -66 -16 -174 -28 -240 -28
-149 -30 -204 -8 -218 16 -10 51 5 219 96 49 27 353 189 567 303 180 97 204
111 219 132 8 12 26 81 39 154 44 235 65 341 68 343 11 10 119 60 173 80 111
42 339 94 479 109 l51 6 62 -88 c141 -199 392 -471 582 -631 108 -91 107 -91
195 -157 309 -232 604 -396 945 -524 461 -174 871 -249 1352 -250 357 0 616
30 943 111 579 144 1112 420 1585 824 19 16 105 100 191 185 165 165 283 301
383 442 l61 87 55 -6 c101 -9 354 -63 445 -95 131 -45 224 -93 229 -121 6 -23
17 -86 61 -329 15 -81 32 -151 39 -156 6 -5 56 -33 111 -62 55 -29 118 -63
140 -75 48 -27 462 -249 685 -367 44 -23 56 -23 73 3 13 18 13 28 0 82 -26
110 -53 320 -53 410 0 69 4 97 21 130 23 46 227 253 326 330 69 55 79 71 61
99 -8 11 -148 78 -333 158 -202 87 -319 143 -318 152 1 7 13 57 27 112 32 120
32 137 4 162 -142 122 -338 241 -538 327 -99 42 -374 132 -485 158 -72 17 -76
22 -59 71 56 159 129 469 154 656 l13 94 24 -50 c25 -52 120 -150 174 -177 22
-12 34 -13 49 -5 29 16 25 26 -24 59 -45 31 -96 85 -96 102 0 5 12 9 28 9 34
0 444 -85 532 -110 43 -13 68 -16 76 -9 31 26 45 196 23 289 -31 136 -157 291
-296 363 -128 67 -294 95 -383 64 -19 -7 -44 -26 -56 -44 l-21 -32 -6 92 c-4
51 -9 142 -13 202 l-6 110 29 -41 c38 -51 110 -113 141 -121 29 -7 73 12 66
29 -3 7 -25 25 -49 40 -52 32 -81 79 -65 108 15 29 62 34 315 35 l230 0 12
-120 c12 -117 14 -121 45 -148 69 -58 88 -69 93 -55 3 7 -3 81 -13 163 -10 83
-17 153 -15 158 2 4 42 7 89 7 98 0 98 1 57 85 l-27 55 -73 0 -73 0 0 38 c0
33 -6 42 -54 80 -30 23 -60 42 -66 42 -8 0 -9 -22 -5 -78 l7 -79 -265 -6
c-210 -5 -273 -10 -305 -22 -41 -17 -72 -51 -72 -80 0 -9 -4 -13 -10 -10 -5 3
-10 17 -10 30 0 28 -45 278 -63 350 l-13 50 42 -40 c47 -46 174 -115 211 -115
34 0 63 18 63 39 0 13 -13 21 -52 29 -53 13 -118 47 -118 62 0 21 57 34 348
75 507 72 551 77 646 73 73 -3 100 -9 135 -28 54 -30 93 -98 101 -174 l5 -50
74 -44 c88 -52 100 -47 82 30 -19 85 -57 156 -115 213 -66 64 -135 105 -241
141 -73 25 -93 28 -225 28 -118 1 -201 -7 -445 -42 -444 -63 -495 -75 -510
-123 -9 -27 -22 -16 -29 24 -4 19 -26 96 -51 172 -24 77 -43 140 -42 141 1 1
29 -20 62 -48 132 -110 163 -131 190 -124 30 8 33 36 5 53 -27 17 -52 70 -45
93 15 48 206 179 420 287 184 92 263 122 355 132 38 4 64 11 63 18 -5 25 -108
255 -148 331 -68 128 -160 248 -227 297 -109 81 -227 109 -336 81 -83 -21
-129 -45 -188 -100 -57 -53 -58 -53 59 -92 l78 -26 53 50 c118 111 244 100
344 -31 51 -67 163 -299 150 -313 -3 -2 -21 4 -39 15 -99 57 -271 69 -543 36
-165 -19 -350 -22 -389 -7 -17 7 -34 26 -42 46 -8 19 -20 38 -27 43 -22 14
-122 53 -136 53 -18 0 -11 -20 55 -163 55 -117 68 -166 23 -84 -65 119 -152
251 -264 402 -49 66 -92 122 -95 125 -3 3 -23 26 -44 52 -46 58 -49 61 -115
130 l-54 55 71 -5 c113 -8 235 22 247 61 10 33 -10 41 -62 23 -75 -26 -157
-20 -136 9 20 28 363 316 444 374 21 14 38 32 38 40 0 23 -142 157 -195 183
-208 105 -494 54 -673 -119 -74 -73 -112 -134 -112 -183 0 -27 -14 -41 -22
-22 -6 14 -120 97 -263 192 -77 50 -142 94 -144 96 -3 3 10 3 29 2 32 -3 38 2
106 92 112 147 204 217 340 262 75 24 119 19 165 -19 l31 -26 76 22 c43 12 81
27 87 32 14 14 -2 36 -53 72 -77 56 -192 48 -351 -24 -35 -16 -66 -28 -68 -26
-1 2 21 35 51 74 29 39 56 83 60 96 9 39 -10 75 -49 94 -31 15 -45 16 -115 5
-133 -19 -210 -64 -195 -113 8 -25 17 -24 64 5 52 33 109 44 117 22 3 -9 -2
-29 -12 -46 -26 -41 -342 -455 -358 -469 -10 -8 -30 -2 -85 28 -39 22 -97 51
-127 65 -49 23 -65 46 -31 46 22 0 131 56 165 84 31 27 43 68 23 81 -6 3 -40
-15 -76 -40 -62 -42 -115 -58 -115 -35 0 13 4 20 93 170 163 276 199 342 204
378 4 34 1 42 -22 60 -37 29 -88 28 -177 -3 -91 -32 -146 -68 -154 -101 -12
-46 10 -50 68 -11 50 32 73 41 106 38 19 -1 7 -32 -41 -110 -116 -191 -236
-403 -242 -430 -4 -17 -8 -31 -10 -31 -3 0 -28 10 -57 21 -29 12 -109 41 -178
65 -103 36 -121 44 -100 50 39 12 129 61 171 95 50 40 63 63 49 89 -14 27 -18
26 -65 -16 -55 -50 -107 -74 -160 -74 -91 0 -135 47 -135 142 l0 54 78 10 c68
10 208 56 222 74 3 3 22 16 42 28 75 46 138 145 138 219 0 77 -96 121 -204 93
-114 -29 -281 -161 -361 -285 -71 -110 -95 -247 -60 -332 8 -20 14 -38 12 -40
-2 -1 -45 6 -95 17 -79 16 -179 33 -352 56 l-45 6 60 20 c69 24 150 73 189
115 70 74 89 209 42 301 -26 52 -85 111 -138 138 -30 16 -31 18 -14 28 159 95
222 201 195 327 -26 121 -158 179 -404 178 -66 0 -149 -7 -185 -15z m298 -105
c101 -23 148 -81 140 -173 -6 -69 -41 -124 -112 -173 -44 -30 -55 -33 -122
-33 -55 0 -74 3 -74 13 0 29 50 368 55 377 6 9 35 7 113 -11z m-22 -499 c128
-73 183 -212 128 -322 -38 -75 -134 -97 -331 -78 -73 7 -133 16 -133 20 0 4
12 16 28 25 82 53 110 113 133 293 l12 92 56 0 c44 0 67 -7 107 -30z m897 -21
c30 -16 37 -28 37 -71 0 -88 -126 -161 -245 -144 -51 8 -55 18 -25 74 59 112
166 176 233 141z m-2584 -91 c21 -108 22 -137 11 -218 -20 -146 -95 -299 -158
-321 -57 -21 -110 104 -119 281 -11 210 53 308 199 310 l57 0 10 -52z m-1059
-138 c100 -29 216 -155 272 -295 26 -67 32 -98 36 -186 7 -154 -10 -203 -96
-289 -58 -57 -242 -185 -295 -206 -16 -6 -17 -3 -10 22 4 16 8 56 8 89 0 67
-17 108 -116 275 -116 197 -249 438 -249 451 0 19 127 97 204 125 67 25 184
32 246 14z m1171 -411 c-3 -3 -37 -18 -76 -32 -38 -14 -79 -29 -90 -33 -18 -7
-18 -6 3 27 28 43 76 144 92 195 6 22 14 46 17 54 2 8 17 -34 33 -95 15 -60
25 -113 21 -116z m1455 -39 c400 -32 849 -140 1154 -278 25 -11 77 -34 115
-51 98 -45 312 -163 425 -236 251 -162 512 -382 720 -610 83 -91 191 -224 240
-295 13 -19 27 -37 30 -40 3 -3 27 -38 53 -78 243 -371 395 -712 499 -1112 80
-312 111 -562 112 -905 1 -473 -88 -925 -269 -1370 -42 -102 -124 -273 -134
-279 -17 -11 -193 252 -242 360 -84 185 -85 381 -4 679 18 66 38 139 44 162
26 98 113 130 429 158 l72 7 0 30 c0 17 -6 74 -14 127 -8 53 -19 137 -25 186
-6 50 -23 182 -37 295 -14 113 -33 268 -43 344 l-17 139 -36 -79 c-46 -97 -59
-156 -97 -454 -33 -249 -59 -377 -82 -391 -8 -5 -39 -9 -69 -9 -103 0 -91 -26
-133 303 -21 161 -42 315 -47 342 -5 28 -14 103 -21 168 -7 64 -15 117 -19
117 -4 0 -23 -42 -42 -92 -35 -91 -55 -198 -88 -473 -26 -211 -50 -329 -71
-347 -25 -21 -143 -26 -155 -6 -4 6 -22 126 -40 267 -46 361 -76 513 -111 569
-15 25 -32 46 -38 46 -20 2 -55 -211 -60 -364 -2 -63 -13 -197 -25 -298 -11
-101 -18 -188 -15 -193 4 -5 1 -9 -6 -9 -9 0 -10 16 -6 58 4 31 16 143 27 247
21 197 23 231 16 224 -16 -16 -49 -351 -48 -494 0 -88 -4 -177 -9 -198 -9 -34
-8 -40 13 -57 25 -20 132 -35 322 -45 60 -3 112 -7 115 -10 6 -6 -28 -586 -38
-631 l-6 -32 -195 123 c-306 193 -365 247 -487 454 -69 115 -154 204 -246 255
-38 21 -70 43 -73 50 -6 16 94 230 142 302 43 64 75 87 154 111 78 23 150 98
173 180 33 115 19 193 -44 263 -67 74 -84 130 -51 169 27 34 241 90 632 166
308 60 461 115 496 181 31 58 5 95 -98 134 l-53 20 48 -45 48 -45 -19 -28
c-40 -56 -56 -62 -263 -108 -524 -117 -984 -170 -1544 -181 -496 -9 -921 14
-1419 76 -127 16 -265 32 -306 36 -184 16 -262 50 -374 163 -100 101 -220 276
-324 471 -73 138 -177 261 -220 261 -28 0 -90 -78 -271 -340 -104 -151 -193
-279 -198 -285 -21 -24 -410 -616 -500 -761 -226 -361 -439 -725 -573 -979
-29 -55 -56 -104 -61 -110 -28 -38 -259 -508 -259 -529 0 -48 19 -72 101 -129
99 -68 158 -103 379 -227 91 -50 166 -93 168 -95 8 -8 -355 -525 -369 -525
-21 0 -197 311 -277 490 -221 494 -322 978 -322 1540 0 219 17 401 59 625 31
163 99 415 145 537 68 181 100 254 166 388 430 867 1188 1524 2110 1830 425
141 945 205 1386 170z m2804 -305 c31 -16 84 -79 94 -112 6 -17 -3 -30 -51
-69 -156 -127 -427 -187 -522 -115 -33 25 -23 60 37 123 145 155 333 229 442
173z m-480 -399 c52 -6 192 4 256 20 25 6 17 -5 -54 -72 -57 -55 -82 -86 -82
-102 0 -13 -4 -22 -9 -20 -4 2 -55 47 -112 101 -61 57 -94 94 -79 89 14 -5 50
-12 80 -16z m-6223 -540 c88 -83 133 -152 168 -253 48 -143 41 -225 -21 -231
-41 -4 -161 75 -236 156 -107 117 -137 226 -85 314 24 41 70 87 89 88 3 0 42
-33 85 -74z m281 -222 c31 -26 72 -54 90 -62 17 -9 32 -20 32 -24 0 -5 -23
-48 -52 -95 l-52 -87 -18 92 c-10 51 -29 122 -43 157 -13 36 -22 65 -19 65 3
0 31 -21 62 -46z m1979 -265 c18 -20 21 -28 11 -32 -9 -4 -7 -6 4 -6 22 -1 51
-44 54 -79 3 -25 2 -26 -11 -8 -8 10 -13 22 -10 25 2 4 -5 18 -16 31 -13 17
-17 19 -13 7 5 -13 -2 -10 -23 10 -21 21 -27 33 -21 46 7 13 4 17 -12 17 -14
0 -20 -6 -18 -16 2 -10 -3 -19 -10 -21 -7 -3 -12 -1 -11 4 4 22 -3 23 -21 2
-10 -13 -19 -19 -20 -13 0 15 57 64 66 56 4 -4 4 1 1 10 -3 9 -1 19 6 21 7 2
14 -3 15 -12 2 -9 15 -28 29 -42z m4917 17 c27 -8 88 -18 138 -22 l90 -7 51
-106 c28 -58 61 -115 75 -126 l24 -20 -99 -67 c-54 -37 -128 -95 -166 -128
-57 -52 -68 -59 -73 -43 -19 59 -94 229 -152 346 -53 107 -53 108 34 80 30 -9
57 -14 60 -10 3 3 -5 31 -19 61 -14 31 -22 56 -18 56 4 0 29 -6 55 -14z m811
-2 c33 -8 63 -18 68 -23 4 -4 -37 -25 -90 -45 -90 -35 -183 -81 -290 -143
l-42 -24 -56 111 c-38 77 -52 112 -43 115 77 26 365 32 453 9z m-5871 -78 c-3
-9 -10 -16 -15 -16 -5 0 -4 9 3 20 14 22 21 20 12 -4z m29 -33 c-66 -101 -90
-133 -97 -126 -3 3 -6 -2 -6 -12 0 -14 -3 -16 -11 -8 -7 7 -3 18 16 37 31 31
24 55 -7 26 -12 -11 -24 -17 -27 -15 -2 3 5 12 17 21 12 8 22 24 22 36 0 12 8
22 21 25 16 4 17 8 7 14 -9 6 -9 9 -1 9 20 0 24 -17 8 -33 -16 -17 -20 -37 -7
-37 12 0 42 56 34 65 -4 5 -1 5 6 1 8 -5 12 1 12 18 0 18 4 24 15 20 8 -4 15
-1 15 5 0 6 5 11 10 11 6 0 -7 -26 -27 -57z m227 -65 c0 -5 -4 -8 -10 -8 -5 0
-10 10 -10 23 0 18 2 19 10 7 5 -8 10 -18 10 -22z m44 -58 c33 -46 35 -51 23
-79 l-13 -30 -18 29 c-9 17 -14 36 -10 43 4 6 4 9 -1 5 -13 -12 -36 28 -28 48
4 12 3 15 -5 10 -7 -4 -12 -3 -12 3 0 5 6 12 13 14 6 3 13 6 14 6 0 1 17 -21
37 -49z m-428 -8 c-17 -16 -18 -16 -5 5 7 12 15 20 18 17 3 -2 -3 -12 -13 -22z
m-7 -66 c1 -4 -5 -6 -12 -3 -7 3 -18 -3 -24 -12 -8 -13 -6 -23 8 -42 11 -13
17 -17 13 -8 -6 20 11 34 22 18 5 -8 3 -9 -5 -5 -8 6 -11 2 -9 -10 5 -27 -32
-31 -39 -5 -6 23 -23 29 -23 8 0 -8 -9 -22 -20 -32 -31 -28 -24 -9 19 48 21
29 41 61 46 72 l7 20 8 -20 c5 -11 9 -24 9 -29z m41 31 c0 -4 4 -5 10 -2 6 3
7 -1 3 -10 -4 -12 -8 -13 -13 -5 -4 7 -12 10 -18 6 -5 -3 -12 0 -15 7 -3 8 3
13 14 13 11 0 19 -4 19 -9z m450 -37 c0 -5 10 -19 23 -30 14 -14 16 -19 6 -15
-11 4 -18 -1 -22 -15 -6 -25 1 -50 15 -50 5 0 7 -4 4 -9 -3 -5 4 -32 17 -60
21 -49 23 -50 37 -31 19 26 30 26 30 -1 0 -11 -3 -18 -7 -16 -5 3 -8 -9 -9
-26 l-1 -32 13 30 c17 38 17 58 2 73 -17 17 -25 15 -33 -10 -4 -15 -8 -19 -12
-10 -3 8 0 19 6 25 14 14 15 47 1 47 -5 0 -10 -8 -10 -17 0 -12 -3 -14 -11 -6
-10 10 -17 32 -18 61 -1 7 -5 10 -11 7 -5 -3 -10 -2 -10 4 0 15 20 24 21 9 0
-9 2 -10 5 -1 3 7 26 -18 52 -55 36 -52 46 -77 48 -112 1 -25 3 -47 4 -50 1
-3 2 -9 1 -13 -1 -5 4 -7 11 -5 7 3 14 12 16 21 3 12 -1 15 -15 11 -14 -5 -15
-4 -4 4 8 6 11 17 8 27 -4 9 -3 14 3 10 6 -3 10 -13 10 -21 0 -8 5 -14 10 -14
15 0 12 -33 -5 -66 -9 -19 -11 -32 -5 -38 6 -6 10 -17 10 -25 -1 -22 -39 28
-40 50 0 31 -27 82 -35 69 -4 -7 -3 -15 3 -19 6 -3 14 -20 18 -36 4 -17 16
-47 27 -68 l20 -39 15 34 c8 18 14 44 13 57 -1 20 5 17 49 -29 28 -29 50 -57
50 -62 0 -5 11 -24 25 -42 14 -18 25 -38 25 -44 0 -7 4 -12 9 -12 5 0 12 -7
15 -16 3 -9 2 -12 -5 -9 -6 4 -13 -2 -16 -14 -3 -12 -12 -21 -21 -21 -13 0
-12 3 2 19 10 11 16 25 14 32 -5 14 -68 -68 -68 -88 0 -26 -20 -12 -40 27 -24
48 -25 52 -3 48 10 -2 22 7 30 22 l13 25 0 -31 c0 -17 3 -34 7 -37 9 -9 32 24
33 46 0 11 5 15 11 11 6 -3 3 6 -7 20 -13 21 -19 24 -26 14 -6 -9 -8 -7 -6 7
3 37 -2 56 -12 50 -5 -3 -10 0 -10 8 0 8 -7 17 -15 21 -8 3 -15 12 -15 21 0
12 -4 11 -20 -5 -21 -21 -28 -56 -8 -44 7 5 8 3 3 -7 -5 -7 -8 -26 -7 -42 4
-45 -11 -25 -68 90 -30 59 -58 110 -62 111 -5 2 -4 10 3 18 7 8 9 18 5 21 -4
4 -11 1 -16 -7 -7 -12 -10 -12 -10 -2 0 17 -62 145 -74 153 -5 4 -6 11 -3 16
12 19 17 73 7 73 -5 0 -10 -5 -10 -12 0 -6 -2 -9 -5 -6 -8 7 5 38 16 38 5 0 9
-4 9 -10z m-2959 -59 c30 -10 136 -53 237 -96 120 -50 202 -79 238 -82 30 -3
54 -10 54 -15 0 -4 -18 -62 -40 -128 -22 -66 -40 -128 -40 -137 -1 -16 -2 -16
-13 -3 -7 8 -50 30 -97 49 -47 19 -107 45 -135 59 -182 89 -372 357 -264 371
3 1 30 -7 60 -18z m2942 2 c-3 -7 -6 -13 -8 -13 -2 0 -5 6 -8 13 -3 8 1 14 8
14 7 0 11 -6 8 -14z m-507 -37 c7 -18 -108 -234 -132 -249 -7 -4 -11 -14 -8
-21 5 -12 -32 -96 -42 -96 -10 0 11 56 25 67 9 6 13 15 9 19 -4 4 -14 1 -23
-6 -12 -10 -15 -10 -15 4 0 9 -8 16 -17 16 -15 0 -16 2 -3 10 9 5 19 5 27 -1
15 -13 33 -3 33 17 0 8 4 14 9 14 5 0 7 9 4 20 -7 28 -23 25 -23 -5 0 -14 -4
-25 -10 -25 -14 0 -13 33 2 48 9 9 9 12 0 12 -7 0 -15 -8 -19 -17 -3 -10 -15
-28 -26 -40 -19 -21 -19 -24 -4 -41 18 -19 28 -104 15 -124 -5 -9 -8 -4 -9 12
-1 38 -9 93 -13 98 -3 2 -15 -6 -28 -17 -18 -18 -20 -24 -9 -30 10 -7 6 -9
-12 -8 -14 1 -22 7 -19 12 3 6 23 36 44 68 21 32 38 63 38 68 0 5 7 12 15 15
8 4 15 10 15 15 0 4 21 40 47 79 30 45 50 67 56 61 6 -6 17 -1 29 15 22 27 36
31 44 10z m759 -246 c3 -5 1 -10 -4 -10 -6 0 -11 5 -11 10 0 6 2 10 4 10 3 0
8 -4 11 -10z m9 -85 c3 -8 1 -15 -4 -15 -6 0 -10 7 -10 15 0 8 2 15 4 15 2 0
6 -7 10 -15z m-3089 -108 c324 -126 298 -113 290 -145 -4 -15 -20 -88 -35
-162 -22 -110 -28 -129 -34 -105 -4 17 -9 35 -11 41 -1 5 -53 29 -114 53 -60
23 -137 60 -169 82 -123 82 -255 254 -237 310 6 19 13 21 49 16 22 -2 140 -43
261 -90z m2006 40 c-14 -14 -15 -30 -1 -22 6 4 10 3 9 -2 -5 -30 2 -35 21 -18
27 24 35 14 10 -13 -22 -23 -26 -42 -10 -42 6 0 10 7 10 15 0 20 16 19 24 -1
9 -24 -3 -61 -14 -44 -8 13 -26 20 -57 22 -7 1 -13 5 -13 9 0 4 -3 14 -6 23
-4 11 -1 16 10 16 9 0 16 5 16 10 0 18 -29 10 -44 -12 -21 -29 -20 -44 1 -27
14 12 16 12 11 -1 -2 -8 -13 -15 -24 -15 -17 0 -19 -7 -18 -60 1 -33 -1 -52
-3 -42 -3 9 -10 17 -16 17 -8 0 -7 4 1 12 17 17 15 33 -3 18 -8 -7 -15 -25
-15 -41 0 -16 -5 -29 -10 -29 -6 0 -14 -10 -19 -22 l-8 -23 -8 24 c-4 13 -3
26 3 30 5 3 27 38 49 76 54 96 107 173 112 162 2 -5 -2 -14 -8 -20z m96 -9
c-3 -7 -5 -2 -5 12 0 14 2 19 5 13 2 -7 2 -19 0 -25z m1488 -33 c364 -57 405
-66 449 -96 62 -42 67 -93 16 -164 -77 -106 -84 -124 -83 -202 3 -142 90 -266
214 -303 37 -11 71 -26 76 -33 5 -6 26 -55 46 -107 22 -56 58 -124 87 -164 28
-38 50 -77 50 -88 0 -12 -25 -36 -67 -66 -37 -26 -104 -82 -149 -125 l-81 -77
-64 92 c-96 139 -140 212 -277 458 -68 124 -147 263 -175 310 -63 106 -321
523 -353 571 -30 44 -30 53 -1 46 12 -4 153 -27 312 -52z m-1480 5 c-4 -6 -11
-7 -17 -4 -7 5 -9 -2 -4 -22 7 -27 6 -28 -10 -12 -14 14 -15 20 -4 32 14 17
45 22 35 6z m955 0 c0 -5 -2 -10 -4 -10 -3 0 -8 5 -11 10 -3 6 -1 10 4 10 6 0
11 -4 11 -10z m30 0 c0 -5 -2 -10 -4 -10 -3 0 -8 5 -11 10 -3 6 -1 10 4 10 6
0 11 -4 11 -10z m47 -22 c-3 -7 -5 -2 -5 12 0 14 2 19 5 13 2 -7 2 -19 0 -25z
m90 -60 c-6 -4 -15 -2 -19 5 -4 6 -2 15 5 19 6 4 15 2 19 -5 4 -6 2 -15 -5
-19z m-1197 -75 c-12 -21 -18 -29 -14 -18 4 11 8 31 9 45 4 43 5 45 16 28 7
-13 4 -27 -11 -55z m1231 60 c1 -5 3 -21 5 -38 l3 -30 -19 23 c-21 25 -35 29
-26 6 3 -8 2 -12 -4 -9 -14 9 -12 21 6 39 16 17 33 21 35 9z m2452 -29 c61
-70 61 -288 0 -494 -49 -163 -101 -233 -242 -320 -40 -25 -103 -67 -139 -93
-57 -41 -172 -103 -176 -95 -1 2 -14 20 -29 41 -66 88 -152 88 -206 -1 l-25
-41 -28 24 c-15 13 -51 31 -80 40 -52 17 -128 54 -138 66 -3 4 -25 17 -50 30
-70 36 -182 153 -218 229 -54 112 -82 259 -85 444 -2 86 1 105 18 130 23 34
70 56 123 56 51 0 58 -9 23 -29 -55 -31 -71 -48 -77 -81 l-7 -33 59 9 c75 11
233 11 300 0 48 -8 52 -7 59 12 9 29 -8 57 -53 87 l-37 25 323 0 324 0 -44
-33 c-33 -25 -44 -41 -46 -66 l-3 -32 38 7 c58 12 262 9 317 -5 27 -6 51 -10
53 -7 8 8 -44 82 -77 109 -21 18 -27 28 -18 31 7 3 20 7 28 9 8 3 32 6 53 6
28 1 43 -5 60 -25z m-2571 -61 c5 -6 15 -10 22 -7 8 3 16 -5 21 -18 l7 -23 8
25 9 25 -2 -25 c-1 -14 -8 -25 -15 -25 -7 0 -16 -6 -21 -13 -6 -9 -16 3 -33
40 -14 29 -23 58 -20 63 4 6 8 1 10 -10 2 -11 8 -25 14 -32z m156 22 c-3 -3
-9 2 -12 12 -6 14 -5 15 5 6 7 -7 10 -15 7 -18z m-112 4 c4 -8 9 -7 15 2 6 10
9 10 9 2 0 -18 -21 -27 -30 -13 -4 7 -15 10 -24 7 -9 -4 -16 -2 -16 3 0 14 37
13 46 -1z m144 -61 c0 -4 -4 -8 -8 -8 -5 0 -7 -13 -4 -30 3 -21 0 -30 -9 -30
-9 0 -14 13 -14 39 -1 22 2 38 6 35 4 -2 5 6 2 18 -4 22 -4 23 11 4 9 -11 16
-23 16 -28z m-1410 0 c0 -5 -6 -8 -14 -8 -8 0 -13 8 -11 18 2 9 4 19 4 22 2 7
21 -23 21 -32z m-73 -55 c0 -21 -2 -30 -4 -20 -2 9 -9 17 -15 17 -5 0 -7 -7
-4 -16 3 -8 2 -12 -4 -9 -6 3 -10 13 -10 21 0 8 -5 14 -11 14 -5 0 -7 5 -3 11
4 8 9 8 13 1 4 -6 12 -7 20 -3 9 6 10 11 2 15 -6 4 -11 12 -11 18 0 7 4 7 13
-1 8 -6 14 -28 14 -48z m97 -3 c-1 -43 1 -47 13 -32 11 14 11 12 1 -17 -10
-30 -12 -32 -19 -15 -14 34 -10 114 5 114 1 0 1 -22 0 -50z m44 19 c-9 -27
-12 -29 -20 -15 -12 22 -3 46 16 46 12 0 13 -5 4 -31z m1366 14 c6 -20 33 -66
59 -103 21 -30 22 -47 2 -30 -8 7 -15 19 -15 26 0 8 -4 14 -10 14 -14 0 -12
-23 3 -39 10 -11 9 -13 -3 -9 -10 3 -15 18 -15 46 0 29 -6 47 -22 62 -23 21
-31 50 -14 50 5 0 11 -8 15 -17z m-153 -66 c-7 -7 -13 -3 -19 14 -14 37 -2 57
15 24 11 -19 12 -30 4 -38z m-1417 -4 c-27 -27 -36 -53 -24 -68 6 -8 7 -16 2
-19 -5 -3 -8 -18 -5 -33 3 -27 3 -27 -8 -5 -7 12 -15 22 -19 22 -13 0 -32 -29
-28 -42 2 -6 -1 -28 -8 -47 -10 -29 -17 -36 -42 -37 l-30 -2 17 29 c18 33 35
39 26 9 -4 -11 -2 -20 4 -20 6 0 10 17 9 40 -1 21 5 46 12 56 18 21 38 54 46
77 3 9 9 17 13 17 3 0 12 14 20 31 9 21 16 27 21 18 5 -7 2 -18 -6 -26z m1571
17 c3 -5 -3 -10 -15 -10 -12 0 -18 5 -15 10 3 6 10 10 15 10 5 0 12 -4 15 -10z
m829 -54 c28 -36 40 -71 31 -86 -5 -8 -11 -7 -21 1 -8 6 -14 8 -14 5 0 -4 -7
0 -16 8 -21 21 -70 21 -78 0 -8 -20 -11 -18 41 -33 48 -13 84 -54 106 -117 16
-44 31 -144 22 -144 -22 0 -112 58 -153 99 -94 94 -107 199 -33 272 44 45 79
43 115 -5z m1803 -13 c22 -38 28 -60 28 -108 0 -52 -5 -68 -34 -114 -34 -52
-108 -111 -159 -126 -22 -6 -23 -5 -17 32 12 70 45 168 64 190 26 31 65 45 96
33 33 -12 33 3 0 36 -27 27 -57 25 -104 -5 -24 -15 -24 -15 -17 14 13 50 53
95 86 95 24 0 34 -8 57 -47z m-2780 15 c-3 -8 -6 -5 -6 6 -1 11 2 17 5 13 3
-3 4 -12 1 -19z m-1298 -100 c-18 -40 -36 -77 -40 -81 -12 -15 -21 50 -10 71
6 11 8 22 5 25 -12 12 8 46 26 44 14 -1 18 -6 14 -19 -10 -31 7 -19 18 13 6
16 13 28 15 25 3 -3 -10 -38 -28 -78z m749 42 c18 -11 41 -34 52 -52 23 -38
64 -157 57 -164 -2 -3 -28 23 -56 56 -28 34 -51 58 -51 53 0 -15 102 -145 119
-151 9 -3 50 -37 91 -75 66 -62 247 -189 415 -292 76 -46 36 -36 -78 21 -126
63 -221 130 -323 228 -49 47 -90 84 -91 82 -9 -8 33 -98 65 -140 30 -40 73
-71 231 -166 107 -64 202 -128 212 -141 28 -37 33 -97 14 -213 -53 -339 -176
-534 -416 -656 -110 -56 -178 -73 -289 -73 -256 0 -494 160 -634 425 -72 136
-114 357 -86 457 13 51 91 133 156 166 106 54 205 118 226 147 24 35 58 94 58
103 0 3 -30 -19 -67 -48 -38 -30 -93 -71 -124 -90 -59 -38 -252 -137 -266
-137 -4 0 42 32 102 71 129 84 239 167 319 240 l58 52 -8 -39 -7 -39 44 49
c53 59 91 114 125 179 30 58 20 60 -23 4 -52 -68 -103 -123 -103 -111 0 17 36
116 58 159 51 100 145 141 220 95z m600 0 c7 -12 17 -18 22 -15 15 9 12 -2 -6
-19 -8 -9 -12 -21 -8 -27 5 -8 9 -8 14 1 5 8 8 -2 7 -24 l-1 -36 -19 37 c-39
80 -47 103 -34 103 7 0 18 -9 25 -20z m246 -109 c-6 -6 -44 36 -44 48 0 5 -4
11 -10 13 -5 2 -7 13 -4 25 5 19 10 15 34 -30 15 -29 26 -54 24 -56z m-1774
59 c0 -5 -4 -10 -10 -10 -5 0 -10 5 -10 10 0 6 5 10 10 10 6 0 10 -4 10 -10z
m646 -58 c-3 -5 -43 -35 -88 -66 -46 -32 -122 -87 -170 -125 -83 -64 -168
-118 -168 -107 0 3 44 36 98 74 53 39 149 108 212 155 104 78 132 95 116 69z
m1108 -9 c8 -21 -3 -31 -13 -14 -7 11 -10 11 -14 0 -3 -8 -6 -2 -6 13 -1 20 3
26 13 22 8 -3 17 -13 20 -21z m-549 -63 c50 -36 137 -99 195 -140 116 -80 146
-106 85 -70 -94 55 -290 196 -370 266 -46 40 -10 18 90 -56z m585 50 c0 -5 -5
-10 -11 -10 -5 0 -7 5 -4 10 3 6 8 10 11 10 2 0 4 -4 4 -10z m-1669 -19 c7 12
9 11 8 -1 0 -8 -4 -24 -9 -35 -7 -16 -9 -17 -9 -3 -1 9 -3 22 -4 30 -2 7 -2 9
1 4 2 -4 8 -2 13 5z m1469 -38 c0 -22 -8 -14 -19 20 -10 29 -9 30 4 13 8 -11
15 -26 15 -33z m39 19 c-11 -30 -12 -52 -1 -35 5 7 8 -4 9 -27 2 -52 -10 -58
-30 -15 -9 18 -12 35 -7 37 5 2 11 17 15 33 5 22 4 26 -4 15 -5 -8 -13 -11
-16 -8 -11 11 4 27 24 25 16 -1 17 -5 10 -25z m200 -14 c11 -21 16 -38 10 -38
-6 0 -9 -6 -7 -12 3 -7 -1 -26 -8 -43 l-13 -30 -2 35 c-3 63 -5 129 -3 127 1
-1 11 -19 23 -39z m-1952 -13 c-4 -8 -11 -15 -17 -15 -6 0 -6 7 2 20 14 22 24
19 15 -5z m184 -5 c5 0 9 7 9 15 0 8 5 15 10 15 6 0 10 -7 10 -15 0 -8 -5 -15
-11 -15 -6 0 -9 -6 -6 -12 19 -47 20 -51 10 -45 -6 4 -14 1 -16 -5 -3 -8 -6
-6 -6 5 -1 9 -5 17 -9 17 -4 0 -8 17 -8 38 -1 20 1 29 3 20 3 -10 9 -18 14
-18z m-191 -25 c0 -11 -40 -48 -46 -43 -8 9 19 48 33 48 7 0 13 -2 13 -5z
m2029 -78 c22 -37 41 -75 41 -83 0 -9 10 -26 22 -39 23 -24 37 -71 17 -59 -7
4 -9 0 -5 -12 3 -11 1 -26 -4 -34 -6 -10 -8 1 -5 33 3 28 1 46 -4 42 -5 -3
-12 4 -16 15 -3 11 -10 20 -14 20 -5 0 -11 18 -14 41 -6 44 -13 57 -24 45 -4
-4 -2 -16 5 -26 7 -11 8 -20 3 -20 -5 0 -12 -8 -14 -17 -3 -10 -4 8 -3 40 2
31 0 57 -3 57 -7 0 -31 50 -31 64 0 13 2 10 49 -67z m-2022 11 c-3 -7 -5 -2
-5 12 0 14 2 19 5 13 2 -7 2 -19 0 -25z m-25 0 c-7 -7 -12 -8 -12 -2 0 14 12
26 19 19 2 -3 -1 -11 -7 -17z m-22 2 c0 -5 -4 -10 -10 -10 -5 0 -10 5 -10 10
0 6 5 10 10 10 6 0 10 -4 10 -10z m241 -4 c5 3 4 -7 -3 -23 -16 -38 -28 -51
-28 -31 0 9 5 20 10 23 6 4 8 16 5 28 -2 12 -2 16 1 9 3 -6 10 -10 15 -6z
m1784 4 c3 -5 1 -10 -4 -10 -6 0 -11 5 -11 10 0 6 2 10 4 10 3 0 8 -4 11 -10z
m3190 -52 c-2 -35 -4 -75 -4 -90 -1 -16 -6 -28 -12 -28 -6 0 -8 17 -4 48 3 26
8 66 11 90 8 63 13 51 9 -20z m-5251 15 c-4 -16 -15 -35 -26 -44 -10 -9 -18
-23 -18 -31 0 -8 -9 -24 -20 -36 -13 -13 -18 -31 -16 -49 2 -15 1 -22 -1 -15
-5 14 -23 16 -23 3 0 -5 -3 -17 -6 -25 -5 -12 -2 -15 10 -10 12 4 15 2 10 -9
-8 -22 -31 -28 -38 -11 -6 15 20 70 69 149 13 22 32 55 41 73 20 39 27 41 18
5z m1866 16 c0 6 4 11 10 11 5 0 7 -13 4 -29 -3 -16 -2 -31 4 -35 5 -3 13 10
16 29 4 19 11 35 16 35 4 0 4 -16 -2 -36 -5 -20 -6 -40 -1 -43 4 -3 9 -20 9
-38 1 -17 12 -46 24 -62 14 -21 17 -31 8 -31 -21 0 -36 13 -40 35 -1 11 -13
40 -25 64 -13 24 -23 50 -23 57 0 8 -4 14 -9 14 -5 0 -11 9 -14 21 -4 16 -3
18 9 8 10 -8 14 -8 14 0z m-1643 -97 c2 -29 -49 -191 -55 -173 -2 5 1 18 7 29
7 13 7 22 -1 30 -8 8 -6 15 6 27 17 18 22 45 7 45 -5 0 -11 -8 -13 -17 -3 -10
-4 0 -4 23 0 33 3 38 13 28 7 -7 13 -17 13 -23 0 -6 5 -11 10 -11 13 0 13 27
0 35 -9 6 -3 35 9 35 3 0 7 -12 8 -28z m-227 -25 c0 -10 -4 -15 -10 -12 -5 3
-10 18 -10 33 0 21 2 24 10 12 5 -8 10 -23 10 -33z m2130 -13 c0 -8 -7 -14
-15 -14 -17 0 -18 2 -9 24 7 18 24 12 24 -10z m-2160 -4 c0 -5 -5 -10 -11 -10
-5 0 -7 5 -4 10 3 6 8 10 11 10 2 0 4 -4 4 -10z m2034 -31 c-3 -5 -10 -7 -15
-3 -5 3 -7 10 -3 15 3 5 10 7 15 3 5 -3 7 -10 3 -15z m226 -45 c0 -6 -7 -11
-15 -11 -15 0 -21 28 -8 40 7 8 23 -12 23 -29z m-235 -19 c15 0 19 -46 5 -59
-9 -8 -11 -3 -6 24 6 35 6 35 -5 6 -10 -24 -9 -31 5 -41 9 -7 16 -25 16 -41 0
-26 -3 -24 -24 21 -12 28 -19 52 -14 53 11 5 10 32 -1 32 -5 0 -11 -5 -13 -12
-3 -7 -7 -5 -11 6 -4 10 -3 15 3 11 6 -3 10 -1 10 5 0 7 5 8 13 3 6 -4 17 -8
22 -8z m278 -55 c-6 -7 -23 23 -23 40 0 8 6 4 13 -10 8 -14 12 -27 10 -30z
m-2403 21 c0 -5 -16 -29 -35 -54 -35 -46 -44 -63 -25 -52 6 3 10 1 10 -6 0 -6
-8 -9 -19 -6 -14 3 -23 -6 -39 -40 -13 -28 -16 -43 -8 -40 8 3 12 -7 12 -34
-1 -21 -6 -41 -12 -43 -7 -3 -10 3 -7 15 7 27 -13 24 -21 -3 l-7 -23 -11 22
c-8 17 -6 27 9 50 10 15 30 50 44 76 13 26 33 58 44 69 11 12 20 28 22 36 1 8
8 19 15 23 7 5 9 9 5 9 -5 0 -5 5 -2 10 7 11 25 4 25 -9z m60 -31 c0 -5 -4
-10 -10 -10 -5 0 -10 5 -10 10 0 6 5 10 10 10 6 0 10 -4 10 -10z m220 -11 c0
8 3 12 6 8 7 -7 -33 -123 -53 -154 -8 -12 -12 -26 -9 -31 3 -6 -1 -16 -10 -23
-10 -8 -13 -21 -9 -38 6 -26 6 -26 -9 -4 -15 20 -14 25 9 65 14 23 25 50 25
59 0 9 7 22 15 29 8 7 14 20 14 29 -1 14 -2 14 -6 -1 -2 -9 -10 -19 -18 -22
-11 -4 -11 1 1 27 8 18 18 40 21 50 4 15 8 16 14 5 7 -11 9 -10 9 1z m2130 -3
c-7 -7 -13 -7 -20 0 -6 6 -3 10 10 10 13 0 16 -4 10 -10z m-2170 -11 c0 -8 -4
-15 -10 -15 -5 0 -10 7 -10 15 0 8 5 15 10 15 6 0 10 -7 10 -15z m2190 -23
c-14 -5 -12 -29 3 -35 6 -3 2 -6 -10 -6 -26 -1 -28 6 -12 46 8 22 12 24 19 13
6 -9 6 -16 0 -18z m-37 3 c4 -8 2 -17 -3 -20 -6 -4 -10 3 -10 14 0 25 6 27 13
6z m-2413 -33 c0 -15 -2 -15 -10 -2 -13 20 -13 33 0 25 6 -3 10 -14 10 -23z
m2502 -40 c15 -26 43 -78 63 -117 21 -38 46 -85 57 -102 12 -21 15 -33 8 -33
-7 0 -14 9 -17 20 -7 26 -23 16 -23 -14 0 -25 39 -44 51 -25 7 12 59 -89 59
-114 0 -9 6 -20 14 -24 13 -8 66 -100 66 -115 0 -5 -12 -8 -27 -8 -25 0 -28 4
-30 38 l-2 37 19 -35 c11 -19 19 -28 19 -20 0 21 -38 89 -39 70 -1 -9 -5 -6
-10 8 -5 12 -13 22 -18 22 -5 0 -12 18 -15 41 -6 44 -13 57 -24 45 -4 -4 -2
-16 5 -26 7 -11 8 -20 3 -20 -5 0 -11 -8 -14 -17 -2 -10 -3 8 -3 40 1 53 -1
57 -22 57 -13 0 -29 6 -36 13 -17 17 -32 62 -18 53 5 -3 13 1 16 10 6 17 -37
84 -54 84 -4 0 -6 9 -3 21 5 16 2 20 -13 17 -12 -2 -20 4 -22 17 -4 17 -2 18
12 6 21 -17 22 1 1 37 -51 94 -54 122 -3 34z m4003 -32 c28 -55 98 -142 159
-198 31 -28 56 -52 56 -54 0 -3 -42 4 -92 14 -97 20 -131 17 -162 -10 -18 -17
-18 -15 -12 63 4 44 9 121 11 170 6 109 5 106 14 75 5 -14 16 -41 26 -60z
m365 40 c114 -32 188 -78 248 -154 29 -37 30 -122 3 -183 l-19 -41 -69 15
c-115 25 -224 84 -308 167 -69 67 -114 137 -115 178 0 9 8 24 17 34 14 14 29
16 93 11 41 -4 109 -16 150 -27z m-4684 8 c4 -6 10 -25 14 -42 l8 -31 7 32
c10 42 25 32 24 -15 -1 -32 -2 -34 -8 -12 -5 20 -8 22 -13 9 -4 -9 0 -34 7
-55 8 -22 14 -48 14 -59 0 -18 -28 48 -49 116 -4 14 -13 36 -19 48 -12 22 2
31 15 9z m-1999 -90 c-3 -8 -6 -5 -6 6 -1 11 2 17 5 13 3 -3 4 -12 1 -19z
m-20 -60 c-3 -7 -5 -2 -5 12 0 14 2 19 5 13 2 -7 2 -19 0 -25z m44 -28 c5 -3
0 -35 -11 -70 -32 -102 -29 -157 8 -224 33 -58 36 -79 3 -25 -17 28 -20 29
-35 14 -9 -9 -16 -13 -16 -8 0 5 5 14 10 19 7 7 8 25 2 52 -7 29 -5 63 4 114
8 40 17 87 19 103 5 30 5 30 -6 5 -6 -14 -15 -38 -19 -55 -7 -26 -8 -23 -8 19
1 33 4 44 10 35 7 -10 8 -8 5 9 -3 12 -1 20 4 16 5 -3 9 3 10 13 0 14 2 15 6
3 3 -8 10 -17 14 -20z m213 8 c23 -33 20 -40 -15 -33 -22 5 -36 2 -50 -11 -32
-29 -23 -43 29 -46 44 -3 47 -5 50 -33 2 -16 12 -39 23 -51 19 -20 47 -129 36
-141 -4 -3 -30 6 -60 21 -78 38 -137 127 -137 207 0 66 32 108 82 109 17 0 33
-8 42 -22z m1705 1 c48 -45 53 -110 16 -185 -31 -63 -79 -109 -127 -122 -20
-6 -39 -8 -41 -6 -9 10 14 88 39 130 21 36 23 44 10 44 -19 0 -21 23 -3 38 7
6 33 12 57 14 l45 3 -28 28 c-19 20 -33 26 -47 22 -25 -8 -26 11 -3 37 21 24
54 23 82 -3z m1988 -41 c3 -23 7 -95 7 -158 1 -126 -15 -188 -57 -228 -12 -11
-71 -40 -132 -64 l-110 -43 1 -50 c1 -92 24 -194 51 -225 29 -35 43 -38 43
-10 0 19 46 70 63 70 22 0 119 57 190 112 43 33 81 57 84 54 9 -8 -22 -243
-53 -416 -40 -219 -112 -501 -188 -733 -65 -198 -219 -576 -302 -738 l-27 -54
-61 125 c-268 550 -434 1063 -526 1630 -20 127 -25 190 -14 190 3 0 31 -22 61
-50 38 -35 63 -50 82 -50 42 0 169 -81 198 -126 12 -18 13 -18 31 3 31 36 46
208 22 254 -18 36 -46 55 -145 104 -125 61 -155 92 -169 180 -6 36 19 253 30
264 2 3 38 -19 80 -48 203 -142 373 -170 584 -97 71 25 189 96 224 135 24 26
26 24 33 -31z m-4277 35 c0 -5 -7 -16 -14 -26 -8 -10 -12 -28 -9 -40 5 -22 5
-22 -10 -2 -13 16 -16 17 -17 4 0 -9 -8 -26 -19 -37 -13 -16 -18 -35 -16 -69
1 -27 1 -38 -2 -26 -4 19 -7 21 -24 10 -24 -15 -25 -28 -1 -21 16 5 16 5 0 -6
-10 -6 -18 -20 -18 -32 0 -13 -5 -18 -14 -15 -17 7 -26 -23 -21 -76 3 -35 2
-37 -10 -20 -13 16 -14 17 -15 1 0 -11 -5 -15 -15 -12 -19 8 -19 19 1 38 9 9
17 22 18 29 2 6 8 25 14 40 7 16 12 32 12 36 0 5 7 15 16 22 9 7 20 24 25 37
5 13 14 20 20 16 7 -4 10 -1 7 7 -6 15 11 53 50 112 23 34 42 48 42 30z m2436
-67 c9 -10 12 -25 8 -46 -8 -38 -10 -36 -22 18 -11 45 -8 50 14 28z m-3451
-68 c8 -88 43 -326 51 -352 3 -10 2 -17 -2 -14 -5 2 -21 10 -37 17 -15 8 -29
12 -31 10 -2 -2 0 -29 4 -59 9 -66 5 -76 -21 -51 -27 25 -113 66 -180 85 l-55
16 -23 128 c-13 74 -29 134 -38 145 -9 9 -14 18 -12 20 2 1 49 17 104 35 55
17 127 45 160 61 33 16 63 30 66 30 4 1 10 -32 14 -71z m3495 51 c0 -5 -4 -9
-10 -9 -5 0 -10 7 -10 16 0 8 5 12 10 9 6 -3 10 -10 10 -16z m-2483 -11 c-3
-8 -6 -5 -6 6 -1 11 2 17 5 13 3 -3 4 -12 1 -19z m-47 -28 c0 -5 -5 -10 -11
-10 -5 0 -7 5 -4 10 3 6 8 10 11 10 2 0 4 -4 4 -10z m2530 -5 c0 -2 -7 -5 -15
-9 -9 -3 -15 0 -15 9 0 9 6 12 15 9 8 -4 15 -7 15 -9z m-27 -105 c4 -41 3 -56
-3 -40 -7 21 -8 17 -9 -21 -1 -37 -4 -46 -17 -45 -9 0 -19 -5 -21 -11 -3 -7 4
-13 14 -14 13 0 11 -3 -7 -10 -14 -5 -31 -18 -38 -30 -11 -18 -11 -23 5 -34
16 -12 15 -14 -15 -13 -31 1 -32 2 -17 24 8 12 24 40 36 61 12 21 25 43 30 49
12 14 19 44 26 107 3 26 7 46 8 45 1 -2 5 -32 8 -68z m24 38 c-3 -7 -5 -2 -5
12 0 14 2 19 5 13 2 -7 2 -19 0 -25z m-3919 -65 c20 -96 35 -193 31 -197 -7
-7 -252 40 -311 59 -84 28 -198 90 -198 109 0 3 16 6 34 6 59 0 257 29 331 49
104 27 102 28 113 -26z m3921 15 c0 -31 -1 -31 -10 -10 -5 13 -7 28 -3 33 10
16 14 9 13 -23z m361 -34 c0 -8 -7 -14 -15 -14 -17 0 -18 2 -9 24 7 18 24 12
24 -10z m-2464 -91 c-3 -3 -8 2 -12 11 -3 9 -11 16 -16 16 -6 0 -8 -6 -5 -13
3 -8 -1 -14 -8 -14 -14 0 -8 28 9 39 11 7 42 -30 32 -39z m2090 9 c-11 -11
-16 -12 -16 -4 0 18 24 43 29 30 2 -5 -4 -17 -13 -26z m-1973 -145 c55 -84 60
-107 20 -104 -26 2 -28 5 -29 49 0 26 -3 51 -7 54 -4 4 -7 0 -7 -9 0 -11 -8
-17 -25 -17 -22 0 -24 3 -18 33 3 17 10 34 15 35 4 2 0 16 -11 30 -10 15 -21
38 -25 52 -5 18 0 14 16 -14 13 -21 44 -70 71 -109z m-739 81 c-3 -24 -12 -53
-20 -65 -16 -26 -17 -33 -5 -33 5 0 13 9 16 21 4 11 9 18 12 16 2 -3 -1 -15
-7 -27 -8 -15 -17 -19 -31 -15 -31 10 -51 -13 -43 -48 4 -19 2 -32 -7 -37 -9
-6 -10 -12 -2 -22 6 -7 9 -40 8 -73 -1 -32 3 -67 9 -77 11 -19 46 -25 46 -8 0
6 -7 10 -17 10 -9 0 -14 3 -10 6 3 4 18 3 32 0 l26 -7 -22 -18 -22 -18 29 -19
c21 -15 43 -20 78 -18 44 2 47 1 32 -15 -14 -13 -18 -14 -25 -3 -5 8 -17 12
-27 10 -15 -4 -12 -8 16 -20 34 -15 36 -15 56 9 12 14 27 24 33 22 15 -5 -35
-59 -54 -59 -22 0 -115 59 -152 96 -18 18 -33 28 -35 24 -5 -14 -45 24 -53 50
-7 22 -6 23 9 11 9 -7 16 -20 16 -27 0 -8 5 -14 10 -14 6 0 8 11 4 26 -4 17
-2 29 7 35 7 4 10 11 6 15 -3 4 -13 2 -20 -4 -8 -7 -17 -9 -20 -5 -4 3 2 12
13 20 22 16 25 40 9 63 -8 12 -10 8 -7 -16 3 -23 0 -30 -13 -31 -16 -2 -16 2
-4 35 27 75 46 112 56 112 5 0 7 6 3 13 -4 6 -3 9 1 4 11 -9 45 21 45 40 0 8
-4 11 -10 8 -5 -3 -10 -1 -10 4 0 6 4 11 9 11 5 0 14 14 21 30 17 41 20 38 14
-12z m3230 -9 c8 -16 12 -37 9 -46 -4 -10 -2 -14 4 -10 5 4 15 -5 21 -18 9
-20 9 -25 -3 -25 -9 0 -12 6 -8 17 4 10 2 14 -5 9 -6 -3 -14 -1 -18 5 -4 8 -9
7 -15 -2 -6 -10 -9 -8 -9 9 0 13 6 22 15 22 17 0 20 16 6 24 -5 4 -11 0 -13
-6 -3 -7 -5 2 -5 20 0 17 2 32 3 32 1 0 9 -14 18 -31z m-2571 -30 c-8 -29 -13
-23 -13 14 0 22 3 28 9 18 5 -7 6 -22 4 -32z m1902 -71 c-3 -80 -2 -78 -21
-78 -14 0 -14 3 -4 15 26 31 -7 13 -60 -32 -47 -41 -52 -43 -36 -18 25 38 42
56 49 49 2 -3 19 13 37 36 17 22 27 40 21 40 -6 0 -17 -11 -23 -25 -6 -14 -15
-25 -19 -25 -5 0 6 23 23 50 17 28 32 50 33 50 1 0 1 -28 0 -62z m-1913 0 c-6
-6 -7 0 -4 19 5 21 7 23 10 9 2 -10 0 -22 -6 -28z m2113 12 c3 -5 -2 -10 -12
-10 -25 0 -65 -29 -57 -41 3 -5 1 -8 -4 -7 -5 2 -30 -19 -54 -46 -41 -44 -68
-54 -68 -25 0 6 4 8 9 5 5 -3 14 1 21 9 11 13 10 14 -4 9 -9 -3 -16 -1 -16 5
0 6 17 11 38 12 30 0 33 2 17 9 -18 8 -17 11 1 9 3 0 14 11 25 26 12 14 24 23
28 21 3 -2 18 4 31 15 29 21 36 23 45 9z m-2257 -57 c-6 -7 -14 -11 -17 -7 -3
4 0 9 6 11 10 3 10 10 2 26 -10 21 -9 21 5 3 12 -15 13 -23 4 -33z m46 35 c7
12 47 8 75 -7 13 -7 21 -21 21 -36 0 -20 5 -25 25 -25 14 0 25 -4 25 -10 0 -5
-3 -10 -8 -10 -4 0 -15 -12 -24 -27 -14 -22 -18 -24 -18 -10 0 11 -4 15 -12
11 -6 -4 -8 -3 -4 4 3 6 2 13 -4 17 -5 3 -10 11 -10 16 0 6 5 7 10 4 14 -9 12
29 -2 43 -7 7 -22 12 -34 12 -12 0 -24 5 -26 12 -3 8 -6 9 -11 1 -4 -6 6 -16
23 -23 17 -7 30 -19 30 -27 0 -11 -6 -10 -27 5 -16 11 -37 30 -48 43 -13 15
-14 19 -3 11 9 -7 19 -9 22 -4z m2116 8 c0 -3 -4 -8 -10 -11 -5 -3 -10 -1 -10
4 0 6 5 11 10 11 6 0 10 -2 10 -4z m134 -12 c9 -24 2 -26 -12 -4 -7 11 -8 20
-3 20 5 0 12 -7 15 -16z m-24 -18 c14 -18 13 -19 -2 -13 -9 3 -19 1 -21 -6 -2
-7 -7 -9 -11 -5 -4 3 -2 15 5 27 7 11 14 19 14 18 0 -1 7 -11 15 -21z m558
-73 c11 -22 18 -44 14 -48 -4 -4 1 -12 11 -20 23 -17 14 -34 -39 -72 -41 -31
-44 -31 -40 -10 2 14 9 21 20 19 9 -2 16 2 16 7 0 6 12 17 28 25 20 11 22 15
9 16 -10 0 -29 -7 -42 -16 -35 -23 -34 3 1 31 26 21 26 22 10 48 -10 14 -14
32 -10 38 5 8 3 9 -5 4 -8 -4 -10 -17 -6 -34 4 -14 3 -23 -1 -18 -4 4 -9 30
-10 58 -2 56 2 53 44 -28z m-2799 20 c-9 -10 -9 -20 0 -39 15 -34 15 -34 -15
-34 -22 0 -24 2 -14 15 6 8 10 20 7 27 -4 8 -6 7 -6 -4 -1 -20 -21 -25 -21 -5
1 36 12 55 33 51 12 -2 16 -2 10 2 -7 3 -13 10 -13 16 0 6 6 5 15 -2 12 -10
13 -16 4 -27z m2268 15 c-3 -8 -6 -5 -6 6 -1 11 2 17 5 13 3 -3 4 -12 1 -19z
m-27 2 c0 -5 -5 -10 -11 -10 -5 0 -7 5 -4 10 3 6 8 10 11 10 2 0 4 -4 4 -10z
m-1940 -47 c27 -37 30 -45 14 -39 -15 6 -17 5 -6 -5 6 -7 12 -23 12 -34 0 -24
32 -59 43 -48 4 3 -2 17 -14 29 -13 14 -17 24 -10 29 6 3 11 2 11 -2 0 -5 11
-20 25 -35 13 -15 20 -28 14 -30 -6 -2 -1 -16 11 -31 12 -15 26 -25 31 -22 5
4 9 2 9 -3 0 -5 11 -22 25 -38 14 -16 24 -35 22 -43 -1 -8 4 -16 12 -19 8 -3
11 0 7 7 -15 23 3 10 19 -16 16 -24 16 -26 0 -20 -9 4 -15 4 -13 0 24 -49 32
-63 40 -63 11 0 10 17 -2 25 -5 3 -10 11 -10 17 0 6 9 3 20 -7 14 -13 17 -22
10 -29 -13 -13 -13 -46 0 -46 6 0 10 7 10 15 0 27 17 16 59 -41 32 -42 39 -59
31 -69 -8 -10 -5 -17 12 -29 19 -14 20 -18 9 -26 -12 -7 -12 -11 -2 -24 8 -9
17 -16 22 -16 13 0 -1 52 -19 73 -8 9 -12 20 -8 24 3 4 14 -4 24 -18 16 -23
19 -31 21 -72 1 -10 6 -15 12 -12 6 4 8 13 5 21 -10 26 3 14 35 -32 17 -25 32
-53 34 -62 1 -9 8 -16 14 -14 11 2 63 -49 56 -56 -1 -2 -20 7 -41 19 -42 23
-81 59 -64 59 5 0 10 7 10 15 0 8 -7 15 -15 15 -8 0 -15 -4 -15 -10 0 -5 -5
-10 -11 -10 -6 0 -8 9 -4 23 4 12 3 17 -2 10 -8 -11 -48 18 -82 60 -12 15 -12
17 3 11 9 -3 16 -1 16 5 0 11 -13 15 -36 12 -6 -1 -17 6 -24 14 -11 13 -10 14
6 9 10 -4 16 -4 12 1 -4 4 -3 14 3 21 11 14 4 34 -12 34 -5 0 -9 -9 -9 -20 0
-34 -18 -22 -22 15 -2 19 0 35 4 35 4 0 8 -5 8 -11 0 -5 5 -7 12 -3 8 5 6 11
-5 19 -10 7 -17 18 -18 26 0 8 -7 -1 -15 -20 -11 -24 -12 -37 -5 -44 20 -20
11 -28 -9 -9 -12 11 -18 26 -15 34 4 9 2 19 -4 23 -6 3 -11 -1 -11 -10 0 -9
-5 -13 -11 -9 -8 4 -8 9 0 17 13 13 15 47 2 47 -5 0 -11 -10 -14 -22 -6 -21
-7 -21 -28 6 -13 16 -24 42 -26 59 -2 17 -8 36 -13 42 -8 9 -6 14 5 19 8 3 15
10 15 15 0 16 -61 72 -71 65 -13 -7 19 -44 38 -44 15 0 18 -16 4 -24 -16 -10
-58 49 -58 82 0 41 -10 51 -27 27 -16 -23 -43 -14 -55 18 -5 12 -16 29 -25 36
-22 19 -20 34 4 26 20 -6 28 9 10 20 -6 3 -7 17 -4 31 3 13 2 24 -4 24 -5 0
-12 11 -14 25 -3 14 -4 25 -3 25 1 0 17 -21 35 -47z m1893 41 c-7 -3 -9 -12
-6 -21 5 -11 3 -14 -6 -8 -10 6 -11 3 -1 -15 17 -31 -2 -50 -32 -31 -19 12
-23 11 -34 -4 -7 -9 -11 -22 -8 -29 7 -18 -40 -58 -59 -51 -14 6 -14 8 1 24 9
10 43 45 75 79 33 34 64 62 70 61 9 0 9 -2 0 -5z m-2148 -44 c3 -5 2 -10 -4
-10 -6 0 -8 -8 -5 -17 5 -15 4 -16 -5 -3 -6 8 -11 21 -11 28 0 14 16 16 25 2z
m133 -12 c-4 -27 -28 -36 -28 -10 0 20 8 32 22 32 5 0 8 -10 6 -22z m1772 -23
c0 -5 -4 -4 -9 4 -6 9 -11 10 -15 2 -4 -6 -12 -11 -18 -11 -6 0 -3 9 7 20 14
16 20 17 27 8 4 -7 8 -17 8 -23z m-1873 9 c-3 -3 -12 -4 -19 -1 -8 3 -5 6 6 6
11 1 17 -2 13 -5z m1963 -7 c0 -1 -23 -25 -52 -52 -29 -28 -47 -43 -40 -34 6
9 9 19 5 22 -3 4 1 7 10 7 9 0 19 5 23 12 5 8 2 9 -9 5 -21 -8 -33 11 -17 26
9 9 15 7 26 -7 12 -16 14 -17 14 -4 0 9 8 19 18 21 9 3 18 5 20 6 1 0 2 0 2
-2z m-1917 -22 c-3 -9 -8 -14 -10 -11 -3 3 -2 9 2 15 9 16 15 13 8 -4z m92 5
c3 -5 11 -10 16 -10 6 0 8 4 5 8 -2 4 4 8 14 8 14 0 16 -4 9 -18 -5 -10 -19
-23 -30 -29 -16 -8 -20 -8 -14 1 4 6 -1 20 -11 31 -9 10 -12 19 -6 19 6 0 14
-4 17 -10z m1651 -16 c-4 -9 -9 -15 -11 -12 -3 3 -3 13 1 22 4 9 9 15 11 12 3
-3 3 -13 -1 -22z m-1676 1 c7 -9 11 -17 8 -20 -2 -2 -12 4 -21 15 -9 11 -13
20 -8 20 5 0 14 -7 21 -15z m-55 -14 c-3 -5 6 -21 20 -35 24 -24 36 -64 15
-51 -5 3 -10 15 -10 25 0 13 -5 17 -15 14 -9 -4 -16 0 -16 7 -1 8 -5 1 -9 -16
-6 -23 -8 -25 -9 -8 -1 24 15 73 24 73 4 0 4 -4 0 -9z m1805 -5 c0 -2 -7 -9
-15 -16 -12 -10 -15 -10 -15 4 0 9 7 16 15 16 8 0 15 -2 15 -4z m-78 -19 c3 4
3 2 2 -4 -2 -7 4 -13 13 -13 13 0 14 -2 2 -17 -13 -14 -14 -14 -17 0 -4 22
-32 30 -32 9 0 -9 -7 -26 -15 -36 -21 -27 -19 -42 5 -42 13 0 20 7 21 21 0 17
2 17 11 -5 6 -15 12 -20 15 -12 3 6 9 12 15 12 7 0 7 -4 0 -13 -6 -7 -28 -12
-49 -11 -29 0 -41 -4 -50 -20 -17 -28 -16 -39 2 -33 21 9 27 -9 8 -24 -12 -10
-14 -10 -9 -1 8 14 5 15 -19 6 -13 -5 -14 -8 -3 -15 10 -7 10 -12 -4 -26 -10
-9 -21 -13 -25 -9 -4 4 -1 11 6 15 7 5 11 13 7 19 -3 6 1 15 10 20 12 7 13 11
5 17 -12 7 -18 1 -63 -59 -18 -24 -19 -28 -5 -23 9 3 17 2 17 -4 0 -6 6 -7 13
-3 7 5 6 0 -3 -11 -29 -37 -52 -57 -58 -50 -3 3 7 17 23 30 17 13 25 24 18 25
-7 0 -24 -11 -39 -25 -21 -20 -24 -28 -15 -39 9 -11 4 -20 -28 -45 -27 -21
-41 -27 -44 -19 -3 9 -9 7 -21 -7 -8 -11 -16 -15 -16 -9 0 6 11 21 25 34 13
12 22 26 20 30 -3 4 5 16 18 26 19 16 20 17 8 1 -8 -9 -11 -20 -8 -23 3 -3 14
7 24 23 10 15 24 33 32 39 8 6 16 24 18 40 3 27 2 28 -12 10 -8 -10 -12 -23
-9 -27 3 -5 0 -9 -6 -9 -12 0 -90 -74 -90 -86 0 -3 -12 -20 -26 -36 -18 -22
-22 -34 -14 -42 7 -7 16 -7 30 2 43 26 29 8 -58 -73 -79 -76 -182 -154 -182
-139 0 3 10 15 23 28 24 24 63 73 77 96 5 8 12 11 16 7 4 -4 0 -15 -9 -25 -23
-25 -21 -35 3 -22 11 6 20 20 20 30 0 11 5 21 10 21 6 1 14 2 19 3 16 2 35 25
27 33 -4 4 -11 1 -16 -7 -6 -8 -10 -11 -10 -6 0 5 -9 1 -20 -9 -11 -10 -20
-14 -20 -8 0 16 36 44 45 36 4 -5 5 0 1 11 -6 18 -5 18 19 2 26 -17 35 -7 11
13 -12 10 -5 25 41 91 50 73 62 85 86 81 5 -1 5 4 1 10 -3 6 -2 14 3 18 5 3
37 41 72 84 47 57 67 74 74 65 6 -9 7 -6 4 9 -3 13 0 21 6 20 6 -1 13 7 15 18
7 32 23 47 37 35 7 -6 15 -7 17 -3z m248 -7 c0 -5 -5 -10 -11 -10 -5 0 -7 5
-4 10 3 6 8 10 11 10 2 0 4 -4 4 -10z m-1864 -11 c4 -8 9 -7 15 2 6 10 9 9 14
-6 18 -55 45 -76 74 -58 18 11 19 10 18 -15 -1 -15 -6 -30 -12 -35 -6 -4 0
-10 13 -13 12 -4 22 -12 22 -20 0 -7 6 -11 13 -8 8 3 13 -5 15 -23 2 -26 1
-26 -39 17 -23 25 -68 73 -101 108 -33 34 -56 62 -50 62 6 0 14 -5 18 -11z
m-207 -89 c6 0 11 -4 11 -10 0 -17 20 -11 45 15 30 29 33 18 4 -19 -17 -22
-18 -26 -4 -26 9 0 13 -4 10 -10 -9 -15 -19 -12 -43 11 -13 11 -32 22 -44 24
-25 5 -37 15 -18 15 8 0 -2 11 -21 25 l-34 26 -17 -22 c-15 -17 -18 -18 -18
-5 0 9 8 28 17 43 l17 26 42 -47 c23 -25 47 -46 53 -46z m-9 80 c0 -5 -4 -10
-10 -10 -5 0 -10 5 -10 10 0 6 5 10 10 10 6 0 10 -4 10 -10z m1893 2 c-6 -4
-11 -16 -10 -27 1 -14 -5 -20 -20 -21 -13 -1 -23 1 -23 4 0 11 43 52 54 52 7
0 7 -3 -1 -8z m94 -23 c-9 -11 -13 -28 -10 -35 3 -8 1 -14 -5 -14 -20 0 -20
29 0 55 24 31 37 26 15 -6z m673 16 c-7 -9 -15 -13 -17 -11 -7 7 7 26 19 26 6
0 6 -6 -2 -15z m29 -19 c9 -10 8 -15 -2 -19 -8 -3 -13 3 -14 14 -2 23 1 24 16
5z m-3249 -12 c0 -8 -5 -12 -10 -9 -6 4 -8 11 -5 16 9 14 15 11 15 -7z m719
-19 c6 3 8 12 5 18 -4 7 -1 7 7 -1 12 -11 11 -15 -4 -27 -28 -21 -66 -1 -67
34 0 10 7 8 24 -8 14 -13 29 -20 35 -16z m682 16 c142 -48 329 -54 444 -12 33
12 65 23 70 24 6 1 11 -30 13 -75 l3 -77 -58 -63 -57 -64 -44 24 c-51 29 -89
25 -133 -13 l-30 -24 -45 34 c-53 41 -66 42 -119 15 -22 -11 -40 -20 -41 -20
-1 0 -18 22 -38 49 -34 46 -36 53 -36 128 0 67 4 93 15 93 1 0 26 -8 56 -19z
m1812 -6 c-3 -9 -8 -14 -10 -11 -3 3 -2 9 2 15 9 16 15 13 8 -4z m-718 -23
c-11 -7 -35 -48 -35 -57 0 -4 5 -3 10 0 6 3 10 2 10 -4 0 -16 -18 -22 -23 -9
-4 10 -7 11 -18 1 -7 -7 -17 -13 -22 -13 -12 0 66 89 78 90 7 0 7 -3 0 -8z
m-1715 -16 c0 -8 2 -20 3 -28 2 -7 2 -10 0 -5 -3 4 -11 7 -19 7 -8 0 -14 5
-14 11 0 5 5 7 10 4 6 -3 10 -1 10 4 0 6 -7 11 -15 11 -8 0 -15 -5 -15 -11 0
-5 -5 -7 -11 -3 -8 4 -7 9 2 15 22 13 49 11 49 -5z m1856 -1 c15 -13 6 -43
-17 -56 -15 -7 -19 -6 -19 6 0 8 1 17 3 19 1 2 -6 13 -17 24 -18 21 -18 21 10
19 16 -1 34 -6 40 -12z m80 2 c4 -4 0 -7 -8 -7 -9 0 -21 -7 -28 -15 -7 -8 -17
-15 -22 -15 -6 0 -6 6 1 14 10 11 9 16 -4 24 -13 7 -8 9 19 8 19 -1 38 -5 42
-9z m79 -27 c0 -33 -2 -35 -35 -35 -19 0 -41 4 -48 9 -7 5 -16 6 -19 2 -4 -4
-1 -11 7 -16 12 -8 12 -10 -2 -15 -9 -4 -14 -13 -11 -21 4 -12 8 -12 20 -2 13
10 14 8 11 -12 -2 -20 -10 -26 -38 -28 -28 -3 -33 -1 -22 9 17 18 16 45 -1 30
-8 -6 -17 -7 -22 -3 -4 4 -5 -4 -1 -18 3 -14 3 -20 0 -13 -4 9 -13 9 -30 2
-40 -14 -39 -11 1 21 21 17 47 30 57 30 14 0 18 5 14 15 -8 21 32 46 62 38 20
-5 24 -3 19 9 -4 12 0 14 14 11 24 -7 25 14 2 21 -14 4 -14 4 2 3 16 -2 20
-10 20 -37z m307 28 c-5 -7 -13 -27 -16 -43 -9 -41 -39 -60 -58 -38 -11 14
-11 16 2 12 18 -7 48 22 42 40 -3 9 -7 9 -18 0 -18 -15 -20 11 -2 29 17 17 64
16 50 0z m67 3 c9 -6 10 -11 2 -15 -6 -4 -11 -2 -11 3 0 6 -7 11 -16 11 -10 0
-13 -6 -9 -19 3 -11 0 -21 -9 -24 -22 -9 -26 3 -9 29 16 25 29 29 52 15z
m-2633 -56 c-1 -5 -13 -10 -26 -10 -22 0 -36 27 -24 47 7 11 54 -24 50 -37z
m-380 5 c-5 -29 -4 -30 22 -24 21 4 24 3 12 -5 -13 -9 -12 -11 6 -11 11 0 25
5 32 12 8 8 12 9 12 1 0 -6 -12 -16 -27 -22 l-28 -11 29 6 c26 5 28 3 16 -11
-12 -14 -15 -14 -39 2 -14 9 -42 25 -61 35 -30 15 -32 17 -12 18 15 0 26 7 29
20 8 32 16 23 9 -10z m2197 10 c4 0 6 4 3 8 -3 5 2 9 10 9 13 0 13 -2 -1 -16
-13 -14 -16 -14 -30 2 -8 9 -10 12 -3 7 7 -6 16 -10 21 -10z m214 -12 c-3 -7
-5 -2 -5 12 0 14 2 19 5 13 2 -7 2 -19 0 -25z m-1827 12 c0 -5 -2 -10 -4 -10
-3 0 -8 5 -11 10 -3 6 -1 10 4 10 6 0 11 -4 11 -10z m-110 -93 c0 4 5 2 12 -5
16 -16 21 -52 7 -52 -6 0 -9 10 -7 22 2 15 -2 23 -12 24 -38 3 -42 5 -36 19 5
14 -6 20 -28 16 -5 -1 -6 5 -3 12 3 8 2 19 -1 24 -4 5 10 -8 31 -29 20 -20 37
-34 37 -31z m106 48 c-3 -9 -10 -13 -16 -10 -5 3 -10 2 -10 -3 0 -5 9 -12 19
-15 14 -3 21 2 25 18 7 27 43 42 59 26 8 -8 6 -11 -7 -11 -20 0 -45 -27 -46
-47 0 -7 9 -13 19 -13 15 0 18 5 14 23 -3 12 -1 18 4 12 14 -17 42 -14 35 4
-5 14 -3 14 11 3 9 -8 13 -20 10 -29 -5 -12 -2 -15 9 -10 10 3 19 0 22 -9 4
-9 2 -12 -5 -8 -7 4 -10 1 -7 -7 3 -8 12 -13 21 -11 14 2 47 -32 47 -50 0 -12
-28 -9 -36 4 -4 7 -3 8 4 4 7 -4 12 -3 12 3 0 17 -20 23 -34 12 -11 -9 -14 -8
-12 6 0 9 -7 19 -16 21 -10 2 -18 -1 -18 -7 0 -6 5 -11 11 -11 5 0 7 -4 4 -10
-4 -6 -13 -5 -26 3 -19 12 -19 12 3 29 20 15 21 19 8 28 -22 14 -34 12 -21 -4
21 -25 -26 -32 -58 -9 -14 11 -45 30 -68 43 -41 22 -55 40 -33 40 6 0 10 -4
10 -10 0 -5 7 -10 16 -10 9 0 12 5 8 12 -5 8 -2 9 9 5 9 -3 19 -2 23 4 9 15
17 2 10 -16z m1844 0 c-16 -19 -27 -19 -27 -1 0 8 6 12 14 9 7 -3 13 1 13 8 0
7 3 9 6 6 4 -4 1 -13 -6 -22z m-52 6 c9 -5 4 -8 -16 -7 -17 1 -28 4 -25 9 6 9
25 9 41 -2z m483 -10 c20 -19 18 -24 -20 -46 -10 -6 -12 -4 -6 5 6 10 4 12
-10 6 -15 -5 -16 -4 -6 8 7 8 20 12 29 10 14 -5 13 -2 -2 10 -16 12 -22 13
-28 3 -4 -7 -8 -8 -8 -1 0 28 24 31 51 5z m-1810 -1 c20 -11 26 -54 10 -79
-11 -16 -45 0 -61 29 -13 24 -13 26 6 44 18 19 20 19 45 6z m1196 -24 c-1 -32
-3 -34 -30 -30 -25 3 -27 1 -16 -12 7 -8 19 -12 28 -9 9 4 33 9 54 11 48 5 58
11 50 29 -4 11 -1 13 11 9 16 -6 16 -8 0 -25 -9 -11 -21 -19 -27 -19 -5 0 -28
-13 -51 -28 -61 -41 -74 -47 -44 -18 39 35 20 40 -22 5 -19 -16 -28 -29 -20
-29 7 0 11 -3 7 -6 -3 -3 -12 -2 -19 2 -19 12 -47 12 -57 0 -14 -18 -9 -48 6
-42 8 4 11 1 8 -5 -4 -6 -13 -8 -20 -5 -7 2 -16 -2 -19 -10 -8 -20 -56 -38
-70 -24 -7 7 -2 10 15 10 29 0 56 16 46 27 -5 4 -12 1 -17 -7 -5 -8 -11 -12
-14 -9 -3 3 14 28 39 55 25 27 45 42 45 35 0 -11 5 -10 20 4 15 14 20 15 20 4
0 -9 3 -10 8 -3 4 6 14 13 22 16 12 4 10 7 -7 17 -18 9 -22 9 -18 -2 4 -8 -3
-13 -16 -14 -20 -2 -19 1 11 32 20 21 37 31 40 24 4 -6 11 -4 20 6 10 12 10
15 0 15 -10 0 -10 3 0 15 17 21 18 20 17 -19z m133 9 c14 -16 10 -18 -14 -9
-9 3 -16 10 -16 15 0 14 16 11 30 -6z m-1555 -4 c3 -5 1 -12 -5 -16 -5 -3 -10
1 -10 9 0 18 6 21 15 7z m1105 -20 c0 -9 -41 -56 -91 -106 -49 -49 -99 -100
-110 -111 -13 -13 -28 -20 -40 -17 -10 3 -19 0 -19 -6 0 -6 5 -11 10 -11 18 0
11 -20 -17 -48 -18 -17 -25 -21 -20 -9 4 11 2 17 -8 17 -8 0 -18 7 -22 15 -6
10 -33 15 -98 18 l-90 3 103 2 c56 1 102 -2 102 -7 0 -13 39 -21 46 -9 3 5 -3
12 -15 15 -12 3 -21 9 -21 13 0 8 33 21 60 24 12 1 14 13 12 57 -4 68 10 83
74 81 63 -3 87 12 79 48 -5 22 -1 31 16 43 25 18 49 12 49 -12z m-1760 -40 c3
-4 15 -8 28 -8 23 -2 45 -20 49 -41 2 -6 -27 5 -65 25 -81 44 -86 48 -47 39
16 -4 32 -11 35 -15z m75 -2 c5 -5 -5 -4 -23 2 -17 6 -32 13 -32 16 0 7 43 -8
55 -18z m2440 11 c-8 -13 11 -13 37 1 16 9 19 8 13 -2 -6 -9 -3 -10 11 -5 10
5 28 10 39 13 17 4 18 3 5 -6 -34 -26 -70 -41 -65 -29 4 9 -6 13 -32 14 -36 1
-36 0 -15 -14 28 -19 28 -26 -3 -40 -15 -7 -25 -8 -25 -2 0 6 7 10 17 10 15 0
15 1 0 18 -24 26 -22 52 4 52 11 0 17 -4 14 -10z m-2150 -37 c-20 -19 -19 -27
3 -18 13 5 14 3 6 -5 -13 -13 -54 -5 -54 10 0 5 7 7 15 4 13 -5 20 6 16 28 0
4 6 5 14 2 13 -5 13 -8 0 -21z m1870 -5 c1 -21 -4 -25 -27 -25 -19 0 -24 3
-16 9 10 6 10 8 -1 8 -11 0 -10 5 4 20 23 26 40 21 40 -12z m-1227 0 c5 -7 12
-39 14 -71 5 -63 25 -88 62 -79 19 5 20 4 7 -12 -19 -22 2 -48 22 -27 10 11 9
13 -5 8 -10 -4 -18 -3 -18 2 0 5 9 11 20 14 30 8 140 -4 134 -15 -5 -8 -34 -6
-99 7 -16 4 -25 3 -20 -2 12 -10 13 -33 1 -52 -7 -10 -23 1 -68 45 -114 112
-148 149 -148 161 0 29 78 45 98 21z m-512 -72 l40 -31 -42 0 c-23 0 -40 4
-36 9 3 5 -2 6 -11 3 -10 -4 -23 -9 -30 -12 -10 -4 -13 4 -13 29 1 36 6 36 43
3 12 -10 27 -17 34 -15 7 2 -8 18 -34 36 -25 18 -49 38 -53 44 -8 12 28 -11
102 -66z m74 44 c0 -5 -2 -10 -4 -10 -3 0 -8 5 -11 10 -3 6 -1 10 4 10 6 0 11
-4 11 -10z m100 -35 c0 -3 24 -28 53 -56 l52 -51 -61 43 c-43 30 -63 53 -71
76 -10 33 -10 34 8 14 11 -11 19 -23 19 -26z m555 19 c41 -44 29 -74 -28 -74
-29 0 -87 36 -87 54 0 20 39 46 68 46 12 0 34 -12 47 -26z m-1015 -5 c-19 -11
-27 -18 -17 -15 21 7 53 -19 37 -29 -5 -3 -10 -1 -10 5 0 6 -3 9 -7 7 -5 -3
-32 7 -62 22 l-53 27 73 2 74 1 -35 -20z m1235 5 c40 -41 -5 -84 -87 -84 -59
0 -63 18 -16 67 36 37 76 43 103 17z m699 1 c-4 -8 -1 -15 5 -15 6 0 11 -9 11
-20 0 -26 -4 -25 -59 7 -6 4 31 43 40 43 5 0 6 -7 3 -15z m221 -1 c8 -3 15 -1
15 5 0 8 5 9 19 1 26 -13 52 -14 31 0 -12 8 -11 10 8 10 12 0 22 -4 22 -9 0
-11 -66 -51 -83 -51 -7 0 -4 5 6 11 9 5 17 14 17 19 0 5 -16 0 -36 -12 -32
-19 -34 -23 -18 -28 15 -6 12 -9 -16 -15 -19 -4 -49 -16 -66 -26 -17 -10 -35
-19 -40 -19 -16 0 71 49 87 50 11 0 15 8 14 24 -2 19 1 23 16 19 26 -7 24 11
-3 26 -22 11 -6 8 27 -5z m-1742 -8 c25 -19 21 -26 -8 -13 -14 7 -25 15 -25
20 0 11 13 8 33 -7z m1354 0 c0 -8 -6 -12 -14 -9 -7 3 -13 9 -13 14 0 5 6 9
13 9 8 0 14 -6 14 -14z m258 4 c3 -5 -1 -10 -10 -10 -9 0 -13 5 -10 10 3 6 8
10 10 10 2 0 7 -4 10 -10z m-134 -45 l34 -15 -40 3 c-22 1 -41 -2 -43 -8 -2
-5 -12 -25 -24 -42 l-20 -33 36 0 c19 0 38 -5 42 -11 4 -8 9 -7 15 2 6 10 11
11 19 3 9 -9 3 -14 -21 -23 -39 -13 -49 -14 -30 -2 23 14 -32 25 -57 12 -17
-9 -19 -8 -15 9 6 24 -2 25 -39 6 -17 -9 -30 -11 -34 -5 -3 5 -17 1 -32 -10
-15 -10 -38 -22 -52 -26 -22 -7 -23 -6 -11 9 7 9 17 16 22 16 5 0 39 18 74 40
36 21 72 37 80 33 8 -3 15 0 15 6 0 8 38 51 46 51 1 0 17 -7 35 -15z m-1787
-31 c15 -14 20 -11 17 9 0 4 9 7 22 7 18 0 19 -2 7 -10 -13 -9 -13 -10 0 -10
13 0 13 -1 0 -11 -12 -8 -9 -10 13 -6 21 3 27 0 27 -14 0 -17 -2 -17 -38 -1
-48 22 -91 51 -75 51 6 1 19 -6 27 -15z m1934 9 c-10 -3 -18 -8 -18 -12 0 -4
-16 -7 -35 -7 -20 0 -35 5 -35 12 0 8 18 11 53 11 28 0 44 -2 35 -4z m-1628
-41 c3 -2 -5 -2 -16 2 -15 5 -24 2 -28 -10 -5 -13 -1 -15 21 -11 l28 6 -30
-15 -30 -15 30 6 c17 3 39 8 50 10 11 3 7 -2 -10 -10 -25 -12 -26 -14 -9 -15
11 0 24 -3 27 -7 10 -9 -13 -33 -32 -32 -12 0 -11 2 4 9 11 5 15 9 9 9 -22 2
-89 34 -78 38 7 2 10 13 7 23 -3 12 0 20 6 20 7 0 9 5 5 11 -6 10 33 -6 46
-19z m1230 20 c0 -5 -12 -14 -27 -21 -28 -13 -28 -13 -9 8 20 22 36 27 36 13z
m346 -17 c-13 -10 -15 -15 -6 -15 7 0 11 -2 8 -5 -3 -3 -12 -3 -21 1 -13 5
-14 9 -4 20 7 7 19 13 27 13 11 0 10 -3 -4 -14z m-1719 -46 c8 -8 13 -8 17 0
4 6 15 11 24 10 11 0 12 -3 5 -6 -23 -9 -14 -25 11 -21 32 6 58 -8 33 -18 -9
-3 -44 5 -79 19 -35 15 -54 26 -42 27 11 0 25 -5 31 -11z m243 -21 c0 -12 -25
-9 -38 4 -20 20 -14 27 13 15 14 -7 25 -15 25 -19z m460 22 c0 -5 -2 -10 -4
-10 -3 0 -8 5 -11 10 -3 6 -1 10 4 10 6 0 11 -4 11 -10z m740 -34 c0 -7 7 -19
15 -26 12 -10 16 -9 21 4 3 9 10 13 15 10 19 -11 7 -24 -33 -34 -24 -6 -52
-15 -63 -20 -78 -36 -202 -69 -239 -65 -30 3 -34 3 -16 -3 l25 -8 -25 -8 c-54
-16 -60 -17 -60 -7 0 6 5 11 11 11 7 0 17 6 23 13 19 23 86 60 86 47 0 -7 -9
-14 -20 -17 -11 -3 -17 -9 -14 -14 8 -14 34 -11 32 4 -2 7 8 12 22 13 14 1 30
2 35 4 6 2 15 4 20 4 6 1 22 10 37 20 16 11 35 15 47 11 27 -8 48 4 30 17 -10
6 -4 7 17 3 24 -4 31 -2 31 10 0 8 -4 15 -9 15 -4 0 -8 7 -8 15 0 8 5 15 10
15 6 0 10 -6 10 -14z m-1143 -16 c34 -18 35 -20 13 -20 -23 -1 -22 -2 9 -15
42 -19 47 -19 31 0 -11 13 -10 14 3 9 9 -3 15 -14 14 -25 -1 -11 -4 -18 -7
-16 -41 24 -89 38 -114 33 -22 -4 -27 -3 -16 4 8 5 26 10 40 10 l25 0 -25 20
c-32 25 -20 25 27 0z m383 -11 c0 -16 7 -19 48 -20 26 -1 67 -2 92 -3 25 -2
51 2 58 7 10 8 16 7 22 -2 12 -21 66 1 62 25 -3 15 -1 16 9 7 10 -10 10 -15
-1 -28 -7 -8 -19 -15 -26 -15 -8 0 -14 -4 -14 -9 0 -5 -40 -6 -88 -3 -59 3
-96 1 -111 -8 -20 -10 -26 -9 -47 11 -23 21 -35 77 -14 64 6 -3 10 -15 10 -26z
m880 21 c-20 -13 -43 -13 -35 0 3 6 16 10 28 10 18 0 19 -2 7 -10z m-1340 -6
c0 -13 -30 -34 -48 -34 -21 0 -95 29 -75 30 6 0 23 -4 36 -9 18 -7 30 -6 43 4
19 15 44 20 44 9z m500 -9 c0 -8 -4 -15 -10 -15 -5 0 -7 7 -4 15 4 8 8 15 10
15 2 0 4 -7 4 -15z m160 0 c0 -11 -11 -15 -40 -15 -29 0 -40 4 -40 15 0 11 11
15 40 15 29 0 40 -4 40 -15z m441 2 c-6 -8 -8 -17 -4 -21 4 -4 -3 -9 -15 -13
-12 -3 -22 -8 -22 -12 0 -3 -16 -7 -36 -8 -43 -2 -37 6 26 41 51 28 67 32 51
13z m79 3 c0 -5 -8 -10 -17 -10 -15 0 -16 2 -3 10 19 12 20 12 20 0z m-2602
-122 c37 -78 49 -113 41 -118 -6 -4 -38 -11 -70 -14 -133 -15 -369 -97 -504
-174 -140 -80 -411 -271 -430 -303 -16 -24 -39 -1 -95 93 -33 56 -60 109 -60
117 1 25 166 144 327 235 168 95 269 135 653 260 80 26 80 26 138 -96z m7051
86 c279 -84 456 -155 624 -250 161 -91 326 -210 327 -235 0 -20 -118 -219
-131 -219 -5 0 -51 33 -102 73 -94 75 -244 177 -352 239 -135 77 -354 152
-522 178 -40 7 -73 14 -73 16 0 2 25 53 55 114 36 70 61 110 71 110 9 0 55
-12 103 -26z m-5565 -25 c-2 -4 2 -10 8 -13 7 -3 0 -3 -17 1 -48 9 -58 19 -21
19 19 0 33 -3 30 -7z m138 -9 l33 -20 -33 3 c-20 1 -30 6 -28 14 3 6 0 14 -7
17 -7 2 -9 5 -5 5 4 1 22 -8 40 -19z m-65 -12 c15 -7 31 -17 35 -23 5 -6 8 -5
8 3 0 7 5 10 11 6 18 -10 -13 -24 -39 -17 -12 3 -19 10 -15 16 4 7 0 8 -11 4
-21 -8 -39 0 -31 14 8 12 8 11 42 -3z m125 -23 c0 -5 -5 -10 -11 -11 -8 -2 -7
-1 0 3 8 4 7 8 -2 15 -11 8 -11 9 -1 6 8 -2 14 -8 14 -13z m-712 -28 c0 -5 -4
-5 -10 -2 -5 3 -10 14 -10 23 0 15 2 15 10 2 5 -8 10 -19 10 -23z m-164 -6
c-9 -10 -13 -21 -9 -24 3 -4 1 -7 -5 -7 -15 0 -15 3 -1 34 7 14 16 23 21 20 5
-3 2 -14 -6 -23z m901 15 c0 -21 -27 -25 -62 -9 l-30 13 30 -5 c17 -3 37 -1
45 5 8 5 15 10 16 10 0 0 1 -6 1 -14z m308 -39 c-10 -16 -14 -34 -9 -51 3 -14
2 -26 -3 -26 -5 0 -10 6 -10 13 -1 6 -4 31 -8 55 -5 28 -4 42 3 42 7 0 9 -7 5
-17 -4 -11 -3 -14 5 -9 7 4 12 15 12 24 0 11 3 13 11 5 8 -8 6 -18 -6 -36z
m-260 23 c3 -6 -1 -7 -9 -4 -18 7 -21 14 -7 14 6 0 13 -4 16 -10z m-885 -20
c0 -5 -4 -10 -10 -10 -5 0 -10 5 -10 10 0 6 5 10 10 10 6 0 10 -4 10 -10z
m863 3 c-7 -2 -19 -2 -25 0 -7 3 -2 5 12 5 14 0 19 -2 13 -5z m207 -55 c5 -25
5 -44 -1 -46 -5 -2 -9 -18 -8 -35 1 -31 1 -31 9 -7 6 17 8 19 9 7 1 -25 -24
-83 -46 -104 -48 -47 -74 -67 -71 -54 2 8 -5 17 -15 19 -16 3 -17 1 -8 -17 13
-23 1 -34 -25 -24 -14 5 -16 3 -10 -13 5 -14 4 -16 -5 -7 -14 14 -2 36 17 29
8 -3 14 1 14 10 0 11 -6 15 -20 11 -10 -3 -19 -2 -18 2 1 3 -6 20 -15 36 l-18
30 5 -35 c2 -19 2 -29 -1 -22 -2 6 -9 12 -15 12 -7 0 -8 -15 -4 -42 6 -40 6
-42 -8 -23 -15 19 -15 19 -16 1 0 -11 -3 -16 -7 -13 -3 4 -1 17 5 30 6 12 13
34 16 50 4 15 16 37 27 48 11 11 18 23 16 26 -10 10 16 64 28 59 7 -2 18 1 24
7 9 9 14 8 21 -3 15 -24 12 -38 -12 -55 -13 -8 -22 -18 -20 -20 2 -3 2 -9 -1
-13 -2 -4 -3 -2 -1 4 1 6 -5 15 -14 21 -15 8 -17 5 -19 -26 -2 -22 0 -31 5
-23 7 9 13 8 27 -8 19 -21 8 -29 -13 -8 -9 9 -12 9 -12 0 0 -19 26 -25 49 -13
13 7 22 8 26 1 9 -15 48 8 41 25 -2 7 4 15 16 18 13 4 19 11 15 21 -4 11 -1
13 10 9 13 -5 15 -2 10 11 -4 10 -7 21 -7 26 0 5 -11 -1 -25 -13 -13 -12 -20
-23 -15 -25 13 -5 13 -22 1 -22 -14 0 -23 33 -11 40 30 18 60 76 60 114 -1 34
-2 38 -11 23 -6 -10 -9 -21 -6 -24 3 -2 -4 -14 -15 -25 -26 -26 -68 -33 -68
-11 0 13 3 13 15 3 13 -10 19 -9 35 5 18 17 19 20 5 41 -18 29 -18 31 -1 37
10 4 12 0 9 -14 -3 -10 0 -19 6 -19 10 0 16 22 11 45 -1 6 4 5 10 -2 7 -6 16
-31 20 -55z m199 10 c-12 -44 -16 -44 -21 0 -3 32 0 38 13 35 14 -4 15 -11 8
-35z m447 30 c-2 -7 -6 -20 -9 -28 -3 -8 -8 -22 -11 -30 -3 -8 -5 2 -3 23 l3
37 -35 -5 c-28 -4 -31 -3 -16 4 30 14 74 13 71 -1z m-1106 -2 c0 -3 -4 -8 -10
-11 -5 -3 -10 -1 -10 4 0 6 5 11 10 11 6 0 10 -2 10 -4z m578 -18 c2 -31 -29
-88 -48 -88 -10 0 -11 3 -4 8 6 4 11 25 10 47 -2 49 0 55 22 55 11 0 19 -9 20
-22z m-548 -17 c0 -16 2 -41 4 -57 2 -16 1 -21 -1 -11 -2 9 -11 17 -19 17 -8
0 -14 5 -14 12 0 6 -2 9 -4 7 -3 -2 0 -27 6 -54 8 -38 13 -45 18 -31 6 19 7
19 12 -2 4 -14 2 -20 -5 -15 -7 4 -8 0 -3 -13 4 -10 10 -31 13 -45 4 -21 9
-25 28 -21 20 3 23 1 18 -17 -3 -12 -1 -21 5 -21 5 0 12 10 16 23 5 18 8 20
16 7 8 -13 10 -13 10 2 0 21 19 72 25 66 8 -7 -26 -93 -41 -101 -8 -4 -14 -16
-14 -25 0 -15 2 -15 11 -2 13 18 9 5 -10 -32 -8 -16 -18 -28 -22 -28 -6 0 -17
23 -19 40 -1 3 -21 63 -45 135 -24 71 -40 132 -35 135 4 3 10 14 13 25 4 18 5
18 6 -2 0 -13 6 -23 12 -23 7 0 9 11 6 30 -4 17 -2 30 3 30 6 0 10 -13 10 -29z
m694 -5 l29 -19 -23 -17 c-13 -10 -19 -19 -14 -21 5 -2 19 -17 32 -33 12 -16
22 -23 22 -16 0 20 35 -15 54 -53 12 -25 16 -28 16 -12 1 17 3 17 12 -5 6 -14
12 -29 13 -35 0 -5 6 -21 12 -35 5 -14 13 -37 17 -52 6 -25 5 -26 -23 -18 -63
18 -197 106 -193 127 2 8 -1 12 -6 9 -23 -14 -35 25 -33 99 1 30 4 36 11 25 5
-8 10 -28 10 -43 0 -16 4 -26 10 -22 5 3 6 13 3 22 -4 11 -3 14 6 9 7 -5 9
-16 5 -28 -4 -14 -2 -18 5 -14 6 4 11 1 11 -8 0 -8 -4 -17 -9 -20 -5 -4 -4
-16 2 -29 9 -20 18 -24 51 -23 23 1 53 -4 67 -11 30 -14 39 -9 38 21 -1 18 -2
18 -9 -4 -8 -24 -8 -24 -9 -2 -1 24 -16 30 -24 10 -2 -8 -8 -9 -13 -4 -5 5 -4
11 4 13 14 5 16 43 2 43 -5 0 -10 -7 -10 -15 0 -27 -16 -16 -29 20 -7 20 -28
52 -48 71 -33 33 -34 36 -14 41 26 7 27 15 1 31 -11 7 -20 18 -20 25 0 7 3 8
8 2 4 -6 20 -19 36 -29z m281 26 c-12 -8 -13 -57 -2 -68 4 -4 7 -12 7 -18 0
-6 -5 -4 -10 4 -8 13 -10 12 -10 -4 0 -10 -6 -24 -14 -30 -23 -18 -28 -52 -11
-69 8 -9 12 -23 9 -31 -3 -9 -1 -16 5 -16 6 0 11 -15 11 -32 -1 -29 -4 -25
-26 32 -14 36 -27 72 -29 80 -2 8 -13 35 -25 58 -12 24 -20 45 -18 45 2 1 26
14 53 29 46 25 84 38 60 20z m-1038 -24 c-3 -8 -6 -5 -6 6 -1 11 2 17 5 13 3
-3 4 -12 1 -19z m187 -13 c59 -17 61 -19 46 -42 -9 -15 -11 -15 -6 -1 4 12 -4
20 -28 28 -18 6 -40 8 -49 4 -10 -3 -17 -1 -17 5 0 6 -8 11 -19 11 -10 0 -24
7 -31 15 -10 12 -7 13 22 4 18 -6 55 -17 82 -24z m244 9 c1 -1 0 -9 -4 -18 -8
-20 -20 -21 -28 0 -3 8 -2 12 4 9 6 -3 10 -1 10 4 0 18 -11 12 -46 -25 -43
-45 -44 -31 -3 19 27 32 33 36 48 25 9 -7 17 -13 19 -14z m-838 -4 c0 -11 -4
-20 -9 -20 -5 0 -7 9 -4 20 3 11 7 20 9 20 2 0 4 -9 4 -20z m80 10 c0 -5 -5
-10 -11 -10 -5 0 -7 5 -4 10 3 6 8 10 11 10 2 0 4 -4 4 -10z m1050 -20 c0 -5
-4 -10 -9 -10 -6 0 -13 5 -16 10 -3 6 1 10 9 10 9 0 16 -4 16 -10z m-1230 -21
c0 -5 -4 -9 -10 -9 -5 0 -10 7 -10 16 0 8 5 12 10 9 6 -3 10 -10 10 -16z m50
12 c0 -5 -6 -14 -14 -20 -12 -10 -13 -8 -9 8 5 21 23 30 23 12z m1936 -18
c-10 -10 -19 5 -10 18 6 11 8 11 12 0 2 -7 1 -15 -2 -18z m-1373 10 c-7 -2
-19 -2 -25 0 -7 3 -2 5 12 5 14 0 19 -2 13 -5z m1217 3 c0 -3 -4 -8 -10 -11
-5 -3 -10 -1 -10 4 0 6 5 11 10 11 6 0 10 -2 10 -4z m-1646 -22 c7 -17 0 -34
-14 -34 -5 0 -6 7 -3 17 4 11 3 14 -5 9 -13 -8 -17 6 -5 17 11 11 20 8 27 -9z
m516 13 c0 -1 -10 -11 -22 -21 -17 -15 -20 -15 -15 -3 4 10 -1 17 -11 20 -9 3
-2 5 16 6 17 0 32 0 32 -2z m609 -14 c0 -11 -3 -13 -6 -5 -2 6 -10 9 -15 6 -7
-4 -8 -2 -4 4 11 18 26 14 25 -5z m304 -11 c-3 -12 -10 -22 -15 -22 -5 0 -7 3
-5 8 2 4 7 16 11 26 9 25 17 16 9 -12z m307 13 c7 -9 10 -18 6 -22 -3 -3 -6
-1 -6 5 0 7 -7 12 -15 12 -8 0 -15 5 -15 10 0 15 16 12 30 -5z m-1208 -17 c-3
-14 -1 -19 6 -14 8 5 10 1 5 -10 -4 -11 -8 -13 -11 -6 -5 17 -22 15 -22 -3 0
-8 -5 -15 -11 -15 -5 0 -8 -4 -5 -9 4 -5 1 -20 -4 -33 -9 -19 -10 -17 -6 18 2
24 13 52 27 68 27 32 29 32 21 4z m871 -5 c3 -16 1 -31 -4 -34 -5 -3 -7 -12
-4 -20 3 -8 -1 -31 -9 -50 -15 -33 -15 -33 -16 -7 0 15 4 29 9 32 5 3 7 28 5
56 -4 53 10 69 19 23z m483 13 c18 6 18 6 2 -11 -14 -15 -20 -16 -32 -5 -11 8
-16 9 -16 1 0 -6 -10 -11 -22 -11 l-23 0 25 20 c16 12 29 15 36 9 6 -5 20 -6
30 -3z m-172 -17 c-6 -11 -24 -2 -24 11 0 5 7 7 15 4 8 -4 12 -10 9 -15z m76
11 c0 -5 -2 -10 -4 -10 -3 0 -8 5 -11 10 -3 6 -1 10 4 10 6 0 11 -4 11 -10z
m-622 -35 c-3 -3 -9 2 -12 12 -6 14 -5 15 5 6 7 -7 10 -15 7 -18z m-1132 0
c-21 -16 -32 -13 -21 4 3 6 14 11 23 11 15 -1 15 -2 -2 -15z m1316 -37 c-6 -6
-12 -6 -16 1 -4 6 -2 11 3 11 6 0 12 8 12 18 1 15 2 15 6 -2 3 -10 0 -23 -5
-28z m378 35 c0 -5 -5 -15 -10 -23 -8 -12 -10 -11 -10 8 0 12 5 22 10 22 6 0
10 -3 10 -7z m115 -22 c-3 -6 -16 -11 -28 -11 -21 0 -21 1 3 13 27 15 36 14
25 -2z m-1765 6 c0 -1 -9 -10 -20 -20 -19 -16 -20 -16 -20 3 0 13 7 20 20 20
11 0 20 -1 20 -3z m75 -7 c3 -5 1 -10 -4 -10 -6 0 -11 5 -11 10 0 6 2 10 4 10
3 0 8 -4 11 -10z m1622 -14 c-9 -7 -17 -19 -17 -27 -1 -8 -7 -25 -14 -38 -11
-19 -14 -21 -19 -7 -4 9 -2 16 3 16 5 0 12 10 16 23 8 27 35 59 43 51 3 -3 -2
-11 -12 -18z m4051 -6 c85 -14 223 -58 246 -79 11 -9 16 -11 12 -4 -5 9 0 10
24 2 16 -6 30 -15 30 -20 0 -5 7 -9 16 -9 8 0 12 -4 9 -10 -3 -5 0 -7 8 -4 24
9 164 -76 149 -90 -3 -4 2 -4 12 0 15 6 17 4 11 -6 -5 -9 -4 -11 3 -6 15 9 64
-23 55 -37 -3 -6 -1 -7 5 -3 14 9 108 -58 104 -74 -1 -6 2 -9 8 -5 6 3 43 -20
84 -53 l73 -59 -46 -61 c-25 -34 -49 -61 -52 -62 -3 0 -38 24 -78 53 -39 28
-96 68 -126 87 -29 19 -51 39 -48 44 3 5 1 6 -5 2 -12 -7 -62 13 -62 26 0 4
-6 8 -12 8 -7 0 -35 11 -62 25 -27 14 -55 25 -62 25 -7 0 -20 7 -28 16 -9 8
-16 13 -16 10 0 -2 -35 8 -78 24 -42 15 -99 31 -125 35 -29 5 -44 11 -40 18 4
6 0 8 -10 4 -10 -4 -45 0 -80 8 -34 9 -94 20 -134 26 l-72 11 46 76 c26 42 52
84 60 93 14 16 27 16 181 -11z m-6790 -67 l52 -88 -68 -13 c-37 -7 -97 -20
-134 -28 -37 -9 -72 -12 -78 -9 -5 3 -10 2 -10 -4 0 -5 -19 -12 -42 -16 -24
-4 -78 -20 -120 -35 -42 -16 -79 -26 -82 -22 -3 3 -6 0 -6 -6 0 -6 -17 -16
-37 -22 -48 -16 -182 -87 -270 -145 -37 -25 -73 -43 -80 -41 -7 3 -10 0 -8 -7
4 -11 -92 -85 -99 -76 -1 2 -16 22 -32 44 -16 22 -37 48 -46 59 -16 18 -16 20
10 40 44 34 54 42 118 95 34 28 65 51 68 51 3 0 27 15 54 34 26 19 56 34 67
33 11 -1 19 3 18 10 -2 11 51 47 119 82 23 12 30 12 45 0 16 -13 17 -12 5 3
-11 14 -10 18 8 28 12 6 28 9 36 6 8 -3 13 -2 10 3 -3 5 1 12 10 15 10 4 13 2
9 -7 -4 -6 -1 -5 7 4 23 27 286 95 378 98 l45 1 53 -87z m1092 37 c0 -9 9 -16
20 -16 11 0 20 4 20 8 0 4 7 8 15 8 8 0 15 -4 15 -10 0 -5 -6 -10 -14 -10 -20
0 -28 -28 -13 -50 13 -22 39 -27 36 -7 -3 26 2 37 17 37 8 0 12 -5 8 -11 -3
-6 -1 -15 7 -19 7 -5 13 -24 12 -44 -1 -42 14 -57 33 -31 11 15 16 16 29 5 9
-7 14 -18 12 -24 -2 -6 5 -20 15 -31 10 -11 21 -29 24 -40 3 -11 15 -25 26
-30 22 -10 45 -55 28 -55 -5 0 -12 10 -15 21 -5 15 -10 18 -15 10 -5 -9 -11
-9 -23 3 -20 21 -27 20 -27 -2 0 -11 8 -18 23 -19 12 -1 28 -11 36 -23 7 -11
20 -20 27 -20 8 0 14 -4 14 -10 0 -14 -33 -13 -48 2 -9 9 -12 9 -12 -1 0 -11
-3 -11 -15 -1 -9 7 -19 9 -23 5 -4 -4 -1 -10 6 -12 7 -3 18 -16 23 -30 5 -14
12 -23 15 -20 3 3 17 2 31 -4 22 -8 24 -7 18 11 -8 27 20 27 35 1 14 -26 13
-31 -5 -25 -9 4 -15 0 -15 -10 0 -9 -7 -16 -15 -16 -8 0 -15 7 -15 15 0 9 -6
12 -16 8 -10 -4 -26 6 -44 26 -16 17 -33 31 -39 31 -11 0 -61 58 -61 71 0 6 5
7 10 4 6 -3 10 1 10 9 0 21 16 21 24 0 3 -8 10 -13 14 -10 11 7 2 66 -10 66
-5 0 -6 -4 -3 -10 3 -5 1 -10 -4 -10 -6 0 -20 -9 -32 -21 -23 -23 -39 -18 -20
5 7 8 9 21 5 27 -5 9 -11 7 -22 -7 -14 -19 -14 -19 -9 1 2 11 8 28 12 38 4 10
3 17 -4 17 -6 0 -11 -6 -11 -14 0 -7 -7 -19 -15 -26 -8 -7 -15 -9 -15 -6 0 15
30 64 42 68 6 2 8 10 4 17 -6 8 -11 9 -21 1 -15 -12 -31 4 -37 37 l-3 23 -30
-26 c-27 -23 -28 -25 -7 -21 12 3 22 1 22 -4 0 -5 -4 -9 -10 -9 -5 0 -10 -5
-10 -11 0 -6 8 -8 18 -5 24 8 43 -6 32 -24 -11 -17 -40 -4 -86 38 -26 25 -27
27 -9 30 33 6 38 18 21 50 -18 35 -21 66 -6 57 6 -3 10 0 10 9 0 8 -5 16 -11
18 -5 2 -7 11 -3 22 5 14 9 15 15 4 5 -7 9 -20 9 -28z m604 24 c3 -8 2 -12 -4
-9 -6 3 -10 10 -10 16 0 14 7 11 14 -7z m354 -19 c0 -13 -4 -22 -9 -19 -5 3
-9 14 -9 25 0 10 4 19 9 19 5 0 9 -11 9 -25z m555 0 c4 3 4 2 1 -2 -13 -18
-43 -3 -44 21 0 5 8 2 18 -7 10 -10 22 -15 25 -12z m-893 -16 c0 -16 -29 -16
-35 -1 -5 14 -7 14 -15 2 -5 -8 -12 -11 -15 -8 -4 4 -1 13 6 21 10 10 18 11
36 3 12 -6 23 -14 23 -17z m374 5 c9 -24 7 -27 -9 -10 -17 17 -19 26 -6 26 5
0 12 -7 15 -16z m586 6 c0 -5 -5 -10 -11 -10 -5 0 -7 5 -4 10 3 6 8 10 11 10
2 0 4 -4 4 -10z m-1671 -49 c1 -10 -3 -9 -13 4 -8 11 -11 26 -8 34 4 12 7 11
13 -5 4 -10 8 -25 8 -33z m33 27 c-7 -7 -12 -8 -12 -2 0 14 12 26 19 19 2 -3
-1 -11 -7 -17z m892 -41 c31 -29 56 -57 56 -63 0 -20 -25 -64 -36 -64 -12 0
-29 68 -20 78 3 3 6 -2 6 -11 0 -19 15 -23 25 -7 3 6 -1 17 -9 26 -12 11 -20
12 -35 4 -17 -8 -26 -5 -52 18 -29 26 -30 30 -18 50 8 12 17 22 20 22 4 0 32
-24 63 -53z m730 32 c-6 -11 -31 -12 -37 -1 -3 4 6 8 19 8 13 1 21 -2 18 -7z
m-54 -5 c0 -4 -11 -17 -25 -30 -26 -24 -33 -44 -15 -44 5 0 18 10 30 22 12 14
20 17 20 8 0 -10 5 -9 18 3 10 10 21 17 24 17 12 0 -6 -45 -25 -65 -14 -13
-18 -15 -15 -5 4 11 -1 16 -14 16 -15 0 -18 -5 -13 -24 7 -28 -4 -50 -16 -31
-5 9 -10 5 -14 -13 -4 -15 -17 -34 -29 -42 -13 -8 -38 -37 -55 -65 -18 -28
-37 -49 -41 -46 -4 3 -13 -9 -20 -25 -14 -34 -84 -105 -102 -105 -7 0 -13 -4
-13 -10 -1 -25 -23 -43 -62 -49 -27 -4 -43 -2 -43 4 0 5 5 10 10 10 6 0 8 11
4 25 -4 15 -2 25 4 25 6 0 13 13 17 29 3 16 14 32 23 36 13 5 14 8 3 14 -18
11 2 49 33 61 16 6 27 25 40 68 14 44 25 63 43 71 14 7 23 18 21 28 -2 13 3
17 16 15 10 -2 25 -1 34 3 14 5 14 7 2 15 -8 5 -11 12 -7 16 4 4 13 2 19 -4 9
-9 14 -6 22 10 13 25 39 38 30 15 -3 -8 -1 -18 5 -22 6 -3 11 -1 11 5 0 6 5 8
10 5 6 -3 10 0 10 7 0 21 29 58 46 58 8 0 14 -3 14 -6z m-1550 -25 c0 -6 -4
-7 -10 -4 -5 3 -10 11 -10 16 0 6 5 7 10 4 6 -3 10 -11 10 -16z m790 -25 c7
-17 3 -20 -30 -20 l-37 -1 21 23 c24 26 36 26 46 -2z m-246 -33 c-9 -11 -21
13 -16 32 6 22 6 22 12 -3 4 -14 6 -27 4 -29z m-550 13 c3 -8 2 -12 -4 -9 -6
3 -10 10 -10 16 0 14 7 11 14 -7z m714 -56 c-2 -17 -10 -23 -30 -23 -15 -1
-24 3 -22 7 3 4 0 8 -6 8 -6 0 -8 5 -5 11 5 7 13 5 24 -5 23 -21 30 -20 28 3
-1 12 -6 17 -17 13 -10 -3 -9 1 5 15 22 22 29 12 23 -29z m-203 32 c-26 -11
-45 -12 -45 -2 0 4 15 8 33 9 26 1 28 0 12 -7z m507 -42 c26 -14 25 -14 -23
-15 -27 0 -49 2 -49 6 0 3 3 16 6 29 6 20 8 21 23 8 9 -8 28 -21 43 -28z m617
25 c-35 -44 -113 -122 -118 -118 -3 3 24 35 59 70 63 64 86 82 59 48z m-1002
-50 c0 -16 -1 -20 -4 -10 -2 9 -11 17 -19 17 -18 0 -18 -36 0 -43 7 -3 16 -15
19 -26 4 -18 1 -21 -26 -20 -18 0 -26 3 -19 6 13 5 17 43 4 43 -5 0 -14 -11
-20 -25 -10 -20 -18 -25 -49 -24 -21 0 -54 6 -73 13 -34 12 -34 13 -13 24 12
7 31 12 42 12 11 0 23 5 26 11 4 6 19 7 35 4 20 -4 31 -2 37 9 4 8 19 19 33
25 14 5 25 10 25 10 0 1 1 -11 2 -26z m427 -5 c-5 -8 -2 -9 9 -5 10 3 17 5 17
2 0 -7 -31 -35 -40 -35 -11 0 -7 33 5 42 14 11 17 10 9 -4z m56 -18 c0 -5 -2
-10 -4 -10 -3 0 -8 5 -11 10 -3 6 -1 10 4 10 6 0 11 -4 11 -10z m49 -37 c-6
-7 -17 -13 -23 -12 -7 0 -6 2 2 6 6 2 12 9 12 15 0 6 -7 8 -15 5 -8 -4 -17 -2
-19 2 -10 15 6 20 30 9 18 -9 21 -14 13 -25z m-49 12 c21 -26 0 -35 -80 -35
-68 0 -79 2 -73 16 3 10 8 12 12 5 4 -6 35 -9 73 -8 36 1 64 6 61 10 -3 5 -17
6 -31 2 -22 -5 -24 -4 -13 9 17 20 35 20 51 1z m-222 -32 c-32 -2 -86 -2 -120
0 -35 2 -9 3 57 3 66 0 94 -1 63 -3z m-345 -107 c4 -9 24 -16 49 -19 l43 -4
-47 -1 c-32 -1 -50 3 -55 12 -4 8 -21 16 -38 19 -28 4 -28 4 6 6 24 0 39 -4
42 -13z m425 -3 c43 -4 62 -2 62 6 0 6 10 10 23 10 16 -1 18 -2 5 -6 -21 -5
-22 -16 -7 -41 9 -14 8 -25 -4 -48 l-16 -29 2 45 2 45 -70 -2 c-38 -1 -81 -5
-95 -8 -22 -6 -23 -8 -7 -17 13 -7 23 -6 35 4 15 12 16 11 3 -5 -11 -14 -11
-21 -3 -29 9 -9 12 -8 12 4 0 9 4 20 10 23 7 4 7 -2 0 -19 -7 -19 -5 -29 6
-41 9 -8 11 -15 6 -15 -6 0 -23 16 -39 35 -30 39 -87 59 -117 43 -9 -5 -26 -6
-37 -3 -14 5 -19 3 -15 -3 3 -6 2 -13 -3 -16 -5 -3 -12 2 -15 11 -6 14 -9 15
-15 4 -5 -7 -12 -13 -17 -14 -5 -1 -9 -15 -9 -32 0 -22 -5 -30 -17 -29 -18 2
-15 -14 10 -53 8 -13 10 -23 4 -23 -5 0 -13 7 -16 16 -11 28 -25 4 -21 -34 l5
-37 -20 24 c-19 21 -19 26 -5 41 8 9 15 23 15 31 -1 10 -6 7 -18 -7 l-18 -21
-16 28 c-9 15 -14 30 -10 33 9 10 42 7 42 -4 0 -18 18 -11 25 9 4 12 12 18 21
14 7 -3 14 -1 14 5 0 6 -4 12 -9 14 -5 2 -13 15 -16 31 l-7 27 73 1 c41 0 115
7 164 14 l90 12 -75 1 c-41 0 -98 -3 -126 -7 -42 -6 -51 -5 -47 7 5 11 -10 13
-76 10 -47 -2 -81 0 -81 6 0 9 291 2 418 -11z m126 -8 c-9 -14 -20 -22 -26
-19 -5 3 -2 14 8 25 25 27 37 23 18 -6z m-594 -7 c0 -9 4 -8 11 2 8 12 9 11 4
-6 -5 -19 -2 -21 25 -18 25 3 28 1 18 -10 -10 -10 -15 -11 -20 -2 -5 7 -8 6
-8 -4 0 -9 5 -21 12 -28 8 -8 9 -12 1 -12 -6 0 -23 20 -36 45 -14 25 -21 45
-16 45 5 0 9 -6 9 -12z m493 -26 c-29 -2 -43 -8 -43 -18 0 -8 -5 -14 -10 -14
-7 0 -7 6 0 19 10 20 53 31 80 21 8 -3 -4 -6 -27 -8z m-295 -70 c-6 -15 -10
-40 -9 -57 2 -29 1 -29 -13 -10 -18 23 -20 45 -6 45 6 0 10 11 10 23 0 26 9
39 21 31 5 -2 3 -17 -3 -32z m-323 18 c3 -5 1 -10 -4 -10 -6 0 -11 5 -11 10 0
6 2 10 4 10 3 0 8 -4 11 -10z m37 -27 c-11 -8 -12 -12 -4 -13 18 0 15 -13 -7
-27 -16 -10 -22 -8 -36 7 -17 19 -17 20 9 30 15 5 29 17 33 26 4 12 8 13 14 3
4 -8 1 -18 -9 -26z m-2599 -15 c14 -18 37 -46 51 -62 14 -16 26 -32 26 -35 0
-5 -462 -259 -489 -269 -5 -1 -11 16 -15 40 -4 23 -19 64 -34 92 -15 27 -22
51 -17 53 6 2 102 50 215 108 113 57 212 104 221 105 9 0 28 -15 42 -32z
m9100 -74 c116 -59 214 -108 216 -110 2 -2 -8 -26 -22 -52 -14 -26 -29 -67
-33 -90 -4 -23 -9 -42 -11 -42 -2 0 -52 26 -111 59 -59 32 -155 83 -213 114
-155 82 -169 91 -169 104 0 7 6 16 13 20 7 4 31 29 52 56 22 26 45 47 52 47 7
0 109 -48 226 -106z m-5891 68 c-4 -11 -6 -11 -14 0 -7 9 -8 7 -5 -9 3 -16 0
-23 -9 -23 -8 0 -14 -4 -14 -10 0 -5 5 -10 11 -10 5 0 7 -5 3 -11 -4 -8 -9 -7
-15 2 -6 11 -9 10 -15 -4 -3 -9 -11 -14 -17 -10 -6 4 -8 0 -5 -8 15 -39 19
-59 11 -59 -4 0 -14 -12 -21 -27 -7 -16 -21 -39 -32 -53 -16 -20 -20 -22 -20
-7 0 9 5 17 10 17 6 0 10 6 10 14 0 7 7 19 15 26 8 7 13 16 10 20 -3 5 0 10 6
12 7 2 10 11 7 19 -4 10 -9 6 -18 -13 -7 -16 -17 -28 -22 -28 -12 0 0 40 18
61 16 18 18 39 4 39 -5 0 -10 -6 -10 -14 0 -8 -8 -17 -18 -20 -14 -5 -17 -14
-14 -36 3 -23 0 -30 -12 -30 -10 0 -15 -4 -12 -9 3 -5 -1 -11 -9 -15 -8 -3
-15 -13 -15 -23 0 -14 -5 -12 -23 10 -16 21 -27 26 -41 21 -17 -7 -17 -8 5
-21 23 -13 22 -14 -16 -8 -22 3 -47 8 -55 11 -17 5 -56 54 -43 54 13 0 29 -14
42 -35 7 -11 10 -13 8 -4 -4 12 1 15 21 11 26 -4 26 -4 7 11 -11 8 -23 13 -27
11 -4 -3 -5 2 -2 10 5 14 9 13 30 -1 13 -8 33 -13 43 -10 12 3 22 -1 25 -9 8
-21 26 -17 36 10 5 13 15 26 22 30 7 3 2 3 -12 0 -14 -3 -35 -6 -47 -7 -13 0
-23 -5 -23 -9 0 -4 -16 0 -35 9 -19 9 -35 20 -35 25 0 10 -3 10 44 -6 73 -25
149 13 162 81 3 18 10 33 15 33 5 0 7 -12 3 -27 l-6 -28 21 30 c14 22 28 30
49 30 21 1 28 -3 24 -13z m-583 -28 c-6 -8 -9 -17 -5 -21 3 -4 13 2 21 13 14
18 14 18 15 -3 0 -19 -5 -22 -34 -21 l-35 1 15 29 c8 16 19 26 25 22 6 -4 6
-11 -2 -20z m685 0 c3 -8 2 -12 -4 -9 -6 3 -10 10 -10 16 0 14 7 11 14 -7z
m86 -17 c0 -2 -19 -21 -42 -42 l-43 -40 40 43 c36 39 45 47 45 39z m-230 -46
c0 -6 -4 -13 -10 -16 -5 -3 -10 1 -10 9 0 9 5 16 10 16 6 0 10 -4 10 -9z
m-465 -11 c3 -5 1 -10 -4 -10 -6 0 -11 5 -11 10 0 6 2 10 4 10 3 0 8 -4 11
-10z m75 -135 c0 -8 -6 -15 -13 -15 -21 0 -44 31 -51 70 l-7 35 35 -37 c20
-21 36 -45 36 -53z m-2624 49 c-3 -8 -2 -12 3 -9 13 8 102 -85 94 -98 -3 -5
-2 -7 4 -4 5 3 22 -6 38 -20 17 -16 23 -29 17 -31 -7 -2 -10 -7 -8 -11 3 -4
-32 -26 -77 -49 -45 -23 -120 -63 -167 -88 -122 -66 -173 -92 -190 -96 -8 -2
-18 -7 -21 -12 -13 -17 -287 -162 -294 -155 -2 3 5 70 17 150 l21 144 46 23
c25 12 69 35 96 51 28 15 102 55 165 88 63 33 144 76 180 96 73 41 85 44 76
21z m8611 -26 c43 -24 90 -49 105 -57 15 -8 25 -18 22 -22 -3 -5 2 -6 10 -3 9
3 30 -3 48 -14 18 -11 69 -39 113 -62 136 -73 150 -81 161 -96 10 -12 13 -12
17 -2 2 7 7 -14 11 -47 4 -33 11 -79 16 -102 6 -23 10 -58 10 -78 0 -20 5 -45
10 -56 15 -27 6 -24 -85 26 -119 65 -181 98 -275 147 -47 23 -87 45 -90 48 -3
3 -27 17 -55 31 -186 97 -265 142 -265 148 0 14 52 61 61 55 5 -3 6 3 2 12 -5
14 -3 16 11 11 10 -4 15 -3 11 3 -5 7 70 98 82 100 2 0 38 -19 80 -42z m-5707
-3 c0 -8 -4 -15 -10 -15 -5 0 -7 7 -4 15 4 8 8 15 10 15 2 0 4 -7 4 -15z m-60
-83 c0 -4 -40 -13 -90 -20 -97 -13 -190 -43 -212 -69 -12 -14 -9 -15 22 -10
128 24 434 47 419 32 -3 -2 -54 -11 -115 -20 -137 -19 -206 -39 -241 -69 -15
-14 -26 -26 -23 -29 3 -2 64 6 135 19 72 12 168 26 215 30 76 6 83 5 70 -9 -8
-8 -67 -29 -130 -47 -213 -58 -263 -75 -274 -92 -17 -27 -2 -30 63 -13 120 31
308 65 315 57 16 -15 -54 -52 -154 -82 -88 -26 -121 -42 -172 -82 l-37 -29
-63 33 c-35 18 -65 36 -68 39 -3 3 -29 19 -59 35 -29 15 -56 34 -58 41 -7 18
77 150 124 195 38 37 107 72 173 88 45 10 160 12 160 2z m280 -167 c32 -17 76
-68 144 -172 68 -102 145 -172 241 -217 259 -123 308 -150 352 -192 26 -24 44
-46 42 -49 -6 -6 -304 38 -399 58 -96 21 -252 64 -356 98 -80 26 -97 36 -140
81 -61 65 -98 80 -188 78 -93 -3 -96 -2 -96 14 0 16 75 47 185 77 78 21 117
39 82 39 -27 0 -20 15 18 41 41 28 65 73 65 123 0 40 7 43 50 21z"/>
<path d="M8817 8280 c-244 -14 -527 -47 -527 -62 0 -11 6 -10 140 8 136 18
665 20 825 3 55 -5 149 -10 209 -9 96 1 108 0 97 -14 -10 -12 -8 -17 10 -26
20 -11 21 -10 17 8 -5 17 -1 19 33 18 22 0 39 -3 39 -6 0 -4 16 -6 37 -6 31 1
38 -3 52 -31 18 -38 31 -42 31 -12 0 20 1 21 25 5 30 -20 49 -21 42 -2 -4 10
-1 13 8 10 11 -5 29 -44 22 -50 -11 -10 -223 -42 -225 -34 -5 15 -22 12 -22
-4 0 -8 -7 -17 -16 -20 -12 -5 -15 0 -12 19 2 13 0 24 -4 25 -32 1 -40 -4 -49
-30 -10 -27 -15 -30 -54 -30 -34 0 -44 4 -48 19 -6 25 -30 21 -54 -7 -15 -20
-32 -24 -113 -31 -52 -4 -100 -4 -106 1 -6 5 -22 5 -35 0 -13 -4 -77 -8 -142
-7 -114 1 -122 -8 -17 -18 28 -3 50 -1 50 4 0 5 7 9 15 9 8 0 15 -7 15 -16 0
-12 7 -14 33 -8 44 10 86 7 101 -6 9 -6 34 -8 69 -4 l55 7 21 -41 c12 -23 21
-44 21 -47 0 -3 -26 -5 -57 -5 -52 -1 -93 -15 -93 -34 0 -3 16 -29 36 -56 20
-28 34 -53 31 -56 -6 -6 -150 -23 -156 -18 -2 2 -5 13 -6 24 -1 22 -33 60 -49
60 -6 0 -4 -6 6 -13 10 -8 15 -25 14 -46 -2 -27 2 -35 23 -44 14 -6 32 -11 40
-12 8 0 17 -7 21 -15 4 -8 12 -25 18 -37 6 -12 8 -24 3 -27 -7 -5 -88 5 -153
20 -21 4 -28 2 -28 -10 0 -24 -49 -20 -106 9 -59 30 -57 30 -44 6 14 -28 13
-31 -16 -31 -34 0 -80 28 -93 57 -6 12 -17 23 -25 23 -8 0 -17 6 -19 13 -4 8
-6 7 -6 -3 0 -8 6 -26 14 -40 23 -41 19 -50 -17 -39 -18 5 -64 8 -102 7 -60
-1 -71 1 -87 20 -9 12 -19 28 -22 35 -2 6 -8 8 -13 4 -4 -4 -2 -17 5 -29 9
-14 9 -18 1 -13 -7 4 -16 2 -20 -5 -13 -21 -70 -2 -89 31 -21 38 -41 37 -41 0
l0 -30 -37 13 c-29 9 -43 23 -60 55 -31 61 -36 63 -31 8 5 -45 4 -47 -16 -41
-51 15 -58 44 -60 267 -1 83 1 89 24 108 22 17 23 21 9 32 -38 30 -27 76 23
104 15 8 18 12 8 13 -24 0 -58 -28 -77 -63 -19 -37 -30 -234 -34 -566 l-2
-205 27 -21 c33 -27 166 -70 275 -90 152 -28 384 -36 651 -23 135 7 320 12
412 12 98 1 166 5 165 10 -5 28 266 32 299 5 13 -11 17 -11 24 1 5 10 28 16
64 18 41 2 62 9 79 25 13 12 33 30 45 39 21 17 30 52 14 62 -4 2 -24 7 -46 11
l-38 8 7 -42 c4 -27 3 -41 -4 -41 -6 0 -11 5 -11 10 0 6 -4 10 -10 10 -5 0
-10 -9 -10 -21 0 -11 -4 -17 -10 -14 -5 3 -10 15 -10 27 0 16 -3 18 -14 9 -11
-9 -15 -8 -18 6 -8 30 2 46 18 32 25 -20 25 -4 2 27 -23 28 -23 35 -28 354 -4
224 -9 332 -18 346 -15 27 -81 66 -147 87 -174 54 -637 86 -978 67z m1073
-252 c0 -30 -1 -31 -16 -16 -9 9 -14 24 -11 32 11 27 27 17 27 -16z m-88 -21
c-2 -14 2 -18 20 -17 50 4 54 0 25 -25 -39 -35 -60 -31 -85 14 -24 41 -18 52
23 48 13 -1 19 -8 17 -20z m-97 -7 c3 -6 -1 -13 -9 -16 -23 -9 -20 -27 3 -19
10 3 24 -1 31 -10 11 -13 8 -15 -23 -15 -37 0 -87 18 -87 31 0 4 -3 14 -6 23
-5 13 2 16 39 16 25 0 49 -5 52 -10z m-127 -31 c17 -16 32 -34 32 -38 0 -5
-15 -11 -32 -15 -25 -5 -35 -3 -43 10 -5 10 -18 26 -28 36 -43 45 23 52 71 7z
m-163 1 c0 -8 8 -16 18 -18 9 -2 17 1 17 7 0 6 5 11 11 11 7 0 9 -9 5 -24 -4
-15 -1 -26 7 -29 9 -4 9 -7 0 -18 -11 -11 -13 -10 -13 4 0 21 -16 22 -24 2 -8
-22 -44 -2 -52 30 -3 13 -12 26 -20 29 -25 10 -15 21 19 21 22 0 32 -5 32 -15z
m464 -82 c-1 -7 1 -21 5 -30 5 -10 6 -25 2 -33 -8 -22 -29 -18 -23 4 3 13 -3
22 -19 30 -40 18 -32 29 29 40 4 0 7 -5 6 -11z m-121 -10 c7 -7 12 -20 12 -29
0 -10 7 -16 17 -15 27 2 26 -28 -1 -40 -33 -15 -67 5 -48 28 10 12 7 17 -13
26 -38 17 -33 31 16 41 3 0 10 -4 17 -11z m-115 -18 c-3 -12 0 -20 7 -20 7 0
10 -8 7 -20 -3 -11 -1 -20 4 -20 5 0 9 6 9 13 0 6 5 4 11 -6 9 -14 7 -22 -8
-32 -10 -8 -23 -15 -29 -15 -20 0 -74 72 -74 99 0 10 16 15 57 19 16 1 20 -3
16 -18z m-131 -19 c-7 -4 -10 -15 -6 -24 3 -10 1 -17 -5 -17 -6 0 -11 -4 -11
-10 0 -5 7 -10 15 -10 8 0 15 5 15 12 0 12 29 -21 30 -34 0 -4 -15 -5 -32 -2
-32 6 -88 53 -88 74 0 6 12 10 28 10 15 0 34 4 42 10 8 5 17 7 19 4 3 -3 0 -9
-7 -13z m-144 -7 c14 -4 22 -13 20 -23 -2 -9 7 -24 20 -35 29 -23 23 -29 -37
-34 -43 -3 -52 0 -75 25 -33 36 -33 41 7 58 38 17 36 16 65 9z m364 -134 l33
-29 -39 -1 c-40 0 -76 22 -76 47 0 24 49 14 82 -17z m133 21 c3 -5 -5 -17 -17
-26 -21 -14 -24 -14 -34 0 -6 8 -16 15 -22 15 -6 0 -14 5 -17 10 -4 6 11 10
39 10 25 0 47 -4 51 -9z m-413 -38 c59 -57 18 -73 -53 -21 l-44 32 30 7 c17 4
32 7 34 8 3 0 18 -11 33 -26z m147 1 c29 -37 26 -44 -14 -44 -23 0 -35 5 -35
14 0 7 -7 19 -15 26 -23 19 -18 30 14 30 20 0 36 -9 50 -26z m-314 0 c11 -3
28 -18 37 -34 l16 -28 -42 -5 c-35 -4 -45 0 -68 24 -34 34 -34 36 -5 42 36 7
41 7 62 1z"/>
<path d="M9494 8179 c-3 -5 -14 -9 -25 -9 -10 0 -19 -5 -19 -11 0 -8 -4 -8
-15 1 -12 10 -25 8 -65 -6 -42 -15 -53 -16 -59 -5 -6 9 -11 10 -15 2 -12 -19
4 -31 44 -31 27 0 40 -5 42 -15 2 -13 9 -11 37 10 19 14 44 25 55 25 36 0 66
12 66 25 0 15 -38 27 -46 14z"/>
<path d="M9720 8150 c0 -5 5 -10 10 -10 6 0 10 5 10 10 0 6 -4 10 -10 10 -5 0
-10 -4 -10 -10z"/>
<path d="M9205 8130 c3 -5 8 -10 11 -10 2 0 4 5 4 10 0 6 -5 10 -11 10 -5 0
-7 -4 -4 -10z"/>
<path d="M9522 8099 c-17 -27 -6 -38 15 -16 11 11 14 20 7 27 -6 6 -14 2 -22
-11z"/>
<path d="M9670 8109 c0 -5 5 -7 10 -4 6 3 10 8 10 11 0 2 -4 4 -10 4 -5 0 -10
-5 -10 -11z"/>
<path d="M9470 8085 c0 -8 5 -15 10 -15 6 0 10 7 10 15 0 8 -4 15 -10 15 -5 0
-10 -7 -10 -15z"/>
<path d="M8438 8028 c14 -14 131 -28 138 -16 6 9 -18 14 -96 23 -45 5 -53 4
-42 -7z"/>
<path d="M8743 8006 c2 -6 27 -12 55 -14 41 -2 52 0 52 12 0 12 -12 15 -55 14
-35 -1 -54 -6 -52 -12z"/>
<path d="M8345 7950 c3 -5 8 -10 11 -10 2 0 4 5 4 10 0 6 -5 10 -11 10 -5 0
-7 -4 -4 -10z"/>
<path d="M8240 7905 c0 -8 6 -15 14 -15 8 0 21 -3 30 -6 10 -4 16 -1 16 9 0
15 -20 27 -46 27 -8 0 -14 -7 -14 -15z"/>
<path d="M8360 7910 c0 -5 5 -10 10 -10 6 0 10 5 10 10 0 6 -4 10 -10 10 -5 0
-10 -4 -10 -10z"/>
<path d="M8611 7886 c-14 -16 -4 -26 26 -26 28 0 30 11 4 27 -15 10 -22 9 -30
-1z"/>
<path d="M8373 7876 c5 -14 56 -26 63 -14 3 5 17 7 29 4 28 -7 43 10 17 18
-30 10 -113 4 -109 -8z"/>
<path d="M8893 7840 c2 -9 10 -13 22 -11 11 3 57 5 103 5 45 1 82 4 82 8 0 11
-79 20 -148 16 -49 -2 -62 -6 -59 -18z"/>
<path d="M8791 7795 c14 -50 38 -103 39 -85 0 9 12 2 30 -20 26 -31 29 -32 30
-14 0 12 10 29 23 37 l22 16 -32 0 c-24 1 -41 12 -76 51 l-46 51 10 -36z"/>
<path d="M8949 7795 c15 -32 40 -61 41 -48 0 7 -12 25 -26 40 -16 18 -22 21
-15 8z"/>
<path d="M8672 7751 c2 -14 9 -26 16 -29 17 -5 15 10 -3 34 -15 18 -15 18 -13
-5z"/>
<path d="M8480 7730 c0 -5 14 -10 31 -10 17 0 28 4 24 10 -3 6 -17 10 -31 10
-13 0 -24 -4 -24 -10z"/>
<path d="M10193 7393 c9 -11 17 -26 17 -34 0 -64 -154 -137 -310 -146 -146 -8
-178 -14 -197 -35 l-18 -21 75 6 c41 4 130 10 198 13 79 5 128 12 136 20 9 8
17 9 23 3 13 -13 131 -20 139 -7 4 5 10 5 17 -1 33 -27 138 6 218 70 20 16 42
29 48 29 18 0 13 28 -9 50 -31 31 -66 26 -73 -10 -8 -36 -54 -71 -67 -49 -5 7
-13 10 -17 5 -4 -5 -2 -11 5 -13 22 -8 13 -31 -15 -36 -16 -3 -30 -3 -32 -1
-2 2 4 23 13 47 21 55 20 70 -3 91 -14 13 -21 14 -26 6 -6 -9 -10 -9 -16 1 -6
10 -10 9 -15 -5 -5 -12 -2 -23 9 -31 10 -7 17 -20 17 -29 0 -10 5 -14 10 -11
19 12 9 -20 -15 -50 -20 -24 -25 -26 -25 -11 0 12 -5 16 -15 12 -12 -4 -15 5
-15 52 0 63 -12 86 -50 97 -24 7 -24 7 -7 -12z m37 -142 c0 -12 -29 -23 -42
-15 -6 4 -14 0 -19 -7 -6 -11 -11 -11 -21 -1 -9 9 -8 12 8 14 39 3 43 3 50 11
10 10 24 9 24 -2z"/>
<path d="M7930 7380 c0 -5 5 -10 10 -10 6 0 10 5 10 10 0 6 -4 10 -10 10 -5 0
-10 -4 -10 -10z"/>
<path d="M10640 7312 c0 -39 -23 -72 -65 -92 -23 -11 -50 -20 -61 -20 -22 0
-140 -44 -158 -59 -6 -5 -27 -11 -46 -13 -24 -2 -36 -9 -38 -20 -3 -14 3 -18
26 -18 31 0 144 26 171 40 32 15 88 30 117 30 18 0 34 7 41 19 7 11 28 24 47
31 22 7 35 17 34 28 0 9 3 26 6 37 9 28 -4 44 -42 51 -28 6 -32 4 -32 -14z"/>
<path d="M10270 7289 c0 -5 5 -7 10 -4 6 3 10 8 10 11 0 2 -4 4 -10 4 -5 0
-10 -5 -10 -11z"/>
<path d="M10822 7258 c3 -39 0 -44 -37 -69 -22 -14 -80 -39 -130 -54 -49 -15
-102 -33 -116 -41 -38 -19 -209 -52 -245 -47 -33 5 -74 -10 -74 -28 0 -6 4 -8
9 -5 5 4 11 0 14 -6 7 -22 104 -13 224 21 62 17 124 31 138 31 31 0 105 22
105 32 0 3 23 12 52 20 34 8 64 24 85 46 18 18 33 27 33 20 0 -9 3 -9 12 0 7
7 22 12 34 12 12 0 25 7 28 16 9 23 8 24 -19 24 -14 0 -25 -5 -25 -12 0 -6 -9
-2 -20 10 -11 12 -20 28 -20 36 0 13 -28 36 -45 36 -3 0 -4 -19 -3 -42z"/>
<path d="M9760 7250 c0 -23 80 -26 88 -2 2 8 -10 12 -42 12 -25 0 -46 -4 -46
-10z"/>
<path d="M8153 7193 c-49 -6 -40 -25 10 -21 23 2 41 7 40 13 -2 12 -9 13 -50
8z"/>
<path d="M10120 7160 c0 -5 5 -10 11 -10 5 0 7 5 4 10 -3 6 -8 10 -11 10 -2 0
-4 -4 -4 -10z"/>
<path d="M9476 7151 c-4 -5 -2 -12 3 -15 5 -4 12 -2 15 3 4 5 2 12 -3 15 -5 4
-12 2 -15 -3z"/>
<path d="M9520 7150 c0 -5 12 -10 26 -10 14 0 23 4 19 10 -3 6 -15 10 -26 10
-10 0 -19 -4 -19 -10z"/>
<path d="M10184 7118 c8 -39 15 -47 26 -28 7 10 10 11 10 3 0 -7 4 -13 9 -13
4 0 6 12 3 26 -3 16 -9 23 -18 20 -8 -3 -14 1 -14 9 0 8 -5 15 -11 15 -8 0 -9
-11 -5 -32z"/>
<path d="M10089 7135 c0 0 -2 -12 -3 -27 -2 -27 0 -28 41 -25 40 2 43 4 43 30
0 26 -2 27 -40 25 -22 -2 -40 -3 -41 -3z m41 -29 c0 -3 -4 -8 -10 -11 -5 -3
-10 -1 -10 4 0 6 5 11 10 11 6 0 10 -2 10 -4z"/>
<path d="M10005 7110 c3 -5 15 -10 26 -10 10 0 19 5 19 10 0 6 -12 10 -26 10
-14 0 -23 -4 -19 -10z"/>
<path d="M9015 7026 c-19 -14 -15 -15 45 -16 67 0 73 13 10 25 -24 4 -41 1
-55 -9z"/>
<path d="M6600 7720 c0 -5 5 -10 10 -10 6 0 10 5 10 10 0 6 -4 10 -10 10 -5 0
-10 -4 -10 -10z"/>
<path d="M6770 7461 c0 -6 5 -13 10 -16 6 -3 10 1 10 9 0 9 -4 16 -10 16 -5 0
-10 -4 -10 -9z"/>
<path d="M6870 7355 c0 -5 5 -17 10 -25 5 -8 10 -10 10 -5 0 6 -5 17 -10 25
-5 8 -10 11 -10 5z"/>
<path d="M7010 6990 c0 -5 5 -10 10 -10 6 0 10 5 10 10 0 6 -4 10 -10 10 -5 0
-10 -4 -10 -10z"/>
<path d="M7076 6852 c-3 -5 1 -15 9 -22 16 -14 20 -3 6 19 -5 8 -11 9 -15 3z"/>
<path d="M6268 7315 c-10 -13 -18 -29 -18 -35 0 -6 -4 -8 -10 -5 -12 7 -12
-12 0 -40 8 -19 9 -19 9 3 1 13 10 37 22 53 25 35 22 57 -3 24z"/>
<path d="M6206 7284 c-17 -24 -17 -26 0 -38 14 -10 14 -15 4 -21 -9 -5 -15 -4
-18 3 -2 7 -8 12 -14 12 -6 0 -3 -11 6 -24 9 -14 12 -27 7 -30 -5 -3 -12 1
-15 10 -7 19 -26 9 -26 -13 0 -9 3 -14 6 -10 4 3 15 -4 25 -16 l18 -22 7 33
c3 17 10 32 15 32 14 0 11 48 -3 53 -10 3 -10 9 0 27 19 32 8 36 -12 4z"/>
<path d="M9386 6610 c-41 -13 -65 -38 -72 -77 -9 -50 11 -89 60 -113 54 -25
86 -25 120 1 21 17 26 29 26 66 0 44 1 45 18 30 46 -42 59 8 14 53 -27 26 -88
51 -122 49 -8 0 -28 -5 -44 -9z"/>
<path d="M8518 6590 c-36 -19 -78 -64 -78 -83 0 -5 13 -7 29 -4 25 5 30 2 45
-31 36 -78 110 -98 156 -43 62 74 67 85 59 116 -5 17 -21 38 -38 48 -40 23
-125 22 -173 -3z"/>
<path d="M8953 6233 c-38 -19 -42 -44 -13 -73 10 -10 15 -22 11 -24 -10 -6
-253 2 -291 9 -39 8 -56 -8 -42 -39 28 -62 163 -121 329 -145 174 -25 367 31
483 140 31 29 70 83 70 97 0 20 -32 21 -83 2 -29 -11 -106 -29 -172 -40 -66
-11 -133 -23 -150 -26 l-30 -6 25 18 c56 38 59 64 9 89 -36 19 -105 18 -146
-2z m94 -153 c9 -17 30 -36 45 -43 16 -6 28 -15 28 -18 0 -10 -58 -19 -127
-19 l-65 0 41 46 c23 26 41 51 41 55 0 19 20 7 37 -21z"/>
<path d="M5715 6510 c3 -5 8 -10 11 -10 2 0 4 5 4 10 0 6 -5 10 -11 10 -5 0
-7 -4 -4 -10z"/>
<path d="M5866 6502 c-4 -7 -4 -21 -1 -33 4 -11 1 -26 -5 -34 -7 -8 -10 -20
-7 -27 2 -7 11 4 20 25 16 37 10 96 -7 69z"/>
<path d="M6095 5808 c-29 -10 -85 -55 -85 -68 0 -6 311 -1 318 5 9 8 -22 46
-48 60 -33 17 -139 19 -185 3z"/>
<path d="M6912 5809 c-31 -12 -52 -34 -52 -55 0 -15 9 -16 88 -10 48 3 114 2
147 -3 33 -5 62 -7 64 -5 12 11 -27 55 -61 68 -42 17 -149 20 -186 5z"/>
<path d="M6155 5673 c-59 -12 -102 -35 -118 -62 -25 -42 -22 -54 11 -46 24 5
28 3 30 -21 3 -34 37 -91 68 -110 75 -49 186 75 154 172 -16 47 -87 80 -145
67z"/>
<path d="M6929 5647 c-68 -46 -58 -141 21 -194 73 -50 144 -16 156 75 l6 50
30 -10 c39 -14 44 -5 22 33 -41 69 -165 93 -235 46z"/>
<path d="M6553 5296 c-23 -20 -25 -26 -15 -39 7 -8 26 -20 42 -27 25 -10 34
-9 62 7 47 27 47 49 2 68 -49 20 -58 19 -91 -9z"/>
<path d="M6367 5183 c-2 -5 0 -22 4 -38 11 -40 54 -64 136 -76 139 -20 323 30
323 88 0 20 -34 16 -139 -18 -110 -35 -125 -34 -230 16 -76 37 -87 40 -94 28z"/>
<path d="M7330 6280 c0 -8 5 -22 10 -30 9 -13 10 -13 10 0 0 8 -5 22 -10 30
-9 13 -10 13 -10 0z"/>
<path d="M7530 6290 c0 -5 5 -10 10 -10 6 0 10 5 10 10 0 6 -4 10 -10 10 -5 0
-10 -4 -10 -10z"/>
<path d="M5231 5698 c-7 -11 -10 -22 -7 -25 3 -3 8 1 12 10 3 9 12 13 20 10 8
-3 14 -1 14 5 0 20 -27 20 -39 0z"/>
<path d="M8545 4868 c18 -61 54 -84 299 -190 54 -24 99 -46 100 -51 0 -4 -34
-23 -77 -41 -86 -38 -167 -98 -167 -125 0 -34 41 -52 84 -35 23 9 20 23 -3 17
-13 -3 -23 2 -30 16 -10 18 -7 22 18 35 44 23 142 59 147 54 2 -3 -9 -34 -25
-70 -42 -92 -71 -248 -74 -396 -2 -120 -1 -124 22 -143 32 -26 42 -13 31 36
-15 62 -12 218 5 300 29 141 98 280 144 292 30 7 71 -35 71 -73 0 -14 6 -24
14 -24 21 0 63 -71 76 -131 18 -80 10 -253 -12 -276 -32 -31 -42 -2 -49 135
-9 155 -19 231 -32 239 -11 7 -1 -325 12 -387 8 -42 32 -50 77 -25 47 25 59
56 58 149 -2 91 -18 159 -68 296 -20 52 -34 96 -32 98 2 2 22 -1 43 -7 52 -14
119 -71 110 -94 -5 -14 -11 -15 -34 -6 -15 6 -36 18 -45 26 -22 20 -23 5 -2
-25 21 -30 70 -54 94 -47 29 9 36 52 16 89 -21 40 -69 72 -148 101 -51 19 -59
25 -43 31 279 103 355 140 355 171 0 30 -130 -9 -339 -102 -98 -43 -98 -43
-276 16 -148 50 -229 90 -275 135 -42 40 -54 43 -45 12z"/>
<path d="M8994 4356 c-10 -26 1 -69 19 -80 23 -14 47 14 47 55 0 36 -54 57
-66 25z"/>
<path d="M9002 4068 c-25 -25 -5 -98 28 -98 18 0 40 32 40 59 0 30 -16 51 -40
51 -9 0 -21 -5 -28 -12z"/>
<path d="M9004 3672 c-19 -13 -23 -39 -8 -61 17 -23 53 -28 72 -9 37 37 -21
100 -64 70z"/>
<path d="M5640 5109 c0 -11 5 -17 10 -14 6 3 10 13 10 21 0 8 -4 14 -10 14 -5
0 -10 -9 -10 -21z"/>
<path d="M5690 5077 c0 -5 9 -20 20 -34 11 -14 20 -22 20 -17 -1 12 -39 61
-40 51z"/>
<path d="M5690 5020 c0 -5 5 -10 10 -10 6 0 10 5 10 10 0 6 -4 10 -10 10 -5 0
-10 -4 -10 -10z"/>
<path d="M4856 5024 c-4 -9 -4 -19 -1 -22 2 -3 7 3 11 12 4 9 4 19 1 22 -2 3
-7 -3 -11 -12z"/>
<path d="M7619 5043 c-13 -16 -12 -17 4 -4 16 13 21 21 13 21 -2 0 -10 -8 -17
-17z"/>
<path d="M5590 4981 c0 -5 5 -13 10 -16 6 -3 10 -2 10 4 0 5 -4 13 -10 16 -5
3 -10 2 -10 -4z"/>
<path d="M5812 4828 c2 -6 10 -14 16 -16 7 -2 10 2 6 12 -7 18 -28 22 -22 4z"/>
<path d="M5970 4631 c0 -6 5 -13 11 -17 8 -4 7 -9 -2 -15 -10 -6 -11 -9 -1 -9
6 0 12 -8 12 -17 1 -17 2 -16 11 1 8 13 8 25 0 42 -10 24 -31 33 -31 15z"/>
<path d="M7640 4963 c0 -15 19 -37 26 -31 3 4 -1 14 -10 23 -9 9 -16 13 -16 8z"/>
<path d="M7560 4875 c-13 -14 -19 -25 -14 -25 8 1 50 50 41 50 -2 0 -14 -11
-27 -25z"/>
<path d="M7240 4749 c-16 -29 -6 -35 18 -11 11 11 18 23 15 26 -11 11 -22 6
-33 -15z"/>
<path d="M7200 4698 c0 -9 -7 -18 -15 -22 -16 -6 -21 -26 -7 -26 12 0 37 49
29 57 -4 3 -7 -1 -7 -9z"/>
<path d="M7090 4510 c-14 -10 -22 -21 -19 -25 4 -3 20 5 35 19 34 30 21 35
-16 6z"/>
<path d="M6870 4290 c0 -5 5 -10 10 -10 6 0 10 5 10 10 0 6 -4 10 -10 10 -5 0
-10 -4 -10 -10z"/>
<path d="M5820 4750 c0 -5 5 -10 10 -10 6 0 10 5 10 10 0 6 -4 10 -10 10 -5 0
-10 -4 -10 -10z"/>
<path d="M7575 4720 c3 -5 8 -10 11 -10 2 0 4 5 4 10 0 6 -5 10 -11 10 -5 0
-7 -4 -4 -10z"/>
<path d="M7675 4700 c3 -5 8 -10 11 -10 2 0 4 5 4 10 0 6 -5 10 -11 10 -5 0
-7 -4 -4 -10z"/>
<path d="M7720 4700 c0 -5 7 -10 15 -10 8 0 15 5 15 10 0 6 -7 10 -15 10 -8 0
-15 -4 -15 -10z"/>
<path d="M5455 4701 c-3 -6 3 -9 14 -8 11 0 17 5 15 9 -7 11 -22 10 -29 -1z"/>
<path d="M5748 4593 c7 -3 16 -2 19 1 4 3 -2 6 -13 5 -11 0 -14 -3 -6 -6z"/>
<path d="M7365 4580 c-8 -13 5 -13 25 0 13 8 13 10 -2 10 -9 0 -20 -4 -23 -10z"/>
<path d="M7480 4550 c0 -5 4 -10 9 -10 6 0 13 5 16 10 3 6 -1 10 -9 10 -9 0
-16 -4 -16 -10z"/>
<path d="M5690 4470 c0 -5 5 -10 10 -10 6 0 10 5 10 10 0 6 -4 10 -10 10 -5 0
-10 -4 -10 -10z"/>
<path d="M7410 4475 c7 -9 15 -13 17 -11 7 7 -7 26 -19 26 -6 0 -6 -6 2 -15z"/>
<path d="M7250 4385 c-7 -8 -9 -15 -6 -15 4 0 14 7 22 15 9 8 11 15 6 15 -5 0
-15 -7 -22 -15z"/>
<path d="M7208 4363 c7 -3 16 -2 19 1 4 3 -2 6 -13 5 -11 0 -14 -3 -6 -6z"/>
<path d="M6350 3991 c-13 -25 -13 -34 0 -26 16 10 32 45 21 45 -6 0 -15 -9
-21 -19z"/>
<path d="M6320 3990 c0 -5 5 -10 10 -10 6 0 10 5 10 10 0 6 -4 10 -10 10 -5 0
-10 -4 -10 -10z"/>
<path d="M6090 3856 c0 -9 5 -16 10 -16 6 0 10 4 10 9 0 6 -4 13 -10 16 -5 3
-10 -1 -10 -9z"/>
<path d="M6108 3808 c-7 -18 2 -39 13 -32 12 7 12 44 0 44 -5 0 -11 -6 -13
-12z"/>
<path d="M6690 3935 c0 -8 5 -15 10 -15 6 0 10 7 10 15 0 8 -4 15 -10 15 -5 0
-10 -7 -10 -15z"/>
<path d="M6790 3848 c0 -4 7 -8 15 -8 8 0 23 -9 34 -21 11 -12 24 -18 29 -15
5 3 15 -1 22 -9 16 -19 30 -19 30 1 0 8 -4 12 -10 9 -5 -3 -10 4 -10 16 0 17
-3 19 -14 10 -10 -8 -16 -8 -25 3 -13 15 -71 27 -71 14z"/>
<path d="M6966 4067 c-11 -8 -16 -20 -13 -28 4 -10 6 -9 6 4 1 10 6 15 12 12
5 -4 22 -4 37 0 25 7 25 8 7 15 -28 12 -29 12 -49 -3z"/>
<path d="M6972 4028 c6 -18 28 -21 28 -4 0 9 -7 16 -16 16 -9 0 -14 -5 -12
-12z"/>
<path d="M11568 3883 c7 -3 16 -2 19 1 4 3 -2 6 -13 5 -11 0 -14 -3 -6 -6z"/>
<path d="M4045 3750 c-3 -5 -1 -10 4 -10 6 0 11 5 11 10 0 6 -2 10 -4 10 -3 0
-8 -4 -11 -10z"/>
<path d="M3735 3390 c3 -5 8 -10 11 -10 2 0 4 5 4 10 0 6 -5 10 -11 10 -5 0
-7 -4 -4 -10z"/>
<path d="M5823 3883 c-15 -5 -17 -23 -4 -23 5 0 11 7 15 15 3 8 4 15 3 14 -1
0 -8 -3 -14 -6z"/>
<path d="M5824 3839 c-3 -6 -1 -16 5 -22 8 -8 11 -5 11 11 0 24 -5 28 -16 11z"/>
<path d="M5887 3803 c-15 -14 -6 -31 12 -26 12 3 17 11 14 19 -6 15 -16 18
-26 7z"/>
<path d="M5945 3720 c-11 -5 -17 -9 -13 -9 3 -1 13 -4 21 -7 8 -3 17 2 20 10
7 18 2 19 -28 6z"/>
<path d="M5938 3683 c7 -3 16 -2 19 1 4 3 -2 6 -13 5 -11 0 -14 -3 -6 -6z"/>
<path d="M5970 3580 c0 -5 9 -10 20 -10 11 0 20 5 20 10 0 6 -9 10 -20 10 -11
0 -20 -4 -20 -10z"/>
<path d="M6570 3865 c0 -18 36 -38 58 -32 14 4 13 6 -5 12 -13 4 -23 14 -23
21 0 8 -7 14 -15 14 -8 0 -15 -7 -15 -15z"/>
<path d="M7170 3750 c0 -5 5 -10 11 -10 5 0 7 5 4 10 -3 6 -8 10 -11 10 -2 0
-4 -4 -4 -10z"/>
<path d="M7110 3720 c0 -5 5 -10 11 -10 5 0 7 5 4 10 -3 6 -8 10 -11 10 -2 0
-4 -4 -4 -10z"/>
<path d="M7135 3690 c-3 -5 -1 -10 4 -10 6 0 11 5 11 10 0 6 -2 10 -4 10 -3 0
-8 -4 -11 -10z"/>
<path d="M7187 3673 c-7 -36 -2 -41 13 -13 8 14 8 26 2 32 -6 6 -11 -1 -15
-19z"/>
<path d="M7110 3606 c0 -9 5 -16 10 -16 6 0 10 4 10 9 0 6 -4 13 -10 16 -5 3
-10 -1 -10 -9z"/>
<path d="M7005 3520 c3 -5 8 -10 11 -10 2 0 4 5 4 10 0 6 -5 10 -11 10 -5 0
-7 -4 -4 -10z"/>
<path d="M6530 3820 c0 -5 5 -10 10 -10 6 0 10 5 10 10 0 6 -4 10 -10 10 -5 0
-10 -4 -10 -10z"/>
<path d="M6720 3746 c0 -2 7 -7 16 -10 8 -3 12 -2 9 4 -6 10 -25 14 -25 6z"/>
<path d="M6280 3669 c11 -8 6 -9 -22 -4 -36 6 -65 -10 -31 -17 29 -6 97 13 81
23 -7 5 -20 9 -28 9 -13 0 -13 -1 0 -11z"/>
<path d="M6345 3370 c3 -5 8 -10 11 -10 2 0 4 5 4 10 0 6 -5 10 -11 10 -5 0
-7 -4 -4 -10z"/>
<path d="M6375 3310 c3 -5 8 -10 11 -10 2 0 4 5 4 10 0 6 -5 10 -11 10 -5 0
-7 -4 -4 -10z"/>
<path d="M6736 3365 c-4 -16 -13 -33 -19 -37 -9 -6 -9 -8 1 -8 14 0 35 46 29
64 -2 6 -7 -3 -11 -19z"/>
<path d="M3546 2881 c-4 -7 -5 -15 -2 -18 9 -9 19 4 14 18 -4 11 -6 11 -12 0z"/>
<path d="M3181 2744 c0 -11 3 -14 6 -6 3 7 2 16 -1 19 -3 4 -6 -2 -5 -13z"/>
<path d="M3151 2694 c0 -11 3 -14 6 -6 3 7 2 16 -1 19 -3 4 -6 -2 -5 -13z"/>
<path d="M3158 2653 c7 -3 16 -2 19 1 4 3 -2 6 -13 5 -11 0 -14 -3 -6 -6z"/>
<path d="M12130 3056 c0 -2 7 -9 15 -16 9 -7 15 -8 15 -2 0 5 -7 12 -15 16 -8
3 -15 4 -15 2z"/>
<path d="M12587 3009 c7 -7 15 -10 18 -7 3 3 -2 9 -12 12 -14 6 -15 5 -6 -5z"/>
<path d="M12270 2960 c-8 -5 -10 -10 -5 -10 6 0 17 5 25 10 8 5 11 10 5 10 -5
0 -17 -5 -25 -10z"/>
<path d="M12377 2899 c7 -7 15 -10 18 -7 3 3 -2 9 -12 12 -14 6 -15 5 -6 -5z"/>
<path d="M12428 2883 c7 -3 16 -2 19 1 4 3 -2 6 -13 5 -11 0 -14 -3 -6 -6z"/>
<path d="M12812 2865 c0 -16 2 -22 5 -12 2 9 2 23 0 30 -3 6 -5 -1 -5 -18z"/>
<path d="M12525 2820 c3 -5 8 -10 11 -10 2 0 4 5 4 10 0 6 -5 10 -11 10 -5 0
-7 -4 -4 -10z"/>
<path d="M12835 2670 c-3 -5 -1 -10 4 -10 6 0 11 5 11 10 0 6 -2 10 -4 10 -3
0 -8 -4 -11 -10z"/>
<path d="M10135 10315 c-22 -7 -56 -14 -75 -14 -30 -1 -46 -12 -104 -70 -38
-38 -66 -73 -62 -79 11 -19 175 24 242 63 44 26 87 80 81 100 -5 15 -37 15
-82 0z"/>
<path d="M5066 1655 c-66 -166 -88 -205 -114 -205 -7 0 -12 -4 -12 -10 0 -6
32 -10 76 -10 47 0 73 4 69 10 -3 6 -14 10 -24 10 -33 0 -42 23 -28 66 l14 39
80 3 80 3 16 -43 c23 -58 21 -68 -8 -68 -14 0 -25 -4 -25 -10 0 -6 32 -10 75
-10 70 0 99 11 57 22 -12 4 -40 61 -92 192 -41 102 -79 186 -85 186 -5 0 -41
-79 -79 -175z m99 12 c14 -37 25 -72 25 -77 0 -6 -30 -10 -66 -10 -36 0 -64 3
-62 8 2 4 17 42 33 84 17 42 33 74 37 70 4 -4 18 -37 33 -75z"/>
<path d="M5404 1794 c-28 -29 -34 -43 -34 -77 1 -66 26 -89 131 -118 88 -24
109 -41 109 -85 0 -67 -90 -97 -156 -52 -34 24 -64 66 -64 92 0 9 -7 16 -15
16 -12 0 -15 -14 -15 -69 0 -74 12 -96 36 -63 14 20 14 20 51 1 95 -48 202 9
203 108 0 52 -39 88 -117 109 -109 28 -123 38 -123 84 0 52 32 75 91 67 49 -6
62 -17 89 -73 12 -24 26 -44 31 -44 5 0 9 32 9 70 0 72 -10 87 -35 53 -12 -16
-14 -16 -38 0 -15 10 -46 17 -73 17 -41 0 -51 -5 -80 -36z"/>
<path d="M7600 1816 c0 -9 9 -16 20 -16 19 0 20 -7 21 -192 0 -176 1 -191 15
-171 l16 22 39 -20 c96 -51 184 48 152 170 -17 66 -106 99 -152 57 -20 -18
-20 -18 -23 70 l-3 89 -42 3 c-34 2 -43 0 -43 -12z m207 -186 c34 -67 1 -190
-51 -190 -59 0 -90 121 -49 191 15 25 23 29 53 27 25 -2 38 -10 47 -28z"/>
<path d="M7897 1823 c-14 -13 -6 -23 18 -23 l25 0 0 -175 c0 -168 -1 -175 -20
-175 -11 0 -20 -4 -20 -10 0 -6 30 -10 71 -10 44 0 68 4 64 10 -3 6 -15 10
-26 10 -18 0 -19 9 -19 190 l0 190 -43 0 c-24 0 -47 -3 -50 -7z"/>
<path d="M8100 1816 c-18 -22 -5 -48 22 -44 17 2 23 10 23 28 0 29 -26 38 -45
16z"/>
<path d="M5670 1810 c0 -5 14 -10 30 -10 l30 0 0 -175 0 -175 -30 0 c-16 0
-30 -4 -30 -10 0 -14 241 -13 277 1 46 17 73 49 73 86 0 49 -16 72 -63 94 -23
10 -37 19 -30 19 6 0 25 12 42 26 25 20 31 34 31 64 0 30 -6 44 -31 64 -30 25
-35 26 -165 26 -83 0 -134 -4 -134 -10z m251 -31 c17 -17 20 -29 16 -63 -8
-54 -35 -76 -98 -76 l-49 0 0 80 0 80 55 0 c43 0 60 -5 76 -21z m9 -177 c32
-26 38 -90 10 -125 -21 -26 -27 -28 -84 -25 l-61 3 -3 83 -3 82 59 0 c42 0 66
-5 82 -18z"/>
<path d="M6055 1810 c3 -5 17 -10 29 -10 21 0 24 -6 30 -61 8 -78 8 -237 0
-266 -4 -16 -14 -23 -30 -23 -12 0 -26 -5 -29 -10 -4 -7 49 -10 162 -8 l168 3
3 73 c2 45 -1 72 -8 72 -5 0 -10 -7 -10 -15 0 -26 -39 -94 -59 -105 -11 -5
-47 -10 -80 -10 l-61 0 0 175 0 175 29 0 c17 0 33 5 36 10 4 6 -28 10 -90 10
-62 0 -94 -4 -90 -10z"/>
<path d="M9613 1799 c-18 -5 -40 -21 -49 -35 -32 -47 -10 -126 30 -111 23 9
20 43 -5 61 -21 14 -21 16 -6 39 21 33 80 44 113 22 19 -12 24 -24 24 -55 0
-59 -10 -77 -104 -182 -47 -53 -86 -99 -86 -102 0 -3 53 -6 119 -6 l118 0 7
38 c8 52 7 72 -3 72 -5 0 -12 -12 -16 -27 -9 -39 -20 -43 -105 -43 l-75 1 45
41 c126 115 140 130 149 163 24 87 -59 153 -156 124z"/>
<path d="M9964 1796 c-17 -8 -42 -31 -55 -52 -21 -34 -24 -51 -24 -131 0 -86
2 -94 30 -135 59 -84 155 -74 197 20 25 55 29 157 9 215 -14 40 -54 87 -74 87
-7 0 -21 2 -32 5 -11 3 -34 -1 -51 -9z m87 -32 c22 -23 24 -35 27 -137 4 -153
-20 -201 -92 -183 -29 7 -46 45 -53 121 -9 94 4 173 32 201 31 31 56 30 86 -2z"/>
<path d="M10320 1799 c-45 -18 -70 -50 -70 -89 0 -20 5 -41 12 -48 19 -19 46
-14 54 10 5 16 0 26 -19 40 -23 17 -25 22 -14 39 18 29 70 43 104 27 72 -34
50 -114 -67 -238 -43 -47 -79 -91 -80 -97 0 -10 30 -13 120 -13 l120 0 0 55
c0 30 -2 55 -5 55 -3 0 -11 -16 -19 -35 l-15 -35 -76 0 c-72 0 -75 1 -63 18 7
11 43 45 81 76 37 32 74 70 82 86 33 65 5 131 -63 150 -44 12 -49 12 -82 -1z"/>
<path d="M6980 1754 c-36 -37 -40 -45 -22 -39 41 12 91 49 92 68 0 29 -24 19
-70 -29z"/>
<path d="M10675 1688 c-44 -61 -86 -117 -93 -125 -29 -29 -6 -43 67 -43 38 0
72 -4 76 -10 3 -5 3 -21 -1 -35 -4 -18 -13 -25 -30 -25 -13 0 -24 -4 -24 -10
0 -6 32 -10 75 -10 41 0 75 4 75 9 0 5 -10 11 -22 13 -18 2 -24 11 -26 36 -3
30 -1 32 27 32 21 0 31 5 31 15 0 10 -10 15 -30 15 l-30 0 0 125 c0 69 -3 125
-8 125 -4 0 -43 -50 -87 -112z m55 -53 l0 -85 -65 0 -65 0 46 68 c48 68 74
102 81 102 1 0 3 -38 3 -85z"/>
<path d="M7170 1759 c0 -30 -30 -77 -54 -84 -20 -5 -19 -6 7 -21 26 -14 27
-16 27 -108 0 -100 4 -109 52 -121 22 -6 33 -1 58 23 16 17 30 40 30 51 0 32
-17 25 -23 -9 -5 -21 -14 -31 -33 -36 -37 -9 -44 7 -44 108 l0 87 37 3 c52 4
56 28 4 28 l-41 0 0 50 c0 28 -4 50 -10 50 -5 0 -10 -9 -10 -21z"/>
<path d="M7395 1683 c-51 -12 -87 -83 -49 -97 25 -9 36 3 32 37 -3 26 1 32 25
40 39 13 77 -13 77 -52 0 -25 -5 -30 -32 -36 -66 -14 -109 -38 -124 -66 -35
-69 57 -118 130 -69 30 19 30 19 44 -1 9 -13 23 -19 40 -17 31 4 43 28 13 28
-20 0 -21 5 -21 95 0 82 -3 97 -21 113 -17 17 -68 34 -88 31 -3 -1 -15 -3 -26
-6z m85 -162 c0 -31 -6 -44 -26 -60 -51 -40 -107 -17 -88 37 9 27 63 62 97 62
13 0 17 -9 17 -39z"/>
<path d="M8294 1681 c-41 -18 -74 -74 -74 -124 0 -60 16 -93 57 -118 26 -16
44 -20 75 -16 46 6 105 54 88 71 -7 7 -15 3 -26 -13 -20 -28 -58 -43 -90 -35
-26 7 -54 50 -54 84 0 19 6 20 84 20 47 0 87 4 90 8 10 16 -14 78 -38 101 -26
25 -80 35 -112 22z m89 -42 c12 -17 17 -34 12 -48 -5 -18 -14 -21 -66 -21 -55
0 -59 1 -59 24 0 13 10 35 21 50 27 34 64 32 92 -5z"/>
<path d="M8753 1671 c-111 -70 -67 -251 61 -251 27 0 46 8 74 34 20 19 33 38
29 43 -5 4 -17 -2 -27 -15 -29 -36 -75 -48 -106 -28 -14 10 -29 28 -34 42 -20
52 -17 54 80 54 84 0 90 1 90 20 0 27 -22 70 -48 93 -31 28 -82 31 -119 8z
m97 -28 c11 -15 20 -36 18 -47 -3 -18 -11 -21 -67 -24 l-64 -3 7 33 c7 36 38
68 66 68 10 0 28 -12 40 -27z"/>
<path d="M6916 1659 c-54 -42 -69 -107 -42 -173 35 -84 142 -88 189 -7 22 37
13 40 -19 6 -41 -44 -105 -29 -130 30 -26 63 -23 65 72 65 l86 0 -6 28 c-15
63 -98 92 -150 51z m84 -18 c18 -35 12 -41 -45 -41 -47 0 -54 2 -48 18 15 42
74 57 93 23z"/>
<path d="M8050 1670 c0 -5 11 -10 25 -10 31 0 37 -21 33 -125 -3 -74 -5 -80
-25 -83 -51 -7 -19 -22 47 -22 66 0 98 15 48 22 -22 3 -23 7 -26 116 l-3 112
-49 0 c-28 0 -50 -4 -50 -10z"/>
<path d="M8945 1671 c-3 -5 5 -11 17 -13 22 -3 23 -8 26 -101 3 -92 1 -99 -18
-104 -41 -11 -18 -23 45 -23 37 0 65 4 65 10 0 6 -9 10 -19 10 -25 0 -35 44
-26 111 8 60 33 89 75 89 40 0 50 -23 50 -119 0 -74 -2 -81 -20 -81 -11 0 -20
-4 -20 -10 0 -6 28 -10 65 -10 37 0 65 4 65 10 0 6 -9 10 -20 10 -11 0 -20 3
-20 8 0 4 -1 46 -3 93 -2 69 -6 91 -21 108 -26 28 -94 29 -124 1 -12 -11 -24
-20 -27 -20 -3 0 -5 9 -5 20 0 17 -7 20 -39 20 -22 0 -42 -4 -46 -9z"/>
<path d="M6502 1481 c-8 -4 -12 -19 -10 -32 2 -18 9 -24 28 -24 19 0 26 6 28
24 3 20 -11 41 -28 41 -3 0 -11 -4 -18 -9z"/>
</g>
</svg>
