<?xml version="1.0" encoding="UTF-8"?>
<svg id="Layer_1" xmlns="http://www.w3.org/2000/svg" viewBox="0 0 467.29 424.15">
  <defs>
    <style>
      .cls-1 {
        fill: #fff;
        stroke: #000;
        stroke-miterlimit: 10;
        stroke-width: 1.47px;
      }
    </style>
  </defs>
  <g id="Layer">
    <path class="cls-1" d="M299.22.74c-17.92-.02-35.71,1.55-53.73,4.21.5,1.08.24,1.2,1.74,1.05,4.91-.5,9.78-1.4,14.69-1.76,5.93-.43,11.87-.57,17.82-.59,11.21-.03,22.42.18,33.63.44,2.2.05,4.25,1.35,6.44,1.36,6.61.04,12.19-1.71,18.58,1.48.37-1.5-.07-.88,1.74-1.48v1.98c.5-.74.49-.75.99-1.49.74.74.74.75,1.49,1.49,1.58-1.87,3.83-.09,3.47,1.98,1.72.82,1.23.14,1.49,1.98h.99q-.74-1.49-1.48-2.98c4.33,1.34,2.86.11,4.96,2.98v-1.49c.49.25.49.25.99.5-.5-.99-.49-.99-.99-1.98,2.7.45,2.87,2.03,3.46,4.46-2.81-.32-3.41,1.26-6.44.5v.99h-3.96v1c-1.49-.25-1.48-.25-2.97-.5-.56,1.67-1.89,1.56-3.28.86.16-.68.15-.68.31-1.36h-.99c-.36,2.68.31,1.58-2.48,2.98q.25-1.98.5-3.96h-1.5v.99c-.74-.25-.74-.25-1.48-.5q-.74,2.23-1.48,4.46c-1.94-.73-4.57-1.02-6.2.24-.12-1.61-.12-1.6-.24-3.21-.99.25-.99.24-1.98.49.25-1.24.25-1.23.5-2.47-1.04,2.35-1.2,4.6-4.15,5.19-3.39.69-6.87.88-10.32,1.06-2.84.15-2.46.22-3.37-1.3-2,1.5-1.14,1.2-4.71,1.24-8.18.09-16.35,0-24.52,0,.99,2.18,5.41,1.24,7.43,1.24v-1c3.48.06,7.08-.04,10.41,1,.25-.5.24-.5.49-1,.74.74.75.75,1.49,1.49v-1.49c2.22.07,1.32-.26,2.78.62-.15.68-.16.68-.32,1.36,4.08-.9,5.27-1.85,9.11-.49.4.14.38,1.01.8.99,8.56-.48,6.46-4.29,10.9,5.45-2.52.8-5.53,1.11-7.93,0-.7,1.99-.05.88-2.98,2.48,1.62,1.38,2.55,3.08,3.54,4.82,1.72-5.33,12.27-4.27,8.35-.36,2.77,0,2.47.65,3.96,3.47-2.45,0-5.4-.59-7.43,1v-1c-1.86,0-1.72-.06-2.48-1.98-.49.5-.49.5-.99,1-.25-.74-.25-.75-.5-1.49.5.25.5.25,1,.5-.23-1.22-.48-1.31-1.49-1.98-.21.43-.26.53-.43.85,0,0,0,0,0,.01.69,1.21,1.39,2.44,2.41,3.6q-5.95.5-11.89.99c-.11-.91-.15-1.39-.19-1.89-.12.37-.24.75-.3.9-.17-.33-.83-1.65-1-1.98.2.07.84.28,1.22.41-.16-1.49-.37-1.04-3.2-3.87v1.48c.49-.12.5-.13,1-.25.49.87.49.87.99,1.74h-.99c.84,2.82,1.24,1.73-.5,3.47,3.59.32,2.14-.42,4.46,1.98.25-.5.24-.49.49-.99,3.68,1.67,1.6,3.62,3.96,6.44-4.7.11-9.59-.54-13.87-2.48q.62,1.24,1.24,2.48c-5.88.52-7.62-.22-11.64-3.96q.99,2.23,1.98,4.45c-4.69,0-8.57-.93-9.91-5.95-.74.25-.75.25-1.49.5-.25-.99-.24-.99-.49-1.98-.64,2.37,1.29,4.79,2.47,6.94-2.98-.13-7.3-1.84-9.91-1-.25-.99-.24-.99-.49-1.98v2.48c-5.44-.23-5.47-.52-7.93-5.45-.25,1.24-.25,1.23-.5,2.47.49-.25.49-.24.99-.49.25,1.24.25,1.23.5,2.47q-.99-.74-1.98-1.48v2.23c-4.25-.85-6.41-.94-7.34-5.4-.79.1-.78.1-1.57.2-.49-1.73-.5-1.74-1-3.48q.74,3.72,1.48,7.44c-6.55-1.05-6.95-2-8.91-8.43-1.12,2.03.03,4.66.5,6.93-6.08-1.75-5.95-2.41-5.95-8.42h.99c-2.6-5-2.09-11.28-1.24-16.85.22-1.44,2.15-1.98,3.22-2.97-6.21-2.18-1.04-9.18,3.96-7.93-7.14-2.38-9.3,4.69-9.54,10.53-.56,13.91-.94,27.82-1.12,41.74-.03,2,.24,4.77,2.42,5.82,16.05,7.73,37.86,8.32,55.3,7.79,13.51-.41,27-1.42,40.51-1.92,4.46-.16,3.79-.09,7.05,1.43q-.74-.99-1.49-1.98c6.34-1.01,11.86-1.95,18.34-1.49-.5.5-.5.5-1,1,1.69-.38,1.08-.68,1.98.5.99-.5.99-.5,1.98-1q.5.99,1,1.98c.49-.25.49-.25.99-.5-.5-.74-.49-.74-.99-1.48,1.85.4,1.04.6,2.48-.5.49.5.49.5.99,1,.5-.74.5-.74,1-1.48.25.5.24.49.49.99,2.16-1.18,4.1.51,5.95-.99-.99.25-.99.24-1.98.49.28-1.26,14.08-7.37.5-9.41v2.98h1.49c-1.17,1.62-.87.66-.49,2.97q-1.24.25-2.48.5c.25-.99.25-.99.5-1.98h-1v2.48c-1.98-.26-1.13.18-2.48-1.49,1.51-1.2,1.37-.48,1-1.98-2.7,3.47-1.12,2.71-3.96,3.48.82-1.71.14-1.24,1.98-1.49-1.19-3.2-.88-1.4-.5-5.45,1.71.82,1.23.14,1.48,1.98h1.5c-2.89-4.14-2.88-3-3.1-8.73-.49-13.17.28-26.41-.98-39.52-.43-4.46-8.3-7.29-10.92-7.98-5.64-1.49-11.42-2.44-17.21-3.1-10.93-1.25-21.73-1.84-32.48-1.85ZM302.7,37.06c.02.15.06.47.07.67.08-.24.16-.48.19-.58-.04-.01-.18-.06-.26-.09ZM333.84,6.27c-.44.09-.98.49-1.64,1.15.74.25.74.24,1.48.49.25-.74.25-.74.5-1.48v1.98h.99c-.17-1.62-.6-2.29-1.33-2.13ZM328.73,7.42v1.98c-1.49-.5-1.48-.5-2.97-1,.25.74.25.74.5,1.48h-1.98v-.99h-1.49v1.98h-3.96c1.65-.28,2.9-.27,3.48-1.98-1.25.85-4.86,2.41-6.44,2.48.25-.74.25-.75.5-1.49h-1.98c.52,3.62,3.71,2.2,6.93,1.98v1.49c-.5-.5-.49-.5-.99-1,.28.65.27.65.55,1.3,3.01-.4,4.06-4.15,7.87-2.78.45-1.18,1.43-1.32,2.48-1,.25-.99.25-.99.5-1.98-1.48.3-1.93.65-2.98-.49ZM331.21,9.89c1.11.35,2.29,1.22,2.98,1.98-1-1.66-.97-2.15-2.98-1.98ZM339.14,7.42c-.08.17-.42.82-.5.99h1c-.08-.17-.42-.82-.5-.99ZM344.1,7.42c-.08.25-.42,1.24-.5,1.48h.99c-.08-.25-.41-1.24-.49-1.48ZM336.23,9.14c1.23.67.59.42,1.92.75-.96-.38-.96-.37-1.92-.75ZM344.58,9.4c-.08.25-.41,1.24-.49,1.48.25-.17,1.24-.83,1.48-1-.16-.08-.83-.41-1-.49ZM339.7,9.63c1.23.67.59.43,1.92.76-.96-.38-.96-.38-1.92-.76ZM309.91,10.39c-.33.16-1.65.83-1.98,1,.33.08,1.65.41,1.98.49v-1.48ZM331.71,11.39c-.08.17-.42.82-.5.99h1c-.08-.17-.42-.82-.5-.99ZM341.12,11.87c-.08.25-.41,1.25-.5,1.49.25-.08,1.25-.42,1.5-.5-.17-.17-.83-.83-1-1ZM326.32,12.11c1.23.67.59.43,1.92.76-.96-.38-.96-.38-1.92-.76ZM331.21,12.87c-.33.5-1.65,2.47-1.98,2.97.58-.33,2.89-1.65,3.47-1.98-.25-.17-1.24-.82-1.48-.99ZM328.43,13.78c-1.48.4-.96-.02-1.68,1.07.74.5.75.49,1.49.99.33-1.34.25-.64.19-2.05ZM333.69,15.35c.08.25.42,1.24.5,1.48-.17-.08-.83-.42-1-.5.08-.17.42-.82.5-.99ZM355.49,15.35q.5,2.97.99,5.95c-.74-.25-.74-.25-1.48-.5v1.48c-.49-.25-.49-.25-.99-.5-.7,2.09-3.28,2.11-4.96,3.48q-2.23-3.22-4.46-6.44c2.02-.31,6.22-1.91,6.94.99-1.24-.5-1.24-.49-2.48-.99.74.5.74.49,1.48.99-.49.25-.49.25-.99.5.25.5.25.5.5,1,.5-.25.49-.25.99-.5.25.5.25.49.5.99v-1.48c2.06.17,1.05-.12,2.97,1,.25-.74.25-.75.5-1.49-3.44-.86-1.5-2.97.5-4.45ZM323.28,16.83c.08.17.42.82.5.99-.17.08-.83.42-1,.5.08-.25.42-1.24.5-1.48ZM255.4,17.82c3.27,3.27,6.74.11,9.91,2.48v-.99h1.98q-5.95-.74-11.89-1.49ZM338.16,19.23c2.87-.07,7.35.09,4.44,2.55,2.26.99,2.41,1.09,2.98,3.48-4.13-1.38-8.44,1.12-9.41-5.95.26,0,1.03-.06,1.99-.08ZM330.69,19.87c2.69.34,6.05,4.36,6.96,5.87-11.26,2.62-3.18-1.01-9.91-3.47.65-1.95,1.73-2.56,2.95-2.41ZM317.83,20.8c2.18,1.09,3.67.57,5.95,0-.41,2.05-.83,2.93,1.54,3.05-.03-1.03-.03-1.03-.06-2.06,2.2.16,2.08,1.89,1,3.48,1.8.13,1.57.67,1.98,2.47-1.49.25-1.49.25-2.98.5q.5-1.24,1-2.48c-1.77.22-1.85.83-1.5,2.48-2.94,0-4.43-2.23-3.96-4.95-1.95,0-2.27-.74-2.97-2.48ZM342.11,21.78c-.17.25-.83,1.25-1,1.49.25-.08,1.24-.42,1.49-.5-.08-.17-.41-.83-.49-1ZM249.95,23.28c.08.25.42,1.24.5,1.48.08-.25.42-1.24.5-1.48h-1ZM244.02,25.95c-.44,0-.94.11-1.49.29.25.74.25.74.5,1.48.99-.5.99-.49,1.98-.99-.49.5-.5.49-1,.99,1.49.25,1.49.25,2.98.5-.77-1.54-1.64-2.31-2.97-2.28ZM250.95,26.24v1h1.49v-1h-1.49ZM355.49,26.99c-.49,1.11-.5,1.12-1,2.24,3.81,1.27,1.15,4.57-1.48,4.95.49-.74.5-.74,1-1.48-.74-.5-.75-.5-1.49-1,.99-.25.99-.24,1.98-.49-2.42-.88-3.24-.85-4.45-2.98,1.8-.54,3.56-1.24,5.45-1.24ZM268.29,27.73c.25.5.25.5.5,1q-.99.25-1.98.5c2.48.25,2.47.24,4.95.49-.22-1.53-2.19-1.62-3.46-1.98ZM345.45,27.88c1.5-.01,2.34.93,2.11,3.81.99-.5.99-.49,1.98-.99q.74,1.98,1.48,3.96c-.99-.5-.99-.5-1.98-1-.28,3.28-3.94,1.54-4.76-.6.89-.69.9-.69,1.79-1.38-2.3-.38-3.09-.78-3.96-2.97,1.3-.49,2.43-.84,3.33-.84ZM251.94,28.23c.23,2.05,2.21,1.76,3.96,1.98v-1.48q2.23.5,4.46.99c-1.74-2.29-5.79-.61-8.42-1.48ZM339.63,28.23c-.85,1.63-.91,1.81-.5,3.47.99-.25.99-.24,1.98-.49-.49.74-.49.74-.99,1.48,1.95.16,1.8,1.07,2.47,2.97-2.05-.28-2.65,1.71-4.42,1.22-2.48-.69-4.59-6.05-5.49-7.65,2.65,0,4.49-.69,6.94-1ZM129.14,29.65c-1.98-.14-4.14,1.15-5.28,2.78-23.85,34.02-47.58,68.19-69.3,103.61-19.09,31.13-36.77,63.16-53.01,95.87-1.28,2.58-1.14,6.8,1.13,8.58,13.07,10.26,28.44,17.2,42.65,25.8-10.36,16.72-23.18,32.3-34.11,48.76,1.38.29,2.74.79,4.02,1.54,1.08.62,2.07,1.27,3.07,1.92,1.84-3.23,4.21-6.57,4.73-7.38,7.71,7.36,16.26,13.79,23.78,21.31-.5.5-.5.49-1,.99,6.78,1.36,10.47,9.06,15.55,13.75,2.79,2.58,5.87,4.81,8.73,7.31.22.2.33.49.5.74-.74.25-.75.25-1.49.5,4.21.66,5,4.76,8.43,5.45-.5.74-.49.74-.99,1.48q1.49.25,2.97.5c-.25.49-.25.5-.5,1,4.04,2.58,7.23,6.36,10.22,10.09,1.37,1.71.99,3.41.05,4.99.04.02.05.03.09.05.36.18,1.6.8,1.71.86,1.27.63,2.05,1.06,2.95,1.54,3.07-4.95,5.66-10.37,9.01-15.05,4.44-6.21,12.66-9.56,20.47-9.77,2.61-.07,5.16.21,7.52.86-8.37,1.61-17.54,1.4-24.28,6.93,11.31-1.71,22.76-3.32,34.19-2.97-6.73,2.45-26.42,1.96-28.73,8.91,9.95-2.19,20.05-3.79,30.22-4.45-.43,2.4-3.99,2.96-6.31,3.71-6.56,2.1-13.39,3.32-19.94,5.45-2.48.8-2.59,1.83-3.48,3.72,9.13-2.33,18.37-4.51,27.74-5.45-3.55,5.33-11.64,5.38-17.42,8.16-2.21,1.07-4.37,2.29-6.3,3.79-1.98,1.55-3.5,3.53-4.83,5.67,5.9,3.01,12.46,6.24,20.33,10.04,5.01,2.42,7.84,7.51,7.65,12.74,3.25.69,6.82,1.19,13.27,1.92,5.24.59,7.46.87,10.47,1.33,2.26.35,4.37.69,7.69,1.25,6.02,1.01,6.94,1.16,9.41,1.54h0c.49,0,.98-.07,1.48-.02.4.03,1.04.11,1.42.14-10.79-4.51-21.53-9.13-32.28-13.67-5.78-2.44-9.58-9.14-13.67-12.92-5.88-5.43-15.56-2.32-22-.65,7.51-7.52,12.68-6.78,23.63-10.42.32-.1.1-.65.15-.98h-2.98c7.2-5.16,8.45-5.68,7.93-14.37,7.68,1.68,12.95,13.46,16.47,17.66,2.02,2.42,4.19,4.75,6.63,6.74,9.05,7.34,33.13,11.43,35.87,24.66.4,1.94.19,3.95-.21,5.93,1.21.12,2.85.29,3.91.39.09-.46.21-.91.26-1.36.42.47.79,1.01,1.19,1.52.51.04,1.36.14,1.88.18,5.81.47,11,.66,15.81.58,7.82-2.57,12.19-3.83,17.5-4.79,2.73-.49,5.41-.81,8.76-1.08.72-.06,1.55-.12,2.53-.2,1.64-.76,3.35-1.19,5.05-1.27,1.34-.07,2.68.07,3.96.4,8.04-1.06,15.86-2.67,26.84-5.51-7.79-12.67-14.16-26.19-20.67-39.57-1.71-3.52-3.46-7.1-4.4-10.9-4.89-19.75-3.05-40.57-4.74-60.85-1.26-15.19-3.12-30.33-4.68-45.49,1.55.98,1.56,3.36,1.98,5.14,2.65,11.26,4.89,22.62,7.81,33.81,3.94,15.15,8.29,26.6,14.98,40.82,4.06,8.63,11.51,16.24,12.56,25.72.69,6.24-2.12,10.16-3.33,16.82-2.07,11.29-.33,23,1.66,34.2,1-.26,2.24-.6,3.29-.88-1.35-11.2-2.04-22.67.69-33.5,5.5-21.83,18.6-41.09,25.76-62.43,5.92-17.66,8.91-36.17,13.37-54.25-3.14,70.61-4.18,93.89-6.28,141.22,1.24-.28,2.54-.62,3.78-.88.63-.13,3.7-.74,3.83-.76,4.69-.91,6.5-1.45,8.26-2.47.08-.05.16-.09.23-.14,1.48-.91,3.07-1.46,4.69-1.75,1.43-1.9,3.34-3.48,5.71-4.43,1.09-.44,2.26-1.16,5.06-3.14.1-.07.1-.07.2-.14,2.51-1.77,3.77-2.61,5.51-3.64.53-.31,4.76-2.79,5.63-3.3,1.31-.77,2.35-1.42,3.52-2.12-1.43.36-3.06.51-4.95.42-1.63-.08-3.55-.52-4.6-1.92-1.9-2.53,2.22-5.94,3.64-8.76,3.01-6.02,2.51-15.98,12.59-16.5,1.86.25,1.86.25,3.72.5-1.96,6.58-2.54,10.63-3.64,17.66-.39,2.51-1.14,4.41-2.26,5.82,5.15-3.3,8.8-6.07,12.01-9.2.79-.77,2.21-2.44,3.48-3.96-3.14.92-7.64,3.12-8.61,3.54,3.43-12.69,5.77-16.88,13.33-16.91,1.74,0,3.76.21,6.13.59.73-.72,1.47-1.42,2.29-2.15.57-.5,1.17-.92,1.73-1.38-4.31-.02-9.81-.39-9.66-3.31.91-17.81,2.23-35.6,3.52-53.39,1.37-18.92,2.79-37.84,4.46-56.73.27-3.09,2.75-3.78,5.4-3.79,1.59,0,3.24.22,4.51.33q-.74.99-1.48,1.98c.74.25.74.25,1.48.5-.74.25-.74.24-1.48.49.88,2.73,1.17,1.62,0,3.48l.99.99c.25-.74.25-.74.5-1.48v2.97c-.25-.49-.25-.49-.5-.99-.49.25-.49.25-.99.5.49.74.49.74.99,1.49h-.99c.16,1.86,2.39,2.95,3.96,3.96.08-.4.12-.57.16-.79.04.18.24.3.82.79-2.41,1.95-1.31,2.11-2.97,1.49.5-.74.49-.74.99-1.49-.99.5-.99.49-1.98.99.25-.74.25-.74.5-1.48q-.99.74-1.98,1.48c2.15,1.13,1.2.26,2.48,2.98.5-.49.49-.5.99-1q-.49,2.23-.99,4.46c.5-.5.49-.49.99-.99-.74,1.24-.74,1.23-1.48,2.47,2.34.2,1.2.53,2.98-1.98q-.74,1.98-1.5,3.96h1.5q-1.24.5-2.48,1c1.17,1.85.89.73,0,3.46.74-.49.74-.49,1.48-.99-.83,1.35-2.76,6.32-2.48,7.43.25-.74.25-.74.5-1.48,1.29.77.73.14.5,2.47.74-.5.74-.49,1.48-.99-.49,1.49-.49,1.48-.99,2.97-.74-.25-.75-.24-1.49-.49q.99.99,1.98,1.98c-.99.5-.99.49-1.98.99q.99.25,1.98.5c-.28.28-.59.89-.87,1.59-.25-.24-.51-.51-.61-.61-.08.16-.42.83-.5,1h.98c-.61,1.65-1.03,3.75-.48,4.46.25-.99.25-.99.5-1.98.5.5.49.49.99.99-1.44,1.43-.84.42-.49,3.46-.25-.99-.25-.99-.5-1.98-1.06,1.59-1.36,6.08,0,7.44q-.74.99-1.48,1.98h1.48c-1.24,1.81-.87.7-.5,3.46-.76-1.59-.14-1.25-1.57-1.39-1.2,2.94-.16,2.27-2.39,2.88v1c2.19-.07,2.35.07,2.98-1.98q-.25,2.97-.5,5.95c-1.51-.38-.78-.52-1.98.99.74.49.74.5,1.49,1,.25-.74.25-.75.5-1.49,1.27.8.99,2.09.99,3.47h-.99c1.26,2.71.87,1.1.5,4.95-.74-.25-.75-.25-1.49-.5v1.49h1.49c-2.03.64-1.98,1.45-1.98,3.47h.99v-2.48c1.33,3.38.47,7.28.24,10.91h-1.23c2.04,2.79.98,20.77-1,21.8.25.74.25.74.5,1.48-.49-.25-.5-.25-1-.5v1h.75c1.5-1.05,3.01-2.08,5.16-3.48q.21-.14.43-.27c4.81-3.11,6.82-4.54,8.7-6.31,2.4-2.26,4.34-5.23,7.63-11.5.14-.26.99-1.89,1.04-1.97-.05.08,1.12-2.32,1.71-3.41.94-1.74,1.9-3.27,3.09-4.72,2.14-2.61,4.7-4.68,8.21-5.84.06-.02.12-.03.18-.05,1.73-2,4.04-3.51,6.69-4.23-.34-.65-.69-1.31-1.02-1.96-1.54-2.97-3.08-3.6-4.83-3.25,0,0,0,0,0,0,.87-.39,1.45-.65,2.91-1.31-9.62-16.22-24.69-30.26-28.86-48.64-3.7-16.3,2.17-33.59,6.56-49.71.93-3.42,5.23-5.23,8.65-6.2,8.27-2.34,17.04-2.3,25.55-3.45q-4.86-38.55-9.72-77.09c-1.88,4.7-4.56,9.16-5.63,14.11-3.46,15.97-3.44,32.66-7.93,48.37-.62,2.16-4.21,1.76-6.44,1.98-1.99.2-3.96-.49-5.95-.74q-4.21-32.08-8.42-64.16c-1.73,4.54-4.23,8.86-5.2,13.62-3.29,16.11-3.82,32.74-7.54,48.76-.38,1.63-2.7,2.19-4.35,2.47-2.53.43-5.12-.3-7.68-.45-2.64-17.84-4.2-35.87-7.93-53.51-.69-3.28-3.47-5.74-5.2-8.61-.93,4.29-1.77,8.61-2.57,12.94.15,1.21.25,2.4-.15,3.6v-2.78c-3.25,17.78-5.35,35.81-5.71,53.84,2.05-19.46,2.61-24.79,5.21-49.57.94,15.96-1.97,33.23-3.36,49-.07.72.07,5.38-1.51,6.94.4,1.2,1.07,2.26,2.15,2.52,9.43,2.24,19.32,1.65,28.98,2.48q-1.49,23.04-2.98,46.07c-12.19-8.29-25.73-14.86-36.56-24.86-7.66-7.07-10.96-17.89-18.03-25.55-4.19-4.54-10.18-7.02-15.27-10.53,4.39-8.07,7.22-17.22,13.18-24.21,3.09-3.62,9.11-3.3,12.84-6.26,3.09-2.46,5.85-5.76,6.99-9.54,1.35-4.46,1.48-9.52.14-13.98-1.21-4.04-6.08-6.26-7.38-10.28-.75-2.34-.57-6.38,1.76-7.18,21.2-7.19,43.81-9.43,65.34-15.58,3.95-1.13,7.95-3.06,10.68-6.13,1.35-1.51,1.58-4.61.18-6.07-2.99-3.12-7.71-3.88-11.57-5.82q4.18,3.35,8.35,6.71c-2.29,2.22-3.76,5.92-6.87,6.67-24.71,5.95-49.84,10.53-75.13,13.07-25.21,2.53-50.66,2.81-75.99,2.12-24.92-.68-49.83-2.92-74.55-6.23-11.19-1.5-24.34-.8-32.89-8.18-15.65-13.5-23.13-34.26-35.5-50.82-1.24-1.66-3.05-3.39-5.12-3.54ZM376.38,184.75c-.28-.84-.44-1.74-.44-2.51,0-1.29.07-2.58.09-3.86-.29,2.72-.37,3.46-.73,6.91.44-.02.78-.24,1.08-.54ZM381.75,124.53c.05-.27.1-.54.15-.81-.06-.45-.1-.89-.15-1.35v2.16ZM330.22,29.71c.5,1.24.49,1.24.99,2.48-.99-.5-.99-.49-1.98-.99.38,2.33,2.98,4.3,4.46,5.95-7.01,1.08-6.52-1.41-10.9-5.95,2.39-.16,5.64.3,7.44-1.49ZM294.68,30.25c-2.95.07-5.96.46-7.57.46q.5.99,1,1.98c2.66-2.45,10.83-1,13.87-1-1.43-1.27-4.34-1.51-7.3-1.44ZM279.68,31.69c.68,1.81,1.55,6.76,3.71,7.78-.13-2.23-2.61-6.85-3.71-7.78ZM283.39,39.48c0,.09.05.2.04.28.08-.05.11-.07.21-.14-.09-.03-.17-.1-.26-.14ZM283.43,39.76c-.48.32-.63.43-1.27.85.9.28,1.25-.12,1.27-.85ZM339.63,32.69c.07,1.65-.26.89,1.48,1.98q-.74-.99-1.48-1.98ZM290.59,33.19q1.73,2.73,3.47,5.45c-.74-2.59-1.37-3.77-3.47-5.45ZM330.22,33.67c-.41.25-2.07,1.25-2.48,1.49h2.48v-1.49ZM129.31,34.17c46.19,62.65,85.34,130.89,120.65,200.16-30.7,24.06-65.94,40.42-103.55,50.78-.14-.78-1.06-1.9-.4-2.34,11.06-7.35,23.29-12.85,34.34-20.21,9.27-6.17,17.67-13.55,26.51-20.32q-24.77,15.36-49.54,30.72c16.96-16.74,33.5-33.96,49.05-52.03-.51.03-1.15-.26-1.52.09-17.61,17.45-34.17,35.95-52.12,53.04-3.41,3.25-7.84,5.2-11.77,7.81,14.52-18.1,29.6-35.77,43.57-54.3,5.34-7.09,10.16-14.61,14.31-22.45,1.37-2.59,2.59-5.65,2.07-8.53-1.57-8.77-4.78-17.22-8.18-25.46-11.01-26.7-22.82-53.05-35-79.23-6.55-14.09-13.87-27.81-21.17-41.53-2.13-4.01-5-7.95-8.85-10.35-26.25,37.58-44,81.81-59.89,124.61-3.89,10.48-8.27,20.99-9.83,32.06-.52,3.69,2,7.27,3.84,10.51,5.12,8.99,10.83,17.65,16.95,25.98,12.18,16.57,25.26,32.46,37.9,48.68-4.34-.96-8.4-3.55-11.52-6.72-14.44-14.67-28.32-29.87-42.48-44.81,1.76,3.78,3.52,8.02,6.93,10.41l-.99.99c1.15.33,2.61.15,3.47,1,.7.69-.14,2.16.5,2.91,7.55,8.94,15.85,17.21,23.78,25.83q-23.53-15.11-47.08-30.22c8.84,7.18,17.08,15.16,26.51,21.55,11.61,7.86,24.29,14.04,36.42,21.06-1.07.58-2.04,2.04-3.22,1.74-9.39-2.41-18.48-5.93-27.44-9.6-20.26-8.3-48.6-21.73-66.94-34.25-3.3-2.25-8.54-4.93-8.03-8.89,1.24-9.69,7.8-17.94,12.55-26.47,15.99-28.69,32.58-57.05,49.64-85.13,14.3-23.54,29.2-46.72,44.4-69.69,4.37-6.6,9.23-13.55,16.13-17.42ZM272.25,35.66c.22,1.76-.07,3.73,1.98,3.96q-.99-1.98-1.98-3.96ZM283.15,35.66c-.94,2.27,2.83,7.21,4.96,8.92-1.03-1.37-1.49-1.97-.5-3.47q-.99-.25-1.98-.5c2.03-.25,3.75-.17,4.96-1.98-4.23.77-5.48.94-7.44-2.98ZM350.45,38.42c3.93-.27,6.98,1.98.08,4.18v-1.48c-2.04-.28-1.73-1.26-3.96-1.49,1.16-.74,2.58-1.11,3.88-1.2ZM261.32,38.59c-.92-.09-1.87.09-2.69.54,2.6.25,2.6.24,5.2.49-.71-.6-1.59-.94-2.51-1.03ZM341.52,38.59c2.45.26,4.36,2.61,6.04,4.5-4.04.62-7.98,1.23-8.67-3.96.95-.47,1.82-.63,2.63-.54ZM332.52,39.99c2.66-.11,3.67,1.43,5.13,5.09-2.48.25-2.48.24-4.96.49-.2-2.2-1.98-3.46-3.47-4.95,1.33-.38,2.41-.59,3.29-.63ZM323.26,40.31c1.45-.03,2.5.29,2,1.79,1.25.31,1.64.2,1.98,1.48.49-.25.5-.24,1-.49,0,7.73-8.22-.67-9.42-2.48,1.12.1,2.99-.28,4.44-.3ZM313.13,41.6c4.55.02,2.98,3.89,6.19,4.96-1.85.17-3.91.64-5.7,0-.12.5-.12.49-.24.99-2.16-.39-4.06-3.41-5.45-4.95,1.6-1.07,3.28-1,5.2-1ZM127.82,43.19c.87,1.76.84,2.72,2.73,2.88-.67,1.01-.76,1.26-1.98,1.48.25-.74.25-.74.5-1.48-1.58-.59-.97-.03-1.48-1.98-.74.5-.74.5-1.48,1,.5-1,.6-1.66,1.73-1.89ZM125.6,45.56c.33.17,1.65.83,1.98,1-.25.08-1.24.42-1.48.5-.08-.25-.42-1.25-.5-1.49ZM127.58,47.06c.25.5.25.49.5.99q-.99.25-1.98.5c.38,1.14.3.49,0,1.98-2.2-1.65-.28-2.58,1.48-3.47ZM128.56,48.04c.99.57.84.95.5,1.98-.25-.99-.25-.99-.5-1.98ZM131.54,50.52c.46,1.64.21,1.69-1,2.97.49-1.49.5-1.48,1-2.97ZM126.58,51.02h1.98c-1.1,1.44-.89.61-.49,2.47-.74-1.24-.75-1.23-1.49-2.47ZM125.6,52.01c.58,1.44.77,2.16,0,2.84v-2.84ZM132.53,52.51h1.49c-.16.33-.83,1.65-1,1.98-.08-.33-.42-1.65-.5-1.98ZM123.61,53c.95.95,1.03,1.03,1.89,1.89-.23.19-.5.38-.91.58-.49-1.24-.49-1.23-.99-2.47ZM129.06,53.49c.25.17,1.24.83,1.49,1h-1.49v-1ZM120.64,54.99c.08.17.41.82.5.99h-.99c.08-.17.4-.82.49-.99ZM121.63,54.99c.74.5.74.49,1.48.99-1.35.9-1.37,1.43-.99,2.98-.49-.25-.5-.25-1-.5.49,1.73.5,1.73,1,3.47-.49-1.24-.5-1.24-1-2.48-.25.74-.25.75-.5,1.49-.5-.5-.49-.5-.99-1,1.34-1.34,1.25-1.4.99-3.47h1.49c-.25-.74-.25-.74-.5-1.48ZM130.55,54.99h1c-.08.17-.42.82-.5.99-.08-.17-.42-.82-.5-.99ZM126.1,55.47c.17.08.82.42.99.5-.25.33-1.24,1.65-1.48,1.98.08-.41.41-2.07.5-2.48ZM135.01,56.47c.25.17,1.24.82,1.49.99h-1.49v-.99ZM123.61,56.97v1.98h-1c.17-.33.83-1.65,1-1.98ZM119.65,57.46c.08.25.41,1.25.5,1.49h-1c.08-.25.42-1.25.5-1.49ZM132.04,57.95h.99v1.48c-.17-.25-.82-1.24-.99-1.48ZM123.12,59.94c1.66.33.85.08,2.4.76q-1.2-.38-2.4-.76ZM132.04,60.43c.17.16.82.82.99.99-.25.17-1.24.83-1.48,1,.08-.33.42-1.65.5-1.98ZM126.58,60.93c.17.08.83.41,1,.49-.33.25-1.65,1.25-1.98,1.49.16-.33.82-1.65.99-1.98ZM375.31,60.93c11.66,7.77-20.1,17.01-22.79,12.88-2.56,2.16-2.95,1.2-7.25,1.74-1.42.18-2.11,1.79-3.65,2.23,8.94-.57,17.87-1.08,26.81-1.72,1.63-.12,1.17-.19,1.43-1.75,1.97.36,1.21-.19,1.98,1.98,3.25-1.3,3.51.04,6.43-1v-1.48c.17.25.83,1.24,1,1.48h-1c-.25.5-.24.5-.49,1,2.37.59,2.65.37,3.47-1.98,2.07,4.57,3.99.18,6.93,1.98,2.49-2.1,1.12-1.75,3.96-1.48-.25-.5-.24-.5-.49-1,3.93-.84,5.82-4.42,9.41-5.45-1.46-3.4-2.33-3.55-5.95-4.46-.21,4.92-.42,4.93-4.96,6.94.49,2.76-3.25,1.92-4.95,2.47,0-.03,2.43-6.83,2.97-7.43q-1.49-1.98-2.97-3.96v1.98c-1.97-.36-1.21.19-1.98-1.98-.25,1.49-.25,1.49-.5,2.98,2.35.75,1.27-.04,1.98,3.47q.74-.74,1.48-1.48c.47,4.45-1.85,2.83-2.97,6.43-.99-.25-.99-.24-1.98-.49,1.59-.68,1.21-.1,1.48-1.49-2.09.36-1.17-.16-2.48,1.98-.76-4.4,2.74-11.93-4.95-12.38ZM128.08,61.42c.17.25.82,1.25.99,1.49-.33.08-1.65.41-1.98.49.17-.33.83-1.65,1-1.98ZM118.65,61.92v1.98h1.5c-.5.5-.5.5-1,1-1.28-1.38-1.45-1.38-.5-2.98ZM120.15,61.92c.25.25,1.24,1.24,1.48,1.48h-1.48v-1.48ZM221.71,61.92c-.27,1.07-.28,1.54,0,1.98.49-.25.5-.25,1-.5-.49-.74-.5-.74-1-1.48ZM116.67,63.4c.74.99.75.99,1.49,1.98-1.29-.34-1.18-.73-1.49-1.98ZM122.13,63.4c.25.74.24.75.49,1.49,1.18-1.18,1.23-1.29,2.98-1-1.98,1.27-2.41,1.22-1.98,3.47q-1.49-.99-2.98-1.98c.74-.99.75-.99,1.49-1.98ZM126.1,64.4c.54,1.54-.97,2.45-1.98,3.47q.99-1.73,1.98-3.47ZM138.97,64.4c.17.08.83.42,1,.5-.25.25-1.25,1.24-1.49,1.48.08-.33.42-1.65.5-1.98ZM116.19,65.38c.25.74.24.75.49,1.49.74-.5.75-.5,1.49-1-.94,1.05-.83,1.65-.5,2.98-1.38-1.44-1.97-1.62-1.48-3.48ZM358.46,65.88c.49.99.5.99,1,1.98-.74-.5-.74-.49-1.48-.99v1.48c-.57-.99-.96-.84-1.98-.5,1.24-.99,1.23-.99,2.47-1.98ZM407.51,65.88c0,6-2.05,7.61-7.93,9.66-1.08.38-1.09-.07-1.5-.74-2.88,2.88-9.41,2.15-10.89,5.95q-1.73-.5-3.46-1c.49.99.49.99.99,1.98q-.99-.74-1.98-1.48c-.49,1.24-.49,1.24-.99,2.48,4.5.52,8.39-2.36,12.88-1.98-.25-.5-.25-.5-.5-1,3.19-.87,1.92-1.23,3.96,0,1.18-2.52,5.23-2.12,7.44-1.48-.72-2.99,4.73-4.05,6.43-4.96-.5-.74-.49-.74-.99-1.48,3.09-3.53-.49-5.15-3.47-5.95ZM126.1,66.38c.08.25.4,1.24.49,1.48h-.99c.08-.25.41-1.24.5-1.48ZM134.02,66.88c.41.25,2.06,1.24,2.47,1.48-.33.08-1.65.42-1.98.5-.08-.33-.4-1.65-.49-1.98ZM115.19,67.86c.16.17.83.83,1,1h-1.49c.08-.17.41-.83.5-1ZM130.06,67.86c.16.17.82.83.99,1h-1.49c.08-.17.42-.83.5-1ZM119.83,68.13c.56-.08,1.05.25,1.31,1.22h-2.97c.49-.66,1.1-1.14,1.66-1.22ZM141.45,68.36c.08.16.41.82.5.99-.25.08-1.25.42-1.5.5.17-.25.83-1.24,1-1.48ZM355.49,68.36c-.08.25-.42,1.24-.5,1.48-.08-.17-.42-.82-.5-.99.17-.08.83-.42,1-.5ZM382.24,68.36c.08.25.42,1.24.5,1.48.08-.25.42-1.24.5-1.48h-1ZM419.4,68.36c1.41,5.65,1.54,6.17-3.22,8.55-2.29,1.14-.22,1.37-2.24.86v1c-.74-.25-.74-.25-1.48-.5v.99c-7.08,0-14.74,6.4-22.3,5.46v.99c-1.24-.25-1.23-.25-2.47-.5v1c-3.73.13-8.86-1.8-9.42,2.48.5-.74.5-.75,1-1.49,1.93,6.59,24.7-5.16,28.73-2.47v-1.49c1.14.95,3,.27,4.46,0-.99-.5-.99-.49-1.98-.99,4.53-1.48,10.68-1.13,12.39-6.44h.99c-.25.99-.24.99-.49,1.98q.74-.99,1.48-1.98c1.65.67,3.53-.91,4.95-1.98-4.31-.22-2.83-1.12-4.95,1.48-1.24-3.06-.15-2.36-2.48-2.97.49-2.93-.09-3.69-2.97-3.96ZM122.13,68.86c.49,1.2-.14,1.62-1,2.47.49-1.24.5-1.23,1-2.47ZM126.1,68.86h.99c-.08.17-.42.82-.5.99-.08-.17-.41-.82-.49-.99ZM128.08,68.86c.08.17.41.82.49.99h-.99c.08-.17.42-.82.5-.99ZM131.54,68.86c.25.17,1.24.82,1.48.99-.33.17-1.65.83-1.98,1,.08-.33.41-1.65.5-1.98ZM114.69,69.35h2.48v1h-2.48v-1ZM388.68,69.35v1c.33-.08,1.65-.42,1.98-.5-.33-.08-1.65-.42-1.98-.5ZM124.6,69.84c1.16,1.03,2.01.79,3.48.5v.99c-1.63-.54-2.55.15-3.96,1,1.1-1.44.89-.62.49-2.48ZM129.56,69.84c.17.17.82.83.99,1h-1.49c.08-.16.42-.83.5-1ZM136.01,69.84c1.49.99,1.48.99,2.97,1.98-1.32-.26-2.16-.01-3.01-.35.43-.42.31-.83.04-1.64ZM376.29,69.84c.74.74.75.74,1.49,1.48.25-.5.24-.49.49-.99,1.17.7,1.24,1.69,1.5,2.97-.74-.74-.75-.74-1.5-1.48-.35,2.62-1.93,1.65-3.46.5.49.99.5.99,1,1.98-2.35-.46-2.79-.27-3.48-2.48,1.9.86,1.95.91,3.48-.5.74.74.74.75,1.48,1.49-.49-1.49-.5-1.49-1-2.98ZM116.19,74.31c-.72.96-1.31,1.39-1.98,1.48-.66.09-1.4-.14-2.48-.5.85,1.69.83,2.96-1.24,3.48-.12-.74-.12-.75-.24-1.49h-1q.49,1.98,1,3.96c1.27-1.27,1.2-1.3,2.97-.49,1-1.73,1.85-.36,2.98-2.98.51,1.54-.06,2.22-1,3.47,1.74-.12,1.58-.71,2.24-2.4q-.13,1.45-.26,2.9.74-1.24,1.48-2.48c1.24.74,1.24.75,2.48,1.49-.45-1.78-.42-3.73-2.48-3.96.5-.74.5-.75,1-1.49-1.94.97-1.79.76-3.47-.99ZM135.51,88.68c-.08.25-.42,1.24-.5,1.48h1c-.08-.25-.42-1.24-.5-1.48ZM129.56,85.2h-1.98c.25.74.25.75.5,1.49.74-.74,1.02-1.03,1.48-1.49ZM141.22,70.79c.31-.05.71-.03,1.22.05-.25.74-.24.74-.49,1.48h-1.5c.09,1.57.76,2.05,1.98,2.97q-.99.99-1.98,1.98-.74-.74-1.48-1.48c.9.12.9.12,1.8.24.41-1.52-1.74-4.88.45-5.24ZM113.21,70.84h1.49c-.54,2.38-1.46,3.25-2.97.99q.99.25,1.98.5c-.25-.74-.25-.74-.5-1.48ZM133.52,70.84c.08.17.42.82.5.99-.16.08-.83.42-1,.5.08-.25.42-1.24.5-1.48ZM346.56,70.84c.77,2.32,6.01,3.46,6.45.49-2.57.32-4.04.39-6.45-.49ZM119.15,71.83h1.98v1h-1.98v-1ZM122.13,71.83c-.22,1.09-.26,1.32-.44,2.19-.17-.53.03-1.18.44-2.19ZM137.99,72.32c.09,1.69.44,1.66,1.98,2.48-1.47,0-1.93-.09-2.48-1.49-.74.5-.74.5-1.48,1q.99-.99,1.98-1.98ZM135.01,72.82c.08.25.42,1.24.5,1.48h-1c.08-.25.42-1.24.5-1.48ZM119.15,73.31h1.49v1c-.25-.17-1.24-.83-1.49-1ZM142.44,73.31c.25.08,1.25.42,1.49.5-.25.08-1.25.42-1.49.5v-1ZM383.73,73.81c.08.16.4.83.49,1-.25.08-1.24.41-1.49.49.17-.25.83-1.24,1-1.48ZM121.87,74.31h1.25v.99c-.68-.34-1.03-.65-1.25-.99ZM128.56,74.31h1.5c-.08.33-.42,1.65-.5,1.98-.16-.33-.83-1.65-1-1.98ZM123.61,74.8h.99v1.98h-.99v-1.98ZM131.05,74.8c.16.08.83.41,1,.49-.25.17-1.25.83-1.49,1,.08-.25.41-1.24.5-1.48ZM142.94,74.8c.08.25.42,1.24.5,1.48h-1c.08-.25.42-1.24.5-1.48ZM144.42,74.8c.54,1.37-.28,2.28-.99,3.47q.49-1.73.99-3.47ZM125.1,75.29c.25.17,1.24.83,1.48,1-.25.08-1.24.42-1.48.5v-1.49ZM134.02,75.29h.99v1.98c-.16-.33-.82-1.65-.99-1.98ZM136.99,75.29c.25.17,1.24.83,1.48,1h-1.48v-1ZM239.55,75.29c-1.59,1.37-3.85.24-5.95,1.49h6.94c-.49-.74-.5-.75-1-1.49ZM121.14,75.79h1.98v1.98c-.33-.33-1.65-1.65-1.98-1.98ZM145.41,76.29c.66,1.97.81,4.83-1.98,2.97.99-.25.99-.24,1.98-.49-1.05-1.49-.94-.67,0-2.48ZM116.69,76.43c.28.05.6.16.98.36-1.87.62-2.24.73-2.83.8.63-.85,1.09-1.29,1.85-1.16ZM113.21,76.79c.64.42.79.52,1.27.84-.33.03-.42.05-1.27.14v-.99ZM126.58,76.79c.25.25,1.25,1.24,1.49,1.48h-1.98c.08-.25.4-1.24.49-1.48ZM380.75,76.79c-.08.17-.42.82-.5.99h1c-.08-.17-.42-.82-.5-.99ZM118.17,77.27c.08.17.41.83.49,1h-.99c.08-.17.42-.83.5-1ZM138.97,77.27h1c-.08.17-.41.83-.5,1-.08-.17-.41-.83-.5-1ZM329.72,77.27c.9,2.26,1.62,2.37,3.96,1.98-.93-1.5-2.67-.25-3.96-1.98ZM372.33,77.27c-.08.17-.4.83-.49,1h.99c-.08-.17-.41-.83-.5-1ZM379.27,77.27q-.5.99-1,1.98c.95-1.26.65-.59,1-1.98ZM407.02,77.27c.99.5.99.5,1.98,1-1.26-.95-.59-.65-1.98-1ZM132.04,77.77c.25.5.24.5.49,1-1.63.9-1.08.86-1.48,2.47-.96-1.6-.64-.76-.99-2.47v1.48c-1.01-.67-1.27-.76-1.5-1.98,1.73.25,1.74.25,3.48.5v-1ZM135.51,77.77c.33.17,1.65.83,1.98,1-.08.17-.42.82-.5.99-.25-.33-1.24-1.65-1.48-1.98ZM141.45,77.77c.16.17.82.83.99,1-.5.17-2.47.82-2.97.99.33-.33,1.65-1.65,1.98-1.98ZM113.71,78.27c-.22,1.53-2.19,1.62-3.46,1.98,1.13-1.43,1.63-1.98,3.46-1.98ZM327.74,78.27c-.08.25-.42,1.24-.5,1.48.41-.08,2.07-.42,2.48-.5-.33-.16-1.65-.82-1.98-.99ZM371.34,78.77c.25.74.25.74.5,1.48q-1.49-.25-2.98-.5c1.14,1.53,1.39,2.07,0,3.47,2.63.38,3.68-1.04,5.95,0v-3.96c-1.6,1.07-1.6.66-3.47-.49ZM376.79,78.77c-.49.25-.49.24-.99.49.3,1.49.38.84,0,1.98,1.22.41,2.79.54,2.97,1.98h1c-1.08-1.43-1.29-1.63-1-3.47q-.99.74-1.98,1.48v-2.47ZM378.77,83.22c-.99-.5-.99-.49-1.98-.99-.25.5-.25.49-.5.99h2.48ZM137.99,79.26c2.17,1.4,3.83,1.96,4.45,4.46-1.28-1.25-3.14-4.28-4.95-2.48.74.25.74.25,1.48.5-.49.74-.49.74-.99,1.48-.74-1.49-.75-1.48-1.49-2.97.49.25.5.25,1,.5.25-.74.25-.75.5-1.49ZM140.96,79.75c1.27.36,3.24.45,3.46,1.98-1.46-1.11-2.4-.39-3.46-1.98ZM372.33,80.25c.74.5.75.49,1.5.99q-1.74.99-3.48,1.98c.38-1.14.3-.49,0-1.98h1.98v-.99ZM402.06,80.25c.08.17.42.82.5.99.08-.17.42-.82.5-.99h-1ZM145.41,80.75c.33.17,1.65.82,1.98.99-.25.08-1.24.42-1.48.5-.08-.25-.42-1.24-.5-1.48ZM365.39,80.85c-.55,0-1.19.36-1.97.88q1.73.25,3.46.5c-.47-.98-.94-1.37-1.49-1.38ZM367.38,81.24v1c.25-.08,1.24-.42,1.49-.5-.25-.08-1.24-.42-1.49-.5ZM397.11,81.24c.17.25.82,1.25.99,1.49v-1.49h-.99ZM131.54,81.74c1.3.5,1.3.5,2.6,1-.21.71-.42,1.17-.62,1.51v-1.03c-1.84-.25-1.16.23-1.98-1.48ZM380.26,81.74v1.48h1c-.17-.25-.83-1.24-1-1.48ZM108.26,82.73v1.98c-.5-.12-.74-.19-1-.25v2.24h-.99c0,2.51.14,3.86-1.98,5.45,1.16-1.03,2-.79,3.46-.5-.74-.5-.74-.49-1.48-.99h1.98v-1c.74.25.74.25,1.49.5q-.5.99-1,1.98c1.04-1.39,1.21-1.69,2.98-1.98-.49.5-.5.49-1,.99.49.5.5.5,1,1,.67-1.72.05-.99,2.48-1.48-.68-1.7-.63-2.08-2.48-2.48,1.32-.95,1.46-.87,2.97-.5v-.99h-1.98c.5-.74.5-.75,1-1.49-1.4.47-1.63,1.07-1.98,2.48-.63-.42-1.29-.24-1.94.02,1.2.59,2.75.99,2.93,2.46-1.28-.85-1.98-.87-3.46-.5.24-.97.25-1.01.49-1.94-1.27.53-2.44,1.43-2.97-.54h1.98c-.34-1.69.04-2.87-.49-4.45ZM107.26,84.46v-.24h-.99c.49.12.74.18.99.24ZM139.47,82.73c1.72.67.99.04,1.49,2.47h-.99c.45-1.34.35-.5-.5-2.47ZM110.73,83.72c.49,1.24.5,1.24,1,2.48.36-1.44.46-1.9-1-2.48ZM118.91,83.72c.33.37.33.37.66.74-1.54.98-.74.57-2.4,1.24.73-1.46.21-.76,1.74-1.98ZM122.01,84.05c-1.15.01-.88,4.74-2.36,5.11.99-1.98.99-.99,0-2.97.17.67-.46,1.68-1.19,2.77.39.39.99.99,1.19,1.19h-1.49v-.73c-.2.29-.39.59-.58.88,1.84.7-.08,2.73-.91,3.81,1.78-.76,2.45-.64,1.98-2.48,1.79.06,1.94.05,2.98,1.48q-.99.25-1.98.5c1.21.41.5.34,2.13-.29-.44-1.55-1.82-2.25-.65-3.67,1.42,1.42,2.09,1.97,2.48,3.96h-1c1.32.51,1.73-.48,2.48-1.48-2.01-.5-1.83-1.02-2.48-2.98h-1.48v-.99h1.48v.99c1.73.8,1.88.97,3.48,0v-.99c-.99.5-.99.49-1.98.99-.18-1.28-.18-3.09-1.04-4.26-.46-.61-.79-.86-1.06-.85ZM126.1,89.16q-.5,1.24-1,2.48c.74-.5.74-.49,1.48-.99q.99,1.73,1.98,3.47c2.61-1.91,1.37-1.82,3.48-1.48-1.37-1.79-.45-2.36-2.48-3.96.5.99.49.99.99,1.98h-1.49c.24.24.35.35.49.49-.98.49-.98.5-1.97,1-.49-1.24-.5-1.24-1-2.48.49.5.5.5,1,1,.49-.5.49-.5.99-1-1.44-1.1-.61-.9-2.47-.5ZM117.59,90.31c-.13-.05-.24-.12-.42-.15.06.3.08.56.07.79.12-.21.21-.42.34-.64ZM117.24,90.95c-.23.41-.46.82-.57,1.19q-.99-.74-1.98-1.48c-.25.5-.24.49-.49.99.99.5.99.5,1.98,1-1.51.38-1.66.46-2.98-.5-.25.5-.25.49-.5.99,1.73.74,1.74.75,3.48,1.49-.47-1.77,1-2.04,1.06-3.67ZM118.17,89.43c.1-.15.2-.31.3-.46-.1-.1-.25-.25-.3-.29v.75ZM109.25,85.2v1c.25-.08,1.24-.42,1.48-.5-.25-.08-1.24-.42-1.48-.5ZM121.63,85.2h.99c-.49,1.2.15,1.63,1,2.48-1.8-.13-1.57-.68-1.98-2.48ZM124.11,86.2c1.43,1.08,1.63,1.28,3.47.99q-1.73-.5-3.47-.99ZM297.34,86.53c-.93.09-1.74.51-2.31,1.65h7.44v-1c-1.68,0-3.58-.79-5.13-.65ZM133.03,86.7c-.74.5-.74.49-1.48.99-1.8-1.35-3.4-.91-2.98,1.48.74-.74.75-.74,1.5-1.48q.99.99,1.98,1.98.99-.99,1.98-1.98c-.49-.5-.5-.49-1-.99ZM146.16,87.18c-.11,1.37.03.53-.74,2.48q1.98.25,3.96.5-.99-.25-1.98-.5c.5-1.51.2-1.91-1.24-2.48ZM145.41,89.66q-1.24-.99-2.48-1.98c-.25.5-.25.5-.5,1-.5-.25-.49-.25-.99-.5.49.99.49.99.99,1.98h-1.48c2.78,1.52,5.24,2.43,6.44,5.45l1.48-1.98c1.25-.31,1.64-.2,1.98-1.48q-1.98.74-3.96,1.48c-.16-1.29-3.09-2.39-3.96-3.96,1.92.15,5.25,4.73,5.95,1h-3.47v-1ZM148.88,93.63v2.48h1.48c-.25.74-.24.74-.49,1.48,1.42-1.17.59-.82,2.47-.99v.99q.25-1.73.5-3.47c-.25.5-.25.49-.5.99-.25-.5-.24-.49-.49-.99-.99.5-.99.49-1.98.99v-1.48h-1ZM303.96,87.18c-.08.16-.41.83-.5,1h1c-.08-.17-.42-.83-.5-1ZM375.8,87.18v1c.33-.08,1.65-.42,1.98-.5-.33-.08-1.65-.42-1.98-.5ZM146.9,88.18c.08.17.41.82.5.99h-1c.08-.17.41-.82.5-.99ZM138.98,89.49c-.28-.02-.6.04-1,.17.25.74.24.74.49,1.48-1.03.34-1.41.5-1.98-.49.79,1.19,1.44,2.78,2.98,2.97v-1.41c.38.11.74.21,1.49.43q-.99-.99-1.98-1.98c.99.25.99.24,1.98.49-.75-.94-1.14-1.61-1.97-1.66ZM129.56,91.16c.28.27.49.49.99.99-1.24.5-1.23.49-2.47.99.74-.99.75-.99,1.48-1.97ZM137.49,91.64c.92.26,1.38.4,1.84.53-.89.3-1.3.4-1.84-.53ZM141.45,91.64c.25.74.25.74.5,1.48h-1.98v1h3.47c-.46-1.14-.63-2.34-1.98-2.48ZM173.66,91.64c15.75,2.87,31.66,4.82,47.42,7.66,2.04.37,4.09.98,5.9,2,9.29,5.26,1.61,12.48-1.99,17.4-3.12,4.27-1.84,12.16-.05,16.66,1.94,4.85,5.24,9.58,10.16,11.77,2.8,1.25,7.11.79,8.48,3.53,1.97,3.95,2.86,8.4,4.9,12.33,2.12,4.08,5.59,7.39,7.5,11.56.35.76-.58,1.66-1.22,2.2-3.56,2.96-7.73,5.14-11.24,8.16-2.9,2.49-5.28,5.54-7.93,8.3-15.41-19.88-25.9-43.12-38.89-64.66-7.49-12.42-15.35-24.61-23.03-36.91ZM110.24,92.14c-.08.25-.42,1.24-.5,1.48-.33-.17-1.65-.82-1.98-.99-.08.33-.41,1.65-.5,1.98.33-.17,1.65-.83,1.98-1-.17.17-.82.83-.99,1,.25.16,1.24.82,1.49.99.08-.5.41-2.47.5-2.97.25.08,1.24.41,1.48.49-.25-.17-1.24-.82-1.48-.99ZM126.1,92.64c-.17.17-.83.82-1,.99h1.48c-.08-.17-.41-.82-.49-.99ZM144.42,93.13c-.08.25-.4,1.25-.49,1.49.17-.17.82-.83.99-1,.25.25-.17-.17-.5-.5ZM104.3,93.63c-1.48,1.48-1.24,1.63-1,3.96,1.49-.99,1.49-.99,2.98-1.98q-.99-.99-1.98-1.98ZM111.72,93.63c-.08.33-.42,1.65-.5,1.98.25-.25,1.24-1.24,1.48-1.48-.17-.08-.82-.42-.99-.5ZM103.8,94.62c.16.16.82.82.99.99-.25.08-1.24.42-1.49.5.08-.25.42-1.24.5-1.48ZM106.76,95.11q.25,1.24.5,2.48c1.08-1.44,1.12-1.59-.5-2.48ZM104.78,97.59c-.08.16-.41.83-.49,1h1.98c-.25-.17-1.25-.83-1.49-1ZM338.62,101.83c.76-.03,1.51.03,2.25.22,8.37,2.2,4.73,26.45,3.28,31.95-4.56,17.34-8.82,20.56-22.74,28.74-3.73,2.2-6.81,5.42-10.65,7.43-1.9.99-4.14,1.4-5.82,2.72-2.58-4.28-8.49-11.56-14.59-5.41-1.54,1.55-2.06,4-3.74,5.41-1.94-4.16-8.1-4.34-12.08-6.62-4.2-2.4-10.47-5.77-14.12-8.91-12.89-11.1-14.16-27.32-14.9-43.32-.49-10.56,5.38-12.42,14.34-11.01-5.6,3.86-8.12,3.63-8.43,9.42,4.96-.66,9.87-1.98,14.87-1.98,4.51,0,8.92,1.32,13.38,1.98,0-1.49.84-3.23,0-4.46-1.53-2.24-4.3-3.31-6.44-4.96h46.08c-4.48,3.26-8,3.76-7.43,8.92,11.63-1.22,17.43-1.62,28.24.99-1.58-4.04-5.05-7.19-8.42-9.91,2.29-.25,4.63-1.12,6.91-1.21ZM324.76,115.31c-3.77-.1-7.4,1.53-8.41,5.32-1.78,6.66,7.56,12.14,12.57,7.68,1.93-1.71,1.25-5.47,1.3-7.44,3.24,2.52,1.62,1.96,4.45,2.48,0-4.92-5.06-7.91-9.91-8.04ZM268.06,115.6c-4.71.07-9.95,2.5-11.67,7.26,1.78.44,2.52.1,3.96-.99,1.84,8.64,10.21,12.33,13.81,3.08.5-1.3,2.2-1.12,2.32-2.42.44-4.71-3.72-7-8.43-6.93ZM233.83,116.52c3.6-.2,6.68,4.37,6.87,9.22-4.49.44-6.33-6.51-10.06.09,10.83,0,11.65,9.92,12.88,18.82-8.99-2.16-21.58-14.01-14.69-24.49,1.63-2.48,3.37-3.55,5-3.64ZM358.22,116.67c1.19.17,2.41,1.08,3.61,3.1,6.53,11.06-2.76,22.58-13.28,24.89,1.11-5.21,3.3-23.57,13.38-17.34-2.01-6.48-5.96-4.69-10.9-1.48.47-3.42,3.63-9.66,7.2-9.17ZM128.56,121.87c8.89-.32,10.59,8.5,13.05,17.68,4.95,5.44,10.21,10.16,17.35,14.95,7.61,5.12,15.41,9.96,23.11,14.93-17.14-5.97-29.34-14.95-39.76-27.32,1.65,5.66,3.87,11.16,8.55,14.43,8.11,5.68,17.09,10.06,25.29,15.62,2.99,2.03,3.81,7.14,3.46,10.14-2.16,18.29-6.04,34.48-20.81,46.08-35.69,28.01-77.8-4.45-78.78-44.84-.35-14.69,14.88-17.04,24.71-24.58,2.77-2.13,4.7-5.76,6.35-9.9-9.73,9.38-22.18,15.86-35.02,21.35,14.77-9.59,26.64-17.2,37.41-28.01,3.3-9.95,6.42-20.23,15.1-20.54ZM113.46,142.41c-.76,2.29-1.54,4.53-2.39,6.66,5.81-5.59,10.65-12.22,14.03-20.26-3.78,5.17-7.64,9.6-11.64,13.61ZM142.31,142.11c-.25-.86-.47-1.7-.7-2.56-3.34-3.66-6.54-7.64-10.07-12.24,3.45,5.39,7,10.31,10.77,14.8ZM136.99,123.85c13.7,10.53,27.74,20.63,42.12,30.23-15.98-8.17-28.67-18.4-42.12-30.23ZM115.69,128.06c-1.92,4.8-7.82,6.77-11.83,10.03-7.07,5.76-13.91,11.37-22.36,14.99,11.69-8.42,23.09-16.19,34.19-25.02ZM416.93,128.8h.99c-.08.74-.41,3.72-.49,4.46-.08-.74-.42-3.72-.5-4.46ZM416.93,134.75c.79,3.16-.32,5.68-.38,8.86-.08,4.48-.08,8.96-.12,13.43h-.99c.25,2.23.24,2.23.49,4.46-3.99-.57.29-23.93,1-26.76ZM302.48,141.69c-2.37.05-4.12.06-6.34.75,1.93.36,1.94.37,3.86.73v1.49c2.08-.42,2.48-.84,2.48-2.97ZM289.59,142.19c0,2.35.27,3.08,2.48,3.96v-3.48q-.99.99-1.98,1.98c.29-1.15.61-1.81-.5-2.47ZM326.94,142.93c-2.63.23-6.05,2.23-8.09,2.61-7.41,1.38-14.88,2.39-22.32,3.58,1.5,4.16,3.54,5.52,7.43,7.43-4.72,1.55-9.9.89-14.87,1,.69-.42,10-8.94,4.96-9.17-4.31-.2-8.64.15-12.95,0-3.66-.12-7.29-.68-10.95-.8-.86-.03-2.64.29-2.34,1.1,2.95,7.9,16.02,10.19,22.78,11.41,13.34,2.41,32.85-3.5,38.64-16.67-.62-.45-1.41-.56-2.29-.49ZM413.95,162c.74.25.75.24,1.5.49-1.06,1.88-1.68,2.18,0,3.48-1.98-.99-1.84-1.88-1.5-3.96ZM412.96,166.46h.99c-.08.41-.4,2.07-.49,2.48-.08-.41-.42-2.07-.5-2.48ZM156.53,169.63c-4.45.23-8.45,2.05-8.64,5.75,7.09-.46,13.9-1.39,20.8.5,0-3.76-5.1-6.01-10.24-6.25-.64-.03-1.28-.04-1.92,0ZM102.95,169.71c-5.82-.21-12.48,2.24-13.03,6.66,7.63-2.18,13.6-1.48,21.8-.99-.23-3.72-4.24-5.51-8.77-5.67ZM411.48,171.42c.08.17.4.82.49.99-.17.08-.82.42-.99.5.08-.25.41-1.24.5-1.48ZM415.44,175.38c-.24,12.45-1.93,24.92-2.8,37.22-.17,2.42-2.34,8.35-.18,10.85-1.98.49-1.98.49-3.96.99.91-11.91,1.76-23.83,2.73-35.74.49-5.99.87-8.67,4.22-13.31ZM100.82,179.84c-1.83,0-3.37.48-6.69,1.98-3.15,2.16-6.64,8.59.25,4.45.08,2.79.02,4.02,1.48,6.44,8.82,14.56,24.07-12.97,4.95-12.88ZM158.74,179.9c-4.03.02-7.85,1.79-8.86,5.63-1.61,6.14,7.04,14.32,12.63,9.61,2.55-2.15,2.23-5.9,2.72-8.86q2.23.74,4.46,1.49c-.25-5.04-5.77-7.9-10.96-7.87ZM71.53,181.9c2.09.14,3.92,1.83,4.02,4.87-4.05-2.03-5.28-1.12-7.43,2.98,4.46-.26,7.01-1.63,7.93,2.97h-1c.12,2.73,2.19,1.91,3.1,4.18,1.13,2.81,1.37,6.26,1.86,9.2-3.36-1.27-6.75-2.15-9.17-4.95-3.68-4.27-7.59-10.64-4.24-16.27,1.05-1.77,2.54-2.73,4-2.94.31-.04.62-.05.92-.03ZM188.25,181.93c2.44.01,4.96,2.49,5.83,6.58,1.05,4.88-2.11,9.59-5.19,13.19-2.66,3.11-4.62,3-8.8,3.9,1.04-7.27,1.7-6.69,4.96-12.39h-2.48c.82-4.93,3.02-3.75,7.93-3.47-1.57-3.35-3.21-4.84-6.93-2.98.95-3.37,2.79-4.85,4.68-4.84ZM327.25,182.31c.25,9.1,2.56,18.82-.71,27.32-2.6,6.75-12.67,6.99-18.78,10.85-.74.47-.56,1.71-.45,2.58.61,4.89,1.04,9.88,2.6,14.55.53,1.59,2.31,2.44,3.46,3.66.75-1.93,1.21-4.38,2.98-5.46-10.2-18.37,7.35-14.06,16.51-26.51,2.79-3.8.94-9.4.82-14.12,3.02.91,3.59,2.8,3.71,5.95.18,4.64.31,9.28.14,13.92-.07,1.96.56,4.48-.86,5.82-4.93,4.66-11.52,7.18-17.04,11.11-1.27.9-2.19,2.23-3.28,3.34,8.23-1.15,15.17-8.46,21.3-13.39-4.51,47.39-18.6,92.37-39.64,134.77-21.63-42.88-36.36-85.41-42.12-133.77,3.33.55,5.02,4.59,7.93,6.31,1.67.99,3.8.75,5.7,1.12-3.84-3.12-7.57-6.4-11.53-9.37-1.31-.98-1.43-.33-2.1.46-.92-8.48-2.52-17.39,1.49-25.28.2,8.41,1.07,13.7,8.67,18.83,4.43,3,11.25,3.47,13.81,8.17,1.87,3.42.94,8.95-2.17,11.15q1.49,2.97,2.98,5.95c2.55-2.7,2.57-2.1,3.23-6.93.43-3.15,1.13-6.4.61-9.54-1.59-9.7-16.22-8.55-20.77-16.81-3.9-7.06-.24-16.13.08-24.19,5.36,3.33,10.41,7.23,16.09,10,15.9,7.77,35.53,1.3,47.33-10.5ZM130.22,204.37c-2.09.19-4.26,1.62-4.81,3.27.34.22.34.21.68.43.1-3.18,5.44-2.32,7.43-2.47-.83-1-2.05-1.34-3.3-1.23ZM134.02,205.11c.38,1.51.46,1.65-.5,2.97.74-.25.74-.24,1.48-.49-.49-1.24-.49-1.24-.99-2.48ZM68.13,207.09c1.89,1.97,2.37,2.31,2.48,4.95-1.27-1.7-2.58-2.79-2.48-4.95ZM78.03,211.29c6.88.85,4.93,9.83-1.74,7.37-3.81-1.4-1.84-7.81,1.74-7.37ZM182.5,211.85c.59-.05,1.2,0,1.81.18,4.62,1.37,1.26,8.35-3.22,7.06-5.67-1.62-2.69-6.91,1.41-7.25ZM363.42,212.04h.99c-.25.74-.24.75-.49,1.5,2.77.89,4.34,7.82,3.96,10.4.49-.25.49-.24.99-.49-.25.74-.25.74-.5,1.48.49-.25.5-.25,1-.5.4,3.87,3.03,6.73,4.46,10.41,1.81,4.68,3.67,9.34,5.19,14.11,3.96,12.4-12.65,15.88-20.56,21.06.74-1.73.75-1.73,1.49-3.46-.49.25-.5.25-1,.5l-.5-1c1.71.19,9.06-5.47,9.84-5.9,6.71-3.65,9.92-2.72,6.58-12.31-2.45-7-5.14-13.91-7.49-20.94-.65-1.96-.54-1.74.5-2.48-2.57-2.06-2.05-2.25-1.5-5.95-.49.25-.49.25-.99.5q-.99-3.47-1.98-6.94ZM114.69,213.03c-.44-.08-.48.79-.49,1.24-.16,9.25,19.86,7.96,25.2,5.82,1.65-.66,6.76-3.05,6.56-5.25-.22-2.55-12.63,3.63-15.85,3.63-6.04,0-10.07-4.44-15.43-5.45ZM51.77,220.46c2.28,3.1,4.78,7.83,8.42,9.89v-2.46h-1.48c.25-.74.24-.74.49-1.48-3.09-.46-5.36-3.88-7.43-5.95ZM420.79,229.2c.3,0,.64.07,1.09.18h-.99v1.48c.74-.25.74-.25,1.48-.5v2.98h-1.48c.25.5.25.49.5.99.49-.25.49-.25.99-.5-.95,1.58-.79,2.68-.5,4.46-1.29.34-1.17.73-1.49,1.98v-1.98c-.49.25-.49.25-.99.5.29-1.15.61-1.82-.5-2.48,1.24.49,1.24.5,2.48,1-.28-1.39.09-.81-1.5-1.49.25-.74.25-.74.5-1.48h-1.48c.74-.25.74-.25,1.48-.5l-.99-.99c.5-.25.49-.25.99-.5-.99.25-.99.25-1.98.5,1.13-.84,1.66-1.1,1.98-2.48-.74.25-.74.25-1.48.5.66-1.2,1-1.68,1.88-1.67ZM61.68,229.39c-.74.49-.75.5-1.46.98.32.18.63.37.96.51.25-.74.25-.74.5-1.48ZM263.33,232.85c0,6.35,4.71,7.95,10.13,10.51,6.15,2.89,12.41,5.54,18.61,8.31-6.63,3.2-11.19,3.59-16.73,9.35-4.14,4.31,3.23,6.65,6.32,3.04-4.24.08-2.61.95-4.95-2.48q6.69-2.73,13.38-5.45c-6.78,11.01-8.03,24.52-8.18,37.22-.04,3.6.82,7.01,4.72,6.38-3.47-12.03-1.3-24.86,3.47-36.42.9-2.17,5.29-11.22,8.96-6.8,3.35,4.04,1.04,6.24,1.19,12.18.19,7.63.53,15.26,1.24,22.86.49,5.26,8.45.47,9.11-2.8,2.21-11.04-3.67-23.74-7.13-33.62,14.21,2.91,14.53,14.15,3.47,4.45,6.59,13.18,16.41,4.05,5.97-3.37-3.7-2.63-6.39-3.04-10.92-4.55,7.41-3,14.92-5.74,22.23-9,3.13-1.39,2.94-1.91,4.04-4.38-6.6,0-17.22,5.54-22.79,7.62-.87.33-5.67,3.17-7.93,2.78-8.96-1.54-17.45-5.25-25.76-8.92-3.31-1.47-5.93-4.49-8.42-6.93ZM109.25,238.8c15.49,5.03,25.43,6.71,40.63,0,1.24,17.32-.13,8.89-7.44,20.31-5.81-4.86-9.08-4.62-14.36.99-5.94-5.75-7.42-6.69-14.37-1.98-1.41-3.86-5.18-5.42-5.05-9.67.1-3.22.39-6.43.59-9.65ZM420.89,243.75c.08.17.41.83.5,1h-1c.08-.17.42-.83.5-1ZM420.39,245.24c.17.25.83,1.24,1,1.48h-1v-1.48ZM98.6,248.71c4.39,1.1,3.02,4.21,1.74,7.43-2.28-2.05-7.34-4.9-1.74-7.43ZM416.43,248.71c-.3,1.5-.38.84,0,1.98v-1.98ZM158.55,250.19c2.39.97,3.01,1.61.8,4.02-2.77,3.04-5.92,5.73-8.67,8.79-1.36,1.51-2.35,3.34-3.66,4.9-2.36,2.81-4.8,5.55-7.34,8.19-4.09,4.27-5.81,1.84-10.87,1.84-3.86,0-2.48.61-7.03,1.35-2.84.46-2.66-1.58-4.68-3.83-4.31-4.81-8.82-9.42-13.13-14.24-1.37-1.53-3.22-2.51-1.42-4.08.5-.44,3.27-.98,3.47-1,5.91-.41,3.07,5.31,4.17,8.57.75,2.23,4.23,2.22,6.54,2.66,3.17.61,6.4.85,9.61,1.16,5.65.54,14.22.76,18.66-3.44,1.18-1.12.04-3.26.23-4.87.63-5.15,7.19-1.63,9.68-3.31,3.04-2.06-.16-1.54,1.9-1.75-1.73-1.92-1.95-2.97,1.74-4.96ZM417.91,250.19c-.5,2-.21,1.88,1.49,3.46-1.15-1.15-1.49-1.84-1.49-3.46ZM416.43,253.17c.16.41.83,2.06,1,2.47.08-.33.41-1.65.49-1.98-.17.08-.82.42-.99.5-.08-.16-.42-.82-.5-.99ZM418.41,255.15c-.08.16-.42.82-.5.99.17.08.83.41,1,.5-.08-.25-.42-1.24-.5-1.48ZM120.39,258.12c2.5-.4,7.97,6.34,3.05,6.87-6.41.69-11.98-5.45-3.05-6.87ZM135.75,258.61c2.72-.09,6.41,3.7,3.04,6.01-1.78,1.22-5.32,1.11-7.25,1.18-5.65.21,1.39-7.09,4.21-7.19ZM420.39,261.58c.08.17.42.83.5,1-.17.08-.83.42-1,.5.08-.25.42-1.25.5-1.49ZM301.59,262.18c.21-.05.5.07.88.4,5.88,4.96,5.39,14.31,5.45,22.04.04,5.6-4.3,10.07-4.7,2.59-.22-4.16-.38-8.34-.51-12.5-.11-3.54-2.58-12.17-1.13-12.53ZM416.93,265.06c-.08.16-.42.82-.5.99h1c-.08-.17-.42-.82-.5-.99ZM415.44,268.03q.74,1.24,1.48,2.48c-.21-1.59-.25-1.66-1.48-2.48ZM355.18,268.61c1.12-.03,2.23.51,2.79,1.9-1.25.31-1.64.2-1.98,1.48-.13-.05-.87.07-1.75.23-.26-.26-.61-.61-.73-.73-.05.16-.19.57-.32.94-1.69.36-3.59.83-4.15,1.04,1.49-.74,1.49-.74,2.98-1.48-.59-1.75,1.3-3.34,3.16-3.39ZM236.5,268.9c.63.07,1.29.35,2.06.61h-3.96c.67-.56,1.27-.69,1.9-.61ZM296.76,269.04c-.73-.1-1.57.17-2.46.97-1.83,1.65.59,8.41,3.54,5.27,2.2-2.34,1.1-5.93-1.08-6.23ZM417.42,271.01c-1.42,1.42-1.32,1.72-1.49,3.96.25-.99.25-.99.5-1.98.49.99.5.99,1,1.98v-3.96ZM348.06,273.97c.08.17.4.83.49,1-.17.08-.82.41-.99.49.08-.25.41-1.24.5-1.48ZM415.93,277.94c-.08.25-.41,1.24-.49,1.48.16-.08.82-.4.99-.49-.08-.17-.42-.83-.5-1ZM50.03,279.42l.68.74c-1.22.98-.57.57-1.91,1.24.62-.99.61-.99,1.23-1.98ZM353.51,279.92c1.98.99.99.99,2.97,0v1c2.76.17,4.25,2.39,6.94,2.97v1c1.27,0,14.28,7.93,13.87,9.41-1.45,5.23-3.43,9.53-5.45,13.86v-1.97c-.25.33-1.25,1.65-1.49,1.98h1.49c-1.17,2.52-2.37,5.06-3.47,7.81-.98,2.43-.75,6.01-1.49,8.55-1.23,4.28-2.92,8.41-4.34,12.63-1.26,3.74-3.19,13.44-7.05,15.11,2.23,2.75-.05,5.97-2.14,8.25-.77-.77-.91-.91-1.82-1.82,3.58-.84-.17-7.96,3.47-8.41-1.46-4.38,2.6-8.86,4.03-13.25,2.01-6.19,3.55-12.54,5.64-18.71.66-1.95,1.21-1.62,2.72-1.73-.74-.74-.74-.75-1.48-1.49h1.98q-.5-1.49-1-2.97c1.19-.22,3.29-5.29,3.47-6.94h1.98v-.99h-1.48c0-3.18,1.6-6.17,2.26-9.28.51-2.4-10.27-8.56-12.66-8.56.25-.49.25-.5.5-1-2.77-.9-5.62-3.81-8.42-3.96.49-.74.5-.74,1-1.49ZM56.73,280.41c-.38,1.51-.47,1.65.49,2.97-.5.25-.49.25-.99.5-.21-1.58-.25-1.66-1.49-2.48.99-.5.99-.49,1.98-.99ZM414.44,280.41c.25.99.25.99.5,1.98.34-1.03.49-1.41-.5-1.98ZM45.83,281.4c.49.74.5.75,1,1.49-6.07,1.76,4.03,8.09,7.93,12.2,6.49,6.84,13.43,13.76,19.88,20.88,1.91,2.11,1.87,4.38,4.89,4.58-.9,6.96,15.27,10.38,14.37,17.34,5.19,2.27,12.13,12.02,15.11,16.48.23.35,1.34,1.83.3,2.35-4.21,2.1-3.28-1.18-6.99-1.49,0-1.58-2.03-2.42-3.16-3.53-4.99-4.9-9.52-10.26-14.43-15.23-9.54-9.66-20.58-20.76-30.23-30.41-4.77-4.77-11.98-10.78-16.22-15.17-2.72-2.82,3.31-7.64,6.07-6.5q.74-1.49,1.49-2.98ZM50.29,281.4c1.72.67.99.04,1.49,2.48h-.99c.29-1.15.6-1.81-.5-2.48ZM66.64,281.9h.99c-.08.16-.42.83-.5,1-.08-.17-.41-.83-.49-1ZM126.58,281.9c12.91-1.23.33,21.93.05,7.56-.05-2.52-2.56-7.32-.05-7.56ZM60.69,282.4c.08.17.41.82.49.99-.16.08-.82.42-.99.5.08-.25.42-1.24.5-1.48ZM415.93,282.4c.82,1.24.66,1.7.05,2.53.67.67.73.72,1.44,1.43,0-1.85.36-3.16-1.49-3.96ZM210.82,282.9q1.98,2.97,3.96,5.95c-20.36,24.01-43.85,46.87-66.7,68.37-2.91,2.74-4.76.7-8.11-.5q.99-1.49,1.98-2.97v1.98c1.23-.77,1.43-2.55,2.37-3.66,3.22-3.83,6.75-7.39,10.26-10.96,3.78-3.83,8.42-6.75,12.13-10.65,2.4-2.52,5.18-7,7.76-9.66,10.09-10.37,20.52-20.38,30.7-30.66,2.16-2.17,4.24-4.53,5.64-7.25ZM47.31,283.38c.99.57.84.96.5,1.98-.25-.99-.25-.99-.5-1.98ZM71.09,283.38c-.25.49-.24.5-.49,1,.5.49.49.49.99.99-1.05-.7-.61-.23-1.24-1.48.37-.25.37-.25.74-.5ZM122.62,283.64c3.48,11.94,2.99,16.1-7.43,23.04-3.21,2.14-7.41,4.45-11.39,4.45,3.21-9.61,7.06-24.4,18.82-27.49ZM49.29,283.88c.25.49.25.5.5,1,.5-.25.5-.25,1-.5-.97,1.77-.22,1.3-2.48.99.49-.74.49-.74.99-1.48ZM134.51,283.88c12.9,5.64,17.16,14.48,19.82,27.74-2.92,0-5.19-1.15-7.76-2.74-17.5-10.81-9.67-8.49-12.06-25ZM68.13,284.38c.25.17,1.24.82,1.48.99h-1.48v-.99ZM87.94,284.38q9.66,2.97,19.32,5.95c-4.29,7.72-5.39,16.15-9.41,23.78-4.3-10.03-7.64-19.09-9.91-29.73ZM165.86,284.38c.69-.07,1.39-.07,2.09,0,1.23.12.6,1.76.45,2.17-3,7.88-6.08,15.73-9.12,23.6-1.92-7.35-4.11-13.5-7.43-20.32,4.68-1.64,9.17-5,14-5.45ZM52.77,284.88c.08.17.41.82.49.99h-.99c.08-.16.42-.82.5-.99ZM60.69,284.88c.74,1.24.74,1.23,1.49,2.47-.66-1.11-1.33-.77-2.48-.49q.5-.99,1-1.98ZM415.93,285.01c-.27.35-.59.77-.99,1.35h.99v-1.35ZM63.17,286.36c.08.17.42.82.5.99-.17.08-.82.41-.99.5.08-.25.4-1.24.49-1.49ZM177.12,286.36c.34,1.03.49,1.41-.5,1.98.25-.99.25-.99.5-1.98ZM201.4,286.36h.99c-.08.25-.42,1.24-.5,1.49-.08-.25-.41-1.24-.49-1.49ZM53.26,286.86c.25.99.25.99.5,1.98-1.39-.28-.87.12-1.19-1.59.35-.2.34-.2.69-.39ZM57.72,286.86q.74.74,1.48,1.48c-1.5-.3-.84-.38-1.98,0,.25-.74.25-.74.5-1.48ZM194.46,286.86h1c-.08.16-.42.82-.5.99-.08-.17-.42-.82-.5-.99ZM415.44,286.86v2.47q-.25-.99-.5-1.98c-.49.25-.5.25-1,.5.86,1.28.87,1.98.5,3.46,1.93-.2,1.98-2.9,1.98-4.45h-.99ZM66.64,287.35v1h1.48c-1.6.96-.77.64-2.48.99.35-1.39.05-.72,1-1.98ZM60.69,287.85c.74.25.74.25,1.49.5q-.5,1.24-1,2.48c-.49-.25-.49-.25-.99-.5,1.11-.66.79-1.33.5-2.48ZM77.04,288.34c.17.25.83,1.24,1,1.48h-1v-1.48ZM51.28,288.84c.25.17,1.25.82,1.49.99h-1.98c.08-.17.4-.82.49-.99ZM188.52,288.84c.33,1.33.09.68.76,1.91,1.17-.28,1.5-.96,2.21-1.91-.3,1.8-.64,2.88.99,3.96-2.16-1.13-3.96-1.41-3.96-3.96ZM195.95,288.84c.49,1.24.5,1.23,1,2.47-1.61-1.36-1.34-.51-1-2.47ZM296.77,288.86c-.74-.02-1.52.33-2.21,1.21-2.85,3.58,1.8,9.16,4.74,4.69,1.58-2.4-.31-5.83-2.53-5.9ZM58.71,289.33c-.73,1.7-.98,3.28-2.98,3.48,1.47-1.08,1.38-1.17,1-2.98,1.03.34,1.41.49,1.98-.5ZM67.63,289.33c.25.08,1.24.42,1.48.5-.17.08-.82.42-.99.5-.08-.17-.42-.83-.5-1ZM53.75,289.83c.33.17,1.65.83,1.98,1-.49.25-2.47,1.24-2.97,1.49.17-.41.82-2.07.99-2.48ZM122.13,289.83c-3.41,3.41-7.01,6.43-8.92,10.9,1.37-1.38,8.92-7,8.92-10.9ZM135.51,289.83c2.64,4.3,4.98,7.26,8.91,10.41-1.97-4.92-4.73-7.12-8.91-10.41ZM179.11,289.83c.33.17,1.65.83,1.98,1-.41.17-2.07.82-2.48.99.08-.33.41-1.65.5-1.98ZM62.18,290.32c.16.08.82.42.99.5-.08.17-.41.82-.49.99-.08-.25-.42-1.24-.5-1.49ZM177.12,290.32c.17.08.82.42.99.5-.25.17-1.24.82-1.49.99.08-.25.42-1.24.5-1.49ZM69.61,290.82h1.98v1.49c-1.5-.38-.78.02-1.98-1.49ZM184.55,290.82c2.2,1.55,2.99,1.54,1.98,3.96q-.25-1.24-.5-2.48c-.74.25-.74.25-1.48.5v-1.98ZM187.03,290.82h.99v1.49c-.16-.25-.82-1.24-.99-1.49ZM197.93,290.82c.5.5.5.49,1,.99-1.53,1.52-2.74,1.42-3.96,3.46-.25-.99-.25-.99-.5-1.98-.74.25-.74.25-1.49.5.25.49.25.5.5,1-1.74-.25-1.74-.25-3.48-.5.96-1.59,2.28-.31,3.48-2.48q.99.99,1.98,1.98.49-.99.99-1.98c.25.49.25.5.5,1,1.24-.88.83-.27.99-1.98ZM67.23,290.88c.54,0,1.17.14,1.88.43h-2.47c.99,1.49.99,1.49,1.98,2.98-1.69-.57-3.15,1.04-4.46,1.98.82-1.36,2.14-2.18,2.57-3.54-.42-.21-.43-.21-.85-.42-.62.99-.61.99-1.23,1.98.09-2.18.95-3.41,2.57-3.41ZM175.64,291.31c.49,1.2-.14,1.63-1,2.48.49-1.24.5-1.24,1-2.48ZM435.75,291.31v1.5c-.49-.25-.49-.25-.99-.5.5-.5.49-.5.99-1ZM54.75,291.81c.05.53.05.53.09,1.07-.79.21-.79.2-1.58.42.73-1.09.26-.56,1.49-1.48ZM63.66,291.81v1.48h-.99c.17-.25.82-1.24.99-1.48ZM35.42,292.31c10.79,10.68,17.63,17.14,26.82,26.75,12.5,13.07,25.13,26,37.62,39.07,2.43,2.54,2.54,2.87-.03,5.03.25-.74.25-.74.5-1.48h-1.49q.25,1.73.5,3.46c-.99-.25-.99-.25-1.98-.5.5.74.5.75,1,1.5h-1.98v-1.5c-5.73-.45-11.74-10.87-15.73-14.86-14.43-14.43-31.15-29.41-46.08-43.78-1.52-1.46-3.03-3.27-5.08-3.78q2.98-4.96,5.95-9.91ZM68.62,292.31c.25.08,1.24.41,1.48.5-.17.08-.83.4-1,.49-.08-.17-.41-.82-.49-.99ZM177.12,292.31c.17.16.82.82.99.99-.25.08-1.24.41-1.49.5.08-.25.42-1.24.5-1.48ZM183.07,292.31c.41.33,2.07,1.65,2.48,1.98h-2.48v-1.98ZM188.52,292.31c.25.08,1.24.41,1.48.5-.17.25-.82,1.24-.99,1.48-.08-.33-.42-1.65-.5-1.98ZM216.76,292.31c1.65,2.4,3.45,4.71,4.94,7.21.55.92.25,2.22-.48,2.94-2.98,2.91-6.31,5.47-9.3,8.36-8.06,7.82-15.73,16.02-23.84,23.78-9.64,9.23-19.85,19.52-29.53,28.3-1.73,1.57-3.93,2.75-5.2,4.71-3.66-4.42-4.24-6.16.24-10.93,10.74-11.41,21.86-22.47,32.83-33.67,9.65-9.87,20.81-20.66,30.35-30.71ZM181.09,292.81c.34,1.03.49,1.41-.5,1.98.25-.99.25-.99.5-1.98ZM415.93,292.81c-1.24,1.24-1.23,1.23-2.47,2.47.99-.25.99-.24,1.98-.49q-.5.99-1,1.98c2.01-1.21,2.37-1.75,1.49-3.96ZM431.3,292.81c.16.08.82.4.99.49-.25.08-1.24.41-1.49.5.08-.17.42-.82.5-.99ZM72.7,292.97c.61.01,1.23.68,1.87,1.32-2.3-.86-1.3-.92-2.98-.5.38-.6.74-.83,1.11-.82ZM55.24,293.29c.08.17.42.83.5,1h-.99c.08-.17.41-.83.49-1ZM61.18,293.29c1.35.14,1.53,1.34,1.98,2.48-1.39-.53-1.63-1.06-1.98-2.48ZM59.7,293.79c.17.17.83.83,1,1-.25.08-1.25.41-1.49.49.08-.25.42-1.24.5-1.48ZM75.06,294.29h1c-.08.25-.41,1.24-.5,1.48-.08-.25-.42-1.24-.5-1.48ZM427.82,294.29c.08.25.42,1.24.5,1.48-.17-.08-.82-.41-.99-.5.08-.17.4-.82.49-.99ZM189.51,294.79v1.98h-1c.16-.33.83-1.65,1-1.98ZM69.16,294.85c.83,0,1.8.3,2.43.92-2.07-.41-2.02-.51-3.23,1.42-1.58-1.51-.58-2.34.8-2.35ZM184.06,295.27c1.49.3.84.38,1.98,0-.72,1.68-.76,1.79-1.43,3.37-.39-.96,0-2.03-.55-3.37ZM191,295.27h.99c-.08.17-.4.83-.49,1-.08-.16-.42-.83-.5-1ZM72.59,295.77q-.25,1.24-.5,2.48-.99-.5-1.98-1c1.1,1.44.9.62.5,2.48-.49-1.49-.5-1.48-1-2.97,1.59-.53,1.59.39,2.98-1ZM76.05,295.77c.6,1.58.04.97,1.98,1.49-.25.49-.25.5-.5,1-1.24-.83-1.28-.9-1.49-2.48ZM193.48,295.77c.49.5.49.5.99,1-1.67,1.58-1.78,1.92-3.96,1.48.49-.74.5-.74,1-1.48.5.49.49.49.99.99q.5-.99,1-1.98ZM180.59,296.02c.05.47.05.47.09.95-1.04.15-1.03.15-2.07.3q.99-.62,1.98-1.24ZM59.7,296.77c.25.16,1.24.82,1.48.99h-1.48v-.99ZM190,296.77v1.48h-1.48c.25.49.25.49.5.99-.74-.25-.74-.24-1.49-.49.7,2.08-.66,4.08-1.49,5.95-.49-1.49-.49-1.49-.99-2.98l1.48.5c.83-3.41.51-4.06,3.47-5.45ZM62.68,297.26c.19.19.69.69,1.16,1.16-.26.13-.56.28-.67.33-.08-.25-.41-1.25-.49-1.49ZM186.04,297.26h1q-.74,1.24-1.48,2.48c-.48-.32-.76-.64-.92-.99h1.41v-1.49ZM74.74,297.5c.73-.07,1.14.69.81,2.73q.99-.74,1.98-1.48c-1.71,2.04-1.24.87-1.49,3.47,1.8-.94.99-1.05,2.48,0q.49-.99.99-1.98c.49.74.5.74,1,1.48v-1.98c.34.22.34.22.68.44q-.34,1.27-.68,2.54c-.49-.5-.5-.5-1-1-.7,2.91-5.32,4.24-.99,5.95-.39-2.31-.69-1.34.49-2.97.49,1.49.5,1.48,1,2.97.9-1.17.29-.88,1.98-.5v-1.98c-.49.49-.5.5-1,1-.25-.49-.24-.5-.49-1,1.52-.4.83.06,1.48-1.98.99.25.99.25,1.98.5-.9,1.17-.29.88-1.98.5.7,1.75.04.86,2.97,1.48q-.74,1.24-1.48,2.48.99-.74,1.98-1.49c-.9,1.95-2.19,5.18,1,5.45-.32-2.04,0-.83-1.49-3.46,3.63.59,2.54,1.01,4.96,2.97-.49.74-.5.74-1,1.49h1.98c-.49.74-.49.75-.99,1.49,1.24.25,1.24.24,2.48.49-.99.49-.99.5-1.98,1h2.47c-.49.99-.49.99-.99,1.98,2.66,0,5.03,2.85,4.46,5.44q-1.24-1.98-2.48-3.96-.25,1.49-.5,2.98h1.98c-.49.5-.49.49-.99.99,2.32,1.87,3.42.97,4.45,3.96q-.99-.99-1.98-1.98c-.49.49-.49.5-.99,1,.55.1.92.27,1.23.46-2.1-.2-3.35-2.66-5.19-3.94-.49.74-.5.75-1,1.5.74-.5.75-.5,1.49-1q.74,1.24,1.49,2.48h-1.98q.74,1.98,1.49,3.96.74-.74,1.48-1.48c.25.99.25.99.5,1.98.25-.74.25-.75.5-1.49.74.74.74.75,1.48,1.49.25-.74.25-.75.5-1.49h-1.48c.47-.94.52-1.03.94-1.87.7.51,1.07,1.08,2.53.88-.5.74-.5.74-1,1.49q1.24.25,2.48.5c-.93,1.46-2.09-.13-3.47.74.25.87.25.87.5,1.74-.74-.49-.75-.5-1.5-1v1h-1.48c.49-.99.5-.99,1-1.98-1.49.25-1.49.24-2.98.49-.65-1.94-2.37-1.98-3.47-4.45-.49.49-.5.49-1,.99-.87-2.77-3.75-3.15-4.45-5.95-.74.25-.75.25-1.49.5.77-3.54,3.98-1.71.5-5.45q-.25,1.73-.5,3.47c-1.81-2.18-.47-2.99,1-5.45h-1.48c-.27,1.97-1.04,1.72-1.5,3.96-.25-.5-.24-.5-.49-1-.49.25-.5.25-1,.5.77-2.37,2.67-2.76,2.48-4.96h1.98c-1.37-2.13-.48-1.86-1.98-1.98v1.5c-2.89-1.24-3.73-2.02-1.98-4.96-1.97.36-1.21-.19-1.98,1.98-.5-.49-.5-.49-1-.99-.99,1.24-.99,1.23-1.98,2.47,2.12.35,1.11.58,2.98-.99v1.98c-.74-.25-.74-.25-1.49-.5.25.74.24.74.49,1.49,1.49-.5,1.49-.49,2.98-.99v.99h1.48q-.99,1.24-1.98,2.48c-2.18-1.91-5.92-3.27-6.93-5.95,1.49.25,1.48.25,2.97.5-.25-.74-.25-.74-.5-1.48.74.25.75.24,1.49.49-.43-2.77-4.23-5.19-1.49-7.93-.25.99-.24.99-.49,1.98h.99q-.25-1.49-.5-2.97c-.74.49-.74.49-1.48.99q.74-1.73,1.48-3.46h-1c.24-.14.47-.24.68-.25ZM80.02,313.11c-.62.25-.62.25-1.24.5.62.49.62.5,1.24,1v-1.49ZM83.98,313.11c.17,1.92,1.04,1.62,2.97,1.98-1.44,1.1-.61.9-2.47.5.25.74.24.74.49,1.48,2.04-.82,2.42-1.29,1.98-3.46h1.98c-1.22-.74-2.4-1.21-2.97.5q-.99-.5-1.98-1ZM84.48,321.54h1.48v1.48c.77-2.17.02-1.62,1.98-1.98v1c.99-.25.99-.25,1.98-.5-1.7-1.7.47-4.3-1.98-4.95.25,1.24.25,1.23.5,2.47-.99-.25-.99-.24-1.98-.49-.39,1.56-.29,1.67-1.98,1.98v.99ZM91.91,326c.25-.74.25-.74.5-1.48q-1.24.49-2.48.99h.99v1.48c.49-.49.5-.49,1-.99ZM89.92,325.5c-.25-.74-.25-.74-.5-1.48-.5.74-.49.74-.99,1.48h1.48ZM67.63,297.76c.38,1.14.2.49.5,1.98-.59-.28-.59-.28-1.18-.56.34-.71.34-.71.68-1.42ZM73.7,298.01c.11.23.18.37.37.74q-.99.49-1.98.99c.52-.74,1.09-1.33,1.61-1.73ZM177.12,298.25c.99,1.49.99,1.48,1.98,2.97q.74-.99,1.48-1.98c-.37,2.24.13,1.16-1.98,2.98,1.8,2.91,1.24,1.27,1.48,4.95q1.98-1.73,3.96-3.46c-.38,2.28-1.94,2.18-.99,4.46-2.1.47-1.24-.14-1.98,2.48-2.58-2.37-1.26-2.21-3.46-1.98,1.55,2.09,1.92,3.52-.5,4.95.37-2.14.77-1.41-.5-2.48-.23,2.73.47,1.87-1.48,2.98h1.48v.99c-2.18-.73-5.99,5.35-6.93,7.44l-1-.5c.25.99.25.99.5,1.98q-.99-.25-1.98-.5c0,3.19-5.95,9.89-9.41,9.41.74.74.74.75,1.48,1.5-2.22.6-1.25-.09-1.98,2.97q-.5-1.24-1-2.48v1.49c-3.18-.69-3.9,3.01-5.45-1.49,1.24.74,1.24.75,2.48,1.49-.77-1.88-1.78-2.89-.5-4.46.25.49.25.49.5.99-.34-2.46.77-2.33.99-4.95.74.25.75.25,1.49.5-1.94-3.56,1.2-7.1,4.45-5.95q-.49-1.24-.99-2.48h1.48c-.73-1.63,1.67-8.91,4.46-6.94v-1.98h-1.48q.99-.74,1.98-1.48c.5.99.49.99.99,1.98-.25-1.49-.25-1.48-.5-2.97q.5.99,1,1.98c.99-.49.99-.5,1.98-1,.25.49.25.5.5,1-.25-.99-.25-.99-.5-1.98-.74.25-.74.24-1.48.49v-1.49c.49.25.49.25.99.5.49-.99.5-.99,1-1.98-.3,2.71-.89,1.84.99,2.97.63-2.93-.27-2.27,1.48-2.97-.25-.74-.24-.74-.49-1.48.5.49.49.49.99.99.49-.49.5-.49,1-.99-.81,2.98-1.04,1.83-.5,3.47h1.48c-1.27-1.08-.87-.34-.5-2.48.65,2.04-.02,1.58,1.49,1.98-.25-.99-.25-.99-.5-1.98h.99c-.16-1.72.25-1.1-.99-1.98.99.25.99.25,1.98.5v-1.48c.5.49.49.49.99.99.57-1.96.41-.97.5-2.97-.74.5-.74.49-1.49.99q.25-.99.5-1.98h-1.5c.5-.74.5-.74,1-1.48ZM170.68,309.15v1.98c-1.8.13-1.57.68-1.98,2.48,1.22-1.47,3.29-2.73,1.98-4.46ZM165.23,313.11v1.49c.33-.08,1.65-.42,1.98-.5-.33-.17-1.65-.83-1.98-1ZM183.07,298.25v1.48c-.5-.25-.5-.25-1-.5.5-.49.5-.49,1-.99ZM413.95,298.25v2.48c.99-.49.99-.5,1.98-1-1.08,1.43-1.28,1.63-.99,3.47.5-.74.49-.74.99-1.49-.73,1.94-1.74,3.57-.49,5.45-.79-2.36,1.36-3.47.49-6.43,1.83-.96,1.26-.2,1.49-2.48-1.15,1.73-1.36,1.03-3.48,0ZM64.06,298.65l1.58,1.58h-1.98c.07-.26.27-1.07.4-1.58ZM61.68,298.75h1c-.08.17-.42.82-.5.99-.08-.17-.42-.82-.5-.99ZM78.53,298.75v1.98h-1c.16-.33.83-1.65,1-1.98ZM190,298.75c.51,1.31-.48,1.72-1.48,2.47.74-1.24.74-1.23,1.48-2.47ZM443.67,298.75v1.98c-2.06,0-1.13-1.23,0-1.98ZM183.57,299.74c.25.25,1.24,1.24,1.48,1.48h-1.98c.08-.25.41-1.24.5-1.48ZM66.14,300.23c.17.25.82,1.24.99,1.48-.17-.08-.82-.41-.99-.5-.08.25-.41,1.25-.5,1.5.08-.41.42-2.07.5-2.48ZM69.61,300.23q-.25,1.24-.5,2.48c1.54.84,1.54.94.73,2.41-.68-1.31-.26-1.83-1.72-2.41.69-1.73.21-.89,1.48-2.48ZM72.59,300.23c.65,1.67-.18,1.98-1.5,2.97.69-2.05.21-1.05,1.5-2.97ZM128.56,300.23c4.49,2.95,7.32,7.1,12.16,10.3,4.84,3.2,8.54,4.29,14.1,6.54-2.41,4.22-9.15,3.4-13.34,3.51-6.07.17-12.14.29-18.21.27-5.96-.02-16.64.68-22.8-2.48,2.4-2.78,6.79-2.78,10.2-4.14,6.97-2.76,14.22-7.27,17.9-13.99ZM169.7,300.23h1.48v.99c-.25-.17-1.24-.82-1.48-.99ZM439.22,300.23l.99.99c-.33.08-1.65.42-1.98.5.17-.25.83-1.24,1-1.48ZM175.14,300.73c.17.25.82,1.24.99,1.49h-.99v-1.49ZM181.09,300.73v2.47q1.49-.74,2.97-1.49c-1.21,2.01-1.75,2.37-3.96,1.49.49-1.24.5-1.23,1-2.47ZM436.74,300.73c1.14,1.14,1.42,1.58.5,2.97-.94-1.05-.83-1.64-.5-2.97ZM82,301.22c.08.25.42,1.25.5,1.5h-1c.08-.25.42-1.25.5-1.5ZM173.16,301.72c.34,1.03.49,1.41-.5,1.98.25-.99.25-.99.5-1.98ZM434.76,301.72c.17.25.82,1.24.99,1.49h-1.48c.17-.08.83-.41,1-.49-.08-.17-.41-.83-.5-1ZM78.03,302.22c-1.54.18-2.19,1.78-2.98,2.97,1.83-.95,2.81-.98,2.98-2.97ZM72.59,303.2c.16.41.82,2.07.99,2.48-.25-.17-1.24-.82-1.48-.99-.08.17-.42.82-.5.99.17-.41.83-2.07,1-2.48ZM80.02,303.2c.17.25.82,1.25.99,1.49h-.99v-1.49ZM171.18,303.2c.08.16.42.83.5,1h-1c.08-.17.42-.83.5-1ZM433.28,303.2c.08.25.41,1.25.49,1.49-.25-.08-1.24-.42-1.48-.5.16-.17.83-.83,1-1ZM173.66,303.7h.99v1.48c-.17-.25-.82-1.24-.99-1.48ZM224.19,303.7q1.74,3.22,3.47,6.44c-6.29,4.08-12.04,9.41-17.49,14.56-13.21,12.51-26.12,25.35-39.24,37.95-2.63,2.53-6.97,6.79-10.15,7.93.25.5.25.5.5,1-3.11.42-1.92-.37-3.46,2.48-2.65-5.02,2.53-13.65,8.41-13.38.32-2.31,0-1.63,2.73-4.21,6.58-6.21,13.5-12.06,20.01-18.34,11.74-11.32,23.84-22.74,35.23-34.43ZM179.6,304.2c-2.84.45-3.37,2.26-3.46,4.45,2.85-.82,3.46-1.46,3.46-4.45ZM431.3,304.2c.16.17.82.82.99.99-.25.08-1.24.42-1.49.5.08-.25.42-1.24.5-1.48ZM26.91,304.51c.19-.01.37.04.58.18,13.69,9.37,22.82,21.1,34.81,32.57,7.15,6.85,14.85,13.39,21.75,20.5,3.33,3.43,6.36,7.17,9.28,10.97,1.14,1.48-.2,5.69-1.92,4.02-4.81-4.69-9.33-9.64-14.11-14-5.51-5.03-10.59-10.52-16.05-15.6-4.78-4.44-9.98-8.42-14.67-12.95-6.34-6.12-12.56-12.05-19.2-18.2-.65-.6-1.22-1.32-1.61-2.11-.87-1.81-.15-5.28,1.15-5.38ZM67.63,304.7c.77.52.81.58,1,.99.07.14.08.17.24.5-.37.25-.37.25-.74.5l.5-1c-.49-.49-.5-.49-1-.99ZM82.98,306.18c-.1,1.79.26.93-1.98,1.98q1.24.99,2.48,1.98-.25-1.98-.5-3.96ZM427.33,306.18c1.84.25,1.16-.23,1.98,1.48h-1.98v-1.48ZM72.09,306.68h.99c-.34,1.03-.49,1.41.5,1.98.49-.99.5-.99,1-1.98,0,1.86-.06,1.72-1.98,2.47-.25-1.24-.25-1.23-.5-2.47ZM425.35,307.16h1.49c-1.11,2.23-1.76,2.03-4.46,2.98,1.08-1.95,1.21-1.91,3.46-1.98-.25-.5-.24-.5-.49-1ZM179.6,308.16c.17.25.82,1.24.99,1.48.08-.17.42-.82.5-.99-.25-.08-1.24-.42-1.48-.5ZM80.02,308.66c.25.41,1.24,2.06,1.48,2.47.08-.33.42-1.65.5-1.98-.33-.08-1.65-.41-1.98-.49ZM176.14,308.68c-.03.78,0,1.61,0,2.45,1.04-1.48.93-.7,0-2.45ZM85.96,309.15c.31,1.25.2,1.64,1.48,1.98-.25-1.84.23-1.16-1.48-1.98ZM172.66,310.39c-.5.62-.49.62-.99,1.24,2.77.36,2.38,2.08,1.98,4.46,1.5-3.51.26-2.68-1-5.7ZM179.6,310.64c.25.17,1.24.82,1.48.99h-1.48v-.99ZM412.96,310.64c-.08.25-.42,1.24-.5,1.48.25-.16,1.24-.83,1.48-1-.17-.08-.82-.4-.99-.49ZM414.44,310.64v.99c.33-.08,1.65-.41,1.98-.5-.33-.08-1.65-.4-1.98-.49ZM228.15,311.13c4.81,4.99,10.49,11.2,3.64,17.36-19.61,17.63-39.77,34.64-59.81,51.79-2.15,1.84-4.5,3.45-6.75,5.17-1.43-2.15-3-4.4-3.46-6.94-7.1,1.25,3.48-8.53,5.78-10.47,7.32-6.16,14.14-12.6,21.21-19.32,9.93-9.44,19.55-19.32,29.66-28.55,3.31-3.01,7.12-5.47,9.73-9.04ZM171.18,312.12c-.08.25-.41,1.24-.5,1.49.33-.08,1.65-.42,1.98-.5-.25-.17-1.24-.82-1.49-.99ZM168.2,314.11c.08.17.41.82.5.99.08-.17.42-.82.5-.99h-1ZM413.95,314.11c-.08.25-.4,1.24-.49,1.48.25-.08,1.24-.42,1.48-.5-.16-.17-.83-.82-1-.99ZM170.68,314.6c.52,2.09-.15,3.5-.99,5.45,1.29-1.37,3.59-4.15.99-5.45ZM167.22,315.09c-.17.33-.83,1.65-1,1.98.33-.17,1.65-.82,1.98-.99-.17-.17-.82-.83-.99-1ZM296.12,316.49c-.45.09-.89.28-1.32.58-3.02,2.13.39,7.59,3.96,5.2,3.02-2.01,1.21-5.28-1.33-5.78-.42-.08-.87-.09-1.31,0ZM85.96,317.07c-.08.17-.42.83-.5,1h1.48c-.16-.17-.82-.83-.99-1ZM163.25,317.07c-.62.25-.62.25-1.24.5.62.5.62.5,1.24,1v-1.5ZM168.2,317.07c-.08.17-.41.83-.49,1h1.48c-.17-.17-.83-.83-1-1ZM163.75,317.57c.18,1.08.64,1.97,1.01,2.85.39-1.55.37-1.6-1.01-2.85ZM166.72,317.57c-.49,1.82-.6.87,1.49,2.48q-.74-1.24-1.49-2.48ZM83.98,318.07c.08.16.42.82.5.99h-1c.08-.17.41-.82.5-.99ZM90.42,318.57v3.96h-3.48v1.49c2.51,0,3.28.16,3.96-2.48.99.25.99.25,1.98.5q.25-1.24.5-2.48-.74.74-1.49,1.48c-.2-1.58-.24-1.64-1.48-2.47ZM413.46,319.06v1.49h.99c-.16-.25-.82-1.25-.99-1.49ZM87.2,319.55c.34.36.34.37.68.73-1.23.67-.59.42-1.92.75q.62-.74,1.24-1.48ZM164.82,320.55c.33.79.57,1.57.42,2.47h.99v-2.47h-1.4ZM394.63,323.02c.16.08.83.42,1,.5-.08.17-.42.83-.5,1-.08-.25-.42-1.25-.5-1.5ZM396.61,323.02c.63,1.9-1.07,2.54-2.48,3.48q1.24-1.73,2.48-3.48ZM164.24,324.51c.08.17.42.82.5.99.08-.17.42-.82.5-.99h-1ZM104.78,325.5q22.79.25,45.58.5c-6.69,8.17-8.84,19.31-15.25,27.63-1.02,1.33-3.3-.63-4.9-1.15-4.06-1.33-7.46.77-10.78-2.55-5.89-5.89-11.4-18.57-14.64-24.43ZM391.16,325.5q.99.74,1.98,1.48c-1.88.75-2.52.9-3.46-.99.74.49.74.49,1.48.99v-1.48ZM156.31,326.49c-.08.17-.4.82-.49.99h.99c-.08-.17-.42-.82-.5-.99ZM157.81,326.49v1.48c1.13-.47,1.36.05,1.98.99-.09-1.69-.44-1.65-1.98-2.47ZM413.95,326.49q-.99,1.98-1.98,3.96c1.39-1.4,1.95-1.14,3.48,0q-.74-1.98-1.5-3.96ZM410.98,326.98c.16.25.82,1.25.99,1.5.08-.25.42-1.25.5-1.5h-1.48ZM161.77,328.48c-.08.25-.42,1.24-.5,1.48.17-.08.82-.42.99-.5-.08-.17-.41-.82-.49-.99ZM156.31,328.97c-.87.25-.86.25-1.73.5.25.4.24.4.49.8.98-.74.57-.3,1.24-1.3ZM155.82,330.46c.39,1.56.3,1.67,1.98,1.98q-.99-.99-1.98-1.98ZM127.92,330.64c-.51.05-1.04.14-1.58.31-8.92,2.65-5.36,15.81,3.96,13.01,8.75-2.62,5.29-14.04-2.38-13.31ZM98.84,330.95c1.94.69,1.51.05,1.98,1.24q-.99-.62-1.98-1.24ZM410.98,331.44c.25.41,1.24,2.07,1.48,2.48.17-.33.83-1.65,1-1.98-.41-.08-2.07-.42-2.48-.5ZM414.44,331.44c-.49,1.49-.49,1.49-.99,2.98,1.35-.9,1.37-1.43.99-2.98ZM94.39,331.94q.49.99.99,1.98c-.94-.63-1.46-.86-.99-1.98ZM101.81,332.44c.54,1.34.39,2.03,1.48,2.97-1.34-.45-1.86-.25-2.48,1,.74.25.75.24,1.49.49-.99.99-1.31,1.31-1.98,1.98l-.5.5q-1.24-1.49-2.48-2.97c2.75-.79,3.24-1.21,4.46-3.96ZM100.33,338.87c.08-.33.41-1.65.49-1.98h-1.98v1c.25-.08,1.25-.41,1.49-.5v1.48ZM97.35,332.93c1.11.45,1.97.62,2.48,1.74-.78.05-1.15.07-1.55.09-.39-.79-.47-.91-.93-1.83ZM96.37,333.93c.97.73,1,.75,1.5.86-.5.03-1,.06-1.99.12.25-.5.25-.49.5-.99ZM101.32,333.93c-.08.16-.42.82-.5.99h1c-.08-.17-.42-.82-.5-.99ZM240.04,336.4c.08.17.42.82.5.99h-1c.08-.17.42-.82.5-.99ZM413.46,336.4c-.08.33-.42,1.65-.5,1.98.25-.16,1.24-.83,1.48-1-.16-.17-.82-.82-.99-.99ZM102.8,336.89c.74.74.75.75,1.5,1.49q-1.24.99-2.48,1.98c2.44,0,2.33-.29,3.96-2.48v3.47q-2.48-.25-4.96-.5.99-1.98,1.98-3.96ZM235.09,336.89c.99.25.99.25,1.98.5-1.03.34-1.41.49-1.98-.5ZM149.88,337.39c.5,1.49.49,1.49.99,2.98-1.2-1.27-1.44-1.34-.99-2.98ZM102.8,337.89c-.08.25-.4,1.24-.49,1.48.17-.08.82-.41.99-.5-.08-.16-.41-.82-.5-.99ZM151.36,337.89h.99v1.48h-.99v-1.48ZM153.84,337.89l.49,1.48c-.25.08-1.24.42-1.48.5.17-.33.83-1.65,1-1.98ZM148.79,340.15c.54-.11.78.67,1.09,2.2-.49-.99-.5-.99-1-1.98-.74.49-.74.49-1.48.99.63-.74,1.07-1.13,1.39-1.2ZM150.86,341.85c.25.17,1.24.82,1.49.99h-1.98c.08-.17.42-.82.5-.99ZM410.48,341.85c.33.25,1.65,1.24,1.98,1.48v-1.48h-1.98ZM105.28,342.35c.25.08,1.24.41,1.48.49-.17.41-.82,2.07-.99,2.48-.08-.5-.42-2.47-.5-2.97ZM147.4,342.35h.99v1.98c-.17-.33-.82-1.65-.99-1.98ZM246.99,342.35c4.5,2.14,4.4,6.32,3.96,10.4v-1.48c-1.39.28-.81-.11-1.49,1.48.25-.99.25-.99.5-1.98-3.07.45-19.19,13.36-19.82,15.85-.25-.74-.25-.74-.5-1.49-1.47,1.09-.94.36-1.48,2.23-.36-.34-.37-.34-.73-.68-1.13,2-4.05,3.58-6.2,4.9.49.74.49.74.99,1.48-2.74-.81-3.32,1.4-5.95,1.98.25.74.25.74.5,1.49-2.06-.53-4.01.76-3.47,2.98-1.32-1.01-.63-.91-2.05-.56.03,1.27.04,1.27.07,2.54-1.96-.86-20.1,11.62-20.81,15.36q-3.72-1.73-7.43-3.46c3.82-3.51,7.4-10.84,12.39-9.41,2.15-3.71,7.31-4.72,7.93-8.92,5.99.26,16.23-11.78,21.05-15.54,2.87-2.24,9.12-3.73,8.18-7.25,2.57.26,3.06-1.32,5.45-2.48-.25-.5-.25-.5-.5-1l1.49.5c-.36-1.96.19-1.21-1.98-1.98,4.41.34,7.46-1.01,9.91-4.95ZM107.26,342.84c.08.17.42.83.5,1,.17-.08.82-.41.99-.5v1.49h-1.48v-1.98ZM234.1,343.83c.17.08.83.42,1,.5-.25.08-1.25.4-1.49.49.08-.17.42-.82.5-.99ZM224.69,344.82c.08.16.42.83.5,1-.25.08-1.25.41-1.5.5.17-.25.83-1.25,1-1.49ZM53.75,346.31c-.08.17-.42.82-.5.99h1.49c-.16-.17-.83-.82-1-.99ZM107.76,346.31c.35.17.57.37.87.55-.83.42-.94.47-1.87.93.49-.74.5-.74,1-1.48ZM108.77,346.94c2.89,1.75,4,3.84,5.44,7.29-3.38,1.13-5.31-4.8-5.44-7.29ZM252.93,352.75c-.5,1.73-.5,1.74-1,3.48-.54-1.37.29-2.3,1-3.48ZM229.64,353.74c.08.17.42.82.5.99-.25.08-1.24.42-1.48.5.17-.25.82-1.24.99-1.48ZM224.11,354.21c.3-.05.66-.04,1.08.03-1.39,1.06-2.09.42-3.48,1.49.99-.79,1.49-1.38,2.4-1.52ZM156.31,354.24c.08.17.42.82.5.99.08-.16.41-.82.5-.99h-1ZM254.91,355.22c1.51,1.99,5.3,3.94,4.21,6.19-.61,1.26-1.79,2.2-2.91,3.04-6.81,5.12-13.98,9.75-20.84,14.8-7.79,5.72-15.52,12.15-23.13,18.15-7.05,5.56-8.82,9.52-16.29,3.41,2.17-1.57,4.4-3.06,6.5-4.71,1.09-.85.8-1.92.93-3.22,2.54,2.2,4.32-.31,4.45-2.97,1.21.71,1.01.93,2.54-.25,3.36-2.61,6.47-5.53,9.85-8.11,11.03-8.41,24.95-16.41,34.68-26.32ZM94.39,357.21c-.08.17-.42.83-.5,1h.99c-.08-.17-.41-.83-.49-1ZM243.51,357.71h1v1.48c-.17-.25-.83-1.24-1-1.48ZM98.84,359.19c-.74,1.49-.74,1.49-1.49,2.98,1.43-1.04,1.43-1.19,1.49-2.98ZM240.54,359.19c.17.08.82.42.99.5-.25.33-1.24,1.65-1.49,1.98.08-.41.42-2.07.5-2.48ZM246.49,359.19c.25.08,1.24.42,1.48.5-.08.17-.42.82-.5.99-.17-.25-.82-1.24-.99-1.49ZM95.87,359.69c-.08.25-.42,1.24-.5,1.49.17-.08.83-.42,1-.5-.08-.17-.42-.82-.5-.99ZM351.03,360.19c1.1.22,1.32.26,2.21.44-.33.35-.67.75-.96,1.05-1.18-.59-.73-.12-1.24-1.48ZM153.84,360.68c-1.23.1-1.47.95-1.98,1.98,1.07-.36,1.62-.91,1.98-1.98ZM242.03,361.17c.16.08.83.41,1,.5-.25.17-1.25.82-1.49.99.08-.25.41-1.24.5-1.48ZM237.08,362.17h.99c-.08.17-.42.82-.5.99-.08-.17-.41-.82-.49-.99ZM238.56,365.63c.25.08,1.24.42,1.48.5-.25.08-1.24.4-1.48.49v-.99ZM232.12,368.11c.74.25.74.24,1.48.49q-.49,1.24-.99,2.48c-.49-.25-.5-.25-1-.5,1.11-.66.78-1.32.5-2.47ZM78.53,368.6c.25.17,1.24.83,1.48,1v-1h-1.48ZM234.6,368.6c.25.08,1.24.42,1.49.5-.17.08-.82.42-.99.5-.08-.17-.41-.83-.5-1ZM78.03,369.6c-.72.06-1.09.41-1.38.87.28.23.59.49.86.72.13-.2.15-.56.52-1.59ZM167.71,369.6q-.5.99-1,1.98c.94-.63,1.47-.86,1-1.98ZM83.48,371.08c-.08.25-.42,1.24-.5,1.49.25-.08,1.25-.41,1.49-.49-.17-.17-.83-.83-1-1ZM261.84,372.08h1c-.08.25-.42,1.24-.5,1.48-.08-.25-.42-1.24-.5-1.48ZM82,372.57c-.45.75-.67,1.12-.9,1.51.11.09.22.17.33.25.54-.43.91-.91.58-1.77ZM253.42,372.57c.25.08,1.25.41,1.49.5-.17.25-.83,1.24-1,1.48-.08-.33-.42-1.65-.5-1.98ZM259.86,372.57h1c-.08.25-.41,1.25-.5,1.49-.08-.25-.42-1.25-.5-1.49ZM170.18,373.56c-.08.17-.41.82-.49.99h.99c-.08-.17-.42-.82-.5-.99ZM87.44,374.06q-.99.99-1.98,1.98c1.56-.39,1.67-.3,1.98-1.98ZM303.63,374.4c-1.38-.06-2.85.41-4.13,1.64-5.1,4.84,2.6,12.7,7.62,7.67,4.09-4.09.66-9.12-3.49-9.31ZM83.48,374.55c-.08.17-.42.83-.5,1h1.49c-.17-.16-.83-.83-1-1ZM163.25,375.54v1.49h.99c-.17-.25-.82-1.24-.99-1.49ZM86.95,376.04c-.66,1.11-1.32.77-2.47.49,0,.02,0,.03,0,.05.52.33,1.16.72,1.87,1.11.44-.29.93-.41,1.59-.16-.5-.74-.5-.74-1-1.48ZM165.73,376.53c-.49.99-.5.99-1,1.98.94-.63,1.47-.86,1-1.98ZM259.37,377.03c.17.08.83.41,1,.5-.25.17-1.24.82-1.48.99l.49-1.48ZM169.7,377.53c-.08.17-.42.82-.5.99h.99c-.08-.17-.41-.82-.49-.99ZM218.24,377.53c-.08.25-.42,1.24-.5,1.48-.08-.17-.41-.82-.49-.99.17-.08.82-.42.99-.5ZM194.46,378.02h1c-.08.17-.42.82-.5.99-.08-.17-.42-.82-.5-.99ZM166.72,378.51q.5.99,1,1.98c.47-1.13-.06-1.36-1-1.98ZM170.68,379.01c.08.17.42.83.5,1,.08-.17.42-.83.5-1h-1ZM253.92,379.01c.34,1.03.49,1.41-.5,1.98.25-.99.25-.99.5-1.98ZM214.78,379.51c.08.25.41,1.24.5,1.48-.25.08-1.25.42-1.5.5.17-.33.83-1.65,1-1.98ZM249.95,379.51c.08.17.42.82.5.99-.16.08-.83.42-1,.5.08-.25.42-1.24.5-1.48ZM242.03,380.49h1c-.08.17-.42.83-.5,1-.08-.16-.42-.83-.5-1ZM255.4,380.49c.08.17.42.83.5,1-.16.08-.82.42-.99.5.08-.25.41-1.25.49-1.5ZM193.48,381.99l.99.99h-1.49c.08-.17.42-.82.5-.99ZM165.23,382.97c.08.25.42,1.24.5,1.48.08-.25.41-1.24.49-1.48h-.99ZM251.44,383.97c.08.17.42.82.5.99h-.99c.08-.17.41-.82.49-.99ZM213.78,384.46c.08.17.42.83.5,1-.25.08-1.24.42-1.48.5.17-.25.82-1.25.99-1.49ZM263.83,387.43c.17.16.83.82,1,.99-.17-.08-.83-.41-1-.49-.08.17-.42.82-.5.99.08-.25.41-1.24.5-1.48ZM206.85,390.4c.08.17.42.83.5,1-.17.08-.83.42-1,.5.08-.25.42-1.25.5-1.5ZM240.54,392.88h.99c-.08.16-.41.83-.49,1-.08-.17-.42-.83-.5-1ZM266.31,393.88c.08.17.42.82.5.99h-1c.08-.17.42-.82.5-.99ZM251.94,394.37c.08.17.41.83.5,1-.17.08-.83.42-1,.5.08-.25.42-1.25.5-1.49ZM414.77,395.48c-.6.42-.89.64-1.55,1.11-.03.02-.04.03-.07.05,0,0,0,0,0,0,.17-.02.34-.03.51-.05.72-.09,1.14-.57,1.13-1.12ZM236.08,400.81c.25.08,1.24.42,1.48.5-.25.08-1.24.42-1.48.5v-1ZM229.64,405.27c.08.17.42.82.5.99-.16.08-.82.42-.99.5.08-.25.41-1.24.49-1.48ZM236.08,405.27c.16.08.83.42,1,.5-.08.17-.42.82-.5.99-.08-.25-.42-1.24-.5-1.48ZM304.02,405.95c-1.44-.14-3.03.37-4.52,1.8-.38.36-.66.75-.91,1.15,2.52-.69,4.86-1.3,7.74-2.1-.7-.45-1.47-.76-2.31-.85ZM221.71,406.26c.17.17.83.83,1,1h-1.48c.08-.16.4-.83.49-1ZM220.23,413.2c.16.08.83.42,1,.5-.25.08-1.25.4-1.5.49.08-.17.42-.82.5-.99ZM229.15,415.18c.08.17.41.82.49.99-.25.08-1.24.42-1.48.5.17-.25.83-1.24,1-1.48ZM221.71,417.16c.74.99.75.99,1.49,1.98-1.29-.34-1.18-.73-1.49-1.98Z"/>
  </g>
</svg>