<?xml version="1.0" encoding="UTF-8"?>
<svg id="Layer_1" xmlns="http://www.w3.org/2000/svg" viewBox="0 0 4176.88 466.37">
  <defs>
    <style>
      .cls-1, .cls-2, .cls-3, .cls-4 {
        font-family: Baskerville, Baskerville;
      }

      .cls-1, .cls-3 {
        font-size: 12px;
      }

      .cls-2, .cls-4 {
        font-size: 49.25px;
      }

      .cls-3, .cls-4, .cls-5 {
        fill: #fff;
      }
    </style>
  </defs>
  <circle cx="1574.74" cy="233.78" r="151.72"/>
  <rect width="684.96" height="465.18"/>
  <g>
    <g>
      <path d="M518.83,413h-.01c.16,0,.33-.02.5-.04.72-.1,1.14-.57,1.13-1.12-.6.42-.89.65-1.55,1.11-.04.02-.04.03-.07.05Z"/>
      <path d="M400.34,426.32c.36-.09.61-.42.61-.78,0-.03-.01-.07-.01-.1-.07-.58-.13-1.17-.2-1.75-1.14.3-2.27.6-3.41.89.36,1.3,1.68,2.1,3.01,1.74h0Z"/>
      <path class="cls-5" d="M524.29,250.78c.03-2-1.49-3.66-3.47-3.84-.19-.02-.38-.02-.57-.02-3.4,0-6.15,2.79-6.43,6.18-.85,10.51-3.02,37.36-4.1,52.35-1.28,17.69-2.59,35.39-3.5,53.1-.01.19-.04.39-.1.57l-.03.1c-.71,2.25,2.06,3.95,3.75,2.3l.05-.05c5.41-5.29,8.46-12.56,8.36-20.12-.38-26.75,5.84-76.73,6.06-90.56h-.02Z"/>
      <path class="cls-5" d="M464.17,142.42c-7.17-.56-8.97,14.04-9.94,18.6,10.52-2.32,19.82-13.84,13.28-24.89-1.19-2.02-2.42-2.94-3.6-3.1-3.57-.5-6.73,5.74-7.2,9.16,3.2-2.08,5.99-3.56,8.1-2.58,1.45.67.95,2.93-.64,2.81h0Z"/>
      <path class="cls-5" d="M334.51,136.52c-6.89,10.49,5.69,22.33,14.68,24.5-1.1-8.02-1.87-16.86-9.92-18.54-1.65-.35-1.77-2.8-.11-3.12,2.15-.4,4.01,3.05,7.22,2.74-.19-4.85-3.27-9.41-6.87-9.22-1.64.09-3.38,1.17-5,3.64h0Z"/>
      <path class="cls-5" d="M449.84,150.37c-4.56,17.33-8.82,20.55-22.74,28.73-3.73,2.2-6.81,5.43-10.65,7.44-.55.29-1.14.53-1.73.76-2.34.9-5.02.28-6.65-1.62-3.04-3.54-7.48-6.41-12.03-1.83-.12.13-.25.27-.36.41-1.71,2.09-4.33,2.19-6.99,1.68-3.8-.74-5.97-1.88-8.47-3.31-4.19-2.4-10.47-5.77-14.12-8.91-12.88-11.1-14.15-27.32-14.89-43.32-.49-10.56,5.38-12.42,14.34-11-5.61,3.86-8.12,3.63-8.43,9.42,4.96-.66,9.87-1.98,14.87-1.98,4.51,0,8.92,1.32,13.37,1.98,0-1.49.84-3.24,0-4.46-1.52-2.24-4.29-3.31-6.44-4.96h46.08c-4.48,3.25-8,3.76-7.43,8.92,11.63-1.22,17.43-1.62,28.24.99-1.58-4.04-5.04-7.2-8.42-9.91,2.29-.25,4.63-1.12,6.91-1.21.76-.03,1.51.03,2.25.22,8.37,2.2,4.74,26.45,3.29,31.96h0Z"/>
      <path class="cls-5" d="M181.24,203.13c-.1-3.04-1.93-4.73-4.03-4.87-.3-.02-.61,0-.91.03-1.47.21-2.96,1.17-4.01,2.94-3.35,5.63.56,12,4.24,16.27,2.41,2.8,5.81,3.68,9.17,4.95-.49-2.94-.74-6.39-1.86-9.2-.51-1.28-1.71-1.58-2.67-2.1-1.01-.54-.6-2.07.55-2.07h0c-.79-3.99-2.82-3.49-6.26-3.12-.72.08-1.22-.71-.84-1.34,1.71-2.8,3.1-3.24,6.61-1.49h0Z"/>
      <path class="cls-5" d="M193.63,300.74c2.26,10.64,5.61,19.7,9.9,29.73,4.03-7.64,5.13-16.07,9.42-23.79-6.45-1.98-12.89-3.96-19.32-5.94Z"/>
      <path class="cls-5" d="M281.83,188.53c-8.2-5.56-17.17-9.94-25.29-15.62-3.4-2.39-10.92-6.79-15.4-11.2-1.1-1.07.26-2.84,1.58-2.05,14.11,8.34,29.72,20.8,45.04,26.13-7.71-4.97-15.5-9.81-23.11-14.93-23.87-22.04-35.95-23.8-82.92,15.92,9.9-5.29,29.85-18.29,43.96-26.49,1.87-1.09,3.81,1.34,2.32,2.9-5.93,6.25-15.51,10.52-17.6,12.14-9.84,7.54-25.07,9.89-24.71,24.58.98,40.4,43.09,72.86,78.77,44.84,14.78-11.6,18.65-27.79,20.82-46.08.35-3.01-.47-8.11-3.46-10.14ZM195.61,192.73c.55-4.42,7.21-6.88,13.03-6.66,4.52.16,8.54,1.95,8.77,5.67-8.21-.49-14.17-1.2-21.8.99ZM262.22,185.99c.63-.04,1.27-.04,1.92,0,5.15.24,10.24,2.48,10.24,6.25-6.9-1.89-13.71-.96-20.8-.5.19-3.7,4.19-5.52,8.64-5.75Z"/>
      <path class="cls-5" d="M440.85,275.96c-4.46,18.08-7.45,36.59-13.37,54.25-7.16,21.34-20.26,40.6-25.76,62.43-2.54,10.05-2.12,20.63-.98,31.05,12.11-3.23,23.86-7.36,35.17-12.31-.63-1.13-.97-2.45-.91-3.87,1.83-41.17,2.94-65.92,5.85-131.55h0ZM412.8,400.07c-5.02,5.03-12.72-2.83-7.62-7.67,1.29-1.22,2.75-1.7,4.14-1.64,4.15.19,7.57,5.22,3.48,9.31h0Z"/>
      <path class="cls-5" d="M475.21,241.82c-.2-.54-.74-.87-1.25-.63-.67.32-1.29.89-.9,2.07,2.36,7.03,5.05,13.94,7.49,20.94,2.1,6.77.15,9.84-5.82,13.12-.67.36-6.91,3.76-9.55,4.84-.52.21-.83.74-.73,1.29,0,.08.03.17.04.25.13,1.07,1.28,1.61,2.26,1.15,9.09-4.26,21-8.16,17.44-19.32-1.84-4.79-7.82-20.55-8.98-23.71Z"/>
      <path class="cls-5" d="M342.71,283.45c-.01.08-.03.17-.04.25-.13,1.07-1.28,1.61-2.26,1.15-6.84-3.21-15.28-6.21-17.51-12.26,1.05-.59,2.09-1.19,3.12-1.8.69,2.67,2.82,4.56,6.41,6.53.67.36,6.91,3.76,9.55,4.84.52.21.83.74.73,1.29h0Z"/>
      <path class="cls-5" d="M396.08,392.83c1.21-6.67,4.02-10.58,3.33-16.82-1.05-9.49-8.5-17.09-12.56-25.72-6.69-14.22-11.04-25.67-14.98-40.82-2.92-11.2-5.16-22.55-7.81-33.81-.42-1.79-.43-4.17-1.98-5.15,1.56,15.17,3.41,30.3,4.68,45.49,1.68,20.28-.16,41.1,4.73,60.85.94,3.8,2.69,7.38,4.4,10.9,4.79,9.85,9.51,19.77,14.77,29.37,1.69,3.08,1.27,6.58-.55,9.15,2.42-.53,4.83-1.09,7.22-1.7-.02-.08-.05-.15-.07-.24-1.77-10.37-3.08-21.12-1.18-31.51h0Z"/>
      <path class="cls-5" d="M480.18,308.66c-5.59-3.67-17.05-10.33-20.38-12.07-.34-.18-.77-.07-.99.25,0,.01-.01.01-.01.02-.28.41-.1.98.37,1.15,3.74,1.3,13.19,7.69,17.5,11.24,1.36,1.12,1.89,2.95,1.34,4.62-2.03,6.05-11.3,33.32-13.31,39.51-.97,2.96-3.56,12.25-4.91,18.23-.23,1.04,1.24,1.52,1.65.54,2.56-6.09,5.88-15.94,6.78-18.65,1.42-4.22,3.11-8.35,4.34-12.63.73-2.53,8.13-23.18,9.43-27.04.65-1.92-.11-4.05-1.81-5.17h0Z"/>
      <path class="cls-5" d="M322.79,308.66c5.59-3.67,17.05-10.33,20.38-12.07.34-.18.77-.07.99.25,0,.01.01.01.01.02.28.41.1.98-.37,1.15-3.74,1.3-13.19,7.69-17.5,11.24-1.36,1.12-1.89,2.95-1.34,4.62,2.03,6.05,11.3,33.32,13.31,39.51.97,2.96,3.56,12.25,4.91,18.23.23,1.04-1.24,1.52-1.65.54-2.56-6.09-5.88-15.94-6.78-18.65-1.42-4.22-3.11-8.35-4.34-12.63-.73-2.53-8.13-23.18-9.43-27.04-.65-1.92.11-4.05,1.81-5.17h0Z"/>
      <path class="cls-5" d="M442.74,214.76c-.5-1.8-3.25-1.19-3.03.67.43,3.68.89,7.45-1.16,10.24-5.43,12.9-24.56,8.61-18.11,23.33.61,1.39.68,2.98.07,4.37-.82,1.85-1.96,2.08-2.94,1.82-1.18-.32-2.01-1.36-2.24-2.56-.45-2.37-1.41-7.43-2.06-11.48-.4-2.47.94-4.91,3.25-5.88,5.97-2.53,13.5-3.58,15.7-9.28,3.26-8.5.96-18.22.71-27.32-11.8,11.8-31.43,18.26-47.33,10.5-5.68-2.78-10.73-6.67-16.09-10-.32,8.05-3.98,17.13-.08,24.18,4.55,8.27,19.18,7.11,20.77,16.82.52,3.14-.18,6.38-.61,9.54-.19,1.43-.33,2.38-.5,3.09-.5,2.15-3.4,2.51-4.39.53l-.02-.04c-.69-1.37-.56-2.99.29-4.25,1.77-2.65,2.07-6.75.58-9.49-2.56-4.7-9.38-5.18-13.82-8.18-5.95-4.02-7.77-8.14-8.38-13.78-.17-1.58-2.45-1.64-2.71-.07-3.63,21.25,18.67,100.03,37.42,143.4,2.12,4.9,9.09,4.85,11.09-.1,18.64-45.97,33.78-124.63,33.84-125.4.47-5.97.33-11.95.09-17.92-.04-1.05-.13-1.96-.34-2.74h0ZM429.89,259.04c-7.3,3.25-14.82,5.99-22.23,8.99,4.53,1.51,7.23,1.93,10.93,4.56,9.03,6.42,2.87,14.14-3.22,7.52-.66-.72.21-1.81,1.05-1.32,6.59,3.83,5.21-3.93-5.56-6.87-.73-.2-1.39.51-1.14,1.22,3.49,9.62,8.64,21.54,6.55,31.99-.65,3.26-8.62,8.05-9.11,2.8-.7-7.6-1.04-15.24-1.24-22.86-.14-5.95,2.16-8.15-1.19-12.19-3.67-4.42-8.06,4.63-8.96,6.8-4.28,10.38-6.47,21.78-4.35,32.71.43,2.24-2.86,3.01-3.47.81-.28-1.03-.38-2.25-.36-3.49.14-12.28,1.32-25.31,7.53-36.11.2-.36-.15-.78-.54-.63-5.08,2.02-6,1.98-10.72,4.38-2.52,1.27-3.46.65-2.84.03,2.65-3.48,10.1-6.14,16.73-9.35-6.2-2.77-12.46-5.41-18.61-8.31-5.42-2.56-10.13-4.16-10.13-10.51,2.5,2.44,5.12,5.47,8.43,6.93,8.31,3.68,16.8,7.39,25.76,8.92,2.26.39,7.05-2.45,7.93-2.78,5.58-2.08,16.19-7.62,22.79-7.62-1.09,2.47-.91,2.99-4.03,4.38h0Z"/>
      <path class="cls-5" d="M252.25,325.24c2.57,1.59,4.84,2.74,7.76,2.74-2.66-13.26-6.92-22.1-19.82-27.74,2.39,16.51-5.45,14.2,12.06,25Z"/>
      <path class="cls-5" d="M233.76,276.46c5.28-5.61,8.55-5.85,14.36-.99,7.31-11.42,8.68-2.99,7.44-20.31-15.2,6.7-25.14,5.03-40.63,0-.2,3.22-.49,6.43-.59,9.65-.13,4.25,3.63,5.8,5.05,9.67,6.95-4.71,8.43-3.77,14.37,1.98h0Z"/>
      <path class="cls-5" d="M285.78,221.96c4.18-.9,6.13-.79,8.8-3.9,3.08-3.6,6.24-8.31,5.19-13.19-.88-4.09-3.4-6.56-5.84-6.58-1.89,0-3.73,1.47-4.68,4.84,3.18-1.59,4.84-.73,6.24,1.65.33.56-.1,1.28-.76,1.22-1.14-.1-2.11-.22-2.92-.22-1.96,0-3.04.67-3.56,3.79,1.11,0,1.78,1.22,1.2,2.16-2.17,3.54-2.78,4.04-3.67,10.23h0Z"/>
      <path class="cls-5" d="M232.27,298.26c-2.51.24,0,5.04.05,7.56.28,14.37,12.86-8.79-.05-7.56Z"/>
      <path class="cls-5" d="M242.67,140.21c13.45,11.82,26.14,22.06,42.12,30.23-14.37-9.6-28.42-19.7-42.12-30.23Z"/>
      <path class="cls-5" d="M225.11,366.29c3.32,3.32,6.72,1.23,10.78,2.55,1.6.52,3.88,2.48,4.9,1.15,6.41-8.33,8.56-19.46,15.26-27.63-15.19-.17-30.39-.33-45.58-.5,3.25,5.86,8.75,18.54,14.64,24.43h0ZM232.02,347.31c.55-.17,1.08-.26,1.59-.31,7.67-.72,11.12,10.69,2.38,13.32-9.33,2.79-12.89-10.37-3.97-13.01Z"/>
      <path class="cls-5" d="M234.25,316.59c-3.68,6.72-10.93,11.23-17.9,14-3.41,1.35-7.8,1.36-10.2,4.13,6.16,3.16,16.84,2.46,22.8,2.48,6.07.02,12.15-.1,18.21-.26,4.2-.11,10.94.71,13.35-3.51-5.57-2.25-9.27-3.34-14.11-6.54-4.83-3.2-7.66-7.35-12.15-10.3h0Z"/>
      <path class="cls-5" d="M209.48,327.49c3.99,0,8.18-2.32,11.39-4.46,10.42-6.94,10.91-11.1,7.43-23.03-11.75,3.09-15.61,17.88-18.82,27.49Z"/>
      <path class="cls-5" d="M408.84,304.86c-.07,7.39,6.09.88,6.36-3.27-.06-8.1-2.8-20.16-6.09-22.78-2.61-1.54-.92,15.88-.35,22.73.09,1.11.1,2.21.08,3.32h0Z"/>
      <path class="cls-5" d="M339.75,262.2c-4.5,3.01-9.08,5.87-13.73,8.59-1.03.61-2.07,1.21-3.12,1.8-22.15,12.58-45.96,22.04-70.81,28.89-.14-.78-1.06-1.9-.4-2.34,11.06-7.35,23.28-12.84,34.34-20.2,6.95-4.63,13.42-9.94,19.95-15.16.45-.37-.04-1.07-.54-.76-17.96,11.13-20.3,12.59-42.45,26.33,11.91-11.76,25.76-21.37,35.46-35.61.71-1.04-.68-2.22-1.6-1.36-15.45,14.49-28.05,28.17-38.45,38.07-3.4,3.25-7.84,5.21-11.76,7.81,14.72-18.35,30.01-36.26,44.14-55.06,5.3-7.06,10.13-14.47,14.08-22.37,1.22-2.43,2.2-5.21,1.73-7.85-1.57-8.77-4.78-17.22-8.18-25.46-4.14-10.04-13.82-30.73-24.49-52.77-17.11-35.36-68.03-34.04-83.21,2.19-6.13,14.65-11.78,29.45-17.22,44.09-3.89,10.48-8.27,20.99-9.83,32.06-.52,3.69,2,7.27,3.85,10.51,5.11,8.98,10.82,17.64,16.95,25.98,12.18,16.57,25.26,32.45,37.9,48.68-4.34-.96-8.4-3.55-11.52-6.72-13.74-13.96-26.98-28.41-40.43-42.65-.32-.33-.85.07-.61.46,2.8,4.71,7.95,12.06,8.47,12.68,7.55,8.94,15.85,17.21,23.78,25.82-22.59-14.5-23.5-15.08-44.35-28.46-.2-.13-.41.15-.23.31,7.91,6.62,15.48,13.7,24.01,19.48,11.61,7.86,24.29,14.04,36.42,21.06-1.07.58-2.03,2.04-3.22,1.74-9.38-2.41-18.47-5.93-27.44-9.61-20.26-8.3-48.6-21.73-66.94-34.25-3.3-2.25-5.08-6.49-4.58-10.45,1.24-9.68,4.35-16.37,9.1-24.9,15.99-28.7,32.58-57.06,49.64-85.13,2.33-3.84,5.33-8.64,8.75-14.01,23.75-37.31,78.22-36.96,101.62.58,22.24,35.67,42.78,72.46,62.14,109.66,5.15,9.9,2.06,22.13-7.22,28.33Z"/>
      <path class="cls-5" d="M273.64,300.74c-.7-.07-1.4-.07-2.09,0-4.83.45-9.33,3.81-14.01,5.45,3.32,6.81,5.52,12.96,7.43,20.31,3.04-7.87,6.12-15.72,9.12-23.6.15-.4.78-2.04-.45-2.16Z"/>
      <path class="cls-5" d="M221.37,144.42c-11.1,8.83-22.49,16.6-34.19,25.02,8.45-3.62,15.29-9.23,22.36-14.99,4.01-3.27,9.91-5.23,11.83-10.03Z"/>
      <path class="cls-5" d="M373.49,165.03c2.96,7.9,16.02,10.19,22.78,11.41,12.74,2.31,31.1-2.98,37.77-14.93.58-1.02-.22-2.32-1.39-2.23,0,0-.02,0-.03,0-2.63.22-6.04,2.23-8.09,2.61-7.41,1.38-14.87,2.38-22.32,3.58,1.23,3.41,2.82,4.93,5.49,6.42.69.39.52,1.42-.26,1.57-3.41.67-7.01.46-10.54.42-.72,0-1.07-.88-.55-1.37,2.65-2.53,7.27-7.61,3.39-7.79-4.32-.19-8.64.15-12.95,0-3.67-.12-7.3-.68-10.96-.8-.86-.03-2.64.29-2.34,1.1h0Z"/>
      <path class="cls-5" d="M443.23,62.4c0-11.73-9.51-21.24-21.24-21.24h-47.89c-11.73,0-21.24,9.51-21.24,21.24l-.45,11.23h1.45c.27-.11.56-.17.87-.17h86.22c.23,0,.44.07.64.17h1.76l-.12-11.23h0Z"/>
      <path class="cls-5" d="M501.59,96.35c-12.18-3.11-30.94-6.4-58.07-7.61v.1-.1c-.15,0-.29-.01-.43-.02h-88.35c-.21,0-.4-.03-.59-.09h-4.89c-20.17,1.64-35.62,4.49-46.7,7.22-7.74,1.91-8.65,9.54-1.03,11.88,1.8.55,5.31,1.12,6.37,1.26,2.78.37,6.55,1.11,11.11,1.96,10.1.34,23.88.55,39.41,1.32,32.13,1.6,70.28.34,91.22.34,6.04,0,16.6.32,19.5,0,13.28-1.51,24.01-3.32,32.16-4.96,6.04-1.22,6.25-9.77.28-11.3h.01Z"/>
    </g>
    <path class="cls-5" d="M558.89,219.2l-18.91-1.3c-2.55-.18-4.76,1.75-4.94,4.3l-.61,8.95c-.43,6.29-5.88,11.03-12.16,10.6h0c-6.29-.43-11.03-5.88-10.6-12.16l.61-8.95c.18-2.55-1.75-4.76-4.3-4.94l-18.91-1.3c-2.82-.19-4.81-2.85-4.21-5.61l11.39-52.03c.21-.94,1.57-.86,1.66.1l3.42,35.31c.22,2.25,2.03,4.02,4.29,4.17l6.12.42c2.14.15,4.1-1.19,4.74-3.24l10.6-33.88c.26-.85,1.49-.76,1.63.11l5.87,35.01c.35,2.11,2.11,3.71,4.25,3.85l6.12.42c2.26.16,4.3-1.35,4.82-3.55l8.22-34.51c.22-.93,1.58-.83,1.66.13l4.17,53.1c.22,2.82-2.11,5.18-4.93,4.98v.02Z"/>
  </g>
  <g>
    <g>
      <path d="M1222.29,420.32h-.01c.16,0,.33-.02.5-.04.72-.1,1.14-.57,1.13-1.12-.6.42-.89.65-1.55,1.11-.04.02-.04.03-.07.05Z"/>
      <path d="M1103.8,433.64c.36-.09.61-.42.61-.78,0-.03-.01-.07-.01-.1-.07-.58-.13-1.17-.2-1.75-1.14.3-2.27.6-3.41.89.36,1.3,1.68,2.1,3.01,1.74h0Z"/>
      <path d="M1227.75,258.1c.03-2-1.49-3.66-3.47-3.84-.19-.02-.38-.02-.57-.02-3.4,0-6.15,2.79-6.43,6.18-.85,10.51-3.02,37.36-4.1,52.35-1.28,17.69-2.59,35.39-3.5,53.1-.01.19-.04.39-.1.57l-.03.1c-.71,2.25,2.06,3.95,3.75,2.3l.05-.05c5.41-5.29,8.46-12.56,8.36-20.12-.38-26.75,5.84-76.73,6.06-90.56h-.02Z"/>
      <path d="M1167.63,149.74c-7.17-.56-8.97,14.04-9.94,18.6,10.52-2.32,19.82-13.84,13.28-24.89-1.19-2.02-2.42-2.94-3.6-3.1-3.57-.5-6.73,5.74-7.2,9.16,3.2-2.08,5.99-3.56,8.1-2.58,1.45.67.95,2.93-.64,2.81h0Z"/>
      <path d="M1037.97,143.84c-6.89,10.49,5.69,22.33,14.68,24.5-1.1-8.02-1.87-16.86-9.92-18.54-1.65-.35-1.77-2.8-.11-3.12,2.15-.4,4.01,3.05,7.22,2.74-.19-4.85-3.27-9.41-6.87-9.22-1.64.09-3.38,1.17-5,3.64h0Z"/>
      <path d="M1153.3,157.69c-4.56,17.33-8.82,20.55-22.74,28.73-3.73,2.2-6.81,5.43-10.65,7.44-.55.29-1.14.53-1.73.76-2.34.9-5.02.28-6.65-1.62-3.04-3.54-7.48-6.41-12.03-1.83-.12.13-.25.27-.36.41-1.71,2.09-4.33,2.19-6.99,1.68-3.8-.74-5.97-1.88-8.47-3.31-4.19-2.4-10.47-5.77-14.12-8.91-12.88-11.1-14.15-27.32-14.89-43.32-.49-10.56,5.38-12.42,14.34-11-5.61,3.86-8.12,3.63-8.43,9.42,4.96-.66,9.87-1.98,14.87-1.98,4.51,0,8.92,1.32,13.37,1.98,0-1.49.84-3.24,0-4.46-1.52-2.24-4.29-3.31-6.44-4.96h46.08c-4.48,3.25-8,3.76-7.43,8.92,11.63-1.22,17.43-1.62,28.24.99-1.58-4.04-5.04-7.2-8.42-9.91,2.29-.25,4.63-1.12,6.91-1.21.76-.03,1.51.03,2.25.22,8.37,2.2,4.74,26.45,3.29,31.96h0Z"/>
      <path d="M884.7,210.45c-.1-3.04-1.93-4.73-4.03-4.87-.3-.02-.61,0-.91.03-1.47.21-2.96,1.17-4.01,2.94-3.35,5.63.56,12,4.24,16.27,2.41,2.8,5.81,3.68,9.17,4.95-.49-2.94-.74-6.39-1.86-9.2-.51-1.28-1.71-1.58-2.67-2.1-1.01-.54-.6-2.07.55-2.07h0c-.79-3.99-2.82-3.49-6.26-3.12-.72.08-1.22-.71-.84-1.34,1.71-2.8,3.1-3.24,6.61-1.49h0Z"/>
      <path d="M897.09,308.06c2.26,10.64,5.61,19.7,9.9,29.73,4.03-7.64,5.13-16.07,9.42-23.79-6.45-1.98-12.89-3.96-19.32-5.94Z"/>
      <path d="M985.29,195.85c-8.2-5.56-17.17-9.94-25.29-15.62-3.4-2.39-10.92-6.79-15.4-11.2-1.1-1.07.26-2.84,1.58-2.05,14.11,8.34,29.72,20.8,45.04,26.13-7.71-4.97-15.5-9.81-23.11-14.93-23.87-22.04-35.95-23.8-82.92,15.92,9.9-5.29,29.85-18.29,43.96-26.49,1.87-1.09,3.81,1.34,2.32,2.9-5.93,6.25-15.51,10.52-17.6,12.14-9.84,7.54-25.07,9.89-24.71,24.58.98,40.4,43.09,72.86,78.77,44.84,14.78-11.6,18.65-27.79,20.82-46.08.35-3.01-.47-8.11-3.46-10.14ZM899.07,200.05c.55-4.42,7.21-6.88,13.03-6.66,4.52.16,8.54,1.95,8.77,5.67-8.21-.49-14.17-1.2-21.8.99ZM965.68,193.31c.63-.04,1.27-.04,1.92,0,5.15.24,10.24,2.48,10.24,6.25-6.9-1.89-13.71-.96-20.8-.5.19-3.7,4.19-5.52,8.64-5.75Z"/>
      <path d="M1144.31,283.28c-4.46,18.08-7.45,36.59-13.37,54.25-7.16,21.34-20.26,40.6-25.76,62.43-2.54,10.05-2.12,20.63-.98,31.05,12.11-3.23,23.86-7.36,35.17-12.31-.63-1.13-.97-2.45-.91-3.87,1.83-41.17,2.94-65.92,5.85-131.55h0ZM1116.26,407.39c-5.02,5.03-12.72-2.83-7.62-7.67,1.29-1.22,2.75-1.7,4.14-1.64,4.15.19,7.57,5.22,3.48,9.31h0Z"/>
      <path d="M1178.67,249.14c-.2-.54-.74-.87-1.25-.63-.67.32-1.29.89-.9,2.07,2.36,7.03,5.05,13.94,7.49,20.94,2.1,6.77.15,9.84-5.82,13.12-.67.36-6.91,3.76-9.55,4.84-.52.21-.83.74-.73,1.29,0,.08.03.17.04.25.13,1.07,1.28,1.61,2.26,1.15,9.09-4.26,21-8.16,17.44-19.32-1.84-4.79-7.82-20.55-8.98-23.71Z"/>
      <path d="M1046.17,290.77c-.01.08-.03.17-.04.25-.13,1.07-1.28,1.61-2.26,1.15-6.84-3.21-15.28-6.21-17.51-12.26,1.05-.59,2.09-1.19,3.12-1.8.69,2.67,2.82,4.56,6.41,6.53.67.36,6.91,3.76,9.55,4.84.52.21.83.74.73,1.29h0Z"/>
      <path d="M1099.54,400.15c1.21-6.67,4.02-10.58,3.33-16.82-1.05-9.49-8.5-17.09-12.56-25.72-6.69-14.22-11.04-25.67-14.98-40.82-2.92-11.2-5.16-22.55-7.81-33.81-.42-1.79-.43-4.17-1.98-5.15,1.56,15.17,3.41,30.3,4.68,45.49,1.68,20.28-.16,41.1,4.73,60.85.94,3.8,2.69,7.38,4.4,10.9,4.79,9.85,9.51,19.77,14.77,29.37,1.69,3.08,1.27,6.58-.55,9.15,2.42-.53,4.83-1.09,7.22-1.7-.02-.08-.05-.15-.07-.24-1.77-10.37-3.08-21.12-1.18-31.51h0Z"/>
      <path d="M1183.64,315.98c-5.59-3.67-17.05-10.33-20.38-12.07-.34-.18-.77-.07-.99.25,0,.01-.01.01-.01.02-.28.41-.1.98.37,1.15,3.74,1.3,13.19,7.69,17.5,11.24,1.36,1.12,1.89,2.95,1.34,4.62-2.03,6.05-11.3,33.32-13.31,39.51-.97,2.96-3.56,12.25-4.91,18.23-.23,1.04,1.24,1.52,1.65.54,2.56-6.09,5.88-15.94,6.78-18.65,1.42-4.22,3.11-8.35,4.34-12.63.73-2.53,8.13-23.18,9.43-27.04.65-1.92-.11-4.05-1.81-5.17h0Z"/>
      <path d="M1026.25,315.98c5.59-3.67,17.05-10.33,20.38-12.07.34-.18.77-.07.99.25,0,.01.01.01.01.02.28.41.1.98-.37,1.15-3.74,1.3-13.19,7.69-17.5,11.24-1.36,1.12-1.89,2.95-1.34,4.62,2.03,6.05,11.3,33.32,13.31,39.51.97,2.96,3.56,12.25,4.91,18.23.23,1.04-1.24,1.52-1.65.54-2.56-6.09-5.88-15.94-6.78-18.65-1.42-4.22-3.11-8.35-4.34-12.63-.73-2.53-8.13-23.18-9.43-27.04-.65-1.92.11-4.05,1.81-5.17h0Z"/>
      <path d="M1146.2,222.08c-.5-1.8-3.25-1.19-3.03.67.43,3.68.89,7.45-1.16,10.24-5.43,12.9-24.56,8.61-18.11,23.33.61,1.39.68,2.98.07,4.37-.82,1.85-1.96,2.08-2.94,1.82-1.18-.32-2.01-1.36-2.24-2.56-.45-2.37-1.41-7.43-2.06-11.48-.4-2.47.94-4.91,3.25-5.88,5.97-2.53,13.5-3.58,15.7-9.28,3.26-8.5.96-18.22.71-27.32-11.8,11.8-31.43,18.26-47.33,10.5-5.68-2.78-10.73-6.67-16.09-10-.32,8.05-3.98,17.13-.08,24.18,4.55,8.27,19.18,7.11,20.77,16.82.52,3.14-.18,6.38-.61,9.54-.19,1.43-.33,2.38-.5,3.09-.5,2.15-3.4,2.51-4.39.53l-.02-.04c-.69-1.37-.56-2.99.29-4.25,1.77-2.65,2.07-6.75.58-9.49-2.56-4.7-9.38-5.18-13.82-8.18-5.95-4.02-7.77-8.14-8.38-13.78-.17-1.58-2.45-1.64-2.71-.07-3.63,21.25,18.67,100.03,37.42,143.4,2.12,4.9,9.09,4.85,11.09-.1,18.64-45.97,33.78-124.63,33.84-125.4.47-5.97.33-11.95.09-17.92-.04-1.05-.13-1.96-.34-2.74h0ZM1133.35,266.36c-7.3,3.25-14.82,5.99-22.23,8.99,4.53,1.51,7.23,1.93,10.93,4.56,9.03,6.42,2.87,14.14-3.22,7.52-.66-.72.21-1.81,1.05-1.32,6.59,3.83,5.21-3.93-5.56-6.87-.73-.2-1.39.51-1.14,1.22,3.49,9.62,8.64,21.54,6.55,31.99-.65,3.26-8.62,8.05-9.11,2.8-.7-7.6-1.04-15.24-1.24-22.86-.14-5.95,2.16-8.15-1.19-12.19-3.67-4.42-8.06,4.63-8.96,6.8-4.28,10.38-6.47,21.78-4.35,32.71.43,2.24-2.86,3.01-3.47.81-.28-1.03-.38-2.25-.36-3.49.14-12.28,1.32-25.31,7.53-36.11.2-.36-.15-.78-.54-.63-5.08,2.02-6,1.98-10.72,4.38-2.52,1.27-3.46.65-2.84.03,2.65-3.48,10.1-6.14,16.73-9.35-6.2-2.77-12.46-5.41-18.61-8.31-5.42-2.56-10.13-4.16-10.13-10.51,2.5,2.44,5.12,5.47,8.43,6.93,8.31,3.68,16.8,7.39,25.76,8.92,2.26.39,7.05-2.45,7.93-2.78,5.58-2.08,16.19-7.62,22.79-7.62-1.09,2.47-.91,2.99-4.03,4.38h0Z"/>
      <path d="M955.71,332.56c2.57,1.59,4.84,2.74,7.76,2.74-2.66-13.26-6.92-22.1-19.82-27.74,2.39,16.51-5.45,14.2,12.06,25Z"/>
      <path d="M937.22,283.78c5.28-5.61,8.55-5.85,14.36-.99,7.31-11.42,8.68-2.99,7.44-20.31-15.2,6.7-25.14,5.03-40.63,0-.2,3.22-.49,6.43-.59,9.65-.13,4.25,3.63,5.8,5.05,9.67,6.95-4.71,8.43-3.77,14.37,1.98h0Z"/>
      <path d="M989.24,229.28c4.18-.9,6.13-.79,8.8-3.9,3.08-3.6,6.24-8.31,5.19-13.19-.88-4.09-3.4-6.56-5.84-6.58-1.89,0-3.73,1.47-4.68,4.84,3.18-1.59,4.84-.73,6.24,1.65.33.56-.1,1.28-.76,1.22-1.14-.1-2.11-.22-2.92-.22-1.96,0-3.04.67-3.56,3.79,1.11,0,1.78,1.22,1.2,2.16-2.17,3.54-2.78,4.04-3.67,10.23h0Z"/>
      <path d="M935.73,305.58c-2.51.24,0,5.04.05,7.56.28,14.37,12.86-8.79-.05-7.56Z"/>
      <path d="M946.13,147.53c13.45,11.82,26.14,22.06,42.12,30.23-14.37-9.6-28.42-19.7-42.12-30.23Z"/>
      <path d="M928.57,373.61c3.32,3.32,6.72,1.23,10.78,2.55,1.6.52,3.88,2.48,4.9,1.15,6.41-8.33,8.56-19.46,15.26-27.63-15.19-.17-30.39-.33-45.58-.5,3.25,5.86,8.75,18.54,14.64,24.43h0ZM935.48,354.63c.55-.17,1.08-.26,1.59-.31,7.67-.72,11.12,10.69,2.38,13.32-9.33,2.79-12.89-10.37-3.97-13.01Z"/>
      <path d="M937.71,323.91c-3.68,6.72-10.93,11.23-17.9,14-3.41,1.35-7.8,1.36-10.2,4.13,6.16,3.16,16.84,2.46,22.8,2.48,6.07.02,12.15-.1,18.21-.26,4.2-.11,10.94.71,13.35-3.51-5.57-2.25-9.27-3.34-14.11-6.54-4.83-3.2-7.66-7.35-12.15-10.3h0Z"/>
      <path d="M912.94,334.81c3.99,0,8.18-2.32,11.39-4.46,10.42-6.94,10.91-11.1,7.43-23.03-11.75,3.09-15.61,17.88-18.82,27.49Z"/>
      <path d="M1112.3,312.18c-.07,7.39,6.09.88,6.36-3.27-.06-8.1-2.8-20.16-6.09-22.78-2.61-1.54-.92,15.88-.35,22.73.09,1.11.1,2.21.08,3.32h0Z"/>
      <path d="M1043.21,269.52c-4.5,3.01-9.08,5.87-13.73,8.59-1.03.61-2.07,1.21-3.12,1.8-22.15,12.58-45.96,22.04-70.81,28.89-.14-.78-1.06-1.9-.4-2.34,11.06-7.35,23.28-12.84,34.34-20.2,6.95-4.63,13.42-9.94,19.95-15.16.45-.37-.04-1.07-.54-.76-17.96,11.13-20.3,12.59-42.45,26.33,11.91-11.76,25.76-21.37,35.46-35.61.71-1.04-.68-2.22-1.6-1.36-15.45,14.49-28.05,28.17-38.45,38.07-3.4,3.25-7.84,5.21-11.76,7.81,14.72-18.35,30.01-36.26,44.14-55.06,5.3-7.06,10.13-14.47,14.08-22.37,1.22-2.43,2.2-5.21,1.73-7.85-1.57-8.77-4.78-17.22-8.18-25.46-4.14-10.04-13.82-30.73-24.49-52.77-17.11-35.36-68.03-34.04-83.21,2.19-6.13,14.65-11.78,29.45-17.22,44.09-3.89,10.48-8.27,20.99-9.83,32.06-.52,3.69,2,7.27,3.85,10.51,5.11,8.98,10.82,17.64,16.95,25.98,12.18,16.57,25.26,32.45,37.9,48.68-4.34-.96-8.4-3.55-11.52-6.72-13.74-13.96-26.98-28.41-40.43-42.65-.32-.33-.85.07-.61.46,2.8,4.71,7.95,12.06,8.47,12.68,7.55,8.94,15.85,17.21,23.78,25.82-22.59-14.5-23.5-15.08-44.35-28.46-.2-.13-.41.15-.23.31,7.91,6.62,15.48,13.7,24.01,19.48,11.61,7.86,24.29,14.04,36.42,21.06-1.07.58-2.03,2.04-3.22,1.74-9.38-2.41-18.47-5.93-27.44-9.61-20.26-8.3-48.6-21.73-66.94-34.25-3.3-2.25-5.08-6.49-4.58-10.45,1.24-9.68,4.35-16.37,9.1-24.9,15.99-28.7,32.58-57.06,49.64-85.13,2.33-3.84,5.33-8.64,8.75-14.01,23.75-37.31,78.22-36.96,101.62.58,22.24,35.67,42.78,72.46,62.14,109.66,5.15,9.9,2.06,22.13-7.22,28.33Z"/>
      <path d="M977.1,308.06c-.7-.07-1.4-.07-2.09,0-4.83.45-9.33,3.81-14.01,5.45,3.32,6.81,5.52,12.96,7.43,20.31,3.04-7.87,6.12-15.72,9.12-23.6.15-.4.78-2.04-.45-2.16Z"/>
      <path d="M924.83,151.74c-11.1,8.83-22.49,16.6-34.19,25.02,8.45-3.62,15.29-9.23,22.36-14.99,4.01-3.27,9.91-5.23,11.83-10.03Z"/>
      <path d="M1076.95,172.35c2.96,7.9,16.02,10.19,22.78,11.41,12.74,2.31,31.1-2.98,37.77-14.93.58-1.02-.22-2.32-1.39-2.23,0,0-.02,0-.03,0-2.63.22-6.04,2.23-8.09,2.61-7.41,1.38-14.87,2.38-22.32,3.58,1.23,3.41,2.82,4.93,5.49,6.42.69.39.52,1.42-.26,1.57-3.41.67-7.01.46-10.54.42-.72,0-1.07-.88-.55-1.37,2.65-2.53,7.27-7.61,3.39-7.79-4.32-.19-8.64.15-12.95,0-3.67-.12-7.3-.68-10.96-.8-.86-.03-2.64.29-2.34,1.1h0Z"/>
      <path d="M1146.69,69.72c0-11.73-9.51-21.24-21.24-21.24h-47.89c-11.73,0-21.24,9.51-21.24,21.24l-.45,11.23h1.45c.27-.11.56-.17.87-.17h86.22c.23,0,.44.07.64.17h1.76l-.12-11.23h0Z"/>
      <path d="M1205.05,103.67c-12.18-3.11-30.94-6.4-58.07-7.61v.1-.1c-.15,0-.29-.01-.43-.02h-88.35c-.21,0-.4-.03-.59-.09h-4.89c-20.17,1.64-35.62,4.49-46.7,7.22-7.74,1.91-8.65,9.54-1.03,11.88,1.8.55,5.31,1.12,6.37,1.26,2.78.37,6.55,1.11,11.11,1.96,10.1.34,23.88.55,39.41,1.32,32.13,1.6,70.28.34,91.22.34,6.04,0,16.6.32,19.5,0,13.28-1.51,24.01-3.32,32.16-4.96,6.04-1.22,6.25-9.77.28-11.3h.01Z"/>
    </g>
    <path d="M1262.35,226.52l-18.91-1.3c-2.55-.18-4.76,1.75-4.94,4.3l-.61,8.95c-.43,6.29-5.88,11.03-12.16,10.6h0c-6.29-.43-11.03-5.88-10.6-12.16l.61-8.95c.18-2.55-1.75-4.76-4.3-4.94l-18.91-1.3c-2.82-.19-4.81-2.85-4.21-5.61l11.39-52.03c.21-.94,1.57-.86,1.66.1l3.42,35.31c.22,2.25,2.03,4.02,4.29,4.17l6.12.42c2.14.15,4.1-1.19,4.74-3.24l10.6-33.88c.26-.85,1.49-.76,1.63.11l5.87,35.01c.35,2.11,2.11,3.71,4.25,3.85l6.12.42c2.26.16,4.3-1.35,4.82-3.55l8.22-34.51c.22-.93,1.58-.83,1.66.13l4.17,53.1c.22,2.82-2.11,5.18-4.93,4.98v.02Z"/>
  </g>
  <g>
    <g>
      <path d="M2365.66,333.41h0c.09,0,.18-.01.28-.02.4-.06.63-.32.63-.62-.33.23-.49.36-.86.62-.02.01-.02.02-.04.03Z"/>
      <path d="M2299.78,340.82c.2-.05.34-.23.34-.43,0-.02,0-.04,0-.06-.04-.32-.07-.65-.11-.97-.63.17-1.26.33-1.9.49.2.72.93,1.17,1.67.97h0Z"/>
      <path d="M2368.69,243.23c.02-1.11-.83-2.03-1.93-2.13-.11-.01-.21-.01-.32-.01-1.89,0-3.42,1.55-3.57,3.44-.47,5.84-1.68,20.77-2.28,29.1-.71,9.83-1.44,19.67-1.95,29.52,0,.11-.02.22-.06.32l-.02.06c-.39,1.25,1.15,2.2,2.08,1.28l.03-.03c3.01-2.94,4.7-6.98,4.65-11.19-.21-14.87,3.25-42.66,3.37-50.35h-.01Z"/>
      <path d="M2335.27,182.99c-3.99-.31-4.99,7.81-5.53,10.34,5.85-1.29,11.02-7.69,7.38-13.84-.66-1.12-1.35-1.63-2-1.72-1.98-.28-3.74,3.19-4,5.09,1.78-1.16,3.33-1.98,4.5-1.43.81.37.53,1.63-.36,1.56h0Z"/>
      <path d="M2263.18,179.71c-3.83,5.83,3.16,12.41,8.16,13.62-.61-4.46-1.04-9.37-5.51-10.31-.92-.19-.98-1.56-.06-1.73,1.2-.22,2.23,1.7,4.01,1.52-.11-2.7-1.82-5.23-3.82-5.13-.91.05-1.88.65-2.78,2.02h0Z"/>
      <path d="M2327.3,187.41c-2.54,9.63-4.9,11.42-12.64,15.97-2.07,1.22-3.79,3.02-5.92,4.14-.31.16-.63.29-.96.42-1.3.5-2.79.16-3.7-.9-1.69-1.97-4.16-3.56-6.69-1.02-.07.07-.14.15-.2.23-.95,1.16-2.41,1.22-3.89.93-2.11-.41-3.32-1.05-4.71-1.84-2.33-1.33-5.82-3.21-7.85-4.95-7.16-6.17-7.87-15.19-8.28-24.08-.27-5.87,2.99-6.9,7.97-6.12-3.12,2.15-4.51,2.02-4.69,5.24,2.76-.37,5.49-1.1,8.27-1.1,2.51,0,4.96.73,7.43,1.1,0-.83.47-1.8,0-2.48-.85-1.25-2.38-1.84-3.58-2.76h25.62c-2.49,1.81-4.45,2.09-4.13,4.96,6.47-.68,9.69-.9,15.7.55-.88-2.25-2.8-4-4.68-5.51,1.27-.14,2.57-.62,3.84-.67.42-.02.84.02,1.25.12,4.65,1.22,2.64,14.7,1.83,17.77h0Z"/>
      <path d="M2177.98,216.74c-.06-1.69-1.07-2.63-2.24-2.71-.17-.01-.34,0-.51.02-.82.12-1.65.65-2.23,1.63-1.86,3.13.31,6.67,2.36,9.05,1.34,1.56,3.23,2.05,5.1,2.75-.27-1.63-.41-3.55-1.03-5.11-.28-.71-.95-.88-1.48-1.17-.56-.3-.33-1.15.31-1.15h0c-.44-2.22-1.57-1.94-3.48-1.73-.4.04-.68-.39-.47-.74.95-1.56,1.72-1.8,3.67-.83h0Z"/>
      <path d="M2184.86,271c1.26,5.92,3.12,10.95,5.5,16.53,2.24-4.25,2.85-8.93,5.24-13.23-3.58-1.1-7.16-2.2-10.74-3.3Z"/>
      <path d="M2233.9,208.62c-4.56-3.09-9.55-5.53-14.06-8.68-1.89-1.33-6.07-3.77-8.56-6.23-.61-.59.14-1.58.88-1.14,7.84,4.64,16.52,11.56,25.04,14.53-4.29-2.76-8.62-5.45-12.85-8.3-13.27-12.25-19.99-13.23-46.1,8.85,5.5-2.94,16.59-10.17,24.44-14.73,1.04-.61,2.12.74,1.29,1.61-3.3,3.47-8.62,5.85-9.78,6.75-5.47,4.19-13.94,5.5-13.74,13.66.54,22.46,23.96,40.51,43.79,24.93,8.22-6.45,10.37-15.45,11.57-25.62.19-1.67-.26-4.51-1.92-5.64ZM2185.96,210.96c.31-2.46,4.01-3.82,7.24-3.7,2.51.09,4.75,1.08,4.88,3.15-4.56-.27-7.88-.67-12.12.55ZM2223,207.21c.35-.02.71-.02,1.07,0,2.86.13,5.69,1.38,5.69,3.47-3.84-1.05-7.62-.53-11.56-.28.11-2.06,2.33-3.07,4.8-3.2Z"/>
      <path d="M2322.3,257.23c-2.48,10.05-4.14,20.34-7.43,30.16-3.98,11.86-11.26,22.57-14.32,34.71-1.41,5.59-1.18,11.47-.54,17.26,6.73-1.8,13.26-4.09,19.55-6.84-.35-.63-.54-1.36-.51-2.15,1.02-22.89,1.63-36.65,3.25-73.13h0ZM2306.71,326.22c-2.79,2.8-7.07-1.57-4.24-4.26.72-.68,1.53-.95,2.3-.91,2.31.11,4.21,2.9,1.93,5.18h0Z"/>
      <path d="M2341.41,238.25c-.11-.3-.41-.48-.69-.35-.37.18-.72.49-.5,1.15,1.31,3.91,2.81,7.75,4.16,11.64,1.17,3.76.08,5.47-3.24,7.29-.37.2-3.84,2.09-5.31,2.69-.29.12-.46.41-.41.72,0,.04.02.09.02.14.07.59.71.9,1.26.64,5.05-2.37,11.67-4.54,9.7-10.74-1.02-2.66-4.35-11.42-4.99-13.18Z"/>
      <path d="M2267.74,261.39s-.02.09-.02.14c-.07.59-.71.9-1.26.64-3.8-1.78-8.49-3.45-9.73-6.82.58-.33,1.16-.66,1.73-1,.38,1.48,1.57,2.54,3.56,3.63.37.2,3.84,2.09,5.31,2.69.29.12.46.41.41.72h0Z"/>
      <path d="M2297.41,322.2c.67-3.71,2.23-5.88,1.85-9.35-.58-5.28-4.73-9.5-6.98-14.3-3.72-7.91-6.14-14.27-8.33-22.69-1.62-6.23-2.87-12.54-4.34-18.8-.23-1-.24-2.32-1.1-2.86.87,8.43,1.9,16.84,2.6,25.29.93,11.27-.09,22.85,2.63,33.83.52,2.11,1.5,4.1,2.45,6.06,2.66,5.48,5.29,10.99,8.21,16.33.94,1.71.71,3.66-.31,5.09,1.35-.29,2.69-.61,4.01-.95-.01-.04-.03-.08-.04-.13-.98-5.77-1.71-11.74-.66-17.52h0Z"/>
      <path d="M2344.17,275.41c-3.11-2.04-9.48-5.74-11.33-6.71-.19-.1-.43-.04-.55.14,0,0,0,0,0,.01-.16.23-.06.54.21.64,2.08.72,7.33,4.28,9.73,6.25.76.62,1.05,1.64.74,2.57-1.13,3.36-6.28,18.52-7.4,21.97-.54,1.65-1.98,6.81-2.73,10.13-.13.58.69.85.92.3,1.42-3.39,3.27-8.86,3.77-10.37.79-2.35,1.73-4.64,2.41-7.02.41-1.41,4.52-12.89,5.24-15.03.36-1.07-.06-2.25-1.01-2.87h0Z"/>
      <path d="M2256.67,275.41c3.11-2.04,9.48-5.74,11.33-6.71.19-.1.43-.04.55.14,0,0,0,0,0,.01.16.23.06.54-.21.64-2.08.72-7.33,4.28-9.73,6.25-.76.62-1.05,1.64-.74,2.57,1.13,3.36,6.28,18.52,7.4,21.97.54,1.65,1.98,6.81,2.73,10.13.13.58-.69.85-.92.3-1.42-3.39-3.27-8.86-3.77-10.37-.79-2.35-1.73-4.64-2.41-7.02-.41-1.41-4.52-12.89-5.24-15.03-.36-1.07.06-2.25,1.01-2.87h0Z"/>
      <path d="M2323.35,223.2c-.28-1-1.81-.66-1.68.37.24,2.05.49,4.14-.64,5.69-3.02,7.17-13.65,4.79-10.07,12.97.34.77.38,1.66.04,2.43-.46,1.03-1.09,1.16-1.63,1.01-.66-.18-1.12-.76-1.25-1.42-.25-1.32-.78-4.13-1.15-6.38-.22-1.37.52-2.73,1.81-3.27,3.32-1.41,7.51-1.99,8.73-5.16,1.81-4.73.53-10.13.39-15.19-6.56,6.56-17.47,10.15-26.31,5.84-3.16-1.55-5.97-3.71-8.95-5.56-.18,4.48-2.21,9.52-.04,13.44,2.53,4.6,10.66,3.95,11.55,9.35.29,1.75-.1,3.55-.34,5.3-.11.79-.18,1.32-.28,1.72-.28,1.2-1.89,1.4-2.44.29v-.02c-.39-.76-.32-1.66.15-2.36.98-1.47,1.15-3.75.32-5.28-1.42-2.61-5.21-2.88-7.68-4.55-3.31-2.23-4.32-4.53-4.66-7.66-.09-.88-1.36-.91-1.51-.04-2.02,11.81,10.38,55.61,20.8,79.72,1.18,2.72,5.05,2.7,6.17-.06,10.36-25.56,18.78-69.29,18.81-69.71.26-3.32.18-6.64.05-9.96-.02-.58-.07-1.09-.19-1.52h0ZM2316.21,247.82c-4.06,1.81-8.24,3.33-12.36,5,2.52.84,4.02,1.07,6.08,2.54,5.02,3.57,1.6,7.86-1.79,4.18-.37-.4.12-1.01.58-.73,3.66,2.13,2.9-2.18-3.09-3.82-.41-.11-.77.28-.63.68,1.94,5.35,4.8,11.97,3.64,17.78-.36,1.81-4.79,4.48-5.06,1.56-.39-4.23-.58-8.47-.69-12.71-.08-3.31,1.2-4.53-.66-6.78-2.04-2.46-4.48,2.57-4.98,3.78-2.38,5.77-3.6,12.11-2.42,18.18.24,1.25-1.59,1.67-1.93.45-.16-.57-.21-1.25-.2-1.94.08-6.83.73-14.07,4.19-20.07.11-.2-.08-.43-.3-.35-2.82,1.12-3.34,1.1-5.96,2.44-1.4.71-1.92.36-1.58.02,1.47-1.93,5.61-3.41,9.3-5.2-3.45-1.54-6.93-3.01-10.35-4.62-3.01-1.42-5.63-2.31-5.63-5.84,1.39,1.36,2.85,3.04,4.69,3.85,4.62,2.05,9.34,4.11,14.32,4.96,1.26.22,3.92-1.36,4.41-1.55,3.1-1.16,9-4.24,12.67-4.24-.61,1.37-.51,1.66-2.24,2.44h0Z"/>
      <path d="M2217.45,284.62c1.43.88,2.69,1.52,4.31,1.52-1.48-7.37-3.85-12.29-11.02-15.42,1.33,9.18-3.03,7.89,6.7,13.9Z"/>
      <path d="M2207.17,257.5c2.94-3.12,4.75-3.25,7.98-.55,4.06-6.35,4.83-1.66,4.14-11.29-8.45,3.72-13.98,2.8-22.59,0-.11,1.79-.27,3.57-.33,5.36-.07,2.36,2.02,3.22,2.81,5.38,3.86-2.62,4.69-2.1,7.99,1.1h0Z"/>
      <path d="M2236.09,227.21c2.32-.5,3.41-.44,4.89-2.17,1.71-2,3.47-4.62,2.89-7.33-.49-2.27-1.89-3.65-3.25-3.66-1.05,0-2.07.82-2.6,2.69,1.77-.88,2.69-.41,3.47.92.18.31-.06.71-.42.68-.63-.06-1.17-.12-1.62-.12-1.09,0-1.69.37-1.98,2.11.62,0,.99.68.67,1.2-1.21,1.97-1.55,2.25-2.04,5.69h0Z"/>
      <path d="M2206.35,269.62c-1.4.13,0,2.8.03,4.2.16,7.99,7.15-4.89-.03-4.2Z"/>
      <path d="M2212.13,181.76c7.48,6.57,14.53,12.26,23.42,16.81-7.99-5.34-15.8-10.95-23.42-16.81Z"/>
      <path d="M2202.37,307.44c1.85,1.85,3.74.68,5.99,1.42.89.29,2.16,1.38,2.72.64,3.56-4.63,4.76-10.82,8.48-15.36-8.45-.09-16.89-.19-25.34-.28,1.81,3.26,4.86,10.31,8.14,13.58h0ZM2206.21,296.89c.31-.09.6-.14.88-.17,4.26-.4,6.18,5.94,1.32,7.41-5.19,1.55-7.17-5.77-2.21-7.23Z"/>
      <path d="M2207.45,279.81c-2.05,3.74-6.08,6.24-9.95,7.78-1.9.75-4.34.76-5.67,2.3,3.42,1.76,9.36,1.37,12.68,1.38,3.37.01,6.75-.06,10.12-.14,2.33-.06,6.08.39,7.42-1.95-3.1-1.25-5.15-1.86-7.84-3.64-2.69-1.78-4.26-4.09-6.75-5.73h0Z"/>
      <path d="M2193.68,285.87c2.22,0,4.55-1.29,6.33-2.48,5.79-3.86,6.07-6.17,4.13-12.8-6.53,1.72-8.68,9.94-10.46,15.28Z"/>
      <path d="M2304.51,273.29c-.04,4.11,3.39.49,3.54-1.82-.03-4.5-1.56-11.21-3.39-12.66-1.45-.86-.51,8.83-.19,12.64.05.62.06,1.23.04,1.85h0Z"/>
      <path d="M2266.1,249.58c-2.5,1.67-5.05,3.26-7.63,4.78-.57.34-1.15.67-1.73,1-12.31,6.99-25.55,12.25-39.37,16.06-.08-.43-.59-1.06-.22-1.3,6.15-4.09,12.94-7.14,19.09-11.23,3.86-2.57,7.46-5.53,11.09-8.43.25-.21-.02-.59-.3-.42-9.98,6.19-11.29,7-23.6,14.64,6.62-6.54,14.32-11.88,19.71-19.8.39-.58-.38-1.23-.89-.76-8.59,8.06-15.59,15.66-21.38,21.16-1.89,1.81-4.36,2.9-6.54,4.34,8.18-10.2,16.68-20.16,24.54-30.61,2.95-3.92,5.63-8.04,7.83-12.44.68-1.35,1.22-2.9.96-4.36-.87-4.88-2.66-9.57-4.55-14.15-2.3-5.58-7.68-17.08-13.61-29.34-9.51-19.66-37.82-18.92-46.26,1.22-3.41,8.14-6.55,16.37-9.57,24.51-2.16,5.83-4.6,11.67-5.46,17.82-.29,2.05,1.11,4.04,2.14,5.84,2.84,4.99,6.02,9.81,9.42,14.44,6.77,9.21,14.04,18.04,21.07,27.06-2.41-.53-4.67-1.97-6.4-3.74-7.64-7.76-15-15.79-22.48-23.71-.18-.18-.47.04-.34.26,1.56,2.62,4.42,6.7,4.71,7.05,4.2,4.97,8.81,9.57,13.22,14.35-12.56-8.06-13.06-8.38-24.66-15.82-.11-.07-.23.08-.13.17,4.4,3.68,8.61,7.62,13.35,10.83,6.45,4.37,13.5,7.81,20.25,11.71-.59.32-1.13,1.13-1.79.97-5.21-1.34-10.27-3.3-15.25-5.34-11.26-4.61-27.02-12.08-37.21-19.04-1.83-1.25-2.82-3.61-2.55-5.81.69-5.38,2.42-9.1,5.06-13.84,8.89-15.96,18.11-31.72,27.6-47.33,1.3-2.13,2.96-4.8,4.86-7.79,13.2-20.74,43.49-20.55,56.49.32,12.36,19.83,23.78,40.28,34.55,60.96,2.86,5.5,1.15,12.3-4.01,15.75Z"/>
      <path d="M2229.34,271c-.39-.04-.78-.04-1.16,0-2.69.25-5.19,2.12-7.79,3.03,1.85,3.79,3.07,7.2,4.13,11.29,1.69-4.38,3.4-8.74,5.07-13.12.08-.22.43-1.13-.25-1.2Z"/>
      <path d="M2200.29,184.1c-6.17,4.91-12.5,9.23-19.01,13.91,4.7-2.01,8.5-5.13,12.43-8.33,2.23-1.82,5.51-2.91,6.58-5.58Z"/>
      <path d="M2284.86,195.56c1.65,4.39,8.91,5.67,12.66,6.34,7.08,1.28,17.29-1.66,21-8.3.32-.57-.12-1.29-.77-1.24,0,0-.01,0-.02,0-1.46.12-3.36,1.24-4.5,1.45-4.12.77-8.27,1.32-12.41,1.99.68,1.9,1.57,2.74,3.05,3.57.38.22.29.79-.14.87-1.9.37-3.9.26-5.86.23-.4,0-.59-.49-.31-.76,1.47-1.41,4.04-4.23,1.88-4.33-2.4-.11-4.8.08-7.2,0-2.04-.07-4.06-.38-6.09-.44-.48-.02-1.47.16-1.3.61h0Z"/>
      <path d="M2323.63,138.5c0-6.52-5.29-11.81-11.81-11.81h-26.62c-6.52,0-11.81,5.29-11.81,11.81l-.25,6.24h.81c.15-.06.31-.09.48-.09h47.93c.13,0,.24.04.36.09h.98l-.07-6.24h0Z"/>
      <path d="M2356.07,157.37c-6.77-1.73-17.2-3.56-32.28-4.23v.06-.06c-.08,0-.16,0-.24-.01h-49.12c-.12,0-.22-.02-.33-.05h-2.72c-11.21.91-19.8,2.5-25.96,4.01-4.3,1.06-4.81,5.3-.57,6.6,1,.31,2.95.62,3.54.7,1.55.21,3.64.62,6.18,1.09,5.61.19,13.28.31,21.91.73,17.86.89,39.07.19,50.71.19,3.36,0,9.23.18,10.84,0,7.38-.84,13.35-1.85,17.88-2.76,3.36-.68,3.47-5.43.16-6.28h0Z"/>
    </g>
    <path d="M2387.93,225.67l-10.51-.72c-1.42-.1-2.65.97-2.75,2.39l-.34,4.98c-.24,3.5-3.27,6.13-6.76,5.89h0c-3.5-.24-6.13-3.27-5.89-6.76l.34-4.98c.1-1.42-.97-2.65-2.39-2.75l-10.51-.72c-1.57-.11-2.67-1.58-2.34-3.12l6.33-28.93c.12-.52.87-.48.92.06l1.9,19.63c.12,1.25,1.13,2.23,2.38,2.32l3.4.23c1.19.08,2.28-.66,2.64-1.8l5.89-18.84c.14-.47.83-.42.91.06l3.26,19.46c.19,1.17,1.17,2.06,2.36,2.14l3.4.23c1.26.09,2.39-.75,2.68-1.97l4.57-19.19c.12-.52.88-.46.92.07l2.32,29.52c.12,1.57-1.17,2.88-2.74,2.77h0Z"/>
  </g>
  <text class="cls-2" transform="translate(2481.47 216.3)"><tspan x="0" y="0">Alma Da </tspan><tspan x="0" y="59.1">Beira Alta </tspan></text>
  <text class="cls-1" transform="translate(2551.05 309.75)"><tspan x="0" y="0">ASBL Et. 2024</tspan></text>
  <rect x="2797.92" y="1.19" width="679.48" height="465.18"/>
  <g>
    <g>
      <path d="M3104.23,333.41h0c.09,0,.18-.01.28-.02.4-.06.63-.32.63-.62-.33.23-.49.36-.86.62-.02.01-.02.02-.04.03Z"/>
      <path d="M3038.36,340.82c.2-.05.34-.23.34-.43,0-.02,0-.04,0-.06-.04-.32-.07-.65-.11-.97-.63.17-1.26.33-1.9.49.2.72.93,1.17,1.67.97h0Z"/>
      <path class="cls-5" d="M3107.27,243.23c.02-1.11-.83-2.03-1.93-2.13-.11-.01-.21-.01-.32-.01-1.89,0-3.42,1.55-3.57,3.44-.47,5.84-1.68,20.77-2.28,29.1-.71,9.83-1.44,19.67-1.95,29.52,0,.11-.02.22-.06.32l-.02.06c-.39,1.25,1.15,2.2,2.08,1.28l.03-.03c3.01-2.94,4.7-6.98,4.65-11.19-.21-14.87,3.25-42.66,3.37-50.35h-.01Z"/>
      <path class="cls-5" d="M3073.84,182.99c-3.99-.31-4.99,7.81-5.53,10.34,5.85-1.29,11.02-7.69,7.38-13.84-.66-1.12-1.35-1.63-2-1.72-1.98-.28-3.74,3.19-4,5.09,1.78-1.16,3.33-1.98,4.5-1.43.81.37.53,1.63-.36,1.56h0Z"/>
      <path class="cls-5" d="M3001.76,179.71c-3.83,5.83,3.16,12.41,8.16,13.62-.61-4.46-1.04-9.37-5.51-10.31-.92-.19-.98-1.56-.06-1.73,1.2-.22,2.23,1.7,4.01,1.52-.11-2.7-1.82-5.23-3.82-5.13-.91.05-1.88.65-2.78,2.02h0Z"/>
      <path class="cls-5" d="M3065.88,187.41c-2.54,9.63-4.9,11.42-12.64,15.97-2.07,1.22-3.79,3.02-5.92,4.14-.31.16-.63.29-.96.42-1.3.5-2.79.16-3.7-.9-1.69-1.97-4.16-3.56-6.69-1.02-.07.07-.14.15-.2.23-.95,1.16-2.41,1.22-3.89.93-2.11-.41-3.32-1.05-4.71-1.84-2.33-1.33-5.82-3.21-7.85-4.95-7.16-6.17-7.87-15.19-8.28-24.08-.27-5.87,2.99-6.9,7.97-6.12-3.12,2.15-4.51,2.02-4.69,5.24,2.76-.37,5.49-1.1,8.27-1.1,2.51,0,4.96.73,7.43,1.1,0-.83.47-1.8,0-2.48-.85-1.25-2.38-1.84-3.58-2.76h25.62c-2.49,1.81-4.45,2.09-4.13,4.96,6.47-.68,9.69-.9,15.7.55-.88-2.25-2.8-4-4.68-5.51,1.27-.14,2.57-.62,3.84-.67.42-.02.84.02,1.25.12,4.65,1.22,2.64,14.7,1.83,17.77h0Z"/>
      <path class="cls-5" d="M2916.55,216.74c-.06-1.69-1.07-2.63-2.24-2.71-.17-.01-.34,0-.51.02-.82.12-1.65.65-2.23,1.63-1.86,3.13.31,6.67,2.36,9.05,1.34,1.56,3.23,2.05,5.1,2.75-.27-1.63-.41-3.55-1.03-5.11-.28-.71-.95-.88-1.48-1.17-.56-.3-.33-1.15.31-1.15h0c-.44-2.22-1.57-1.94-3.48-1.73-.4.04-.68-.39-.47-.74.95-1.56,1.72-1.8,3.67-.83h0Z"/>
      <path class="cls-5" d="M2923.44,271c1.26,5.92,3.12,10.95,5.5,16.53,2.24-4.25,2.85-8.93,5.24-13.23-3.58-1.1-7.16-2.2-10.74-3.3Z"/>
      <path class="cls-5" d="M2972.47,208.62c-4.56-3.09-9.55-5.53-14.06-8.68-1.89-1.33-6.07-3.77-8.56-6.23-.61-.59.14-1.58.88-1.14,7.84,4.64,16.52,11.56,25.04,14.53-4.29-2.76-8.62-5.45-12.85-8.3-13.27-12.25-19.99-13.23-46.1,8.85,5.5-2.94,16.59-10.17,24.44-14.73,1.04-.61,2.12.74,1.29,1.61-3.3,3.47-8.62,5.85-9.78,6.75-5.47,4.19-13.94,5.5-13.74,13.66.54,22.46,23.96,40.51,43.79,24.93,8.22-6.45,10.37-15.45,11.57-25.62.19-1.67-.26-4.51-1.92-5.64ZM2924.54,210.96c.31-2.46,4.01-3.82,7.24-3.7,2.51.09,4.75,1.08,4.88,3.15-4.56-.27-7.88-.67-12.12.55ZM2961.57,207.21c.35-.02.71-.02,1.07,0,2.86.13,5.69,1.38,5.69,3.47-3.84-1.05-7.62-.53-11.56-.28.11-2.06,2.33-3.07,4.8-3.2Z"/>
      <path class="cls-5" d="M3060.88,257.23c-2.48,10.05-4.14,20.34-7.43,30.16-3.98,11.86-11.26,22.57-14.32,34.71-1.41,5.59-1.18,11.47-.54,17.26,6.73-1.8,13.26-4.09,19.55-6.84-.35-.63-.54-1.36-.51-2.15,1.02-22.89,1.63-36.65,3.25-73.13h0ZM3045.29,326.22c-2.79,2.8-7.07-1.57-4.24-4.26.72-.68,1.53-.95,2.3-.91,2.31.11,4.21,2.9,1.93,5.18h0Z"/>
      <path class="cls-5" d="M3079.98,238.25c-.11-.3-.41-.48-.69-.35-.37.18-.72.49-.5,1.15,1.31,3.91,2.81,7.75,4.16,11.64,1.17,3.76.08,5.47-3.24,7.29-.37.2-3.84,2.09-5.31,2.69-.29.12-.46.41-.41.72,0,.04.02.09.02.14.07.59.71.9,1.26.64,5.05-2.37,11.67-4.54,9.7-10.74-1.02-2.66-4.35-11.42-4.99-13.18Z"/>
      <path class="cls-5" d="M3006.32,261.39s-.02.09-.02.14c-.07.59-.71.9-1.26.64-3.8-1.78-8.49-3.45-9.73-6.82.58-.33,1.16-.66,1.73-1,.38,1.48,1.57,2.54,3.56,3.63.37.2,3.84,2.09,5.31,2.69.29.12.46.41.41.72h0Z"/>
      <path class="cls-5" d="M3035.99,322.2c.67-3.71,2.23-5.88,1.85-9.35-.58-5.28-4.73-9.5-6.98-14.3-3.72-7.91-6.14-14.27-8.33-22.69-1.62-6.23-2.87-12.54-4.34-18.8-.23-1-.24-2.32-1.1-2.86.87,8.43,1.9,16.84,2.6,25.29.93,11.27-.09,22.85,2.63,33.83.52,2.11,1.5,4.1,2.45,6.06,2.66,5.48,5.29,10.99,8.21,16.33.94,1.71.71,3.66-.31,5.09,1.35-.29,2.69-.61,4.01-.95-.01-.04-.03-.08-.04-.13-.98-5.77-1.71-11.74-.66-17.52h0Z"/>
      <path class="cls-5" d="M3082.75,275.41c-3.11-2.04-9.48-5.74-11.33-6.71-.19-.1-.43-.04-.55.14,0,0,0,0,0,.01-.16.23-.06.54.21.64,2.08.72,7.33,4.28,9.73,6.25.76.62,1.05,1.64.74,2.57-1.13,3.36-6.28,18.52-7.4,21.97-.54,1.65-1.98,6.81-2.73,10.13-.13.58.69.85.92.3,1.42-3.39,3.27-8.86,3.77-10.37.79-2.35,1.73-4.64,2.41-7.02.41-1.41,4.52-12.89,5.24-15.03.36-1.07-.06-2.25-1.01-2.87h0Z"/>
      <path class="cls-5" d="M2995.25,275.41c3.11-2.04,9.48-5.74,11.33-6.71.19-.1.43-.04.55.14,0,0,0,0,0,.01.16.23.06.54-.21.64-2.08.72-7.33,4.28-9.73,6.25-.76.62-1.05,1.64-.74,2.57,1.13,3.36,6.28,18.52,7.4,21.97.54,1.65,1.98,6.81,2.73,10.13.13.58-.69.85-.92.3-1.42-3.39-3.27-8.86-3.77-10.37-.79-2.35-1.73-4.64-2.41-7.02-.41-1.41-4.52-12.89-5.24-15.03-.36-1.07.06-2.25,1.01-2.87h0Z"/>
      <path class="cls-5" d="M3061.93,223.2c-.28-1-1.81-.66-1.68.37.24,2.05.49,4.14-.64,5.69-3.02,7.17-13.65,4.79-10.07,12.97.34.77.38,1.66.04,2.43-.46,1.03-1.09,1.16-1.63,1.01-.66-.18-1.12-.76-1.25-1.42-.25-1.32-.78-4.13-1.15-6.38-.22-1.37.52-2.73,1.81-3.27,3.32-1.41,7.51-1.99,8.73-5.16,1.81-4.73.53-10.13.39-15.19-6.56,6.56-17.47,10.15-26.31,5.84-3.16-1.55-5.97-3.71-8.95-5.56-.18,4.48-2.21,9.52-.04,13.44,2.53,4.6,10.66,3.95,11.55,9.35.29,1.75-.1,3.55-.34,5.3-.11.79-.18,1.32-.28,1.72-.28,1.2-1.89,1.4-2.44.29v-.02c-.39-.76-.32-1.66.15-2.36.98-1.47,1.15-3.75.32-5.28-1.42-2.61-5.21-2.88-7.68-4.55-3.31-2.23-4.32-4.53-4.66-7.66-.09-.88-1.36-.91-1.51-.04-2.02,11.81,10.38,55.61,20.8,79.72,1.18,2.72,5.05,2.7,6.17-.06,10.36-25.56,18.78-69.29,18.81-69.71.26-3.32.18-6.64.05-9.96-.02-.58-.07-1.09-.19-1.52h0ZM3054.79,247.82c-4.06,1.81-8.24,3.33-12.36,5,2.52.84,4.02,1.07,6.08,2.54,5.02,3.57,1.6,7.86-1.79,4.18-.37-.4.12-1.01.58-.73,3.66,2.13,2.9-2.18-3.09-3.82-.41-.11-.77.28-.63.68,1.94,5.35,4.8,11.97,3.64,17.78-.36,1.81-4.79,4.48-5.06,1.56-.39-4.23-.58-8.47-.69-12.71-.08-3.31,1.2-4.53-.66-6.78-2.04-2.46-4.48,2.57-4.98,3.78-2.38,5.77-3.6,12.11-2.42,18.18.24,1.25-1.59,1.67-1.93.45-.16-.57-.21-1.25-.2-1.94.08-6.83.73-14.07,4.19-20.07.11-.2-.08-.43-.3-.35-2.82,1.12-3.34,1.1-5.96,2.44-1.4.71-1.92.36-1.58.02,1.47-1.93,5.61-3.41,9.3-5.2-3.45-1.54-6.93-3.01-10.35-4.62-3.01-1.42-5.63-2.31-5.63-5.84,1.39,1.36,2.85,3.04,4.69,3.85,4.62,2.05,9.34,4.11,14.32,4.96,1.26.22,3.92-1.36,4.41-1.55,3.1-1.16,9-4.24,12.67-4.24-.61,1.37-.51,1.66-2.24,2.44h0Z"/>
      <path class="cls-5" d="M2956.03,284.62c1.43.88,2.69,1.52,4.31,1.52-1.48-7.37-3.85-12.29-11.02-15.42,1.33,9.18-3.03,7.89,6.7,13.9Z"/>
      <path class="cls-5" d="M2945.75,257.5c2.94-3.12,4.75-3.25,7.98-.55,4.06-6.35,4.83-1.66,4.14-11.29-8.45,3.72-13.98,2.8-22.59,0-.11,1.79-.27,3.57-.33,5.36-.07,2.36,2.02,3.22,2.81,5.38,3.86-2.62,4.69-2.1,7.99,1.1h0Z"/>
      <path class="cls-5" d="M2974.67,227.21c2.32-.5,3.41-.44,4.89-2.17,1.71-2,3.47-4.62,2.89-7.33-.49-2.27-1.89-3.65-3.25-3.66-1.05,0-2.07.82-2.6,2.69,1.77-.88,2.69-.41,3.47.92.18.31-.06.71-.42.68-.63-.06-1.17-.12-1.62-.12-1.09,0-1.69.37-1.98,2.11.62,0,.99.68.67,1.2-1.21,1.97-1.55,2.25-2.04,5.69h0Z"/>
      <path class="cls-5" d="M2944.92,269.62c-1.4.13,0,2.8.03,4.2.16,7.99,7.15-4.89-.03-4.2Z"/>
      <path class="cls-5" d="M2950.7,181.76c7.48,6.57,14.53,12.26,23.42,16.81-7.99-5.34-15.8-10.95-23.42-16.81Z"/>
      <path class="cls-5" d="M2940.94,307.44c1.85,1.85,3.74.68,5.99,1.42.89.29,2.16,1.38,2.72.64,3.56-4.63,4.76-10.82,8.48-15.36-8.45-.09-16.89-.19-25.34-.28,1.81,3.26,4.86,10.31,8.14,13.58h0ZM2944.78,296.89c.31-.09.6-.14.88-.17,4.26-.4,6.18,5.94,1.32,7.41-5.19,1.55-7.17-5.77-2.21-7.23Z"/>
      <path class="cls-5" d="M2946.02,279.81c-2.05,3.74-6.08,6.24-9.95,7.78-1.9.75-4.34.76-5.67,2.3,3.42,1.76,9.36,1.37,12.68,1.38,3.37.01,6.75-.06,10.12-.14,2.33-.06,6.08.39,7.42-1.95-3.1-1.25-5.15-1.86-7.84-3.64-2.69-1.78-4.26-4.09-6.75-5.73h0Z"/>
      <path class="cls-5" d="M2932.25,285.87c2.22,0,4.55-1.29,6.33-2.48,5.79-3.86,6.07-6.17,4.13-12.8-6.53,1.72-8.68,9.94-10.46,15.28Z"/>
      <path class="cls-5" d="M3043.08,273.29c-.04,4.11,3.39.49,3.54-1.82-.03-4.5-1.56-11.21-3.39-12.66-1.45-.86-.51,8.83-.19,12.64.05.62.06,1.23.04,1.85h0Z"/>
      <path class="cls-5" d="M3004.67,249.58c-2.5,1.67-5.05,3.26-7.63,4.78-.57.34-1.15.67-1.73,1-12.31,6.99-25.55,12.25-39.37,16.06-.08-.43-.59-1.06-.22-1.3,6.15-4.09,12.94-7.14,19.09-11.23,3.86-2.57,7.46-5.53,11.09-8.43.25-.21-.02-.59-.3-.42-9.98,6.19-11.29,7-23.6,14.64,6.62-6.54,14.32-11.88,19.71-19.8.39-.58-.38-1.23-.89-.76-8.59,8.06-15.59,15.66-21.38,21.16-1.89,1.81-4.36,2.9-6.54,4.34,8.18-10.2,16.68-20.16,24.54-30.61,2.95-3.92,5.63-8.04,7.83-12.44.68-1.35,1.22-2.9.96-4.36-.87-4.88-2.66-9.57-4.55-14.15-2.3-5.58-7.68-17.08-13.61-29.34-9.51-19.66-37.82-18.92-46.26,1.22-3.41,8.14-6.55,16.37-9.57,24.51-2.16,5.83-4.6,11.67-5.46,17.82-.29,2.05,1.11,4.04,2.14,5.84,2.84,4.99,6.02,9.81,9.42,14.44,6.77,9.21,14.04,18.04,21.07,27.06-2.41-.53-4.67-1.97-6.4-3.74-7.64-7.76-15-15.79-22.48-23.71-.18-.18-.47.04-.34.26,1.56,2.62,4.42,6.7,4.71,7.05,4.2,4.97,8.81,9.57,13.22,14.35-12.56-8.06-13.06-8.38-24.66-15.82-.11-.07-.23.08-.13.17,4.4,3.68,8.61,7.62,13.35,10.83,6.45,4.37,13.5,7.81,20.25,11.71-.59.32-1.13,1.13-1.79.97-5.21-1.34-10.27-3.3-15.25-5.34-11.26-4.61-27.02-12.08-37.21-19.04-1.83-1.25-2.82-3.61-2.55-5.81.69-5.38,2.42-9.1,5.06-13.84,8.89-15.96,18.11-31.72,27.6-47.33,1.3-2.13,2.96-4.8,4.86-7.79,13.2-20.74,43.49-20.55,56.49.32,12.36,19.83,23.78,40.28,34.55,60.96,2.86,5.5,1.15,12.3-4.01,15.75Z"/>
      <path class="cls-5" d="M2967.92,271c-.39-.04-.78-.04-1.16,0-2.69.25-5.19,2.12-7.79,3.03,1.85,3.79,3.07,7.2,4.13,11.29,1.69-4.38,3.4-8.74,5.07-13.12.08-.22.43-1.13-.25-1.2Z"/>
      <path class="cls-5" d="M2938.86,184.1c-6.17,4.91-12.5,9.23-19.01,13.91,4.7-2.01,8.5-5.13,12.43-8.33,2.23-1.82,5.51-2.91,6.58-5.58Z"/>
      <path class="cls-5" d="M3023.43,195.56c1.65,4.39,8.91,5.67,12.66,6.34,7.08,1.28,17.29-1.66,21-8.3.32-.57-.12-1.29-.77-1.24,0,0-.01,0-.02,0-1.46.12-3.36,1.24-4.5,1.45-4.12.77-8.27,1.32-12.41,1.99.68,1.9,1.57,2.74,3.05,3.57.38.22.29.79-.14.87-1.9.37-3.9.26-5.86.23-.4,0-.59-.49-.31-.76,1.47-1.41,4.04-4.23,1.88-4.33-2.4-.11-4.8.08-7.2,0-2.04-.07-4.06-.38-6.09-.44-.48-.02-1.47.16-1.3.61h0Z"/>
      <path class="cls-5" d="M3062.2,138.5c0-6.52-5.29-11.81-11.81-11.81h-26.62c-6.52,0-11.81,5.29-11.81,11.81l-.25,6.24h.81c.15-.06.31-.09.48-.09h47.93c.13,0,.24.04.36.09h.98l-.07-6.24h0Z"/>
      <path class="cls-5" d="M3094.65,157.37c-6.77-1.73-17.2-3.56-32.28-4.23v.06-.06c-.08,0-.16,0-.24-.01h-49.12c-.12,0-.22-.02-.33-.05h-2.72c-11.21.91-19.8,2.5-25.96,4.01-4.3,1.06-4.81,5.3-.57,6.6,1,.31,2.95.62,3.54.7,1.55.21,3.64.62,6.18,1.09,5.61.19,13.28.31,21.91.73,17.86.89,39.07.19,50.71.19,3.36,0,9.23.18,10.84,0,7.38-.84,13.35-1.85,17.88-2.76,3.36-.68,3.47-5.43.16-6.28h0Z"/>
    </g>
    <path class="cls-5" d="M3126.5,225.67l-10.51-.72c-1.42-.1-2.65.97-2.75,2.39l-.34,4.98c-.24,3.5-3.27,6.13-6.76,5.89h0c-3.5-.24-6.13-3.27-5.89-6.76l.34-4.98c.1-1.42-.97-2.65-2.39-2.75l-10.51-.72c-1.57-.11-2.67-1.58-2.34-3.12l6.33-28.93c.12-.52.87-.48.92.06l1.9,19.63c.12,1.25,1.13,2.23,2.38,2.32l3.4.23c1.19.08,2.28-.66,2.64-1.8l5.89-18.84c.14-.47.83-.42.91.06l3.26,19.46c.19,1.17,1.17,2.06,2.36,2.14l3.4.23c1.26.09,2.39-.75,2.68-1.97l4.57-19.19c.12-.52.88-.46.92.07l2.32,29.52c.12,1.57-1.17,2.88-2.74,2.77h0Z"/>
  </g>
  <text class="cls-4" transform="translate(3206.85 216.3)"><tspan x="0" y="0">Alma Da </tspan><tspan x="0" y="59.1">Beira Alta </tspan></text>
  <text class="cls-3" transform="translate(3276.97 310.36)"><tspan x="0" y="0">ASBL Et. 2024</tspan></text>
  <text class="cls-2" transform="translate(1761.93 220.75)"><tspan x="0" y="0">Alma Da </tspan><tspan x="0" y="59.1">Beira Alta </tspan></text>
  <text class="cls-1" transform="translate(1831.52 311.61)"><tspan x="0" y="0">ASBL Et. 2024</tspan></text>
  <g>
    <g>
      <path d="M1674.31,333.41h0c.09,0,.18-.01.28-.02.4-.06.63-.32.63-.62-.33.23-.49.36-.86.62-.02.01-.02.02-.04.03Z"/>
      <path d="M1608.43,340.82c.2-.05.34-.23.34-.43,0-.02,0-.04,0-.06-.04-.32-.07-.65-.11-.97-.63.17-1.26.33-1.9.49.2.72.93,1.17,1.67.97h0Z"/>
      <path class="cls-5" d="M1677.34,243.23c.02-1.11-.83-2.03-1.93-2.13-.11-.01-.21-.01-.32-.01-1.89,0-3.42,1.55-3.57,3.44-.47,5.84-1.68,20.77-2.28,29.1-.71,9.83-1.44,19.67-1.95,29.52,0,.11-.02.22-.06.32l-.02.06c-.39,1.25,1.15,2.2,2.08,1.28l.03-.03c3.01-2.94,4.7-6.98,4.65-11.19-.21-14.87,3.25-42.66,3.37-50.35h-.01Z"/>
      <path class="cls-5" d="M1643.92,182.99c-3.99-.31-4.99,7.81-5.53,10.34,5.85-1.29,11.02-7.69,7.38-13.84-.66-1.12-1.35-1.63-2-1.72-1.98-.28-3.74,3.19-4,5.09,1.78-1.16,3.33-1.98,4.5-1.43.81.37.53,1.63-.36,1.56h0Z"/>
      <path class="cls-5" d="M1571.83,179.71c-3.83,5.83,3.16,12.41,8.16,13.62-.61-4.46-1.04-9.37-5.51-10.31-.92-.19-.98-1.56-.06-1.73,1.2-.22,2.23,1.7,4.01,1.52-.11-2.7-1.82-5.23-3.82-5.13-.91.05-1.88.65-2.78,2.02h0Z"/>
      <path class="cls-5" d="M1635.95,187.41c-2.54,9.63-4.9,11.42-12.64,15.97-2.07,1.22-3.79,3.02-5.92,4.14-.31.16-.63.29-.96.42-1.3.5-2.79.16-3.7-.9-1.69-1.97-4.16-3.56-6.69-1.02-.07.07-.14.15-.2.23-.95,1.16-2.41,1.22-3.89.93-2.11-.41-3.32-1.05-4.71-1.84-2.33-1.33-5.82-3.21-7.85-4.95-7.16-6.17-7.87-15.19-8.28-24.08-.27-5.87,2.99-6.9,7.97-6.12-3.12,2.15-4.51,2.02-4.69,5.24,2.76-.37,5.49-1.1,8.27-1.1,2.51,0,4.96.73,7.43,1.1,0-.83.47-1.8,0-2.48-.85-1.25-2.38-1.84-3.58-2.76h25.62c-2.49,1.81-4.45,2.09-4.13,4.96,6.47-.68,9.69-.9,15.7.55-.88-2.25-2.8-4-4.68-5.51,1.27-.14,2.57-.62,3.84-.67.42-.02.84.02,1.25.12,4.65,1.22,2.64,14.7,1.83,17.77h0Z"/>
      <path class="cls-5" d="M1486.63,216.74c-.06-1.69-1.07-2.63-2.24-2.71-.17-.01-.34,0-.51.02-.82.12-1.65.65-2.23,1.63-1.86,3.13.31,6.67,2.36,9.05,1.34,1.56,3.23,2.05,5.1,2.75-.27-1.63-.41-3.55-1.03-5.11-.28-.71-.95-.88-1.48-1.17-.56-.3-.33-1.15.31-1.15h0c-.44-2.22-1.57-1.94-3.48-1.73-.4.04-.68-.39-.47-.74.95-1.56,1.72-1.8,3.67-.83h0Z"/>
      <path class="cls-5" d="M1493.51,271c1.26,5.92,3.12,10.95,5.5,16.53,2.24-4.25,2.85-8.93,5.24-13.23-3.58-1.1-7.16-2.2-10.74-3.3Z"/>
      <path class="cls-5" d="M1542.55,208.62c-4.56-3.09-9.55-5.53-14.06-8.68-1.89-1.33-6.07-3.77-8.56-6.23-.61-.59.14-1.58.88-1.14,7.84,4.64,16.52,11.56,25.04,14.53-4.29-2.76-8.62-5.45-12.85-8.3-13.27-12.25-19.99-13.23-46.1,8.85,5.5-2.94,16.59-10.17,24.44-14.73,1.04-.61,2.12.74,1.29,1.61-3.3,3.47-8.62,5.85-9.78,6.75-5.47,4.19-13.94,5.5-13.74,13.66.54,22.46,23.96,40.51,43.79,24.93,8.22-6.45,10.37-15.45,11.57-25.62.19-1.67-.26-4.51-1.92-5.64ZM1494.61,210.96c.31-2.46,4.01-3.82,7.24-3.7,2.51.09,4.75,1.08,4.88,3.15-4.56-.27-7.88-.67-12.12.55ZM1531.65,207.21c.35-.02.71-.02,1.07,0,2.86.13,5.69,1.38,5.69,3.47-3.84-1.05-7.62-.53-11.56-.28.11-2.06,2.33-3.07,4.8-3.2Z"/>
      <path class="cls-5" d="M1630.95,257.23c-2.48,10.05-4.14,20.34-7.43,30.16-3.98,11.86-11.26,22.57-14.32,34.71-1.41,5.59-1.18,11.47-.54,17.26,6.73-1.8,13.26-4.09,19.55-6.84-.35-.63-.54-1.36-.51-2.15,1.02-22.89,1.63-36.65,3.25-73.13h0ZM1615.36,326.22c-2.79,2.8-7.07-1.57-4.24-4.26.72-.68,1.53-.95,2.3-.91,2.31.11,4.21,2.9,1.93,5.18h0Z"/>
      <path class="cls-5" d="M1650.06,238.25c-.11-.3-.41-.48-.69-.35-.37.18-.72.49-.5,1.15,1.31,3.91,2.81,7.75,4.16,11.64,1.17,3.76.08,5.47-3.24,7.29-.37.2-3.84,2.09-5.31,2.69-.29.12-.46.41-.41.72,0,.04.02.09.02.14.07.59.71.9,1.26.64,5.05-2.37,11.67-4.54,9.7-10.74-1.02-2.66-4.35-11.42-4.99-13.18Z"/>
      <path class="cls-5" d="M1576.39,261.39s-.02.09-.02.14c-.07.59-.71.9-1.26.64-3.8-1.78-8.49-3.45-9.73-6.82.58-.33,1.16-.66,1.73-1,.38,1.48,1.57,2.54,3.56,3.63.37.2,3.84,2.09,5.31,2.69.29.12.46.41.41.72h0Z"/>
      <path class="cls-5" d="M1606.06,322.2c.67-3.71,2.23-5.88,1.85-9.35-.58-5.28-4.73-9.5-6.98-14.3-3.72-7.91-6.14-14.27-8.33-22.69-1.62-6.23-2.87-12.54-4.34-18.8-.23-1-.24-2.32-1.1-2.86.87,8.43,1.9,16.84,2.6,25.29.93,11.27-.09,22.85,2.63,33.83.52,2.11,1.5,4.1,2.45,6.06,2.66,5.48,5.29,10.99,8.21,16.33.94,1.71.71,3.66-.31,5.09,1.35-.29,2.69-.61,4.01-.95-.01-.04-.03-.08-.04-.13-.98-5.77-1.71-11.74-.66-17.52h0Z"/>
      <path class="cls-5" d="M1652.82,275.41c-3.11-2.04-9.48-5.74-11.33-6.71-.19-.1-.43-.04-.55.14,0,0,0,0,0,.01-.16.23-.06.54.21.64,2.08.72,7.33,4.28,9.73,6.25.76.62,1.05,1.64.74,2.57-1.13,3.36-6.28,18.52-7.4,21.97-.54,1.65-1.98,6.81-2.73,10.13-.13.58.69.85.92.3,1.42-3.39,3.27-8.86,3.77-10.37.79-2.35,1.73-4.64,2.41-7.02.41-1.41,4.52-12.89,5.24-15.03.36-1.07-.06-2.25-1.01-2.87h0Z"/>
      <path class="cls-5" d="M1565.32,275.41c3.11-2.04,9.48-5.74,11.33-6.71.19-.1.43-.04.55.14,0,0,0,0,0,.01.16.23.06.54-.21.64-2.08.72-7.33,4.28-9.73,6.25-.76.62-1.05,1.64-.74,2.57,1.13,3.36,6.28,18.52,7.4,21.97.54,1.65,1.98,6.81,2.73,10.13.13.58-.69.85-.92.3-1.42-3.39-3.27-8.86-3.77-10.37-.79-2.35-1.73-4.64-2.41-7.02-.41-1.41-4.52-12.89-5.24-15.03-.36-1.07.06-2.25,1.01-2.87h0Z"/>
      <path class="cls-5" d="M1632,223.2c-.28-1-1.81-.66-1.68.37.24,2.05.49,4.14-.64,5.69-3.02,7.17-13.65,4.79-10.07,12.97.34.77.38,1.66.04,2.43-.46,1.03-1.09,1.16-1.63,1.01-.66-.18-1.12-.76-1.25-1.42-.25-1.32-.78-4.13-1.15-6.38-.22-1.37.52-2.73,1.81-3.27,3.32-1.41,7.51-1.99,8.73-5.16,1.81-4.73.53-10.13.39-15.19-6.56,6.56-17.47,10.15-26.31,5.84-3.16-1.55-5.97-3.71-8.95-5.56-.18,4.48-2.21,9.52-.04,13.44,2.53,4.6,10.66,3.95,11.55,9.35.29,1.75-.1,3.55-.34,5.3-.11.79-.18,1.32-.28,1.72-.28,1.2-1.89,1.4-2.44.29v-.02c-.39-.76-.32-1.66.15-2.36.98-1.47,1.15-3.75.32-5.28-1.42-2.61-5.21-2.88-7.68-4.55-3.31-2.23-4.32-4.53-4.66-7.66-.09-.88-1.36-.91-1.51-.04-2.02,11.81,10.38,55.61,20.8,79.72,1.18,2.72,5.05,2.7,6.17-.06,10.36-25.56,18.78-69.29,18.81-69.71.26-3.32.18-6.64.05-9.96-.02-.58-.07-1.09-.19-1.52h0ZM1624.86,247.82c-4.06,1.81-8.24,3.33-12.36,5,2.52.84,4.02,1.07,6.08,2.54,5.02,3.57,1.6,7.86-1.79,4.18-.37-.4.12-1.01.58-.73,3.66,2.13,2.9-2.18-3.09-3.82-.41-.11-.77.28-.63.68,1.94,5.35,4.8,11.97,3.64,17.78-.36,1.81-4.79,4.48-5.06,1.56-.39-4.23-.58-8.47-.69-12.71-.08-3.31,1.2-4.53-.66-6.78-2.04-2.46-4.48,2.57-4.98,3.78-2.38,5.77-3.6,12.11-2.42,18.18.24,1.25-1.59,1.67-1.93.45-.16-.57-.21-1.25-.2-1.94.08-6.83.73-14.07,4.19-20.07.11-.2-.08-.43-.3-.35-2.82,1.12-3.34,1.1-5.96,2.44-1.4.71-1.92.36-1.58.02,1.47-1.93,5.61-3.41,9.3-5.2-3.45-1.54-6.93-3.01-10.35-4.62-3.01-1.42-5.63-2.31-5.63-5.84,1.39,1.36,2.85,3.04,4.69,3.85,4.62,2.05,9.34,4.11,14.32,4.96,1.26.22,3.92-1.36,4.41-1.55,3.1-1.16,9-4.24,12.67-4.24-.61,1.37-.51,1.66-2.24,2.44h0Z"/>
      <path class="cls-5" d="M1526.1,284.62c1.43.88,2.69,1.52,4.31,1.52-1.48-7.37-3.85-12.29-11.02-15.42,1.33,9.18-3.03,7.89,6.7,13.9Z"/>
      <path class="cls-5" d="M1515.82,257.5c2.94-3.12,4.75-3.25,7.98-.55,4.06-6.35,4.83-1.66,4.14-11.29-8.45,3.72-13.98,2.8-22.59,0-.11,1.79-.27,3.57-.33,5.36-.07,2.36,2.02,3.22,2.81,5.38,3.86-2.62,4.69-2.1,7.99,1.1h0Z"/>
      <path class="cls-5" d="M1544.74,227.21c2.32-.5,3.41-.44,4.89-2.17,1.71-2,3.47-4.62,2.89-7.33-.49-2.27-1.89-3.65-3.25-3.66-1.05,0-2.07.82-2.6,2.69,1.77-.88,2.69-.41,3.47.92.18.31-.06.71-.42.68-.63-.06-1.17-.12-1.62-.12-1.09,0-1.69.37-1.98,2.11.62,0,.99.68.67,1.2-1.21,1.97-1.55,2.25-2.04,5.69h0Z"/>
      <path class="cls-5" d="M1515,269.62c-1.4.13,0,2.8.03,4.2.16,7.99,7.15-4.89-.03-4.2Z"/>
      <path class="cls-5" d="M1520.78,181.76c7.48,6.57,14.53,12.26,23.42,16.81-7.99-5.34-15.8-10.95-23.42-16.81Z"/>
      <path class="cls-5" d="M1511.02,307.44c1.85,1.85,3.74.68,5.99,1.42.89.29,2.16,1.38,2.72.64,3.56-4.63,4.76-10.82,8.48-15.36-8.45-.09-16.89-.19-25.34-.28,1.81,3.26,4.86,10.31,8.14,13.58h0ZM1514.86,296.89c.31-.09.6-.14.88-.17,4.26-.4,6.18,5.94,1.32,7.41-5.19,1.55-7.17-5.77-2.21-7.23Z"/>
      <path class="cls-5" d="M1516.1,279.81c-2.05,3.74-6.08,6.24-9.95,7.78-1.9.75-4.34.76-5.67,2.3,3.42,1.76,9.36,1.37,12.68,1.38,3.37.01,6.75-.06,10.12-.14,2.33-.06,6.08.39,7.42-1.95-3.1-1.25-5.15-1.86-7.84-3.64-2.69-1.78-4.26-4.09-6.75-5.73h0Z"/>
      <path class="cls-5" d="M1502.33,285.87c2.22,0,4.55-1.29,6.33-2.48,5.79-3.86,6.07-6.17,4.13-12.8-6.53,1.72-8.68,9.94-10.46,15.28Z"/>
      <path class="cls-5" d="M1613.16,273.29c-.04,4.11,3.39.49,3.54-1.82-.03-4.5-1.56-11.21-3.39-12.66-1.45-.86-.51,8.83-.19,12.64.05.62.06,1.23.04,1.85h0Z"/>
      <path class="cls-5" d="M1574.75,249.58c-2.5,1.67-5.05,3.26-7.63,4.78-.57.34-1.15.67-1.73,1-12.31,6.99-25.55,12.25-39.37,16.06-.08-.43-.59-1.06-.22-1.3,6.15-4.09,12.94-7.14,19.09-11.23,3.86-2.57,7.46-5.53,11.09-8.43.25-.21-.02-.59-.3-.42-9.98,6.19-11.29,7-23.6,14.64,6.62-6.54,14.32-11.88,19.71-19.8.39-.58-.38-1.23-.89-.76-8.59,8.06-15.59,15.66-21.38,21.16-1.89,1.81-4.36,2.9-6.54,4.34,8.18-10.2,16.68-20.16,24.54-30.61,2.95-3.92,5.63-8.04,7.83-12.44.68-1.35,1.22-2.9.96-4.36-.87-4.88-2.66-9.57-4.55-14.15-2.3-5.58-7.68-17.08-13.61-29.34-9.51-19.66-37.82-18.92-46.26,1.22-3.41,8.14-6.55,16.37-9.57,24.51-2.16,5.83-4.6,11.67-5.46,17.82-.29,2.05,1.11,4.04,2.14,5.84,2.84,4.99,6.02,9.81,9.42,14.44,6.77,9.21,14.04,18.04,21.07,27.06-2.41-.53-4.67-1.97-6.4-3.74-7.64-7.76-15-15.79-22.48-23.71-.18-.18-.47.04-.34.26,1.56,2.62,4.42,6.7,4.71,7.05,4.2,4.97,8.81,9.57,13.22,14.35-12.56-8.06-13.06-8.38-24.66-15.82-.11-.07-.23.08-.13.17,4.4,3.68,8.61,7.62,13.35,10.83,6.45,4.37,13.5,7.81,20.25,11.71-.59.32-1.13,1.13-1.79.97-5.21-1.34-10.27-3.3-15.25-5.34-11.26-4.61-27.02-12.08-37.21-19.04-1.83-1.25-2.82-3.61-2.55-5.81.69-5.38,2.42-9.1,5.06-13.84,8.89-15.96,18.11-31.72,27.6-47.33,1.3-2.13,2.96-4.8,4.86-7.79,13.2-20.74,43.49-20.55,56.49.32,12.36,19.83,23.78,40.28,34.55,60.96,2.86,5.5,1.15,12.3-4.01,15.75Z"/>
      <path class="cls-5" d="M1537.99,271c-.39-.04-.78-.04-1.16,0-2.69.25-5.19,2.12-7.79,3.03,1.85,3.79,3.07,7.2,4.13,11.29,1.69-4.38,3.4-8.74,5.07-13.12.08-.22.43-1.13-.25-1.2Z"/>
      <path class="cls-5" d="M1508.94,184.1c-6.17,4.91-12.5,9.23-19.01,13.91,4.7-2.01,8.5-5.13,12.43-8.33,2.23-1.82,5.51-2.91,6.58-5.58Z"/>
      <path class="cls-5" d="M1593.51,195.56c1.65,4.39,8.91,5.67,12.66,6.34,7.08,1.28,17.29-1.66,21-8.3.32-.57-.12-1.29-.77-1.24,0,0-.01,0-.02,0-1.46.12-3.36,1.24-4.5,1.45-4.12.77-8.27,1.32-12.41,1.99.68,1.9,1.57,2.74,3.05,3.57.38.22.29.79-.14.87-1.9.37-3.9.26-5.86.23-.4,0-.59-.49-.31-.76,1.47-1.41,4.04-4.23,1.88-4.33-2.4-.11-4.8.08-7.2,0-2.04-.07-4.06-.38-6.09-.44-.48-.02-1.47.16-1.3.61h0Z"/>
      <path class="cls-5" d="M1632.28,138.5c0-6.52-5.29-11.81-11.81-11.81h-26.62c-6.52,0-11.81,5.29-11.81,11.81l-.25,6.24h.81c.15-.06.31-.09.48-.09h47.93c.13,0,.24.04.36.09h.98l-.07-6.24h0Z"/>
      <path class="cls-5" d="M1664.72,157.37c-6.77-1.73-17.2-3.56-32.28-4.23v.06-.06c-.08,0-.16,0-.24-.01h-49.12c-.12,0-.22-.02-.33-.05h-2.72c-11.21.91-19.8,2.5-25.96,4.01-4.3,1.06-4.81,5.3-.57,6.6,1,.31,2.95.62,3.54.7,1.55.21,3.64.62,6.18,1.09,5.61.19,13.28.31,21.91.73,17.86.89,39.07.19,50.71.19,3.36,0,9.23.18,10.84,0,7.38-.84,13.35-1.85,17.88-2.76,3.36-.68,3.47-5.43.16-6.28h0Z"/>
    </g>
    <path class="cls-5" d="M1696.58,225.67l-10.51-.72c-1.42-.1-2.65.97-2.75,2.39l-.34,4.98c-.24,3.5-3.27,6.13-6.76,5.89h0c-3.5-.24-6.13-3.27-5.89-6.76l.34-4.98c.1-1.42-.97-2.65-2.39-2.75l-10.51-.72c-1.57-.11-2.67-1.58-2.34-3.12l6.33-28.93c.12-.52.87-.48.92.06l1.9,19.63c.12,1.25,1.13,2.23,2.38,2.32l3.4.23c1.19.08,2.28-.66,2.64-1.8l5.89-18.84c.14-.47.83-.42.91.06l3.26,19.46c.19,1.17,1.17,2.06,2.36,2.14l3.4.23c1.26.09,2.39-.75,2.68-1.97l4.57-19.19c.12-.52.88-.46.92.07l2.32,29.52c.12,1.57-1.17,2.88-2.74,2.77h0Z"/>
  </g>
  <rect x="3497.4" y="1.19" width="679.48" height="465.18"/>
  <text class="cls-4" transform="translate(3946.46 220.63)"><tspan x="0" y="0">Alma Da </tspan><tspan x="0" y="59.1">Beira Alta </tspan></text>
  <text class="cls-3" transform="translate(4031.67 309.75)"><tspan x="0" y="0">ASBL Et. 2024</tspan></text>
  <circle class="cls-5" cx="3669.87" cy="250.15" r="151.72"/>
  <g>
    <g>
      <path d="M3769.44,349.79h0c.09,0,.18-.01.28-.02.4-.06.63-.32.63-.62-.33.23-.49.36-.86.62-.02.01-.02.02-.04.03Z"/>
      <path d="M3703.57,357.19c.2-.05.34-.23.34-.43,0-.02,0-.04,0-.06-.04-.32-.07-.65-.11-.97-.63.17-1.26.33-1.9.49.2.72.93,1.17,1.67.97h0Z"/>
      <path d="M3772.47,259.6c.02-1.11-.83-2.03-1.93-2.13-.11-.01-.21-.01-.32-.01-1.89,0-3.42,1.55-3.57,3.44-.47,5.84-1.68,20.77-2.28,29.1-.71,9.83-1.44,19.67-1.95,29.52,0,.11-.02.22-.06.32l-.02.06c-.39,1.25,1.15,2.2,2.08,1.28l.03-.03c3.01-2.94,4.7-6.98,4.65-11.19-.21-14.87,3.25-42.66,3.37-50.35h-.01Z"/>
      <path d="M3739.05,199.36c-3.99-.31-4.99,7.81-5.53,10.34,5.85-1.29,11.02-7.69,7.38-13.84-.66-1.12-1.35-1.63-2-1.72-1.98-.28-3.74,3.19-4,5.09,1.78-1.16,3.33-1.98,4.5-1.43.81.37.53,1.63-.36,1.56h0Z"/>
      <path d="M3666.97,196.08c-3.83,5.83,3.16,12.41,8.16,13.62-.61-4.46-1.04-9.37-5.51-10.31-.92-.19-.98-1.56-.06-1.73,1.2-.22,2.23,1.7,4.01,1.52-.11-2.7-1.82-5.23-3.82-5.13-.91.05-1.88.65-2.78,2.02h0Z"/>
      <path d="M3731.08,203.78c-2.54,9.63-4.9,11.42-12.64,15.97-2.07,1.22-3.79,3.02-5.92,4.14-.31.16-.63.29-.96.42-1.3.5-2.79.16-3.7-.9-1.69-1.97-4.16-3.56-6.69-1.02-.07.07-.14.15-.2.23-.95,1.16-2.41,1.22-3.89.93-2.11-.41-3.32-1.05-4.71-1.84-2.33-1.33-5.82-3.21-7.85-4.95-7.16-6.17-7.87-15.19-8.28-24.08-.27-5.87,2.99-6.9,7.97-6.12-3.12,2.15-4.51,2.02-4.69,5.24,2.76-.37,5.49-1.1,8.27-1.1,2.51,0,4.96.73,7.43,1.1,0-.83.47-1.8,0-2.48-.85-1.25-2.38-1.84-3.58-2.76h25.62c-2.49,1.81-4.45,2.09-4.13,4.96,6.47-.68,9.69-.9,15.7.55-.88-2.25-2.8-4-4.68-5.51,1.27-.14,2.57-.62,3.84-.67.42-.02.84.02,1.25.12,4.65,1.22,2.64,14.7,1.83,17.77h0Z"/>
      <path d="M3581.76,233.11c-.06-1.69-1.07-2.63-2.24-2.71-.17-.01-.34,0-.51.02-.82.12-1.65.65-2.23,1.63-1.86,3.13.31,6.67,2.36,9.05,1.34,1.56,3.23,2.05,5.1,2.75-.27-1.63-.41-3.55-1.03-5.11-.28-.71-.95-.88-1.48-1.17-.56-.3-.33-1.15.31-1.15h0c-.44-2.22-1.57-1.94-3.48-1.73-.4.04-.68-.39-.47-.74.95-1.56,1.72-1.8,3.67-.83h0Z"/>
      <path d="M3588.65,287.38c1.26,5.92,3.12,10.95,5.5,16.53,2.24-4.25,2.85-8.93,5.24-13.23-3.58-1.1-7.16-2.2-10.74-3.3Z"/>
      <path d="M3637.68,225c-4.56-3.09-9.55-5.53-14.06-8.68-1.89-1.33-6.07-3.77-8.56-6.23-.61-.59.14-1.58.88-1.14,7.84,4.64,16.52,11.56,25.04,14.53-4.29-2.76-8.62-5.45-12.85-8.3-13.27-12.25-19.99-13.23-46.1,8.85,5.5-2.94,16.59-10.17,24.44-14.73,1.04-.61,2.12.74,1.29,1.61-3.3,3.47-8.62,5.85-9.78,6.75-5.47,4.19-13.94,5.5-13.74,13.66.54,22.46,23.96,40.51,43.79,24.93,8.22-6.45,10.37-15.45,11.57-25.62.19-1.67-.26-4.51-1.92-5.64ZM3589.75,227.33c.31-2.46,4.01-3.82,7.24-3.7,2.51.09,4.75,1.08,4.88,3.15-4.56-.27-7.88-.67-12.12.55ZM3626.78,223.58c.35-.02.71-.02,1.07,0,2.86.13,5.69,1.38,5.69,3.47-3.84-1.05-7.62-.53-11.56-.28.11-2.06,2.33-3.07,4.8-3.2Z"/>
      <path d="M3726.09,273.6c-2.48,10.05-4.14,20.34-7.43,30.16-3.98,11.86-11.26,22.57-14.32,34.71-1.41,5.59-1.18,11.47-.54,17.26,6.73-1.8,13.26-4.09,19.55-6.84-.35-.63-.54-1.36-.51-2.15,1.02-22.89,1.63-36.65,3.25-73.13h0ZM3710.49,342.6c-2.79,2.8-7.07-1.57-4.24-4.26.72-.68,1.53-.95,2.3-.91,2.31.11,4.21,2.9,1.93,5.18h0Z"/>
      <path d="M3745.19,254.62c-.11-.3-.41-.48-.69-.35-.37.18-.72.49-.5,1.15,1.31,3.91,2.81,7.75,4.16,11.64,1.17,3.76.08,5.47-3.24,7.29-.37.2-3.84,2.09-5.31,2.69-.29.12-.46.41-.41.72,0,.04.02.09.02.14.07.59.71.9,1.26.64,5.05-2.37,11.67-4.54,9.7-10.74-1.02-2.66-4.35-11.42-4.99-13.18Z"/>
      <path d="M3671.53,277.77s-.02.09-.02.14c-.07.59-.71.9-1.26.64-3.8-1.78-8.49-3.45-9.73-6.82.58-.33,1.16-.66,1.73-1,.38,1.48,1.57,2.54,3.56,3.63.37.2,3.84,2.09,5.31,2.69.29.12.46.41.41.72h0Z"/>
      <path d="M3701.2,338.57c.67-3.71,2.23-5.88,1.85-9.35-.58-5.28-4.73-9.5-6.98-14.3-3.72-7.91-6.14-14.27-8.33-22.69-1.62-6.23-2.87-12.54-4.34-18.8-.23-1-.24-2.32-1.1-2.86.87,8.43,1.9,16.84,2.6,25.29.93,11.27-.09,22.85,2.63,33.83.52,2.11,1.5,4.1,2.45,6.06,2.66,5.48,5.29,10.99,8.21,16.33.94,1.71.71,3.66-.31,5.09,1.35-.29,2.69-.61,4.01-.95-.01-.04-.03-.08-.04-.13-.98-5.77-1.71-11.74-.66-17.52h0Z"/>
      <path d="M3747.95,291.78c-3.11-2.04-9.48-5.74-11.33-6.71-.19-.1-.43-.04-.55.14,0,0,0,0,0,.01-.16.23-.06.54.21.64,2.08.72,7.33,4.28,9.73,6.25.76.62,1.05,1.64.74,2.57-1.13,3.36-6.28,18.52-7.4,21.97-.54,1.65-1.98,6.81-2.73,10.13-.13.58.69.85.92.3,1.42-3.39,3.27-8.86,3.77-10.37.79-2.35,1.73-4.64,2.41-7.02.41-1.41,4.52-12.89,5.24-15.03.36-1.07-.06-2.25-1.01-2.87h0Z"/>
      <path d="M3660.45,291.78c3.11-2.04,9.48-5.74,11.33-6.71.19-.1.43-.04.55.14,0,0,0,0,0,.01.16.23.06.54-.21.64-2.08.72-7.33,4.28-9.73,6.25-.76.62-1.05,1.64-.74,2.57,1.13,3.36,6.28,18.52,7.4,21.97.54,1.65,1.98,6.81,2.73,10.13.13.58-.69.85-.92.3-1.42-3.39-3.27-8.86-3.77-10.37-.79-2.35-1.73-4.64-2.41-7.02-.41-1.41-4.52-12.89-5.24-15.03-.36-1.07.06-2.25,1.01-2.87h0Z"/>
      <path d="M3727.14,239.58c-.28-1-1.81-.66-1.68.37.24,2.05.49,4.14-.64,5.69-3.02,7.17-13.65,4.79-10.07,12.97.34.77.38,1.66.04,2.43-.46,1.03-1.09,1.16-1.63,1.01-.66-.18-1.12-.76-1.25-1.42-.25-1.32-.78-4.13-1.15-6.38-.22-1.37.52-2.73,1.81-3.27,3.32-1.41,7.51-1.99,8.73-5.16,1.81-4.73.53-10.13.39-15.19-6.56,6.56-17.47,10.15-26.31,5.84-3.16-1.55-5.97-3.71-8.95-5.56-.18,4.48-2.21,9.52-.04,13.44,2.53,4.6,10.66,3.95,11.55,9.35.29,1.75-.1,3.55-.34,5.3-.11.79-.18,1.32-.28,1.72-.28,1.2-1.89,1.4-2.44.29v-.02c-.39-.76-.32-1.66.15-2.36.98-1.47,1.15-3.75.32-5.28-1.42-2.61-5.21-2.88-7.68-4.55-3.31-2.23-4.32-4.53-4.66-7.66-.09-.88-1.36-.91-1.51-.04-2.02,11.81,10.38,55.61,20.8,79.72,1.18,2.72,5.05,2.7,6.17-.06,10.36-25.56,18.78-69.29,18.81-69.71.26-3.32.18-6.64.05-9.96-.02-.58-.07-1.09-.19-1.52h0ZM3719.99,264.2c-4.06,1.81-8.24,3.33-12.36,5,2.52.84,4.02,1.07,6.08,2.54,5.02,3.57,1.6,7.86-1.79,4.18-.37-.4.12-1.01.58-.73,3.66,2.13,2.9-2.18-3.09-3.82-.41-.11-.77.28-.63.68,1.94,5.35,4.8,11.97,3.64,17.78-.36,1.81-4.79,4.48-5.06,1.56-.39-4.23-.58-8.47-.69-12.71-.08-3.31,1.2-4.53-.66-6.78-2.04-2.46-4.48,2.57-4.98,3.78-2.38,5.77-3.6,12.11-2.42,18.18.24,1.25-1.59,1.67-1.93.45-.16-.57-.21-1.25-.2-1.94.08-6.83.73-14.07,4.19-20.07.11-.2-.08-.43-.3-.35-2.82,1.12-3.34,1.1-5.96,2.44-1.4.71-1.92.36-1.58.02,1.47-1.93,5.61-3.41,9.3-5.2-3.45-1.54-6.93-3.01-10.35-4.62-3.01-1.42-5.63-2.31-5.63-5.84,1.39,1.36,2.85,3.04,4.69,3.85,4.62,2.05,9.34,4.11,14.32,4.96,1.26.22,3.92-1.36,4.41-1.55,3.1-1.16,9-4.24,12.67-4.24-.61,1.37-.51,1.66-2.24,2.44h0Z"/>
      <path d="M3621.24,301c1.43.88,2.69,1.52,4.31,1.52-1.48-7.37-3.85-12.29-11.02-15.42,1.33,9.18-3.03,7.89,6.7,13.9Z"/>
      <path d="M3610.96,273.88c2.94-3.12,4.75-3.25,7.98-.55,4.06-6.35,4.83-1.66,4.14-11.29-8.45,3.72-13.98,2.8-22.59,0-.11,1.79-.27,3.57-.33,5.36-.07,2.36,2.02,3.22,2.81,5.38,3.86-2.62,4.69-2.1,7.99,1.1h0Z"/>
      <path d="M3639.88,243.58c2.32-.5,3.41-.44,4.89-2.17,1.71-2,3.47-4.62,2.89-7.33-.49-2.27-1.89-3.65-3.25-3.66-1.05,0-2.07.82-2.6,2.69,1.77-.88,2.69-.41,3.47.92.18.31-.06.71-.42.68-.63-.06-1.17-.12-1.62-.12-1.09,0-1.69.37-1.98,2.11.62,0,.99.68.67,1.2-1.21,1.97-1.55,2.25-2.04,5.69h0Z"/>
      <path d="M3610.13,286c-1.4.13,0,2.8.03,4.2.16,7.99,7.15-4.89-.03-4.2Z"/>
      <path d="M3615.91,198.13c7.48,6.57,14.53,12.26,23.42,16.81-7.99-5.34-15.8-10.95-23.42-16.81Z"/>
      <path d="M3606.15,323.82c1.85,1.85,3.74.68,5.99,1.42.89.29,2.16,1.38,2.72.64,3.56-4.63,4.76-10.82,8.48-15.36-8.45-.09-16.89-.19-25.34-.28,1.81,3.26,4.86,10.31,8.14,13.58h0ZM3609.99,313.27c.31-.09.6-.14.88-.17,4.26-.4,6.18,5.94,1.32,7.41-5.19,1.55-7.17-5.77-2.21-7.23Z"/>
      <path d="M3611.23,296.19c-2.05,3.74-6.08,6.24-9.95,7.78-1.9.75-4.34.76-5.67,2.3,3.42,1.76,9.36,1.37,12.68,1.38,3.37.01,6.75-.06,10.12-.14,2.33-.06,6.08.39,7.42-1.95-3.1-1.25-5.15-1.86-7.84-3.64-2.69-1.78-4.26-4.09-6.75-5.73h0Z"/>
      <path d="M3597.46,302.25c2.22,0,4.55-1.29,6.33-2.48,5.79-3.86,6.07-6.17,4.13-12.8-6.53,1.72-8.68,9.94-10.46,15.28Z"/>
      <path d="M3708.29,289.67c-.04,4.11,3.39.49,3.54-1.82-.03-4.5-1.56-11.21-3.39-12.66-1.45-.86-.51,8.83-.19,12.64.05.62.06,1.23.04,1.85h0Z"/>
      <path d="M3669.88,265.95c-2.5,1.67-5.05,3.26-7.63,4.78-.57.34-1.15.67-1.73,1-12.31,6.99-25.55,12.25-39.37,16.06-.08-.43-.59-1.06-.22-1.3,6.15-4.09,12.94-7.14,19.09-11.23,3.86-2.57,7.46-5.53,11.09-8.43.25-.21-.02-.59-.3-.42-9.98,6.19-11.29,7-23.6,14.64,6.62-6.54,14.32-11.88,19.71-19.8.39-.58-.38-1.23-.89-.76-8.59,8.06-15.59,15.66-21.38,21.16-1.89,1.81-4.36,2.9-6.54,4.34,8.18-10.2,16.68-20.16,24.54-30.61,2.95-3.92,5.63-8.04,7.83-12.44.68-1.35,1.22-2.9.96-4.36-.87-4.88-2.66-9.57-4.55-14.15-2.3-5.58-7.68-17.08-13.61-29.34-9.51-19.66-37.82-18.92-46.26,1.22-3.41,8.14-6.55,16.37-9.57,24.51-2.16,5.83-4.6,11.67-5.46,17.82-.29,2.05,1.11,4.04,2.14,5.84,2.84,4.99,6.02,9.81,9.42,14.44,6.77,9.21,14.04,18.04,21.07,27.06-2.41-.53-4.67-1.97-6.4-3.74-7.64-7.76-15-15.79-22.48-23.71-.18-.18-.47.04-.34.26,1.56,2.62,4.42,6.7,4.71,7.05,4.2,4.97,8.81,9.57,13.22,14.35-12.56-8.06-13.06-8.38-24.66-15.82-.11-.07-.23.08-.13.17,4.4,3.68,8.61,7.62,13.35,10.83,6.45,4.37,13.5,7.81,20.25,11.71-.59.32-1.13,1.13-1.79.97-5.21-1.34-10.27-3.3-15.25-5.34-11.26-4.61-27.02-12.08-37.21-19.04-1.83-1.25-2.82-3.61-2.55-5.81.69-5.38,2.42-9.1,5.06-13.84,8.89-15.96,18.11-31.72,27.6-47.33,1.3-2.13,2.96-4.8,4.86-7.79,13.2-20.74,43.49-20.55,56.49.32,12.36,19.83,23.78,40.28,34.55,60.96,2.86,5.5,1.15,12.3-4.01,15.75Z"/>
      <path d="M3633.13,287.38c-.39-.04-.78-.04-1.16,0-2.69.25-5.19,2.12-7.79,3.03,1.85,3.79,3.07,7.2,4.13,11.29,1.69-4.38,3.4-8.74,5.07-13.12.08-.22.43-1.13-.25-1.2Z"/>
      <path d="M3604.07,200.47c-6.17,4.91-12.5,9.23-19.01,13.91,4.7-2.01,8.5-5.13,12.43-8.33,2.23-1.82,5.51-2.91,6.58-5.58Z"/>
      <path d="M3688.64,211.93c1.65,4.39,8.91,5.67,12.66,6.34,7.08,1.28,17.29-1.66,21-8.3.32-.57-.12-1.29-.77-1.24,0,0-.01,0-.02,0-1.46.12-3.36,1.24-4.5,1.45-4.12.77-8.27,1.32-12.41,1.99.68,1.9,1.57,2.74,3.05,3.57.38.22.29.79-.14.87-1.9.37-3.9.26-5.86.23-.4,0-.59-.49-.31-.76,1.47-1.41,4.04-4.23,1.88-4.33-2.4-.11-4.8.08-7.2,0-2.04-.07-4.06-.38-6.09-.44-.48-.02-1.47.16-1.3.61h0Z"/>
      <path d="M3727.41,154.88c0-6.52-5.29-11.81-11.81-11.81h-26.62c-6.52,0-11.81,5.29-11.81,11.81l-.25,6.24h.81c.15-.06.31-.09.48-.09h47.93c.13,0,.24.04.36.09h.98l-.07-6.24h0Z"/>
      <path d="M3759.85,173.75c-6.77-1.73-17.2-3.56-32.28-4.23v.06-.06c-.08,0-.16,0-.24-.01h-49.12c-.12,0-.22-.02-.33-.05h-2.72c-11.21.91-19.8,2.5-25.96,4.01-4.3,1.06-4.81,5.3-.57,6.6,1,.31,2.95.62,3.54.7,1.55.21,3.64.62,6.18,1.09,5.61.19,13.28.31,21.91.73,17.86.89,39.07.19,50.71.19,3.36,0,9.23.18,10.84,0,7.38-.84,13.35-1.85,17.88-2.76,3.36-.68,3.47-5.43.16-6.28h0Z"/>
    </g>
    <path d="M3791.71,242.05l-10.51-.72c-1.42-.1-2.65.97-2.75,2.39l-.34,4.98c-.24,3.5-3.27,6.13-6.76,5.89h0c-3.5-.24-6.13-3.27-5.89-6.76l.34-4.98c.1-1.42-.97-2.65-2.39-2.75l-10.51-.72c-1.57-.11-2.67-1.58-2.34-3.12l6.33-28.93c.12-.52.87-.48.92.06l1.9,19.63c.12,1.25,1.13,2.23,2.38,2.32l3.4.23c1.19.08,2.28-.66,2.64-1.8l5.89-18.84c.14-.47.83-.42.91.06l3.26,19.46c.19,1.17,1.17,2.06,2.36,2.14l3.4.23c1.26.09,2.39-.75,2.68-1.97l4.57-19.19c.12-.52.88-.46.92.07l2.32,29.52c.12,1.57-1.17,2.88-2.74,2.77h0Z"/>
  </g>
</svg>